G04*
G04 #@! TF.GenerationSoftware,Altium Limited,Altium Designer,22.8.2 (66)*
G04*
G04 Layer_Color=32768*
%FSLAX44Y44*%
%MOMM*%
G71*
G04*
G04 #@! TF.SameCoordinates,E765EAFB-E956-432D-8013-76C00557599A*
G04*
G04*
G04 #@! TF.FilePolarity,Positive*
G04*
G01*
G75*
%ADD64C,0.1524*%
%ADD69C,0.1000*%
%ADD70C,0.0500*%
G36*
X789432Y252349D02*
X254508D01*
Y503301D01*
X789432D01*
Y252349D01*
D02*
G37*
D64*
X606740Y313294D02*
Y320194D01*
X610390D01*
Y371474D01*
X606740D02*
X610390D01*
X606740D02*
Y378374D01*
X599840D02*
X606740D01*
X599840D02*
Y382024D01*
X548560D02*
X599840D01*
X548560Y378374D02*
Y382024D01*
X541660Y378374D02*
X548560D01*
X541660Y371474D02*
Y378374D01*
X538010Y371474D02*
X541660D01*
X538010Y320194D02*
Y371474D01*
Y320194D02*
X541660D01*
Y313294D02*
Y320194D01*
Y313294D02*
X548560D01*
Y309644D02*
Y313294D01*
Y309644D02*
X599840D01*
Y313294D01*
X606740D01*
X300962Y425831D02*
Y483997D01*
X366042D01*
Y425831D02*
Y483997D01*
X300962Y425831D02*
X366042D01*
X789432Y252349D02*
Y503301D01*
X254508D02*
X789432D01*
X254508Y252349D02*
Y503301D01*
Y252349D02*
X789432D01*
D69*
X582702Y463688D02*
Y468888D01*
X580102Y466288D02*
X585302D01*
X454406Y348310D02*
Y357810D01*
X449656Y353060D02*
X459156D01*
X509972Y381762D02*
X515172D01*
X512572Y379162D02*
Y384362D01*
X489122Y357318D02*
Y362518D01*
X486522Y359918D02*
X491722D01*
X576130Y417918D02*
Y428918D01*
X551630Y417918D02*
Y428918D01*
Y417918D02*
X576130D01*
X551630Y428918D02*
X576130D01*
X561130Y423418D02*
X566630D01*
X563880Y420668D02*
Y426168D01*
X581856Y417918D02*
Y428918D01*
X606356Y417918D02*
Y428918D01*
X581856D02*
X606356D01*
X581856Y417918D02*
X606356D01*
X591356Y423418D02*
X596856D01*
X594106Y420668D02*
Y426168D01*
X477310Y268224D02*
X482810D01*
X480060Y265474D02*
Y270974D01*
X485560Y255974D02*
Y280474D01*
X474560Y255974D02*
Y280474D01*
X485560D01*
X474560Y255974D02*
X485560D01*
X614260Y286454D02*
X625260D01*
X614260Y310954D02*
X625260D01*
X614260Y286454D02*
Y310954D01*
X625260Y286454D02*
Y310954D01*
X619760Y295954D02*
Y301454D01*
X617010Y298704D02*
X622510D01*
X678990Y335534D02*
X684990D01*
X681990Y332534D02*
Y338534D01*
X645970Y335534D02*
X651970D01*
X648970Y332534D02*
Y338534D01*
X460590Y255974D02*
X471590D01*
X460590Y280474D02*
X471590D01*
X460590Y255974D02*
Y280474D01*
X471590Y255974D02*
Y280474D01*
X466090Y265474D02*
Y270974D01*
X463340Y268224D02*
X468840D01*
X508508Y348202D02*
Y357702D01*
X503758Y352952D02*
X513258D01*
X492192Y408686D02*
X497392D01*
X494792Y406086D02*
Y411286D01*
X480000Y417830D02*
X485200D01*
X482600Y415230D02*
Y420430D01*
X458470Y364430D02*
Y369630D01*
X455870Y367030D02*
X461070D01*
X544830Y387544D02*
Y392744D01*
X542230Y390144D02*
X547430D01*
X702220Y332934D02*
Y338134D01*
X699620Y335534D02*
X704820D01*
X665480Y336744D02*
Y341944D01*
X662880Y339344D02*
X668080D01*
X632460Y336834D02*
Y342034D01*
X629860Y339434D02*
X635060D01*
X632460Y355794D02*
Y360994D01*
X629860Y358394D02*
X635060D01*
X629860Y319024D02*
X635060D01*
X632460Y316424D02*
Y321624D01*
X619760Y348174D02*
Y353374D01*
X617160Y350774D02*
X622360D01*
X617160Y322834D02*
X622360D01*
X619760Y320234D02*
Y325434D01*
X529590Y328534D02*
Y333734D01*
X526990Y331134D02*
X532190D01*
X511810Y329124D02*
Y334324D01*
X509210Y331724D02*
X514410D01*
X526990Y372364D02*
X532190D01*
X529590Y369764D02*
Y374964D01*
X526990Y352044D02*
X532190D01*
X529590Y349444D02*
Y354644D01*
X750227Y350431D02*
X754469Y354673D01*
X750227Y354673D02*
X754469Y350431D01*
X744668Y338775D02*
X748344Y342453D01*
X744668D02*
X748344Y338775D01*
X723392Y329124D02*
Y334324D01*
X720792Y331724D02*
X725992D01*
X407924Y379266D02*
Y384766D01*
X405174Y382016D02*
X410674D01*
X392176Y418414D02*
Y427914D01*
X387426Y423164D02*
X396926D01*
X427570Y256228D02*
X438570D01*
X427570Y280728D02*
X438570D01*
X427570Y256228D02*
Y280728D01*
X438570Y256228D02*
Y280728D01*
X433070Y265728D02*
Y271228D01*
X430320Y268478D02*
X435820D01*
X378040Y256228D02*
X389040D01*
X378040Y280728D02*
X389040D01*
X378040Y256228D02*
Y280728D01*
X389040Y256228D02*
Y280728D01*
X383540Y265728D02*
Y271228D01*
X380790Y268478D02*
X386290D01*
X356108Y307420D02*
Y317420D01*
X351108Y312420D02*
X361108D01*
X413600Y256228D02*
X424600D01*
X413600Y280728D02*
X424600D01*
X413600Y256228D02*
Y280728D01*
X424600Y256228D02*
Y280728D01*
X419100Y265728D02*
Y271228D01*
X416350Y268478D02*
X421850D01*
X364070Y256228D02*
X375070D01*
X364070Y280728D02*
X375070D01*
X364070Y256228D02*
Y280728D01*
X375070Y256228D02*
Y280728D01*
X369570Y265728D02*
Y271228D01*
X366820Y268478D02*
X372320D01*
X403546Y419100D02*
X408746D01*
X406146Y416500D02*
Y421700D01*
X327228Y331216D02*
X336728D01*
X331978Y326466D02*
Y335966D01*
X310642Y308940D02*
Y318440D01*
X305892Y313690D02*
X315392D01*
D70*
X573202Y461288D02*
X592202D01*
X573202Y471288D02*
X592202D01*
Y461288D02*
Y471288D01*
X573202Y461288D02*
Y471288D01*
X440906Y345560D02*
X467906D01*
X440906Y360560D02*
X467906D01*
Y345560D02*
Y360560D01*
X440906Y345560D02*
Y360560D01*
X517572Y372262D02*
Y391262D01*
X507572Y372262D02*
Y391262D01*
X517572D01*
X507572Y372262D02*
X517572D01*
X479622Y364918D02*
X498622D01*
X479622Y354918D02*
X498622D01*
X479622D02*
Y364918D01*
X498622Y354918D02*
Y364918D01*
X412272Y371766D02*
X478273D01*
Y437766D01*
X412272D02*
X478273D01*
X412272Y371766D02*
Y437766D01*
X689990Y331534D02*
Y339534D01*
X673990Y331534D02*
Y339534D01*
Y331534D02*
X689990D01*
X673990Y339534D02*
X689990D01*
X656970Y331534D02*
Y339534D01*
X640970Y331534D02*
Y339534D01*
Y331534D02*
X656970D01*
X640970Y339534D02*
X656970D01*
X501008Y366452D02*
X516008D01*
X501008Y339452D02*
X516008D01*
Y366452D01*
X501008Y339452D02*
Y366452D01*
X499792Y399186D02*
Y418186D01*
X489792Y399186D02*
Y418186D01*
X499792D01*
X489792Y399186D02*
X499792D01*
X477600Y408330D02*
Y427330D01*
X487600Y408330D02*
Y427330D01*
X477600Y408330D02*
X487600D01*
X477600Y427330D02*
X487600D01*
X448970Y362030D02*
X467970D01*
X448970Y372030D02*
X467970D01*
Y362030D02*
Y372030D01*
X448970Y362030D02*
Y372030D01*
X535330Y385144D02*
X554330D01*
X535330Y395144D02*
X554330D01*
Y385144D02*
Y395144D01*
X535330Y385144D02*
Y395144D01*
X694220Y339534D02*
X710220D01*
X694220Y331534D02*
X710220D01*
X694220D02*
Y339534D01*
X710220Y331534D02*
Y339534D01*
X661480Y347344D02*
X669480D01*
X661480Y331344D02*
X669480D01*
Y347344D01*
X661480Y331344D02*
Y347344D01*
X628460Y347434D02*
X636460D01*
X628460Y331434D02*
X636460D01*
Y347434D01*
X628460Y331434D02*
Y347434D01*
X627460Y367894D02*
X637460D01*
X627460Y348894D02*
X637460D01*
Y367894D01*
X627460Y348894D02*
Y367894D01*
Y309524D02*
Y328524D01*
X637460Y309524D02*
Y328524D01*
X627460Y309524D02*
X637460D01*
X627460Y328524D02*
X637460D01*
X614760Y360274D02*
X624760D01*
X614760Y341274D02*
X624760D01*
Y360274D01*
X614760Y341274D02*
Y360274D01*
Y313334D02*
Y332334D01*
X624760Y313334D02*
Y332334D01*
X614760Y313334D02*
X624760D01*
X614760Y332334D02*
X624760D01*
X524590Y321634D02*
X534590D01*
X524590Y340634D02*
X534590D01*
X524590Y321634D02*
Y340634D01*
X534590Y321634D02*
Y340634D01*
X502310Y326724D02*
X521310D01*
X502310Y336724D02*
X521310D01*
Y326724D02*
Y336724D01*
X502310Y326724D02*
Y336724D01*
X524590Y362864D02*
Y381864D01*
X534590Y362864D02*
Y381864D01*
X524590Y362864D02*
X534590D01*
X524590Y381864D02*
X534590D01*
X524590Y342544D02*
Y361544D01*
X534590Y342544D02*
Y361544D01*
X524590Y342544D02*
X534590D01*
X524590Y361544D02*
X534590D01*
X749520Y361037D02*
X760833Y349724D01*
X743863Y355380D02*
X755176Y344067D01*
X743863Y355380D02*
X749520Y361037D01*
X755176Y344067D02*
X760833Y349724D01*
X749334Y349099D02*
X754991Y343442D01*
X738021Y337786D02*
X743678Y332129D01*
X754991Y343442D01*
X738021Y337786D02*
X749334Y349099D01*
X719392Y323724D02*
X727392D01*
X719392Y339724D02*
X727392D01*
X719392Y323724D02*
Y339724D01*
X727392Y323724D02*
Y339724D01*
X401924Y371016D02*
X413924D01*
X401924Y393016D02*
X413924D01*
X401924Y371016D02*
Y393016D01*
X413924Y371016D02*
Y393016D01*
X384676Y409664D02*
X399676D01*
X384676Y436664D02*
X399676D01*
X384676Y409664D02*
Y436664D01*
X399676Y409664D02*
Y436664D01*
X344608Y297420D02*
X367608D01*
X344608Y327420D02*
X367608D01*
X344608Y297420D02*
Y327420D01*
X367608Y297420D02*
Y327420D01*
X401146Y409600D02*
Y428600D01*
X411146Y409600D02*
Y428600D01*
X401146Y409600D02*
X411146D01*
X401146Y428600D02*
X411146D01*
X318478Y323716D02*
Y338716D01*
X345478Y323716D02*
Y338716D01*
X318478D02*
X345478D01*
X318478Y323716D02*
X345478D01*
X303142Y327190D02*
X318142D01*
X303142Y300190D02*
X318142D01*
Y327190D01*
X303142Y300190D02*
Y327190D01*
M02*
