G04*
G04 #@! TF.GenerationSoftware,Altium Limited,Altium Designer,22.8.2 (66)*
G04*
G04 Layer_Color=16711935*
%FSLAX44Y44*%
%MOMM*%
G71*
G04*
G04 #@! TF.SameCoordinates,E765EAFB-E956-432D-8013-76C00557599A*
G04*
G04*
G04 #@! TF.FilePolarity,Positive*
G04*
G01*
G75*
%ADD11C,0.2000*%
G36*
X312928Y424561D02*
Y485267D01*
X354076D01*
Y424561D01*
X312928D01*
D02*
G37*
G36*
X536740Y308374D02*
Y383294D01*
X611660D01*
Y308374D01*
X536740D01*
D02*
G37*
D11*
X724016Y405030D02*
X785816D01*
Y258280D02*
Y405030D01*
X724016Y258280D02*
X785816D01*
X724016D02*
Y405030D01*
X478370Y370080D02*
Y391080D01*
Y370080D02*
X503370D01*
Y391080D01*
X478370D02*
X503370D01*
X567620Y457754D02*
X590620D01*
X567620Y431754D02*
Y457754D01*
Y431754D02*
X590620D01*
Y457754D01*
X586940Y283886D02*
Y304886D01*
Y283886D02*
X611940D01*
Y304886D01*
X586940D02*
X611940D01*
X517480Y304072D02*
X528794Y315386D01*
X517480Y304072D02*
X534450Y287102D01*
X545764Y298416D01*
X528794Y315386D02*
X545764Y298416D01*
X321478Y298380D02*
Y321380D01*
Y298380D02*
X342478D01*
Y321380D01*
X321478D02*
X342478D01*
M02*
