G04*
G04 #@! TF.GenerationSoftware,Altium Limited,Altium Designer,22.8.2 (66)*
G04*
G04 Layer_Color=32768*
%FSLAX44Y44*%
%MOMM*%
G71*
G04*
G04 #@! TF.SameCoordinates,468F8AB8-D0D1-42F9-A28A-8A06B6F8ABAF*
G04*
G04*
G04 #@! TF.FilePolarity,Positive*
G04*
G01*
G75*
%ADD15C,0.1524*%
%ADD61C,0.1000*%
%ADD63C,0.0500*%
G36*
X789178Y252095D02*
X254254D01*
Y503047D01*
X789178D01*
Y252095D01*
D02*
G37*
D15*
X254254D02*
X789178D01*
X254254D02*
Y503047D01*
X789178D01*
Y252095D02*
Y503047D01*
X605470Y286370D02*
Y293270D01*
X609120D01*
Y344550D01*
X605470D02*
X609120D01*
X605470D02*
Y351450D01*
X598570D02*
X605470D01*
X598570D02*
Y355100D01*
X547290D02*
X598570D01*
X547290Y351450D02*
Y355100D01*
X540390Y351450D02*
X547290D01*
X540390Y344550D02*
Y351450D01*
X536740Y344550D02*
X540390D01*
X536740Y293270D02*
Y344550D01*
Y293270D02*
X540390D01*
Y286370D02*
Y293270D01*
Y286370D02*
X547290D01*
Y282720D02*
Y286370D01*
Y282720D02*
X598570D01*
Y286370D01*
X605470D01*
X300962Y425831D02*
Y483997D01*
X366042D01*
Y425831D02*
Y483997D01*
X300962Y425831D02*
X366042D01*
D61*
X454406Y348310D02*
Y357810D01*
X449656Y353060D02*
X459156D01*
X581432Y436764D02*
Y441964D01*
X578832Y439364D02*
X584032D01*
X392176Y418414D02*
Y427914D01*
X387426Y423164D02*
X396926D01*
X508702Y381000D02*
X513902D01*
X511302Y378400D02*
Y383600D01*
X490220Y358842D02*
Y364042D01*
X487620Y361442D02*
X492820D01*
X700950Y306010D02*
Y311210D01*
X698350Y308610D02*
X703550D01*
X664210Y309820D02*
Y315020D01*
X661610Y312420D02*
X666810D01*
X677720Y308610D02*
X683720D01*
X680720Y305610D02*
Y311610D01*
X644700Y308610D02*
X650700D01*
X647700Y305610D02*
Y311610D01*
X631190Y309910D02*
Y315110D01*
X628590Y312510D02*
X633790D01*
X631190Y328870D02*
Y334070D01*
X628590Y331470D02*
X633790D01*
X477310Y268224D02*
X482810D01*
X480060Y265474D02*
Y270974D01*
X485560Y255974D02*
Y280474D01*
X474560Y255974D02*
Y280474D01*
X485560D01*
X474560Y255974D02*
X485560D01*
X580586Y390994D02*
Y401994D01*
X605086Y390994D02*
Y401994D01*
X580586D02*
X605086D01*
X580586Y390994D02*
X605086D01*
X590086Y396494D02*
X595586D01*
X592836Y393744D02*
Y399244D01*
X574860Y390994D02*
Y401994D01*
X550360Y390994D02*
Y401994D01*
Y390994D02*
X574860D01*
X550360Y401994D02*
X574860D01*
X559860Y396494D02*
X565360D01*
X562610Y393744D02*
Y399244D01*
X618490Y321250D02*
Y326450D01*
X615890Y323850D02*
X621090D01*
X327228Y331216D02*
X336728D01*
X331978Y326466D02*
Y335966D01*
X310642Y308940D02*
Y318440D01*
X305892Y313690D02*
X315392D01*
X356108Y307420D02*
Y317420D01*
X351108Y312420D02*
X361108D01*
X528320Y301610D02*
Y306810D01*
X525720Y304210D02*
X530920D01*
X492192Y408686D02*
X497392D01*
X494792Y406086D02*
Y411286D01*
X480000Y417830D02*
X485200D01*
X482600Y415230D02*
Y420430D01*
X403546Y419100D02*
X408746D01*
X406146Y416500D02*
Y421700D01*
X458470Y364430D02*
Y369630D01*
X455870Y367030D02*
X461070D01*
X364070Y256228D02*
X375070D01*
X364070Y280728D02*
X375070D01*
X364070Y256228D02*
Y280728D01*
X375070Y256228D02*
Y280728D01*
X369570Y265728D02*
Y271228D01*
X366820Y268478D02*
X372320D01*
X413600Y256228D02*
X424600D01*
X413600Y280728D02*
X424600D01*
X413600Y256228D02*
Y280728D01*
X424600Y256228D02*
Y280728D01*
X419100Y265728D02*
Y271228D01*
X416350Y268478D02*
X421850D01*
X378040Y256228D02*
X389040D01*
X378040Y280728D02*
X389040D01*
X378040Y256228D02*
Y280728D01*
X389040Y256228D02*
Y280728D01*
X383540Y265728D02*
Y271228D01*
X380790Y268478D02*
X386290D01*
X460590Y255974D02*
X471590D01*
X460590Y280474D02*
X471590D01*
X460590Y255974D02*
Y280474D01*
X471590Y255974D02*
Y280474D01*
X466090Y265474D02*
Y270974D01*
X463340Y268224D02*
X468840D01*
X427570Y256228D02*
X438570D01*
X427570Y280728D02*
X438570D01*
X427570Y256228D02*
Y280728D01*
X438570Y256228D02*
Y280728D01*
X433070Y265728D02*
Y271228D01*
X430320Y268478D02*
X435820D01*
X612990Y259530D02*
X623990D01*
X612990Y284030D02*
X623990D01*
X612990Y259530D02*
Y284030D01*
X623990Y259530D02*
Y284030D01*
X618490Y269030D02*
Y274530D01*
X615740Y271780D02*
X621240D01*
X543560Y360620D02*
Y365820D01*
X540960Y363220D02*
X546160D01*
X628590Y292100D02*
X633790D01*
X631190Y289500D02*
Y294700D01*
X615890Y295910D02*
X621090D01*
X618490Y293310D02*
Y298510D01*
X507238Y321278D02*
Y330778D01*
X502488Y326028D02*
X511988D01*
X510540Y302200D02*
Y307400D01*
X507940Y304800D02*
X513140D01*
X525720Y345440D02*
X530920D01*
X528320Y342840D02*
Y348040D01*
X525720Y325120D02*
X530920D01*
X528320Y322520D02*
Y327720D01*
D63*
X440906Y345560D02*
X467906D01*
X440906Y360560D02*
X467906D01*
Y345560D02*
Y360560D01*
X440906Y345560D02*
Y360560D01*
X571932Y434364D02*
X590932D01*
X571932Y444364D02*
X590932D01*
Y434364D02*
Y444364D01*
X571932Y434364D02*
Y444364D01*
X412272Y371766D02*
X478273D01*
Y437766D01*
X412272D02*
X478273D01*
X412272Y371766D02*
Y437766D01*
X384676Y409664D02*
X399676D01*
X384676Y436664D02*
X399676D01*
X384676Y409664D02*
Y436664D01*
X399676Y409664D02*
Y436664D01*
X516302Y371500D02*
Y390500D01*
X506302Y371500D02*
Y390500D01*
X516302D01*
X506302Y371500D02*
X516302D01*
X480720Y366442D02*
X499720D01*
X480720Y356442D02*
X499720D01*
X480720D02*
Y366442D01*
X499720Y356442D02*
Y366442D01*
X692950Y312610D02*
X708950D01*
X692950Y304610D02*
X708950D01*
X692950D02*
Y312610D01*
X708950Y304610D02*
Y312610D01*
X660210Y320420D02*
X668210D01*
X660210Y304420D02*
X668210D01*
Y320420D01*
X660210Y304420D02*
Y320420D01*
X688720Y304610D02*
Y312610D01*
X672720Y304610D02*
Y312610D01*
Y304610D02*
X688720D01*
X672720Y312610D02*
X688720D01*
X655700Y304610D02*
Y312610D01*
X639700Y304610D02*
Y312610D01*
Y304610D02*
X655700D01*
X639700Y312610D02*
X655700D01*
X627190Y320510D02*
X635190D01*
X627190Y304510D02*
X635190D01*
Y320510D01*
X627190Y304510D02*
Y320510D01*
X626190Y340970D02*
X636190D01*
X626190Y321970D02*
X636190D01*
Y340970D01*
X626190Y321970D02*
Y340970D01*
X613490Y333350D02*
X623490D01*
X613490Y314350D02*
X623490D01*
Y333350D01*
X613490Y314350D02*
Y333350D01*
X318478Y323716D02*
Y338716D01*
X345478Y323716D02*
Y338716D01*
X318478D02*
X345478D01*
X318478Y323716D02*
X345478D01*
X303142Y327190D02*
X318142D01*
X303142Y300190D02*
X318142D01*
Y327190D01*
X303142Y300190D02*
Y327190D01*
X344608Y297420D02*
X367608D01*
X344608Y327420D02*
X367608D01*
X344608Y297420D02*
Y327420D01*
X367608Y297420D02*
Y327420D01*
X523320Y294710D02*
X533320D01*
X523320Y313710D02*
X533320D01*
X523320Y294710D02*
Y313710D01*
X533320Y294710D02*
Y313710D01*
X499792Y399186D02*
Y418186D01*
X489792Y399186D02*
Y418186D01*
X499792D01*
X489792Y399186D02*
X499792D01*
X477600Y408330D02*
Y427330D01*
X487600Y408330D02*
Y427330D01*
X477600Y408330D02*
X487600D01*
X477600Y427330D02*
X487600D01*
X401146Y409600D02*
Y428600D01*
X411146Y409600D02*
Y428600D01*
X401146Y409600D02*
X411146D01*
X401146Y428600D02*
X411146D01*
X448970Y362030D02*
X467970D01*
X448970Y372030D02*
X467970D01*
Y362030D02*
Y372030D01*
X448970Y362030D02*
Y372030D01*
X534060Y358220D02*
X553060D01*
X534060Y368220D02*
X553060D01*
Y358220D02*
Y368220D01*
X534060Y358220D02*
Y368220D01*
X626190Y282600D02*
Y301600D01*
X636190Y282600D02*
Y301600D01*
X626190Y282600D02*
X636190D01*
X626190Y301600D02*
X636190D01*
X613490Y286410D02*
Y305410D01*
X623490Y286410D02*
Y305410D01*
X613490Y286410D02*
X623490D01*
X613490Y305410D02*
X623490D01*
X499738Y339528D02*
X514738D01*
X499738Y312528D02*
X514738D01*
Y339528D01*
X499738Y312528D02*
Y339528D01*
X501040Y299800D02*
X520040D01*
X501040Y309800D02*
X520040D01*
Y299800D02*
Y309800D01*
X501040Y299800D02*
Y309800D01*
X523320Y335940D02*
Y354940D01*
X533320Y335940D02*
Y354940D01*
X523320Y335940D02*
X533320D01*
X523320Y354940D02*
X533320D01*
X523320Y315620D02*
Y334620D01*
X533320Y315620D02*
Y334620D01*
X523320Y315620D02*
X533320D01*
X523320Y334620D02*
X533320D01*
M02*
