M48
;Layer_Color=9474304
;FILE_FORMAT=4:4
METRIC,LZ
;TYPE=PLATED
T1F00S00C0.2000
T2F00S00C0.7620
T3F00S00C1.0160
;TYPE=NON_PLATED
T4F00S00C0.8128
T5F00S00C3.4544
%
T01
X002667Y002667
X0028575
X003048
X0032385
X003429
X0036195
X00371475Y0028575
X00383286Y0028448
X00381Y003048
X00390525Y0032385
X00371475
X00355346Y00328422
X00349504Y00329946
X003429Y003429
X0032385
X003048
X0028575
X002667
X00276225Y0036195
X00295275
X00314325
X00333375
X003429Y00381
X0036195
X00381
X00390525Y0036195
X0032385Y00381
X003048
X0028575
X002667
Y003048
X00276225Y0028575
X00295275
X00314325
X00333375
X00352425
X00409575
X00432816Y00284226
X004572Y002667
X004953
X0051435
X005334
X0055245
X005715
X0059055
X006096
X0062865
X006477
X0066675
X006858
X0070485
X00714375Y0028575
X00695325
X00676275
X00657225
X00638175
X0062865Y00292354
X0063246Y00306324
X006477Y003048
X0066675
X006858
X0070485
X007239
X0074295
X00762
X00771525Y0032385
X00752475
X00746252Y00330708
X0073787Y00329946
X0073025Y00329438
X00733425Y0032385
X00729996Y00341376
X00738632Y00341884
X0074422Y00347726
X00750824Y00336042
X00756412Y0034036
X00761238Y0034544
X0076835Y00342392
X00774954Y00341884
X0077978
X00779526Y00368554
X00773938Y00368808
X00766318
X0076073Y00365506
X00757682Y00358648
X00762Y00381
X0070485
X006858
X00695325Y0036195
X00714375
X00712724Y00341376
X00719836Y00341884
X0070485Y00342392
X00696468Y00342646
X00689102Y00341884
X00679958Y00342138
X00671576Y00341376
X00662432Y00342392
X00655066Y00342138
X00646684
X00639572Y00341884
X00632206Y00343662
X0064516Y00350012
X0064135Y00355854
X00657225Y0036195
X00676275
X00673862Y00328676
X00665226
X00657352Y0032893
X00649986
X00643128
X00626618Y00329184
X0061087Y00314452
X0060325Y00309626
X005882Y00308918
X00583184Y00305308
X00578104Y00308356
X00565332Y00308931
X00559562Y00308864
X0056388Y00326136
X00563626Y0033528
X0055372
X00553974Y00326136
Y0034544
X00554228Y0035491
X00564134Y00355092
X0056388Y0034544
X00574294
X00574548Y00355092
X00574294Y00365506
X0056388
X00553974
X00584962
X00594614
X00594868Y00355092
X00585216
X00584962Y0034544
X00594614
X0059436Y0033528
X00594614Y00326136
X00584962
X00584708Y0033528
X0057404
X00574294Y00326136
X00581025Y0028575
X00561975
X00542925
X00523875
X00504825
X00479806Y00283464
X004572Y003048
X00447675Y0032385
X00428625
X00409575
X004191Y003429
X0040005
X00409575Y0036195
X00421928Y00381542
X00427274Y00376474
X00433044Y00376434
X00447802Y00376174
X00457708Y00376428
X0047008Y00365669
X0047625Y003429
X004953
X00520192Y00341884
Y00348234
X00522891Y00359827
X00504825Y0032385
X00485775
X004572Y003429
X00401741Y00389041
X0040005Y002667
X005612Y00391985
X00567639Y00390797
X00575056Y00387096
X00571119Y00382878
X00580045Y00383032
X00583816Y00387502
X00588355Y00383286
X00611521Y00366431
X00614885Y00361743
X00611637Y00356974
X00611378Y0035121
Y0034544
X0062865Y00381
X006477
X00683006Y00328676
X00691642
X0069977Y00328422
X00707644Y00328676
X00715264Y00329184
X00695325Y0032385
X00771525Y0028575
X00762Y002667
X00771525Y0040005
X00752475
X00733425
X00714375
X00695325
X0070485Y004191
X007239
X0074295
X00762
X00771525Y0043815
X00752475
X00733425
X00714375
X00695325
X00676275
X00657225
X00638175
X00619125
X00600075
X0058312Y00444754
X0057512
X00561975Y0043815
X00548386Y00423418
X00542925Y0040005
X00523875
X00504825
X00485775
X00482346Y00405384
X00473964Y00402336
X00447675Y0040005
X004572Y004191
X0043815
X00447675Y0043815
X00466725
X00485775
X00504825
X0051435Y004191
X005334Y004572
X0055245
X00561975Y0047625
X00581025
X00600075
X0059563Y00465582
X0059055Y004572
X006096
X0062865
X006477
X0066675
X006858
X0070485
X007239
X0074295
X00762
X00771525Y0047625
X00752475
X00733425
X00714375
X00695325
X00676275
X00657225
X00638175
X00619125
X00609854Y00423672
X0062865Y004191
X006477
X00638175Y0040005
X00619125
X00600075
X00578866Y0042418
X00542925Y0047625
X00523875
X0047625Y004572
X004572
X0043815
X004191
X0040005
X00409575Y0043815
X00428625
X00405892Y00405638
X00409575Y0040005
X006858Y004191
X00390525Y0043815
X00371475
X00381Y004572
X00370332Y00465927
X00377444Y00474237
X00332953Y00461117
X00336042Y00455676
X00333248Y00450088
X0032258Y00425704
X0032385Y004191
X003048
X0028575
X002667
X00276225Y0040005
X00295275
X00314325
X00333375
X00352425
X00371475
X00352044Y00428244
X00295275Y0043815
X0029591Y0046228
X00297434Y0047498
X00276225Y0047625
X0028575Y004572
X002667
T02
X00403352Y00305308
X00423926
T03
X00282956Y00314325
Y00441325
T04
X00333502Y00439914
Y00469914
T05
X00369316Y0035433
X00669036Y0040132
M30
