G04*
G04 #@! TF.GenerationSoftware,Altium Limited,Altium Designer,22.8.2 (66)*
G04*
G04 Layer_Physical_Order=3*
G04 Layer_Color=16440176*
%FSLAX44Y44*%
%MOMM*%
G71*
G04*
G04 #@! TF.SameCoordinates,468F8AB8-D0D1-42F9-A28A-8A06B6F8ABAF*
G04*
G04*
G04 #@! TF.FilePolarity,Positive*
G04*
G01*
G75*
%ADD60C,0.4500*%
G36*
X778727Y498438D02*
X757168Y476879D01*
X755833Y477340D01*
X755459Y478244D01*
X754469Y479234D01*
X753175Y479770D01*
X751775D01*
X750481Y479234D01*
X749491Y478244D01*
X748955Y476950D01*
Y475550D01*
X749491Y474256D01*
X750481Y473266D01*
X751385Y472892D01*
X751846Y471557D01*
X719068Y438779D01*
X717733Y439240D01*
X717359Y440144D01*
X716369Y441134D01*
X715075Y441670D01*
X713675D01*
X712381Y441134D01*
X711391Y440144D01*
X710855Y438850D01*
Y437450D01*
X711391Y436156D01*
X712381Y435166D01*
X713285Y434792D01*
X713746Y433457D01*
X688406Y408117D01*
X687160Y408364D01*
X686304Y410432D01*
X684140Y413670D01*
X681386Y416424D01*
X678148Y418588D01*
X674549Y420078D01*
X670729Y420838D01*
X666835D01*
X663015Y420078D01*
X659417Y418588D01*
X656178Y416424D01*
X653424Y413670D01*
X651260Y410432D01*
X649770Y406833D01*
X649010Y403013D01*
Y399119D01*
X649770Y395299D01*
X651260Y391701D01*
X653424Y388462D01*
X656178Y385708D01*
X659417Y383544D01*
X661484Y382688D01*
X661731Y381442D01*
X644398Y364109D01*
Y344126D01*
X644180Y343600D01*
Y342200D01*
X644398Y341674D01*
Y320319D01*
X643492Y319714D01*
X642091D01*
X640798Y319178D01*
X639808Y318188D01*
X639272Y316894D01*
Y315494D01*
X639808Y314200D01*
X640798Y313210D01*
X642091Y312674D01*
X643492D01*
X644398Y312068D01*
Y302469D01*
X643128Y302216D01*
X642810Y302984D01*
X641820Y303974D01*
X640526Y304510D01*
X639126D01*
X637832Y303974D01*
X636842Y302984D01*
X636306Y301690D01*
Y300290D01*
X636842Y298996D01*
X637832Y298006D01*
X639126Y297470D01*
X640526D01*
X641820Y298006D01*
X642810Y298996D01*
X643128Y299764D01*
X644398Y299511D01*
Y267926D01*
X644180Y267400D01*
Y266000D01*
X644398Y265474D01*
Y255143D01*
X257309D01*
Y499611D01*
X778241D01*
X778727Y498438D01*
D02*
G37*
%LPC*%
G36*
X734125Y479770D02*
X732725D01*
X731431Y479234D01*
X730441Y478244D01*
X729905Y476950D01*
Y475550D01*
X730441Y474256D01*
X731431Y473266D01*
X732725Y472730D01*
X734125D01*
X735419Y473266D01*
X736409Y474256D01*
X736945Y475550D01*
Y476950D01*
X736409Y478244D01*
X735419Y479234D01*
X734125Y479770D01*
D02*
G37*
G36*
X715075D02*
X713675D01*
X712381Y479234D01*
X711391Y478244D01*
X710855Y476950D01*
Y475550D01*
X711391Y474256D01*
X712381Y473266D01*
X713675Y472730D01*
X715075D01*
X716369Y473266D01*
X717359Y474256D01*
X717895Y475550D01*
Y476950D01*
X717359Y478244D01*
X716369Y479234D01*
X715075Y479770D01*
D02*
G37*
G36*
X696025D02*
X694625D01*
X693331Y479234D01*
X692341Y478244D01*
X691805Y476950D01*
Y475550D01*
X692341Y474256D01*
X693331Y473266D01*
X694625Y472730D01*
X696025D01*
X697319Y473266D01*
X698309Y474256D01*
X698845Y475550D01*
Y476950D01*
X698309Y478244D01*
X697319Y479234D01*
X696025Y479770D01*
D02*
G37*
G36*
X676975D02*
X675575D01*
X674281Y479234D01*
X673291Y478244D01*
X672755Y476950D01*
Y475550D01*
X673291Y474256D01*
X674281Y473266D01*
X675575Y472730D01*
X676975D01*
X678269Y473266D01*
X679259Y474256D01*
X679795Y475550D01*
Y476950D01*
X679259Y478244D01*
X678269Y479234D01*
X676975Y479770D01*
D02*
G37*
G36*
X657925D02*
X656525D01*
X655231Y479234D01*
X654241Y478244D01*
X653705Y476950D01*
Y475550D01*
X654241Y474256D01*
X655231Y473266D01*
X656525Y472730D01*
X657925D01*
X659219Y473266D01*
X660209Y474256D01*
X660745Y475550D01*
Y476950D01*
X660209Y478244D01*
X659219Y479234D01*
X657925Y479770D01*
D02*
G37*
G36*
X638875D02*
X637475D01*
X636181Y479234D01*
X635191Y478244D01*
X634655Y476950D01*
Y475550D01*
X635191Y474256D01*
X636181Y473266D01*
X637475Y472730D01*
X638875D01*
X640169Y473266D01*
X641159Y474256D01*
X641695Y475550D01*
Y476950D01*
X641159Y478244D01*
X640169Y479234D01*
X638875Y479770D01*
D02*
G37*
G36*
X619825D02*
X618425D01*
X617131Y479234D01*
X616141Y478244D01*
X615605Y476950D01*
Y475550D01*
X616141Y474256D01*
X617131Y473266D01*
X618425Y472730D01*
X619825D01*
X621119Y473266D01*
X622109Y474256D01*
X622645Y475550D01*
Y476950D01*
X622109Y478244D01*
X621119Y479234D01*
X619825Y479770D01*
D02*
G37*
G36*
X600775D02*
X599375D01*
X598081Y479234D01*
X597091Y478244D01*
X596555Y476950D01*
Y475550D01*
X597091Y474256D01*
X598081Y473266D01*
X599375Y472730D01*
X600775D01*
X602069Y473266D01*
X603059Y474256D01*
X603595Y475550D01*
Y476950D01*
X603059Y478244D01*
X602069Y479234D01*
X600775Y479770D01*
D02*
G37*
G36*
X581725D02*
X580325D01*
X579031Y479234D01*
X578041Y478244D01*
X577505Y476950D01*
Y475550D01*
X578041Y474256D01*
X579031Y473266D01*
X580325Y472730D01*
X581725D01*
X583019Y473266D01*
X584009Y474256D01*
X584545Y475550D01*
Y476950D01*
X584009Y478244D01*
X583019Y479234D01*
X581725Y479770D01*
D02*
G37*
G36*
X562675D02*
X561275D01*
X559981Y479234D01*
X558991Y478244D01*
X558455Y476950D01*
Y475550D01*
X558991Y474256D01*
X559981Y473266D01*
X561275Y472730D01*
X562675D01*
X563969Y473266D01*
X564959Y474256D01*
X565495Y475550D01*
Y476950D01*
X564959Y478244D01*
X563969Y479234D01*
X562675Y479770D01*
D02*
G37*
G36*
X543625D02*
X542225D01*
X540931Y479234D01*
X539941Y478244D01*
X539405Y476950D01*
Y475550D01*
X539941Y474256D01*
X540931Y473266D01*
X542225Y472730D01*
X543625D01*
X544919Y473266D01*
X545909Y474256D01*
X546445Y475550D01*
Y476950D01*
X545909Y478244D01*
X544919Y479234D01*
X543625Y479770D01*
D02*
G37*
G36*
X524575D02*
X523175D01*
X521881Y479234D01*
X520891Y478244D01*
X520355Y476950D01*
Y475550D01*
X520891Y474256D01*
X521881Y473266D01*
X523175Y472730D01*
X524575D01*
X525869Y473266D01*
X526859Y474256D01*
X527395Y475550D01*
Y476950D01*
X526859Y478244D01*
X525869Y479234D01*
X524575Y479770D01*
D02*
G37*
G36*
X505525D02*
X504125D01*
X502831Y479234D01*
X501841Y478244D01*
X501305Y476950D01*
Y475550D01*
X501841Y474256D01*
X502831Y473266D01*
X504125Y472730D01*
X505525D01*
X506819Y473266D01*
X507809Y474256D01*
X508345Y475550D01*
Y476950D01*
X507809Y478244D01*
X506819Y479234D01*
X505525Y479770D01*
D02*
G37*
G36*
X486475D02*
X485075D01*
X483781Y479234D01*
X482791Y478244D01*
X482255Y476950D01*
Y475550D01*
X482791Y474256D01*
X483781Y473266D01*
X485075Y472730D01*
X486475D01*
X487769Y473266D01*
X488759Y474256D01*
X489295Y475550D01*
Y476950D01*
X488759Y478244D01*
X487769Y479234D01*
X486475Y479770D01*
D02*
G37*
G36*
X276925D02*
X275525D01*
X274231Y479234D01*
X273241Y478244D01*
X272705Y476950D01*
Y475550D01*
X273241Y474256D01*
X274231Y473266D01*
X275525Y472730D01*
X276925D01*
X278219Y473266D01*
X279209Y474256D01*
X279745Y475550D01*
Y476950D01*
X279209Y478244D01*
X278219Y479234D01*
X276925Y479770D01*
D02*
G37*
G36*
X378144Y477757D02*
X376744D01*
X375450Y477221D01*
X374460Y476231D01*
X373924Y474937D01*
Y473537D01*
X374460Y472243D01*
X375450Y471253D01*
X376744Y470717D01*
X378144D01*
X379438Y471253D01*
X380428Y472243D01*
X380964Y473537D01*
Y474937D01*
X380428Y476231D01*
X379438Y477221D01*
X378144Y477757D01*
D02*
G37*
G36*
X371032Y469447D02*
X369632D01*
X368338Y468911D01*
X367348Y467921D01*
X366812Y466627D01*
Y465227D01*
X367348Y463933D01*
X368338Y462943D01*
X369632Y462407D01*
X371032D01*
X372326Y462943D01*
X373316Y463933D01*
X373852Y465227D01*
Y466627D01*
X373316Y467921D01*
X372326Y468911D01*
X371032Y469447D01*
D02*
G37*
G36*
X296610Y465800D02*
X295210D01*
X293916Y465264D01*
X292926Y464274D01*
X292390Y462980D01*
Y461580D01*
X292926Y460286D01*
X293916Y459296D01*
X295210Y458760D01*
X296610D01*
X297904Y459296D01*
X298894Y460286D01*
X299430Y461580D01*
Y462980D01*
X298894Y464274D01*
X297904Y465264D01*
X296610Y465800D01*
D02*
G37*
G36*
X724600Y460720D02*
X723200D01*
X721906Y460184D01*
X720916Y459194D01*
X720380Y457900D01*
Y456500D01*
X720916Y455206D01*
X721906Y454216D01*
X723200Y453680D01*
X724600D01*
X725894Y454216D01*
X726884Y455206D01*
X727420Y456500D01*
Y457900D01*
X726884Y459194D01*
X725894Y460184D01*
X724600Y460720D01*
D02*
G37*
G36*
X705550D02*
X704150D01*
X702856Y460184D01*
X701866Y459194D01*
X701330Y457900D01*
Y456500D01*
X701866Y455206D01*
X702856Y454216D01*
X704150Y453680D01*
X705550D01*
X706844Y454216D01*
X707834Y455206D01*
X708370Y456500D01*
Y457900D01*
X707834Y459194D01*
X706844Y460184D01*
X705550Y460720D01*
D02*
G37*
G36*
X686500D02*
X685100D01*
X683806Y460184D01*
X682816Y459194D01*
X682280Y457900D01*
Y456500D01*
X682816Y455206D01*
X683806Y454216D01*
X685100Y453680D01*
X686500D01*
X687794Y454216D01*
X688784Y455206D01*
X689320Y456500D01*
Y457900D01*
X688784Y459194D01*
X687794Y460184D01*
X686500Y460720D01*
D02*
G37*
G36*
X667450D02*
X666050D01*
X664756Y460184D01*
X663766Y459194D01*
X663230Y457900D01*
Y456500D01*
X663766Y455206D01*
X664756Y454216D01*
X666050Y453680D01*
X667450D01*
X668744Y454216D01*
X669734Y455206D01*
X670270Y456500D01*
Y457900D01*
X669734Y459194D01*
X668744Y460184D01*
X667450Y460720D01*
D02*
G37*
G36*
X648400D02*
X647000D01*
X645706Y460184D01*
X644716Y459194D01*
X644180Y457900D01*
Y456500D01*
X644716Y455206D01*
X645706Y454216D01*
X647000Y453680D01*
X648400D01*
X649694Y454216D01*
X650684Y455206D01*
X651220Y456500D01*
Y457900D01*
X650684Y459194D01*
X649694Y460184D01*
X648400Y460720D01*
D02*
G37*
G36*
X629350D02*
X627950D01*
X626656Y460184D01*
X625666Y459194D01*
X625130Y457900D01*
Y456500D01*
X625666Y455206D01*
X626656Y454216D01*
X627950Y453680D01*
X629350D01*
X630644Y454216D01*
X631634Y455206D01*
X632170Y456500D01*
Y457900D01*
X631634Y459194D01*
X630644Y460184D01*
X629350Y460720D01*
D02*
G37*
G36*
X610300D02*
X608900D01*
X607606Y460184D01*
X606616Y459194D01*
X606080Y457900D01*
Y456500D01*
X606616Y455206D01*
X607606Y454216D01*
X608900Y453680D01*
X610300D01*
X611594Y454216D01*
X612584Y455206D01*
X613120Y456500D01*
Y457900D01*
X612584Y459194D01*
X611594Y460184D01*
X610300Y460720D01*
D02*
G37*
G36*
X591250D02*
X589850D01*
X588556Y460184D01*
X587566Y459194D01*
X587030Y457900D01*
Y456500D01*
X587566Y455206D01*
X588556Y454216D01*
X589850Y453680D01*
X591250D01*
X592544Y454216D01*
X593534Y455206D01*
X594070Y456500D01*
Y457900D01*
X593534Y459194D01*
X592544Y460184D01*
X591250Y460720D01*
D02*
G37*
G36*
X572200D02*
X570800D01*
X569506Y460184D01*
X568516Y459194D01*
X567980Y457900D01*
Y456500D01*
X568516Y455206D01*
X569506Y454216D01*
X570800Y453680D01*
X572200D01*
X573494Y454216D01*
X574484Y455206D01*
X575020Y456500D01*
Y457900D01*
X574484Y459194D01*
X573494Y460184D01*
X572200Y460720D01*
D02*
G37*
G36*
X553150D02*
X551750D01*
X550456Y460184D01*
X549466Y459194D01*
X548930Y457900D01*
Y456500D01*
X549466Y455206D01*
X550456Y454216D01*
X551750Y453680D01*
X553150D01*
X554444Y454216D01*
X555434Y455206D01*
X555970Y456500D01*
Y457900D01*
X555434Y459194D01*
X554444Y460184D01*
X553150Y460720D01*
D02*
G37*
G36*
X534100D02*
X532700D01*
X531406Y460184D01*
X530416Y459194D01*
X529880Y457900D01*
Y456500D01*
X530416Y455206D01*
X531406Y454216D01*
X532700Y453680D01*
X534100D01*
X535394Y454216D01*
X536384Y455206D01*
X536920Y456500D01*
Y457900D01*
X536384Y459194D01*
X535394Y460184D01*
X534100Y460720D01*
D02*
G37*
G36*
X515050D02*
X513650D01*
X512356Y460184D01*
X511366Y459194D01*
X510830Y457900D01*
Y456500D01*
X511366Y455206D01*
X512356Y454216D01*
X513650Y453680D01*
X515050D01*
X516344Y454216D01*
X517334Y455206D01*
X517870Y456500D01*
Y457900D01*
X517334Y459194D01*
X516344Y460184D01*
X515050Y460720D01*
D02*
G37*
G36*
X457900D02*
X456500D01*
X455206Y460184D01*
X454216Y459194D01*
X453680Y457900D01*
Y456500D01*
X454216Y455206D01*
X455206Y454216D01*
X456500Y453680D01*
X457900D01*
X459194Y454216D01*
X460184Y455206D01*
X460720Y456500D01*
Y457900D01*
X460184Y459194D01*
X459194Y460184D01*
X457900Y460720D01*
D02*
G37*
G36*
X438850D02*
X437450D01*
X436156Y460184D01*
X435166Y459194D01*
X434630Y457900D01*
Y456500D01*
X435166Y455206D01*
X436156Y454216D01*
X437450Y453680D01*
X438850D01*
X440144Y454216D01*
X441134Y455206D01*
X441670Y456500D01*
Y457900D01*
X441134Y459194D01*
X440144Y460184D01*
X438850Y460720D01*
D02*
G37*
G36*
X419800D02*
X418400D01*
X417106Y460184D01*
X416116Y459194D01*
X415580Y457900D01*
Y456500D01*
X416116Y455206D01*
X417106Y454216D01*
X418400Y453680D01*
X419800D01*
X421094Y454216D01*
X422084Y455206D01*
X422620Y456500D01*
Y457900D01*
X422084Y459194D01*
X421094Y460184D01*
X419800Y460720D01*
D02*
G37*
G36*
X400750D02*
X399350D01*
X398056Y460184D01*
X397066Y459194D01*
X396530Y457900D01*
Y456500D01*
X397066Y455206D01*
X398056Y454216D01*
X399350Y453680D01*
X400750D01*
X402044Y454216D01*
X403034Y455206D01*
X403570Y456500D01*
Y457900D01*
X403034Y459194D01*
X402044Y460184D01*
X400750Y460720D01*
D02*
G37*
G36*
X381700D02*
X380300D01*
X379006Y460184D01*
X378016Y459194D01*
X377480Y457900D01*
Y456500D01*
X378016Y455206D01*
X379006Y454216D01*
X380300Y453680D01*
X381700D01*
X382994Y454216D01*
X383984Y455206D01*
X384520Y456500D01*
Y457900D01*
X383984Y459194D01*
X382994Y460184D01*
X381700Y460720D01*
D02*
G37*
G36*
X286450D02*
X285050D01*
X283756Y460184D01*
X282766Y459194D01*
X282230Y457900D01*
Y456500D01*
X282766Y455206D01*
X283756Y454216D01*
X285050Y453680D01*
X286450D01*
X287744Y454216D01*
X288734Y455206D01*
X289270Y456500D01*
Y457900D01*
X288734Y459194D01*
X287744Y460184D01*
X286450Y460720D01*
D02*
G37*
G36*
X267400D02*
X266000D01*
X264706Y460184D01*
X263716Y459194D01*
X263180Y457900D01*
Y456500D01*
X263716Y455206D01*
X264706Y454216D01*
X266000Y453680D01*
X267400D01*
X268694Y454216D01*
X269684Y455206D01*
X270220Y456500D01*
Y457900D01*
X269684Y459194D01*
X268694Y460184D01*
X267400Y460720D01*
D02*
G37*
G36*
X696025Y441670D02*
X694625D01*
X693331Y441134D01*
X692341Y440144D01*
X691805Y438850D01*
Y437450D01*
X692341Y436156D01*
X693331Y435166D01*
X694625Y434630D01*
X696025D01*
X697319Y435166D01*
X698309Y436156D01*
X698845Y437450D01*
Y438850D01*
X698309Y440144D01*
X697319Y441134D01*
X696025Y441670D01*
D02*
G37*
G36*
X676975D02*
X675575D01*
X674281Y441134D01*
X673291Y440144D01*
X672755Y438850D01*
Y437450D01*
X673291Y436156D01*
X674281Y435166D01*
X675575Y434630D01*
X676975D01*
X678269Y435166D01*
X679259Y436156D01*
X679795Y437450D01*
Y438850D01*
X679259Y440144D01*
X678269Y441134D01*
X676975Y441670D01*
D02*
G37*
G36*
X657925D02*
X656525D01*
X655231Y441134D01*
X654241Y440144D01*
X653705Y438850D01*
Y437450D01*
X654241Y436156D01*
X655231Y435166D01*
X656525Y434630D01*
X657925D01*
X659219Y435166D01*
X660209Y436156D01*
X660745Y437450D01*
Y438850D01*
X660209Y440144D01*
X659219Y441134D01*
X657925Y441670D01*
D02*
G37*
G36*
X638875D02*
X637475D01*
X636181Y441134D01*
X635191Y440144D01*
X634655Y438850D01*
Y437450D01*
X635191Y436156D01*
X636181Y435166D01*
X637475Y434630D01*
X638875D01*
X640169Y435166D01*
X641159Y436156D01*
X641695Y437450D01*
Y438850D01*
X641159Y440144D01*
X640169Y441134D01*
X638875Y441670D01*
D02*
G37*
G36*
X619825D02*
X618425D01*
X617131Y441134D01*
X616141Y440144D01*
X615605Y438850D01*
Y437450D01*
X616141Y436156D01*
X617131Y435166D01*
X618425Y434630D01*
X619825D01*
X621119Y435166D01*
X622109Y436156D01*
X622645Y437450D01*
Y438850D01*
X622109Y440144D01*
X621119Y441134D01*
X619825Y441670D01*
D02*
G37*
G36*
X562675D02*
X561275D01*
X559981Y441134D01*
X558991Y440144D01*
X558455Y438850D01*
Y437450D01*
X558991Y436156D01*
X559981Y435166D01*
X561275Y434630D01*
X562675D01*
X563969Y435166D01*
X564959Y436156D01*
X565495Y437450D01*
Y438850D01*
X564959Y440144D01*
X563969Y441134D01*
X562675Y441670D01*
D02*
G37*
G36*
X543625D02*
X542225D01*
X540931Y441134D01*
X539941Y440144D01*
X539405Y438850D01*
Y437450D01*
X539941Y436156D01*
X540931Y435166D01*
X542225Y434630D01*
X543625D01*
X544919Y435166D01*
X545909Y436156D01*
X546445Y437450D01*
Y438850D01*
X545909Y440144D01*
X544919Y441134D01*
X543625Y441670D01*
D02*
G37*
G36*
X524575D02*
X523175D01*
X521881Y441134D01*
X520891Y440144D01*
X520355Y438850D01*
Y437450D01*
X520891Y436156D01*
X521881Y435166D01*
X523175Y434630D01*
X524575D01*
X525869Y435166D01*
X526859Y436156D01*
X527395Y437450D01*
Y438850D01*
X526859Y440144D01*
X525869Y441134D01*
X524575Y441670D01*
D02*
G37*
G36*
X467425D02*
X466025D01*
X464731Y441134D01*
X463741Y440144D01*
X463205Y438850D01*
Y437450D01*
X463741Y436156D01*
X464731Y435166D01*
X466025Y434630D01*
X467425D01*
X468719Y435166D01*
X469709Y436156D01*
X470245Y437450D01*
Y438850D01*
X469709Y440144D01*
X468719Y441134D01*
X467425Y441670D01*
D02*
G37*
G36*
X448375D02*
X446975D01*
X445681Y441134D01*
X444691Y440144D01*
X444155Y438850D01*
Y437450D01*
X444691Y436156D01*
X445681Y435166D01*
X446975Y434630D01*
X448375D01*
X449669Y435166D01*
X450659Y436156D01*
X451195Y437450D01*
Y438850D01*
X450659Y440144D01*
X449669Y441134D01*
X448375Y441670D01*
D02*
G37*
G36*
X429325D02*
X427925D01*
X426631Y441134D01*
X425641Y440144D01*
X425105Y438850D01*
Y437450D01*
X425641Y436156D01*
X426631Y435166D01*
X427925Y434630D01*
X429325D01*
X430619Y435166D01*
X431609Y436156D01*
X432145Y437450D01*
Y438850D01*
X431609Y440144D01*
X430619Y441134D01*
X429325Y441670D01*
D02*
G37*
G36*
X410275D02*
X408875D01*
X407581Y441134D01*
X406591Y440144D01*
X406055Y438850D01*
Y437450D01*
X406591Y436156D01*
X407581Y435166D01*
X408875Y434630D01*
X410275D01*
X411569Y435166D01*
X412559Y436156D01*
X413095Y437450D01*
Y438850D01*
X412559Y440144D01*
X411569Y441134D01*
X410275Y441670D01*
D02*
G37*
G36*
X391225D02*
X389825D01*
X388531Y441134D01*
X387541Y440144D01*
X387005Y438850D01*
Y437450D01*
X387541Y436156D01*
X388531Y435166D01*
X389825Y434630D01*
X391225D01*
X392519Y435166D01*
X393509Y436156D01*
X394045Y437450D01*
Y438850D01*
X393509Y440144D01*
X392519Y441134D01*
X391225Y441670D01*
D02*
G37*
G36*
X372175D02*
X370775D01*
X369481Y441134D01*
X368491Y440144D01*
X367955Y438850D01*
Y437450D01*
X368491Y436156D01*
X369481Y435166D01*
X370775Y434630D01*
X372175D01*
X373469Y435166D01*
X374459Y436156D01*
X374995Y437450D01*
Y438850D01*
X374459Y440144D01*
X373469Y441134D01*
X372175Y441670D01*
D02*
G37*
G36*
X283839Y449707D02*
X281565D01*
X279369Y449118D01*
X277399Y447981D01*
X275791Y446374D01*
X274655Y444404D01*
X274066Y442208D01*
Y439934D01*
X274655Y437738D01*
X275791Y435768D01*
X277399Y434160D01*
X279369Y433023D01*
X281565Y432435D01*
X283839D01*
X286035Y433023D01*
X288005Y434160D01*
X289613Y435768D01*
X290526Y437351D01*
X290911Y437382D01*
X291861Y437193D01*
X292291Y436156D01*
X293281Y435166D01*
X294575Y434630D01*
X295975D01*
X297269Y435166D01*
X298259Y436156D01*
X298795Y437450D01*
Y438850D01*
X298259Y440144D01*
X297269Y441134D01*
X295975Y441670D01*
X294575D01*
X293281Y441134D01*
X292608Y440461D01*
X291338Y440910D01*
Y442208D01*
X290749Y444404D01*
X289613Y446374D01*
X288005Y447981D01*
X286035Y449118D01*
X283839Y449707D01*
D02*
G37*
G36*
X334366Y476478D02*
X332638D01*
X330968Y476031D01*
X329472Y475167D01*
X328250Y473944D01*
X327385Y472448D01*
X326938Y470778D01*
Y469050D01*
X327385Y467380D01*
X328250Y465884D01*
X329472Y464661D01*
X329867Y464433D01*
X330032Y463174D01*
X329969Y463111D01*
X329433Y461817D01*
Y460417D01*
X329969Y459123D01*
X330959Y458133D01*
X332253Y457597D01*
X332731Y456881D01*
X332522Y456376D01*
Y454976D01*
X332562Y454878D01*
X332548Y453608D01*
X331925Y453350D01*
X331254Y453072D01*
X330264Y452082D01*
X329728Y450788D01*
Y449388D01*
X330264Y448094D01*
X331003Y447355D01*
X330980Y446469D01*
X330961Y446370D01*
X330784Y445924D01*
X329472Y445167D01*
X328250Y443944D01*
X327385Y442448D01*
X326938Y440778D01*
Y439050D01*
X327385Y437380D01*
X328250Y435884D01*
X329472Y434661D01*
X330968Y433797D01*
X332638Y433350D01*
X334366D01*
X336036Y433797D01*
X337532Y434661D01*
X338755Y435884D01*
X339619Y437380D01*
X340066Y439050D01*
Y440778D01*
X339619Y442448D01*
X338755Y443944D01*
X337532Y445167D01*
X336036Y446031D01*
X335872Y446074D01*
X335832Y446139D01*
X335600Y447462D01*
X336232Y448094D01*
X336768Y449388D01*
Y450788D01*
X336727Y450886D01*
X336742Y452156D01*
X337365Y452414D01*
X338036Y452692D01*
X339026Y453682D01*
X339562Y454976D01*
Y456376D01*
X339026Y457670D01*
X338036Y458660D01*
X336742Y459196D01*
X336264Y459912D01*
X336473Y460417D01*
Y461817D01*
X336181Y462522D01*
X336089Y463328D01*
X336677Y464168D01*
X337532Y464661D01*
X338755Y465884D01*
X339619Y467380D01*
X340066Y469050D01*
Y470778D01*
X339619Y472448D01*
X338755Y473944D01*
X337532Y475167D01*
X336036Y476031D01*
X334366Y476478D01*
D02*
G37*
G36*
X352744Y431764D02*
X351344D01*
X350050Y431228D01*
X349060Y430238D01*
X348524Y428944D01*
Y427544D01*
X349060Y426250D01*
X350050Y425260D01*
X351344Y424724D01*
X352744D01*
X354038Y425260D01*
X355028Y426250D01*
X355564Y427544D01*
Y428944D01*
X355028Y430238D01*
X354038Y431228D01*
X352744Y431764D01*
D02*
G37*
G36*
X582600Y421600D02*
X581100D01*
X579715Y421026D01*
X578654Y419966D01*
X578537Y419684D01*
X577163D01*
X577046Y419966D01*
X575985Y421026D01*
X574600Y421600D01*
X573100D01*
X571715Y421026D01*
X570654Y419966D01*
X570080Y418580D01*
Y417080D01*
X570654Y415695D01*
X571715Y414634D01*
X573100Y414060D01*
X574600D01*
X575985Y414634D01*
X577046Y415695D01*
X577163Y415976D01*
X578537D01*
X578654Y415695D01*
X579715Y414634D01*
X581100Y414060D01*
X582600D01*
X583985Y414634D01*
X585046Y415695D01*
X585620Y417080D01*
Y418580D01*
X585046Y419966D01*
X583985Y421026D01*
X582600Y421600D01*
D02*
G37*
G36*
X686500Y422620D02*
X685100D01*
X683806Y422084D01*
X682816Y421094D01*
X682280Y419800D01*
Y418400D01*
X682816Y417106D01*
X683806Y416116D01*
X685100Y415580D01*
X686500D01*
X687794Y416116D01*
X688784Y417106D01*
X689320Y418400D01*
Y419800D01*
X688784Y421094D01*
X687794Y422084D01*
X686500Y422620D01*
D02*
G37*
G36*
X648400D02*
X647000D01*
X645706Y422084D01*
X644716Y421094D01*
X644180Y419800D01*
Y418400D01*
X644716Y417106D01*
X645706Y416116D01*
X647000Y415580D01*
X648400D01*
X649694Y416116D01*
X650684Y417106D01*
X651220Y418400D01*
Y419800D01*
X650684Y421094D01*
X649694Y422084D01*
X648400Y422620D01*
D02*
G37*
G36*
X629350D02*
X627950D01*
X626656Y422084D01*
X625666Y421094D01*
X625130Y419800D01*
Y418400D01*
X625666Y417106D01*
X626656Y416116D01*
X627950Y415580D01*
X629350D01*
X630644Y416116D01*
X631634Y417106D01*
X632170Y418400D01*
Y419800D01*
X631634Y421094D01*
X630644Y422084D01*
X629350Y422620D01*
D02*
G37*
G36*
X610300D02*
X608900D01*
X607606Y422084D01*
X606616Y421094D01*
X606080Y419800D01*
Y418400D01*
X606616Y417106D01*
X607606Y416116D01*
X608900Y415580D01*
X610300D01*
X611594Y416116D01*
X612584Y417106D01*
X613120Y418400D01*
Y419800D01*
X612584Y421094D01*
X611594Y422084D01*
X610300Y422620D01*
D02*
G37*
G36*
X591250D02*
X589850D01*
X588556Y422084D01*
X587566Y421094D01*
X587030Y419800D01*
Y418400D01*
X587566Y417106D01*
X588556Y416116D01*
X589850Y415580D01*
X591250D01*
X592544Y416116D01*
X593534Y417106D01*
X594070Y418400D01*
Y419800D01*
X593534Y421094D01*
X592544Y422084D01*
X591250Y422620D01*
D02*
G37*
G36*
X553150D02*
X551750D01*
X550456Y422084D01*
X549466Y421094D01*
X548930Y419800D01*
Y418400D01*
X549466Y417106D01*
X550456Y416116D01*
X551750Y415580D01*
X553150D01*
X554444Y416116D01*
X555434Y417106D01*
X555970Y418400D01*
Y419800D01*
X555434Y421094D01*
X554444Y422084D01*
X553150Y422620D01*
D02*
G37*
G36*
X457900D02*
X456500D01*
X455206Y422084D01*
X454216Y421094D01*
X453680Y419800D01*
Y418400D01*
X454216Y417106D01*
X455206Y416116D01*
X456500Y415580D01*
X457900D01*
X459194Y416116D01*
X460184Y417106D01*
X460720Y418400D01*
Y419800D01*
X460184Y421094D01*
X459194Y422084D01*
X457900Y422620D01*
D02*
G37*
G36*
X438850D02*
X437450D01*
X436156Y422084D01*
X435166Y421094D01*
X434630Y419800D01*
Y418400D01*
X435166Y417106D01*
X436156Y416116D01*
X437450Y415580D01*
X438850D01*
X440144Y416116D01*
X441134Y417106D01*
X441670Y418400D01*
Y419800D01*
X441134Y421094D01*
X440144Y422084D01*
X438850Y422620D01*
D02*
G37*
G36*
X323280Y429224D02*
X321880D01*
X320586Y428688D01*
X319596Y427698D01*
X319060Y426404D01*
Y425004D01*
X319596Y423710D01*
X320586Y422720D01*
X320664Y422688D01*
X320962Y421190D01*
X320866Y421094D01*
X320330Y419800D01*
Y418400D01*
X320866Y417106D01*
X321856Y416116D01*
X323150Y415580D01*
X324550D01*
X325844Y416116D01*
X326834Y417106D01*
X327370Y418400D01*
Y419800D01*
X326834Y421094D01*
X325844Y422084D01*
X325766Y422116D01*
X325468Y423614D01*
X325564Y423710D01*
X326100Y425004D01*
Y426404D01*
X325564Y427698D01*
X324574Y428688D01*
X323280Y429224D01*
D02*
G37*
G36*
X305500Y422620D02*
X304100D01*
X302806Y422084D01*
X301816Y421094D01*
X301280Y419800D01*
Y418400D01*
X301816Y417106D01*
X302806Y416116D01*
X304100Y415580D01*
X305500D01*
X306794Y416116D01*
X307784Y417106D01*
X308320Y418400D01*
Y419800D01*
X307784Y421094D01*
X306794Y422084D01*
X305500Y422620D01*
D02*
G37*
G36*
X286450D02*
X285050D01*
X283756Y422084D01*
X282766Y421094D01*
X282230Y419800D01*
Y418400D01*
X282766Y417106D01*
X283756Y416116D01*
X285050Y415580D01*
X286450D01*
X287744Y416116D01*
X288734Y417106D01*
X289270Y418400D01*
Y419800D01*
X288734Y421094D01*
X287744Y422084D01*
X286450Y422620D01*
D02*
G37*
G36*
X267400D02*
X266000D01*
X264706Y422084D01*
X263716Y421094D01*
X263180Y419800D01*
Y418400D01*
X263716Y417106D01*
X264706Y416116D01*
X266000Y415580D01*
X267400D01*
X268694Y416116D01*
X269684Y417106D01*
X270220Y418400D01*
Y419800D01*
X269684Y421094D01*
X268694Y422084D01*
X267400Y422620D01*
D02*
G37*
G36*
X474664Y405856D02*
X473264D01*
X471970Y405320D01*
X470980Y404330D01*
X470444Y403036D01*
Y401636D01*
X470980Y400342D01*
X471970Y399352D01*
X473264Y398816D01*
X474664D01*
X475958Y399352D01*
X476948Y400342D01*
X477484Y401636D01*
Y403036D01*
X476948Y404330D01*
X475958Y405320D01*
X474664Y405856D01*
D02*
G37*
G36*
X638875Y403570D02*
X637475D01*
X636181Y403034D01*
X635191Y402044D01*
X634655Y400750D01*
Y399350D01*
X635191Y398056D01*
X636181Y397066D01*
X637475Y396530D01*
X638875D01*
X640169Y397066D01*
X641159Y398056D01*
X641695Y399350D01*
Y400750D01*
X641159Y402044D01*
X640169Y403034D01*
X638875Y403570D01*
D02*
G37*
G36*
X619825D02*
X618425D01*
X617131Y403034D01*
X616141Y402044D01*
X615605Y400750D01*
Y399350D01*
X616141Y398056D01*
X617131Y397066D01*
X618425Y396530D01*
X619825D01*
X621119Y397066D01*
X622109Y398056D01*
X622645Y399350D01*
Y400750D01*
X622109Y402044D01*
X621119Y403034D01*
X619825Y403570D01*
D02*
G37*
G36*
X505525D02*
X504125D01*
X502831Y403034D01*
X501841Y402044D01*
X501305Y400750D01*
Y399350D01*
X501841Y398056D01*
X502831Y397066D01*
X504125Y396530D01*
X505525D01*
X506819Y397066D01*
X507809Y398056D01*
X508345Y399350D01*
Y400750D01*
X507809Y402044D01*
X506819Y403034D01*
X505525Y403570D01*
D02*
G37*
G36*
X486475D02*
X485075D01*
X483781Y403034D01*
X482791Y402044D01*
X482255Y400750D01*
Y399350D01*
X482791Y398056D01*
X483781Y397066D01*
X485075Y396530D01*
X486475D01*
X487769Y397066D01*
X488759Y398056D01*
X489295Y399350D01*
Y400750D01*
X488759Y402044D01*
X487769Y403034D01*
X486475Y403570D01*
D02*
G37*
G36*
X448375D02*
X446975D01*
X445681Y403034D01*
X444691Y402044D01*
X444155Y400750D01*
Y399350D01*
X444691Y398056D01*
X445681Y397066D01*
X446975Y396530D01*
X448375D01*
X449669Y397066D01*
X450659Y398056D01*
X451195Y399350D01*
Y400750D01*
X450659Y402044D01*
X449669Y403034D01*
X448375Y403570D01*
D02*
G37*
G36*
X410275D02*
X408875D01*
X407581Y403034D01*
X406591Y402044D01*
X406055Y400750D01*
Y399350D01*
X406591Y398056D01*
X407581Y397066D01*
X408875Y396530D01*
X410275D01*
X411569Y397066D01*
X412559Y398056D01*
X413095Y399350D01*
Y400750D01*
X412559Y402044D01*
X411569Y403034D01*
X410275Y403570D01*
D02*
G37*
G36*
X372175D02*
X370775D01*
X369481Y403034D01*
X368491Y402044D01*
X367955Y400750D01*
Y399350D01*
X368491Y398056D01*
X369481Y397066D01*
X370775Y396530D01*
X372175D01*
X373469Y397066D01*
X374459Y398056D01*
X374995Y399350D01*
Y400750D01*
X374459Y402044D01*
X373469Y403034D01*
X372175Y403570D01*
D02*
G37*
G36*
X353125D02*
X351725D01*
X350431Y403034D01*
X349441Y402044D01*
X348905Y400750D01*
Y399350D01*
X349441Y398056D01*
X350431Y397066D01*
X351725Y396530D01*
X353125D01*
X354419Y397066D01*
X355409Y398056D01*
X355945Y399350D01*
Y400750D01*
X355409Y402044D01*
X354419Y403034D01*
X353125Y403570D01*
D02*
G37*
G36*
X334075D02*
X332675D01*
X331381Y403034D01*
X330391Y402044D01*
X329855Y400750D01*
Y399350D01*
X330391Y398056D01*
X331381Y397066D01*
X332675Y396530D01*
X334075D01*
X335369Y397066D01*
X336359Y398056D01*
X336895Y399350D01*
Y400750D01*
X336359Y402044D01*
X335369Y403034D01*
X334075Y403570D01*
D02*
G37*
G36*
X315025D02*
X313625D01*
X312331Y403034D01*
X311341Y402044D01*
X310805Y400750D01*
Y399350D01*
X311341Y398056D01*
X312331Y397066D01*
X313625Y396530D01*
X315025D01*
X316319Y397066D01*
X317309Y398056D01*
X317845Y399350D01*
Y400750D01*
X317309Y402044D01*
X316319Y403034D01*
X315025Y403570D01*
D02*
G37*
G36*
X295975D02*
X294575D01*
X293281Y403034D01*
X292291Y402044D01*
X291755Y400750D01*
Y399350D01*
X292291Y398056D01*
X293281Y397066D01*
X294575Y396530D01*
X295975D01*
X297269Y397066D01*
X298259Y398056D01*
X298795Y399350D01*
Y400750D01*
X298259Y402044D01*
X297269Y403034D01*
X295975Y403570D01*
D02*
G37*
G36*
X276925D02*
X275525D01*
X274231Y403034D01*
X273241Y402044D01*
X272705Y400750D01*
Y399350D01*
X273241Y398056D01*
X274231Y397066D01*
X275525Y396530D01*
X276925D01*
X278219Y397066D01*
X279209Y398056D01*
X279745Y399350D01*
Y400750D01*
X279209Y402044D01*
X278219Y403034D01*
X276925Y403570D01*
D02*
G37*
G36*
X578296Y400776D02*
X576896D01*
X575602Y400240D01*
X574612Y399250D01*
X574076Y397956D01*
Y396556D01*
X574612Y395262D01*
X575602Y394272D01*
X576896Y393736D01*
X578296D01*
X579590Y394272D01*
X580580Y395262D01*
X581116Y396556D01*
Y397956D01*
X580580Y399250D01*
X579590Y400240D01*
X578296Y400776D01*
D02*
G37*
G36*
X648400Y384520D02*
X647000D01*
X645706Y383984D01*
X644716Y382994D01*
X644180Y381700D01*
Y380300D01*
X644716Y379006D01*
X645706Y378016D01*
X647000Y377480D01*
X648400D01*
X649694Y378016D01*
X650684Y379006D01*
X651220Y380300D01*
Y381700D01*
X650684Y382994D01*
X649694Y383984D01*
X648400Y384520D01*
D02*
G37*
G36*
X629350D02*
X627950D01*
X626656Y383984D01*
X625666Y382994D01*
X625130Y381700D01*
Y380300D01*
X625666Y379006D01*
X626656Y378016D01*
X627950Y377480D01*
X629350D01*
X630644Y378016D01*
X631634Y379006D01*
X632170Y380300D01*
Y381700D01*
X631634Y382994D01*
X630644Y383984D01*
X629350Y384520D01*
D02*
G37*
G36*
X610300D02*
X608900D01*
X607606Y383984D01*
X606616Y382994D01*
X606080Y381700D01*
Y380300D01*
X606616Y379006D01*
X607606Y378016D01*
X608900Y377480D01*
X610300D01*
X611594Y378016D01*
X612584Y379006D01*
X613120Y380300D01*
Y381700D01*
X612584Y382994D01*
X611594Y383984D01*
X610300Y384520D01*
D02*
G37*
G36*
X591250D02*
X589850D01*
X588556Y383984D01*
X587566Y382994D01*
X587030Y381700D01*
Y380300D01*
X587566Y379006D01*
X588556Y378016D01*
X589850Y377480D01*
X591250D01*
X592544Y378016D01*
X593534Y379006D01*
X594070Y380300D01*
Y381700D01*
X593534Y382994D01*
X592544Y383984D01*
X591250Y384520D01*
D02*
G37*
G36*
X534100D02*
X532700D01*
X531406Y383984D01*
X530416Y382994D01*
X529880Y381700D01*
Y380300D01*
X530416Y379006D01*
X531406Y378016D01*
X532700Y377480D01*
X534100D01*
X535394Y378016D01*
X536384Y379006D01*
X536920Y380300D01*
Y381700D01*
X536384Y382994D01*
X535394Y383984D01*
X534100Y384520D01*
D02*
G37*
G36*
X381700D02*
X380300D01*
X379006Y383984D01*
X378016Y382994D01*
X377480Y381700D01*
Y380300D01*
X378016Y379006D01*
X379006Y378016D01*
X380300Y377480D01*
X381700D01*
X382994Y378016D01*
X383984Y379006D01*
X384520Y380300D01*
Y381700D01*
X383984Y382994D01*
X382994Y383984D01*
X381700Y384520D01*
D02*
G37*
G36*
X362650D02*
X361250D01*
X359956Y383984D01*
X358966Y382994D01*
X358430Y381700D01*
Y380300D01*
X358966Y379006D01*
X359956Y378016D01*
X361250Y377480D01*
X362650D01*
X363944Y378016D01*
X364934Y379006D01*
X365470Y380300D01*
Y381700D01*
X364934Y382994D01*
X363944Y383984D01*
X362650Y384520D01*
D02*
G37*
G36*
X343600D02*
X342200D01*
X340906Y383984D01*
X339916Y382994D01*
X339380Y381700D01*
Y380300D01*
X339916Y379006D01*
X340906Y378016D01*
X342200Y377480D01*
X343600D01*
X344894Y378016D01*
X345884Y379006D01*
X346420Y380300D01*
Y381700D01*
X345884Y382994D01*
X344894Y383984D01*
X343600Y384520D01*
D02*
G37*
G36*
X324550D02*
X323150D01*
X321856Y383984D01*
X320866Y382994D01*
X320330Y381700D01*
Y380300D01*
X320866Y379006D01*
X321856Y378016D01*
X323150Y377480D01*
X324550D01*
X325844Y378016D01*
X326834Y379006D01*
X327370Y380300D01*
Y381700D01*
X326834Y382994D01*
X325844Y383984D01*
X324550Y384520D01*
D02*
G37*
G36*
X305500D02*
X304100D01*
X302806Y383984D01*
X301816Y382994D01*
X301280Y381700D01*
Y380300D01*
X301816Y379006D01*
X302806Y378016D01*
X304100Y377480D01*
X305500D01*
X306794Y378016D01*
X307784Y379006D01*
X308320Y380300D01*
Y381700D01*
X307784Y382994D01*
X306794Y383984D01*
X305500Y384520D01*
D02*
G37*
G36*
X286450D02*
X285050D01*
X283756Y383984D01*
X282766Y382994D01*
X282230Y381700D01*
Y380300D01*
X282766Y379006D01*
X283756Y378016D01*
X285050Y377480D01*
X286450D01*
X287744Y378016D01*
X288734Y379006D01*
X289270Y380300D01*
Y381700D01*
X288734Y382994D01*
X287744Y383984D01*
X286450Y384520D01*
D02*
G37*
G36*
X267400D02*
X266000D01*
X264706Y383984D01*
X263716Y382994D01*
X263180Y381700D01*
Y380300D01*
X263716Y379006D01*
X264706Y378016D01*
X266000Y377480D01*
X267400D01*
X268694Y378016D01*
X269684Y379006D01*
X270220Y380300D01*
Y381700D01*
X269684Y382994D01*
X268694Y383984D01*
X267400Y384520D01*
D02*
G37*
G36*
X422594Y385028D02*
X421194D01*
X419900Y384492D01*
X418910Y383502D01*
X418374Y382208D01*
Y380808D01*
X418910Y379514D01*
X419900Y378524D01*
X421194Y377988D01*
X422594D01*
X422742Y378049D01*
X423754Y377174D01*
Y375774D01*
X424290Y374480D01*
X425280Y373490D01*
X426574Y372954D01*
X427974D01*
X429268Y373490D01*
X430139Y374361D01*
X431050Y373450D01*
X432344Y372914D01*
X433744D01*
X435038Y373450D01*
X436028Y374440D01*
X436564Y375734D01*
Y377134D01*
X436028Y378428D01*
X435038Y379418D01*
X433744Y379954D01*
X432344D01*
X431050Y379418D01*
X430179Y378547D01*
X429268Y379458D01*
X427974Y379994D01*
X426574D01*
X426426Y379933D01*
X425414Y380808D01*
Y382208D01*
X424878Y383502D01*
X423888Y384492D01*
X422594Y385028D01*
D02*
G37*
G36*
X458408Y379948D02*
X457008D01*
X455714Y379412D01*
X454724Y378422D01*
X454188Y377128D01*
Y375728D01*
X454724Y374434D01*
X455714Y373444D01*
X457008Y372908D01*
X458408D01*
X459702Y373444D01*
X460692Y374434D01*
X461228Y375728D01*
Y377128D01*
X460692Y378422D01*
X459702Y379412D01*
X458408Y379948D01*
D02*
G37*
G36*
X448502Y379694D02*
X447102D01*
X445808Y379158D01*
X444818Y378168D01*
X444282Y376874D01*
Y375474D01*
X444818Y374180D01*
X445808Y373190D01*
X447102Y372654D01*
X448502D01*
X449796Y373190D01*
X450786Y374180D01*
X451322Y375474D01*
Y376874D01*
X450786Y378168D01*
X449796Y379158D01*
X448502Y379694D01*
D02*
G37*
G36*
X638875Y365470D02*
X637475D01*
X636181Y364934D01*
X635191Y363944D01*
X634655Y362650D01*
Y361250D01*
X635191Y359956D01*
X636181Y358966D01*
X637475Y358430D01*
X638875D01*
X640169Y358966D01*
X641159Y359956D01*
X641695Y361250D01*
Y362650D01*
X641159Y363944D01*
X640169Y364934D01*
X638875Y365470D01*
D02*
G37*
G36*
X619825D02*
X618425D01*
X617131Y364934D01*
X616141Y363944D01*
X615605Y362650D01*
Y361250D01*
X616141Y359956D01*
X617131Y358966D01*
X618425Y358430D01*
X619825D01*
X621119Y358966D01*
X622109Y359956D01*
X622645Y361250D01*
Y362650D01*
X622109Y363944D01*
X621119Y364934D01*
X619825Y365470D01*
D02*
G37*
G36*
X524575D02*
X523175D01*
X521881Y364934D01*
X520891Y363944D01*
X520355Y362650D01*
Y361250D01*
X520891Y359956D01*
X521881Y358966D01*
X523175Y358430D01*
X524575D01*
X525869Y358966D01*
X526859Y359956D01*
X527395Y361250D01*
Y362650D01*
X526859Y363944D01*
X525869Y364934D01*
X524575Y365470D01*
D02*
G37*
G36*
X505525D02*
X504125D01*
X502831Y364934D01*
X501841Y363944D01*
X501305Y362650D01*
Y361250D01*
X501841Y359956D01*
X502831Y358966D01*
X504125Y358430D01*
X505525D01*
X506819Y358966D01*
X507809Y359956D01*
X508345Y361250D01*
Y362650D01*
X507809Y363944D01*
X506819Y364934D01*
X505525Y365470D01*
D02*
G37*
G36*
X410275D02*
X408875D01*
X407581Y364934D01*
X406591Y363944D01*
X406055Y362650D01*
Y361250D01*
X406591Y359956D01*
X407581Y358966D01*
X408875Y358430D01*
X410275D01*
X411569Y358966D01*
X412559Y359956D01*
X413095Y361250D01*
Y362650D01*
X412559Y363944D01*
X411569Y364934D01*
X410275Y365470D01*
D02*
G37*
G36*
X371009Y373848D02*
X367115D01*
X363295Y373088D01*
X359697Y371598D01*
X356458Y369434D01*
X353704Y366680D01*
X351540Y363442D01*
X350050Y359843D01*
X349290Y356023D01*
Y352129D01*
X350050Y348309D01*
X351540Y344711D01*
X353704Y341472D01*
X356458Y338718D01*
X359697Y336554D01*
X363295Y335064D01*
X367115Y334304D01*
X371009D01*
X374829Y335064D01*
X378428Y336554D01*
X381666Y338718D01*
X384420Y341472D01*
X386584Y344711D01*
X388074Y348309D01*
X388834Y352129D01*
Y356023D01*
X388521Y357595D01*
X389635Y358509D01*
X389825Y358430D01*
X391225D01*
X392519Y358966D01*
X393509Y359956D01*
X394045Y361250D01*
Y362650D01*
X393509Y363944D01*
X392519Y364934D01*
X391225Y365470D01*
X389825D01*
X388531Y364934D01*
X387657Y364060D01*
X387071Y363970D01*
X386198Y364020D01*
X384420Y366680D01*
X381666Y369434D01*
X378428Y371598D01*
X374829Y373088D01*
X371009Y373848D01*
D02*
G37*
G36*
X334075Y365470D02*
X332675D01*
X331381Y364934D01*
X330391Y363944D01*
X329855Y362650D01*
Y361250D01*
X330391Y359956D01*
X331381Y358966D01*
X332675Y358430D01*
X334075D01*
X335369Y358966D01*
X336359Y359956D01*
X336895Y361250D01*
Y362650D01*
X336359Y363944D01*
X335369Y364934D01*
X334075Y365470D01*
D02*
G37*
G36*
X315025D02*
X313625D01*
X312331Y364934D01*
X311341Y363944D01*
X310805Y362650D01*
Y361250D01*
X311341Y359956D01*
X312331Y358966D01*
X313625Y358430D01*
X315025D01*
X316319Y358966D01*
X317309Y359956D01*
X317845Y361250D01*
Y362650D01*
X317309Y363944D01*
X316319Y364934D01*
X315025Y365470D01*
D02*
G37*
G36*
X295975D02*
X294575D01*
X293281Y364934D01*
X292291Y363944D01*
X291755Y362650D01*
Y361250D01*
X292291Y359956D01*
X293281Y358966D01*
X294575Y358430D01*
X295975D01*
X297269Y358966D01*
X298259Y359956D01*
X298795Y361250D01*
Y362650D01*
X298259Y363944D01*
X297269Y364934D01*
X295975Y365470D01*
D02*
G37*
G36*
X276925D02*
X275525D01*
X274231Y364934D01*
X273241Y363944D01*
X272705Y362650D01*
Y361250D01*
X273241Y359956D01*
X274231Y358966D01*
X275525Y358430D01*
X276925D01*
X278219Y358966D01*
X279209Y359956D01*
X279745Y361250D01*
Y362650D01*
X279209Y363944D01*
X278219Y364934D01*
X276925Y365470D01*
D02*
G37*
G36*
X560630Y368581D02*
X559230D01*
X557936Y368045D01*
X556946Y367055D01*
X556410Y365761D01*
Y364361D01*
X556946Y363067D01*
X557936Y362077D01*
X559230Y361541D01*
X560630D01*
X561924Y362077D01*
X562091Y362244D01*
X563336Y361996D01*
X563385Y361879D01*
X564375Y360889D01*
X565669Y360353D01*
X567069D01*
X568363Y360889D01*
X569100Y361627D01*
X569353Y361879D01*
X570450Y361317D01*
X570266Y360872D01*
Y359474D01*
X569149D01*
X567855Y358938D01*
X566865Y357948D01*
X566329Y356654D01*
Y355254D01*
X566865Y353960D01*
X567855Y352970D01*
X569149Y352434D01*
X570549D01*
X571843Y352970D01*
X572833Y353960D01*
X573369Y355254D01*
Y356279D01*
X574319Y356401D01*
X575255Y355443D01*
Y355408D01*
X575791Y354114D01*
X576781Y353124D01*
X578075Y352588D01*
X579475D01*
X580769Y353124D01*
X581759Y354114D01*
X582295Y355408D01*
Y355715D01*
X583565Y355662D01*
X584101Y354368D01*
X585091Y353378D01*
X586385Y352842D01*
X587785D01*
X589079Y353378D01*
X590069Y354368D01*
X590605Y355662D01*
Y357062D01*
X590069Y358356D01*
X589079Y359346D01*
X587785Y359882D01*
X586385D01*
X586066Y361055D01*
Y361278D01*
X585531Y362572D01*
X584540Y363562D01*
X583247Y364098D01*
X581846D01*
X580553Y363562D01*
X579562Y362572D01*
X579026Y361278D01*
Y360479D01*
X578407Y360277D01*
X577306Y360872D01*
X576770Y362166D01*
X575780Y363156D01*
X574486Y363692D01*
X573086D01*
X571792Y363156D01*
X571054Y362418D01*
X570802Y362166D01*
X569704Y362728D01*
X569889Y363173D01*
Y364573D01*
X569353Y365867D01*
X568363Y366857D01*
X567069Y367393D01*
X565669D01*
X564375Y366857D01*
X564208Y366690D01*
X562963Y366938D01*
X562914Y367055D01*
X561924Y368045D01*
X560630Y368581D01*
D02*
G37*
G36*
X629350Y346420D02*
X627950D01*
X626656Y345884D01*
X625666Y344894D01*
X625130Y343600D01*
Y342200D01*
X625666Y340906D01*
X626656Y339916D01*
X627950Y339380D01*
X629350D01*
X630644Y339916D01*
X631634Y340906D01*
X632170Y342200D01*
Y343600D01*
X631634Y344894D01*
X630644Y345884D01*
X629350Y346420D01*
D02*
G37*
G36*
X419800D02*
X418400D01*
X417106Y345884D01*
X416116Y344894D01*
X415580Y343600D01*
Y342200D01*
X416116Y340906D01*
X417106Y339916D01*
X418400Y339380D01*
X419800D01*
X421094Y339916D01*
X422084Y340906D01*
X422620Y342200D01*
Y343600D01*
X422084Y344894D01*
X421094Y345884D01*
X419800Y346420D01*
D02*
G37*
G36*
X400750D02*
X399350D01*
X398056Y345884D01*
X397066Y344894D01*
X396530Y343600D01*
Y342200D01*
X397066Y340906D01*
X398056Y339916D01*
X399350Y339380D01*
X400750D01*
X402044Y339916D01*
X403034Y340906D01*
X403570Y342200D01*
Y343600D01*
X403034Y344894D01*
X402044Y345884D01*
X400750Y346420D01*
D02*
G37*
G36*
X343600D02*
X342200D01*
X340906Y345884D01*
X339916Y344894D01*
X339380Y343600D01*
Y342200D01*
X339916Y340906D01*
X340906Y339916D01*
X342200Y339380D01*
X343600D01*
X344894Y339916D01*
X345884Y340906D01*
X346420Y342200D01*
Y343600D01*
X345884Y344894D01*
X344894Y345884D01*
X343600Y346420D01*
D02*
G37*
G36*
X324550D02*
X323150D01*
X321856Y345884D01*
X320866Y344894D01*
X320330Y343600D01*
Y342200D01*
X320866Y340906D01*
X321856Y339916D01*
X323150Y339380D01*
X324550D01*
X325844Y339916D01*
X326834Y340906D01*
X327370Y342200D01*
Y343600D01*
X326834Y344894D01*
X325844Y345884D01*
X324550Y346420D01*
D02*
G37*
G36*
X305500D02*
X304100D01*
X302806Y345884D01*
X301816Y344894D01*
X301280Y343600D01*
Y342200D01*
X301816Y340906D01*
X302806Y339916D01*
X304100Y339380D01*
X305500D01*
X306794Y339916D01*
X307784Y340906D01*
X308320Y342200D01*
Y343600D01*
X307784Y344894D01*
X306794Y345884D01*
X305500Y346420D01*
D02*
G37*
G36*
X286450D02*
X285050D01*
X283756Y345884D01*
X282766Y344894D01*
X282230Y343600D01*
Y342200D01*
X282766Y340906D01*
X283756Y339916D01*
X285050Y339380D01*
X286450D01*
X287744Y339916D01*
X288734Y340906D01*
X289270Y342200D01*
Y343600D01*
X288734Y344894D01*
X287744Y345884D01*
X286450Y346420D01*
D02*
G37*
G36*
X267400D02*
X266000D01*
X264706Y345884D01*
X263716Y344894D01*
X263180Y343600D01*
Y342200D01*
X263716Y340906D01*
X264706Y339916D01*
X266000Y339380D01*
X267400D01*
X268694Y339916D01*
X269684Y340906D01*
X270220Y342200D01*
Y343600D01*
X269684Y344894D01*
X268694Y345884D01*
X267400Y346420D01*
D02*
G37*
G36*
X486475Y327370D02*
X485075D01*
X483781Y326834D01*
X482791Y325844D01*
X482255Y324550D01*
Y323150D01*
X482791Y321856D01*
X483781Y320866D01*
X485075Y320330D01*
X486475D01*
X487769Y320866D01*
X488759Y321856D01*
X489295Y323150D01*
Y324550D01*
X488759Y325844D01*
X487769Y326834D01*
X486475Y327370D01*
D02*
G37*
G36*
X448375D02*
X446975D01*
X445681Y326834D01*
X444691Y325844D01*
X444155Y324550D01*
Y323150D01*
X444691Y321856D01*
X445681Y320866D01*
X446975Y320330D01*
X448375D01*
X449669Y320866D01*
X450659Y321856D01*
X451195Y323150D01*
Y324550D01*
X450659Y325844D01*
X449669Y326834D01*
X448375Y327370D01*
D02*
G37*
G36*
X429325D02*
X427925D01*
X426631Y326834D01*
X425641Y325844D01*
X425105Y324550D01*
Y323150D01*
X425641Y321856D01*
X426631Y320866D01*
X427925Y320330D01*
X429325D01*
X430619Y320866D01*
X431609Y321856D01*
X432145Y323150D01*
Y324550D01*
X431609Y325844D01*
X430619Y326834D01*
X429325Y327370D01*
D02*
G37*
G36*
X410275D02*
X408875D01*
X407581Y326834D01*
X406591Y325844D01*
X406055Y324550D01*
Y323150D01*
X406591Y321856D01*
X407581Y320866D01*
X408875Y320330D01*
X410275D01*
X411569Y320866D01*
X412559Y321856D01*
X413095Y323150D01*
Y324550D01*
X412559Y325844D01*
X411569Y326834D01*
X410275Y327370D01*
D02*
G37*
G36*
X391225D02*
X389825D01*
X388531Y326834D01*
X387541Y325844D01*
X387005Y324550D01*
Y323150D01*
X387541Y321856D01*
X388531Y320866D01*
X389825Y320330D01*
X391225D01*
X392519Y320866D01*
X393509Y321856D01*
X394045Y323150D01*
Y324550D01*
X393509Y325844D01*
X392519Y326834D01*
X391225Y327370D01*
D02*
G37*
G36*
X372175D02*
X370775D01*
X369481Y326834D01*
X368491Y325844D01*
X367955Y324550D01*
Y323150D01*
X368491Y321856D01*
X369481Y320866D01*
X370775Y320330D01*
X372175D01*
X373469Y320866D01*
X374459Y321856D01*
X374995Y323150D01*
Y324550D01*
X374459Y325844D01*
X373469Y326834D01*
X372175Y327370D01*
D02*
G37*
G36*
X610952Y343027D02*
X609551D01*
X608257Y342491D01*
X607267Y341501D01*
X606731Y340207D01*
Y338807D01*
X607267Y337513D01*
X608257Y336523D01*
X609551Y335987D01*
X609782D01*
X610095Y335519D01*
Y334119D01*
X609728Y333570D01*
X609666D01*
X608373Y333034D01*
X607383Y332044D01*
X606847Y330750D01*
Y329350D01*
X607383Y328056D01*
X607251Y326407D01*
X607124Y326280D01*
X606588Y324986D01*
Y323586D01*
X607124Y322292D01*
X608015Y321401D01*
X607124Y320510D01*
X606588Y319216D01*
Y317816D01*
X607124Y316522D01*
X608114Y315532D01*
X609408Y314996D01*
X610808D01*
X612102Y315532D01*
X613092Y316522D01*
X613628Y317816D01*
Y319216D01*
X613092Y320510D01*
X612201Y321401D01*
X613092Y322292D01*
X613628Y323586D01*
Y324986D01*
X613092Y326280D01*
X613224Y327929D01*
X613351Y328056D01*
X613887Y329350D01*
Y330750D01*
X614253Y331299D01*
X614315D01*
X615609Y331835D01*
X616599Y332825D01*
X617135Y334119D01*
Y335519D01*
X616599Y336813D01*
X615609Y337803D01*
X614315Y338339D01*
X614084D01*
X613771Y338807D01*
Y340207D01*
X613236Y341501D01*
X612245Y342491D01*
X610952Y343027D01*
D02*
G37*
G36*
X283839Y322707D02*
X281565D01*
X279369Y322118D01*
X277399Y320981D01*
X275791Y319374D01*
X274655Y317404D01*
X274066Y315208D01*
Y312934D01*
X274655Y310738D01*
X275791Y308768D01*
X277399Y307160D01*
X279369Y306024D01*
X281565Y305435D01*
X283839D01*
X286035Y306024D01*
X288005Y307160D01*
X289613Y308768D01*
X290749Y310738D01*
X291338Y312934D01*
Y315208D01*
X290749Y317404D01*
X289613Y319374D01*
X288005Y320981D01*
X286035Y322118D01*
X283839Y322707D01*
D02*
G37*
G36*
X457900Y308320D02*
X456500D01*
X455206Y307784D01*
X454216Y306794D01*
X453680Y305500D01*
Y304100D01*
X454216Y302806D01*
X455206Y301816D01*
X456500Y301280D01*
X457900D01*
X459194Y301816D01*
X460184Y302806D01*
X460720Y304100D01*
Y305500D01*
X460184Y306794D01*
X459194Y307784D01*
X457900Y308320D01*
D02*
G37*
G36*
X438850D02*
X437450D01*
X436156Y307784D01*
X435166Y306794D01*
X434630Y305500D01*
Y304100D01*
X435166Y302806D01*
X436156Y301816D01*
X437450Y301280D01*
X438850D01*
X440144Y301816D01*
X441134Y302806D01*
X441670Y304100D01*
Y305500D01*
X441134Y306794D01*
X440144Y307784D01*
X438850Y308320D01*
D02*
G37*
G36*
X419800D02*
X418400D01*
X417106Y307784D01*
X416116Y306794D01*
X415580Y305500D01*
Y304100D01*
X416116Y302806D01*
X417106Y301816D01*
X418400Y301280D01*
X419800D01*
X421094Y301816D01*
X422084Y302806D01*
X422620Y304100D01*
Y305500D01*
X422084Y306794D01*
X421094Y307784D01*
X419800Y308320D01*
D02*
G37*
G36*
X400750D02*
X399350D01*
X398056Y307784D01*
X397066Y306794D01*
X396530Y305500D01*
Y304100D01*
X397066Y302806D01*
X398056Y301816D01*
X399350Y301280D01*
X400750D01*
X402044Y301816D01*
X403034Y302806D01*
X403570Y304100D01*
Y305500D01*
X403034Y306794D01*
X402044Y307784D01*
X400750Y308320D01*
D02*
G37*
G36*
X381700D02*
X380300D01*
X379006Y307784D01*
X378016Y306794D01*
X377480Y305500D01*
Y304100D01*
X378016Y302806D01*
X379006Y301816D01*
X380300Y301280D01*
X381700D01*
X382994Y301816D01*
X383984Y302806D01*
X384520Y304100D01*
Y305500D01*
X383984Y306794D01*
X382994Y307784D01*
X381700Y308320D01*
D02*
G37*
G36*
X267400D02*
X266000D01*
X264706Y307784D01*
X263716Y306794D01*
X263180Y305500D01*
Y304100D01*
X263716Y302806D01*
X264706Y301816D01*
X266000Y301280D01*
X267400D01*
X268694Y301816D01*
X269684Y302806D01*
X270220Y304100D01*
Y305500D01*
X269684Y306794D01*
X268694Y307784D01*
X267400Y308320D01*
D02*
G37*
G36*
X564762Y285527D02*
X563361D01*
X562068Y284991D01*
X561143Y284067D01*
X560286Y284924D01*
X558992Y285460D01*
X557592D01*
X556298Y284924D01*
X555308Y283934D01*
X554772Y282640D01*
Y281240D01*
X555308Y279946D01*
X556298Y278956D01*
X557592Y278420D01*
X558992D01*
X560286Y278956D01*
X561210Y279880D01*
X562068Y279023D01*
X563361Y278487D01*
X564762D01*
X566055Y279023D01*
X567046Y280013D01*
X567582Y281307D01*
Y282707D01*
X567046Y284001D01*
X566055Y284991D01*
X564762Y285527D01*
D02*
G37*
G36*
X610300Y291048D02*
X608900D01*
X607606Y290512D01*
X606616Y289522D01*
X606080Y288228D01*
Y286828D01*
X606616Y285534D01*
X607606Y284544D01*
X608900Y284008D01*
X610300D01*
X611594Y284544D01*
X612584Y285534D01*
X613120Y286828D01*
Y288228D01*
X612584Y289522D01*
X611594Y290512D01*
X610300Y291048D01*
D02*
G37*
G36*
X638875Y289270D02*
X637475D01*
X636181Y288734D01*
X635191Y287744D01*
X634655Y286450D01*
Y285050D01*
X635191Y283756D01*
X636181Y282766D01*
X637475Y282230D01*
X638875D01*
X640169Y282766D01*
X641159Y283756D01*
X641695Y285050D01*
Y286450D01*
X641159Y287744D01*
X640169Y288734D01*
X638875Y289270D01*
D02*
G37*
G36*
X410275D02*
X408875D01*
X407581Y288734D01*
X406591Y287744D01*
X406055Y286450D01*
Y285050D01*
X406591Y283756D01*
X407581Y282766D01*
X408875Y282230D01*
X410275D01*
X411569Y282766D01*
X412559Y283756D01*
X413095Y285050D01*
Y286450D01*
X412559Y287744D01*
X411569Y288734D01*
X410275Y289270D01*
D02*
G37*
G36*
X372175D02*
X370775D01*
X369481Y288734D01*
X368491Y287744D01*
X367955Y286450D01*
Y285050D01*
X368491Y283756D01*
X369481Y282766D01*
X370775Y282230D01*
X372175D01*
X373469Y282766D01*
X374459Y283756D01*
X374995Y285050D01*
Y286450D01*
X374459Y287744D01*
X373469Y288734D01*
X372175Y289270D01*
D02*
G37*
G36*
X353125D02*
X351725D01*
X350431Y288734D01*
X349441Y287744D01*
X348905Y286450D01*
Y285050D01*
X349441Y283756D01*
X350431Y282766D01*
X351725Y282230D01*
X353125D01*
X354419Y282766D01*
X355409Y283756D01*
X355945Y285050D01*
Y286450D01*
X355409Y287744D01*
X354419Y288734D01*
X353125Y289270D01*
D02*
G37*
G36*
X334075D02*
X332675D01*
X331381Y288734D01*
X330391Y287744D01*
X329855Y286450D01*
Y285050D01*
X330391Y283756D01*
X331381Y282766D01*
X332675Y282230D01*
X334075D01*
X335369Y282766D01*
X336359Y283756D01*
X336895Y285050D01*
Y286450D01*
X336359Y287744D01*
X335369Y288734D01*
X334075Y289270D01*
D02*
G37*
G36*
X315025D02*
X313625D01*
X312331Y288734D01*
X311341Y287744D01*
X310805Y286450D01*
Y285050D01*
X311341Y283756D01*
X312331Y282766D01*
X313625Y282230D01*
X315025D01*
X316319Y282766D01*
X317309Y283756D01*
X317845Y285050D01*
Y286450D01*
X317309Y287744D01*
X316319Y288734D01*
X315025Y289270D01*
D02*
G37*
G36*
X295975D02*
X294575D01*
X293281Y288734D01*
X292291Y287744D01*
X291755Y286450D01*
Y285050D01*
X292291Y283756D01*
X293281Y282766D01*
X294575Y282230D01*
X295975D01*
X297269Y282766D01*
X298259Y283756D01*
X298795Y285050D01*
Y286450D01*
X298259Y287744D01*
X297269Y288734D01*
X295975Y289270D01*
D02*
G37*
G36*
X276925D02*
X275525D01*
X274231Y288734D01*
X273241Y287744D01*
X272705Y286450D01*
Y285050D01*
X273241Y283756D01*
X274231Y282766D01*
X275525Y282230D01*
X276925D01*
X278219Y282766D01*
X279209Y283756D01*
X279745Y285050D01*
Y286450D01*
X279209Y287744D01*
X278219Y288734D01*
X276925Y289270D01*
D02*
G37*
G36*
X587630Y285514D02*
X586230D01*
X584936Y284978D01*
X583946Y283988D01*
X583410Y282694D01*
Y282436D01*
X582614Y281904D01*
X581214D01*
X580075Y282807D01*
X579818Y283426D01*
X578828Y284416D01*
X577534Y284952D01*
X576134D01*
X574840Y284416D01*
X573850Y283426D01*
X573314Y282132D01*
Y280732D01*
X573850Y279438D01*
X574840Y278448D01*
X576134Y277912D01*
X577534D01*
X578673Y277009D01*
X578930Y276390D01*
X579920Y275400D01*
X581214Y274864D01*
X582614D01*
X583908Y275400D01*
X584898Y276390D01*
X585434Y277684D01*
Y277942D01*
X586230Y278474D01*
X587630D01*
X588924Y279010D01*
X589914Y280000D01*
X590450Y281294D01*
Y282694D01*
X589914Y283988D01*
X588924Y284978D01*
X587630Y285514D01*
D02*
G37*
G36*
X383986Y288000D02*
X382586D01*
X381292Y287464D01*
X380302Y286474D01*
X379766Y285180D01*
Y283780D01*
X380302Y282486D01*
X381292Y281496D01*
X382586Y280960D01*
X383986D01*
X385280Y281496D01*
X386270Y282486D01*
X386806Y283780D01*
Y285180D01*
X386270Y286474D01*
X385280Y287464D01*
X383986Y288000D01*
D02*
G37*
G36*
X433516Y287746D02*
X432116D01*
X430822Y287210D01*
X429832Y286220D01*
X429296Y284926D01*
Y283526D01*
X429832Y282232D01*
X430822Y281242D01*
X432116Y280706D01*
X433516D01*
X434810Y281242D01*
X435800Y282232D01*
X436336Y283526D01*
Y284926D01*
X435800Y286220D01*
X434810Y287210D01*
X433516Y287746D01*
D02*
G37*
G36*
X480506Y286984D02*
X479106D01*
X477812Y286448D01*
X476822Y285458D01*
X476286Y284164D01*
Y282764D01*
X476822Y281470D01*
X477812Y280480D01*
X479106Y279944D01*
X480506D01*
X481800Y280480D01*
X482790Y281470D01*
X483326Y282764D01*
Y284164D01*
X482790Y285458D01*
X481800Y286448D01*
X480506Y286984D01*
D02*
G37*
G36*
X457900Y270220D02*
X456500D01*
X455206Y269684D01*
X454216Y268694D01*
X453680Y267400D01*
Y266000D01*
X454216Y264706D01*
X455206Y263716D01*
X456500Y263180D01*
X457900D01*
X459194Y263716D01*
X460184Y264706D01*
X460720Y266000D01*
Y267400D01*
X460184Y268694D01*
X459194Y269684D01*
X457900Y270220D01*
D02*
G37*
G36*
X400750D02*
X399350D01*
X398056Y269684D01*
X397066Y268694D01*
X396530Y267400D01*
Y266000D01*
X397066Y264706D01*
X398056Y263716D01*
X399350Y263180D01*
X400750D01*
X402044Y263716D01*
X403034Y264706D01*
X403570Y266000D01*
Y267400D01*
X403034Y268694D01*
X402044Y269684D01*
X400750Y270220D01*
D02*
G37*
G36*
X362650D02*
X361250D01*
X359956Y269684D01*
X358966Y268694D01*
X358430Y267400D01*
Y266000D01*
X358966Y264706D01*
X359956Y263716D01*
X361250Y263180D01*
X362650D01*
X363944Y263716D01*
X364934Y264706D01*
X365470Y266000D01*
Y267400D01*
X364934Y268694D01*
X363944Y269684D01*
X362650Y270220D01*
D02*
G37*
G36*
X343600D02*
X342200D01*
X340906Y269684D01*
X339916Y268694D01*
X339380Y267400D01*
Y266000D01*
X339916Y264706D01*
X340906Y263716D01*
X342200Y263180D01*
X343600D01*
X344894Y263716D01*
X345884Y264706D01*
X346420Y266000D01*
Y267400D01*
X345884Y268694D01*
X344894Y269684D01*
X343600Y270220D01*
D02*
G37*
G36*
X324550D02*
X323150D01*
X321856Y269684D01*
X320866Y268694D01*
X320330Y267400D01*
Y266000D01*
X320866Y264706D01*
X321856Y263716D01*
X323150Y263180D01*
X324550D01*
X325844Y263716D01*
X326834Y264706D01*
X327370Y266000D01*
Y267400D01*
X326834Y268694D01*
X325844Y269684D01*
X324550Y270220D01*
D02*
G37*
G36*
X305500D02*
X304100D01*
X302806Y269684D01*
X301816Y268694D01*
X301280Y267400D01*
Y266000D01*
X301816Y264706D01*
X302806Y263716D01*
X304100Y263180D01*
X305500D01*
X306794Y263716D01*
X307784Y264706D01*
X308320Y266000D01*
Y267400D01*
X307784Y268694D01*
X306794Y269684D01*
X305500Y270220D01*
D02*
G37*
G36*
X286450D02*
X285050D01*
X283756Y269684D01*
X282766Y268694D01*
X282230Y267400D01*
Y266000D01*
X282766Y264706D01*
X283756Y263716D01*
X285050Y263180D01*
X286450D01*
X287744Y263716D01*
X288734Y264706D01*
X289270Y266000D01*
Y267400D01*
X288734Y268694D01*
X287744Y269684D01*
X286450Y270220D01*
D02*
G37*
G36*
X267400D02*
X266000D01*
X264706Y269684D01*
X263716Y268694D01*
X263180Y267400D01*
Y266000D01*
X263716Y264706D01*
X264706Y263716D01*
X266000Y263180D01*
X267400D01*
X268694Y263716D01*
X269684Y264706D01*
X270220Y266000D01*
Y267400D01*
X269684Y268694D01*
X268694Y269684D01*
X267400Y270220D01*
D02*
G37*
%LPD*%
D60*
X547116Y396494D02*
D03*
X608584Y396748D02*
D03*
X627380Y265430D02*
D03*
X297434Y474980D02*
D03*
X521621Y332903D02*
D03*
X482346Y405384D02*
D03*
X470408Y366776D02*
D03*
X405892Y405638D02*
D03*
X355346Y328422D02*
D03*
X349504Y329946D02*
D03*
X518922Y314960D02*
D03*
Y321310D02*
D03*
X594360Y438658D02*
D03*
X640080Y328930D02*
D03*
X631190Y279400D02*
D03*
M02*
