G04*
G04 #@! TF.GenerationSoftware,Altium Limited,Altium Designer,22.8.2 (66)*
G04*
G04 Layer_Color=65535*
%FSLAX44Y44*%
%MOMM*%
G71*
G04*
G04 #@! TF.SameCoordinates,E765EAFB-E956-432D-8013-76C00557599A*
G04*
G04*
G04 #@! TF.FilePolarity,Positive*
G04*
G01*
G75*
%ADD10C,0.2500*%
%ADD11C,0.2000*%
%ADD12C,0.5080*%
%ADD13C,0.2540*%
G36*
X419897Y314819D02*
X419136D01*
X417359Y319537D01*
X418205D01*
X419220Y316708D01*
Y316698D01*
X419230Y316689D01*
X419239Y316661D01*
X419248Y316633D01*
X419277Y316539D01*
X419314Y316416D01*
X419361Y316276D01*
X419417Y316116D01*
X419464Y315937D01*
X419521Y315759D01*
X419530Y315777D01*
X419540Y315824D01*
X419568Y315900D01*
X419596Y316012D01*
X419643Y316134D01*
X419690Y316294D01*
X419756Y316463D01*
X419822Y316651D01*
X420865Y319537D01*
X421692D01*
X419897Y314819D01*
D02*
G37*
G36*
X415583D02*
X414784D01*
Y319903D01*
X414775Y319894D01*
X414728Y319856D01*
X414672Y319800D01*
X414577Y319734D01*
X414474Y319649D01*
X414343Y319555D01*
X414192Y319452D01*
X414023Y319349D01*
X414014D01*
X414004Y319339D01*
X413948Y319302D01*
X413854Y319255D01*
X413741Y319198D01*
X413610Y319132D01*
X413469Y319067D01*
X413328Y319001D01*
X413187Y318944D01*
Y319715D01*
X413196D01*
X413215Y319734D01*
X413252Y319743D01*
X413299Y319771D01*
X413356Y319800D01*
X413422Y319837D01*
X413581Y319931D01*
X413769Y320035D01*
X413957Y320166D01*
X414155Y320317D01*
X414352Y320476D01*
X414361Y320486D01*
X414371Y320495D01*
X414399Y320523D01*
X414437Y320552D01*
X414521Y320645D01*
X414634Y320758D01*
X414747Y320890D01*
X414869Y321040D01*
X414972Y321191D01*
X415066Y321350D01*
X415583D01*
Y314819D01*
D02*
G37*
G36*
X407125Y321313D02*
X407285Y321303D01*
X407454Y321294D01*
X407614Y321275D01*
X407755Y321256D01*
X407773D01*
X407839Y321238D01*
X407924Y321219D01*
X408036Y321191D01*
X408159Y321144D01*
X408290Y321087D01*
X408431Y321021D01*
X408553Y320946D01*
X408572Y320937D01*
X408610Y320909D01*
X408666Y320852D01*
X408741Y320787D01*
X408826Y320702D01*
X408910Y320589D01*
X409005Y320467D01*
X409080Y320326D01*
X409089Y320307D01*
X409108Y320260D01*
X409146Y320176D01*
X409183Y320063D01*
X409211Y319931D01*
X409249Y319781D01*
X409268Y319612D01*
X409277Y319433D01*
Y319424D01*
Y319396D01*
Y319358D01*
X409268Y319292D01*
X409258Y319226D01*
X409249Y319142D01*
X409230Y319048D01*
X409211Y318944D01*
X409146Y318728D01*
X409108Y318616D01*
X409052Y318493D01*
X408986Y318371D01*
X408920Y318258D01*
X408835Y318146D01*
X408741Y318033D01*
X408732Y318023D01*
X408713Y318005D01*
X408685Y317976D01*
X408638Y317948D01*
X408582Y317901D01*
X408506Y317854D01*
X408412Y317798D01*
X408309Y317751D01*
X408187Y317695D01*
X408046Y317638D01*
X407896Y317591D01*
X407717Y317554D01*
X407529Y317516D01*
X407322Y317488D01*
X407087Y317469D01*
X406843Y317460D01*
X405179D01*
Y314819D01*
X404315D01*
Y321322D01*
X406984D01*
X407125Y321313D01*
D02*
G37*
G36*
X403422Y320552D02*
X401279D01*
Y314819D01*
X400415D01*
Y320552D01*
X398272D01*
Y321322D01*
X403422D01*
Y320552D01*
D02*
G37*
G36*
X424436Y321341D02*
X424511Y321332D01*
X424596Y321322D01*
X424690Y321313D01*
X424784Y321285D01*
X425009Y321228D01*
X425235Y321144D01*
X425348Y321087D01*
X425460Y321021D01*
X425564Y320937D01*
X425667Y320852D01*
X425677Y320843D01*
X425686Y320834D01*
X425714Y320805D01*
X425752Y320768D01*
X425789Y320711D01*
X425836Y320655D01*
X425930Y320514D01*
X426024Y320335D01*
X426109Y320129D01*
X426175Y319894D01*
X426184Y319771D01*
X426194Y319640D01*
Y319631D01*
Y319621D01*
Y319565D01*
X426184Y319480D01*
X426165Y319377D01*
X426137Y319245D01*
X426090Y319114D01*
X426034Y318982D01*
X425949Y318850D01*
X425940Y318832D01*
X425902Y318794D01*
X425846Y318738D01*
X425770Y318663D01*
X425667Y318578D01*
X425545Y318493D01*
X425404Y318409D01*
X425235Y318334D01*
X425244D01*
X425263Y318324D01*
X425291Y318315D01*
X425329Y318296D01*
X425442Y318249D01*
X425573Y318183D01*
X425714Y318089D01*
X425864Y317986D01*
X426006Y317854D01*
X426137Y317704D01*
Y317695D01*
X426147Y317685D01*
X426184Y317629D01*
X426240Y317535D01*
X426297Y317413D01*
X426353Y317262D01*
X426410Y317084D01*
X426447Y316886D01*
X426457Y316670D01*
Y316661D01*
Y316633D01*
Y316586D01*
X426447Y316529D01*
X426438Y316463D01*
X426428Y316379D01*
X426410Y316285D01*
X426381Y316182D01*
X426316Y315965D01*
X426269Y315843D01*
X426203Y315730D01*
X426137Y315608D01*
X426062Y315495D01*
X425968Y315383D01*
X425864Y315270D01*
X425855Y315261D01*
X425836Y315242D01*
X425808Y315214D01*
X425761Y315185D01*
X425695Y315138D01*
X425630Y315091D01*
X425545Y315044D01*
X425451Y314988D01*
X425348Y314932D01*
X425225Y314885D01*
X425094Y314838D01*
X424962Y314791D01*
X424812Y314762D01*
X424652Y314734D01*
X424492Y314715D01*
X424314Y314706D01*
X424220D01*
X424154Y314715D01*
X424070Y314725D01*
X423975Y314734D01*
X423872Y314753D01*
X423759Y314781D01*
X423506Y314847D01*
X423374Y314894D01*
X423252Y314941D01*
X423120Y315007D01*
X422989Y315082D01*
X422867Y315166D01*
X422754Y315270D01*
X422744Y315279D01*
X422726Y315298D01*
X422697Y315326D01*
X422660Y315373D01*
X422622Y315430D01*
X422566Y315495D01*
X422519Y315571D01*
X422463Y315665D01*
X422406Y315759D01*
X422359Y315871D01*
X422265Y316106D01*
X422228Y316247D01*
X422199Y316388D01*
X422180Y316539D01*
X422171Y316689D01*
Y316698D01*
Y316717D01*
Y316755D01*
X422180Y316792D01*
Y316849D01*
X422190Y316915D01*
X422209Y317065D01*
X422246Y317234D01*
X422303Y317403D01*
X422387Y317582D01*
X422491Y317751D01*
Y317760D01*
X422509Y317770D01*
X422547Y317817D01*
X422622Y317892D01*
X422726Y317986D01*
X422857Y318080D01*
X423017Y318183D01*
X423195Y318268D01*
X423412Y318334D01*
X423402D01*
X423393Y318343D01*
X423365Y318352D01*
X423327Y318371D01*
X423242Y318409D01*
X423130Y318465D01*
X423008Y318540D01*
X422885Y318634D01*
X422773Y318738D01*
X422669Y318850D01*
X422660Y318869D01*
X422632Y318907D01*
X422594Y318982D01*
X422556Y319076D01*
X422509Y319198D01*
X422472Y319339D01*
X422444Y319499D01*
X422434Y319668D01*
Y319678D01*
Y319696D01*
Y319734D01*
X422444Y319790D01*
X422453Y319847D01*
X422463Y319922D01*
X422500Y320082D01*
X422556Y320270D01*
X422650Y320467D01*
X422707Y320570D01*
X422773Y320674D01*
X422857Y320768D01*
X422942Y320862D01*
X422951Y320871D01*
X422970Y320881D01*
X422998Y320909D01*
X423036Y320937D01*
X423083Y320975D01*
X423148Y321012D01*
X423224Y321059D01*
X423299Y321106D01*
X423393Y321153D01*
X423496Y321200D01*
X423609Y321238D01*
X423731Y321275D01*
X423994Y321332D01*
X424145Y321341D01*
X424295Y321350D01*
X424380D01*
X424436Y321341D01*
D02*
G37*
G36*
X469735Y291173D02*
X469891D01*
X470046Y291159D01*
X470229D01*
X470595Y291117D01*
X470976Y291074D01*
X471328Y291004D01*
X471483Y290962D01*
X471624Y290919D01*
X471638D01*
X471653Y290905D01*
X471737Y290863D01*
X471864Y290792D01*
X472033Y290708D01*
X472216Y290567D01*
X472400Y290412D01*
X472583Y290214D01*
X472752Y289975D01*
Y289961D01*
X472766Y289947D01*
X472794Y289904D01*
X472823Y289862D01*
X472893Y289721D01*
X472978Y289538D01*
X473048Y289312D01*
X473119Y289058D01*
X473175Y288762D01*
X473189Y288452D01*
Y288438D01*
Y288410D01*
Y288340D01*
X473175Y288269D01*
Y288170D01*
X473161Y288072D01*
X473105Y287818D01*
X473034Y287522D01*
X472921Y287226D01*
X472752Y286916D01*
X472654Y286775D01*
X472541Y286634D01*
X472527Y286620D01*
X472513Y286606D01*
X472470Y286563D01*
X472414Y286521D01*
X472357Y286465D01*
X472273Y286394D01*
X472174Y286324D01*
X472061Y286253D01*
X471935Y286169D01*
X471780Y286098D01*
X471624Y286028D01*
X471455Y285957D01*
X471258Y285887D01*
X471060Y285830D01*
X470849Y285774D01*
X470609Y285732D01*
X470624D01*
X470638Y285718D01*
X470722Y285661D01*
X470835Y285591D01*
X470976Y285492D01*
X471145Y285365D01*
X471314Y285238D01*
X471497Y285083D01*
X471653Y284914D01*
X471667Y284900D01*
X471737Y284829D01*
X471822Y284717D01*
X471949Y284547D01*
X472118Y284336D01*
X472202Y284195D01*
X472301Y284054D01*
X472414Y283899D01*
X472527Y283730D01*
X472654Y283533D01*
X472780Y283335D01*
X473979Y281432D01*
X471610D01*
X470201Y283547D01*
X470187Y283561D01*
X470172Y283603D01*
X470130Y283659D01*
X470074Y283730D01*
X470017Y283814D01*
X469947Y283927D01*
X469792Y284153D01*
X469608Y284407D01*
X469439Y284632D01*
X469284Y284844D01*
X469214Y284914D01*
X469157Y284984D01*
X469143Y284998D01*
X469115Y285027D01*
X469059Y285083D01*
X468988Y285154D01*
X468890Y285210D01*
X468791Y285280D01*
X468678Y285337D01*
X468565Y285393D01*
X468551D01*
X468509Y285407D01*
X468438Y285436D01*
X468326Y285450D01*
X468185Y285478D01*
X468016Y285492D01*
X467818Y285506D01*
X467184D01*
Y281432D01*
X465210D01*
Y291187D01*
X469608D01*
X469735Y291173D01*
D02*
G37*
G36*
X459896D02*
X460051D01*
X460206Y291159D01*
X460389D01*
X460756Y291117D01*
X461136Y291074D01*
X461489Y291004D01*
X461644Y290962D01*
X461785Y290919D01*
X461799D01*
X461813Y290905D01*
X461898Y290863D01*
X462024Y290792D01*
X462193Y290708D01*
X462377Y290567D01*
X462560Y290412D01*
X462743Y290214D01*
X462912Y289975D01*
Y289961D01*
X462927Y289947D01*
X462955Y289904D01*
X462983Y289862D01*
X463053Y289721D01*
X463138Y289538D01*
X463209Y289312D01*
X463279Y289058D01*
X463335Y288762D01*
X463349Y288452D01*
Y288438D01*
Y288410D01*
Y288340D01*
X463335Y288269D01*
Y288170D01*
X463321Y288072D01*
X463265Y287818D01*
X463194Y287522D01*
X463082Y287226D01*
X462912Y286916D01*
X462814Y286775D01*
X462701Y286634D01*
X462687Y286620D01*
X462673Y286606D01*
X462631Y286563D01*
X462574Y286521D01*
X462518Y286465D01*
X462433Y286394D01*
X462335Y286324D01*
X462222Y286253D01*
X462095Y286169D01*
X461940Y286098D01*
X461785Y286028D01*
X461615Y285957D01*
X461418Y285887D01*
X461221Y285830D01*
X461009Y285774D01*
X460770Y285732D01*
X460784D01*
X460798Y285718D01*
X460882Y285661D01*
X460995Y285591D01*
X461136Y285492D01*
X461305Y285365D01*
X461475Y285238D01*
X461658Y285083D01*
X461813Y284914D01*
X461827Y284900D01*
X461898Y284829D01*
X461982Y284717D01*
X462109Y284547D01*
X462278Y284336D01*
X462363Y284195D01*
X462461Y284054D01*
X462574Y283899D01*
X462687Y283730D01*
X462814Y283533D01*
X462941Y283335D01*
X464139Y281432D01*
X461771D01*
X460361Y283547D01*
X460347Y283561D01*
X460333Y283603D01*
X460290Y283659D01*
X460234Y283730D01*
X460178Y283814D01*
X460107Y283927D01*
X459952Y284153D01*
X459769Y284407D01*
X459600Y284632D01*
X459445Y284844D01*
X459374Y284914D01*
X459318Y284984D01*
X459304Y284998D01*
X459275Y285027D01*
X459219Y285083D01*
X459149Y285154D01*
X459050Y285210D01*
X458951Y285280D01*
X458838Y285337D01*
X458726Y285393D01*
X458712D01*
X458669Y285407D01*
X458599Y285436D01*
X458486Y285450D01*
X458345Y285478D01*
X458176Y285492D01*
X457979Y285506D01*
X457344D01*
Y281432D01*
X455371D01*
Y291187D01*
X459769D01*
X459896Y291173D01*
D02*
G37*
G36*
X453510Y289538D02*
X448252D01*
Y287381D01*
X453143D01*
Y285732D01*
X448252D01*
Y283081D01*
X453693D01*
Y281432D01*
X446278D01*
Y291187D01*
X453510D01*
Y289538D01*
D02*
G37*
G36*
X415642Y291525D02*
X415797Y291511D01*
X415966Y291483D01*
X416163Y291455D01*
X416375Y291413D01*
X416600Y291356D01*
X416840Y291286D01*
X417079Y291201D01*
X417333Y291088D01*
X417573Y290976D01*
X417798Y290835D01*
X418038Y290665D01*
X418250Y290482D01*
X418264D01*
X418278Y290454D01*
X418320Y290412D01*
X418362Y290369D01*
X418419Y290299D01*
X418475Y290214D01*
X418630Y290017D01*
X418785Y289763D01*
X418954Y289453D01*
X419109Y289101D01*
X419250Y288692D01*
X417305Y288227D01*
Y288241D01*
X417291Y288255D01*
Y288297D01*
X417263Y288354D01*
X417220Y288480D01*
X417150Y288650D01*
X417051Y288847D01*
X416924Y289044D01*
X416755Y289242D01*
X416572Y289411D01*
X416544Y289425D01*
X416473Y289481D01*
X416361Y289552D01*
X416205Y289636D01*
X416008Y289721D01*
X415783Y289792D01*
X415529Y289848D01*
X415247Y289862D01*
X415148D01*
X415064Y289848D01*
X414979Y289834D01*
X414866Y289820D01*
X414627Y289763D01*
X414345Y289665D01*
X414049Y289524D01*
X413894Y289439D01*
X413753Y289340D01*
X413612Y289214D01*
X413485Y289073D01*
Y289058D01*
X413456Y289030D01*
X413428Y288988D01*
X413386Y288918D01*
X413330Y288833D01*
X413273Y288734D01*
X413217Y288607D01*
X413161Y288466D01*
X413090Y288297D01*
X413034Y288114D01*
X412977Y287903D01*
X412921Y287677D01*
X412878Y287423D01*
X412850Y287155D01*
X412836Y286859D01*
X412822Y286535D01*
Y286521D01*
Y286451D01*
Y286352D01*
X412836Y286239D01*
Y286084D01*
X412864Y285901D01*
X412878Y285718D01*
X412907Y285506D01*
X412991Y285069D01*
X413104Y284632D01*
X413175Y284421D01*
X413273Y284223D01*
X413372Y284040D01*
X413485Y283885D01*
X413499Y283871D01*
X413513Y283857D01*
X413555Y283814D01*
X413612Y283758D01*
X413753Y283645D01*
X413950Y283504D01*
X414189Y283349D01*
X414486Y283236D01*
X414824Y283138D01*
X415007Y283124D01*
X415205Y283109D01*
X415275D01*
X415331Y283124D01*
X415486Y283138D01*
X415670Y283166D01*
X415867Y283236D01*
X416093Y283321D01*
X416318Y283434D01*
X416544Y283603D01*
X416572Y283631D01*
X416642Y283702D01*
X416741Y283814D01*
X416854Y283984D01*
X416995Y284209D01*
X417122Y284477D01*
X417249Y284801D01*
X417361Y285182D01*
X419279Y284590D01*
Y284576D01*
X419264Y284519D01*
X419236Y284435D01*
X419194Y284322D01*
X419138Y284195D01*
X419081Y284040D01*
X419011Y283871D01*
X418926Y283687D01*
X418729Y283307D01*
X418475Y282912D01*
X418165Y282532D01*
X417996Y282362D01*
X417812Y282207D01*
X417798Y282193D01*
X417770Y282179D01*
X417714Y282137D01*
X417629Y282080D01*
X417531Y282024D01*
X417404Y281968D01*
X417263Y281897D01*
X417108Y281827D01*
X416924Y281742D01*
X416727Y281672D01*
X416516Y281615D01*
X416290Y281559D01*
X416050Y281502D01*
X415783Y281460D01*
X415515Y281446D01*
X415219Y281432D01*
X415134D01*
X415035Y281446D01*
X414894Y281460D01*
X414739Y281474D01*
X414542Y281502D01*
X414330Y281545D01*
X414091Y281601D01*
X413851Y281672D01*
X413597Y281756D01*
X413330Y281869D01*
X413062Y281996D01*
X412794Y282137D01*
X412526Y282320D01*
X412272Y282518D01*
X412033Y282757D01*
X412019Y282771D01*
X411976Y282813D01*
X411920Y282898D01*
X411835Y282997D01*
X411751Y283138D01*
X411638Y283293D01*
X411525Y283490D01*
X411412Y283716D01*
X411300Y283955D01*
X411187Y284223D01*
X411074Y284533D01*
X410989Y284858D01*
X410905Y285196D01*
X410849Y285576D01*
X410806Y285971D01*
X410792Y286394D01*
Y286408D01*
Y286422D01*
Y286507D01*
X410806Y286634D01*
Y286803D01*
X410835Y287000D01*
X410863Y287240D01*
X410891Y287494D01*
X410947Y287790D01*
X411018Y288086D01*
X411102Y288396D01*
X411201Y288706D01*
X411328Y289030D01*
X411469Y289340D01*
X411638Y289636D01*
X411821Y289918D01*
X412047Y290186D01*
X412061Y290200D01*
X412103Y290243D01*
X412174Y290313D01*
X412272Y290398D01*
X412399Y290496D01*
X412554Y290609D01*
X412724Y290736D01*
X412935Y290863D01*
X413161Y290990D01*
X413400Y291117D01*
X413682Y291229D01*
X413964Y291328D01*
X414288Y291413D01*
X414613Y291483D01*
X414979Y291525D01*
X415345Y291539D01*
X415515D01*
X415642Y291525D01*
D02*
G37*
G36*
X428033Y289707D02*
X425157D01*
Y281601D01*
X423183D01*
Y289707D01*
X420294D01*
Y291356D01*
X428033D01*
Y289707D01*
D02*
G37*
G36*
X410087Y281601D02*
X407959D01*
X407113Y283814D01*
X403194D01*
X402390Y281601D01*
X400304D01*
X404082Y291356D01*
X406168D01*
X410087Y281601D01*
D02*
G37*
G36*
X374388Y291173D02*
X374755D01*
X375150Y291145D01*
X375544Y291117D01*
X375714Y291103D01*
X375883Y291088D01*
X376024Y291060D01*
X376136Y291032D01*
X376151D01*
X376179Y291018D01*
X376221Y291004D01*
X376277Y290990D01*
X376432Y290919D01*
X376630Y290835D01*
X376841Y290708D01*
X377081Y290539D01*
X377307Y290327D01*
X377532Y290074D01*
Y290059D01*
X377560Y290045D01*
X377588Y290003D01*
X377617Y289947D01*
X377673Y289862D01*
X377715Y289777D01*
X377772Y289679D01*
X377828Y289566D01*
X377927Y289284D01*
X378025Y288974D01*
X378082Y288593D01*
X378110Y288185D01*
Y288170D01*
Y288142D01*
Y288100D01*
Y288029D01*
X378096Y287959D01*
Y287860D01*
X378068Y287663D01*
X378025Y287423D01*
X377969Y287155D01*
X377884Y286902D01*
X377772Y286662D01*
X377758Y286634D01*
X377715Y286563D01*
X377645Y286451D01*
X377546Y286310D01*
X377433Y286169D01*
X377278Y285999D01*
X377123Y285844D01*
X376940Y285703D01*
X376912Y285689D01*
X376855Y285647D01*
X376757Y285591D01*
X376630Y285520D01*
X376475Y285436D01*
X376306Y285365D01*
X376122Y285295D01*
X375925Y285238D01*
X375897D01*
X375854Y285224D01*
X375798D01*
X375728Y285210D01*
X375629Y285196D01*
X375530Y285182D01*
X375403D01*
X375276Y285168D01*
X375121Y285154D01*
X374952Y285140D01*
X374769Y285125D01*
X374572D01*
X374360Y285111D01*
X372612D01*
Y281432D01*
X370639D01*
Y291187D01*
X374233D01*
X374388Y291173D01*
D02*
G37*
G36*
X368750Y281432D02*
X366776D01*
Y291187D01*
X368750D01*
Y281432D01*
D02*
G37*
%LPC*%
G36*
X407040Y320552D02*
X405179D01*
Y318230D01*
X406928D01*
X406993Y318240D01*
X407059D01*
X407134Y318249D01*
X407313Y318268D01*
X407510Y318305D01*
X407708Y318362D01*
X407886Y318437D01*
X407971Y318484D01*
X408036Y318540D01*
X408055Y318559D01*
X408093Y318597D01*
X408149Y318672D01*
X408215Y318766D01*
X408281Y318888D01*
X408337Y319039D01*
X408375Y319208D01*
X408394Y319405D01*
Y319414D01*
Y319424D01*
Y319471D01*
X408384Y319555D01*
X408366Y319649D01*
X408347Y319753D01*
X408309Y319875D01*
X408253Y319988D01*
X408187Y320101D01*
X408177Y320110D01*
X408149Y320147D01*
X408102Y320194D01*
X408046Y320260D01*
X407961Y320326D01*
X407867Y320382D01*
X407764Y320439D01*
X407642Y320486D01*
X407632D01*
X407595Y320495D01*
X407538Y320505D01*
X407463Y320523D01*
X407351Y320533D01*
X407210Y320542D01*
X407040Y320552D01*
D02*
G37*
G36*
X424314Y320692D02*
X424239D01*
X424154Y320674D01*
X424041Y320655D01*
X423919Y320617D01*
X423788Y320570D01*
X423665Y320495D01*
X423543Y320392D01*
X423534Y320382D01*
X423496Y320345D01*
X423449Y320279D01*
X423402Y320194D01*
X423346Y320091D01*
X423299Y319969D01*
X423261Y319837D01*
X423252Y319687D01*
Y319678D01*
Y319668D01*
X423261Y319612D01*
X423271Y319527D01*
X423289Y319424D01*
X423327Y319302D01*
X423374Y319179D01*
X423449Y319048D01*
X423543Y318935D01*
X423553Y318926D01*
X423600Y318888D01*
X423665Y318841D01*
X423750Y318794D01*
X423863Y318738D01*
X423994Y318691D01*
X424145Y318653D01*
X424314Y318644D01*
X424333D01*
X424389Y318653D01*
X424474Y318663D01*
X424586Y318681D01*
X424709Y318719D01*
X424831Y318766D01*
X424962Y318841D01*
X425075Y318935D01*
X425084Y318944D01*
X425122Y318992D01*
X425169Y319048D01*
X425225Y319132D01*
X425282Y319236D01*
X425329Y319358D01*
X425366Y319499D01*
X425376Y319649D01*
Y319659D01*
Y319668D01*
Y319725D01*
X425357Y319809D01*
X425338Y319912D01*
X425301Y320025D01*
X425244Y320147D01*
X425169Y320270D01*
X425066Y320392D01*
X425056Y320401D01*
X425009Y320439D01*
X424944Y320486D01*
X424859Y320542D01*
X424746Y320598D01*
X424624Y320645D01*
X424474Y320683D01*
X424314Y320692D01*
D02*
G37*
G36*
X424286Y317995D02*
X424229D01*
X424192Y317986D01*
X424088Y317976D01*
X423957Y317948D01*
X423806Y317901D01*
X423656Y317836D01*
X423496Y317742D01*
X423355Y317619D01*
X423336Y317601D01*
X423299Y317554D01*
X423242Y317469D01*
X423177Y317366D01*
X423102Y317225D01*
X423045Y317065D01*
X423008Y316886D01*
X422989Y316689D01*
Y316670D01*
Y316633D01*
X422998Y316567D01*
X423008Y316482D01*
X423026Y316379D01*
X423055Y316266D01*
X423092Y316153D01*
X423139Y316031D01*
X423148Y316022D01*
X423167Y315975D01*
X423205Y315918D01*
X423261Y315853D01*
X423327Y315768D01*
X423412Y315683D01*
X423506Y315608D01*
X423618Y315533D01*
X423637Y315524D01*
X423675Y315505D01*
X423741Y315477D01*
X423825Y315448D01*
X423928Y315420D01*
X424051Y315392D01*
X424182Y315373D01*
X424314Y315364D01*
X424370D01*
X424408Y315373D01*
X424521Y315383D01*
X424652Y315411D01*
X424803Y315458D01*
X424962Y315514D01*
X425113Y315608D01*
X425263Y315730D01*
X425282Y315749D01*
X425319Y315796D01*
X425385Y315881D01*
X425451Y315984D01*
X425517Y316116D01*
X425583Y316276D01*
X425620Y316463D01*
X425639Y316661D01*
Y316670D01*
Y316689D01*
Y316717D01*
X425630Y316755D01*
X425620Y316858D01*
X425592Y316999D01*
X425545Y317140D01*
X425479Y317300D01*
X425385Y317460D01*
X425254Y317610D01*
X425235Y317629D01*
X425188Y317666D01*
X425103Y317732D01*
X424991Y317807D01*
X424850Y317873D01*
X424680Y317939D01*
X424492Y317976D01*
X424286Y317995D01*
D02*
G37*
G36*
X469439Y289538D02*
X467184D01*
Y287057D01*
X469101D01*
X469383Y287071D01*
X469679Y287085D01*
X469975Y287099D01*
X470102Y287113D01*
X470215Y287127D01*
X470327Y287155D01*
X470398Y287169D01*
X470412D01*
X470454Y287198D01*
X470525Y287226D01*
X470595Y287268D01*
X470779Y287395D01*
X470863Y287480D01*
X470948Y287578D01*
X470962Y287592D01*
X470976Y287635D01*
X471018Y287691D01*
X471060Y287776D01*
X471089Y287888D01*
X471131Y288015D01*
X471145Y288156D01*
X471159Y288311D01*
Y288340D01*
Y288396D01*
X471145Y288480D01*
X471131Y288593D01*
X471089Y288720D01*
X471046Y288847D01*
X470976Y288988D01*
X470891Y289101D01*
X470877Y289115D01*
X470849Y289157D01*
X470779Y289199D01*
X470694Y289270D01*
X470595Y289340D01*
X470468Y289397D01*
X470313Y289453D01*
X470144Y289496D01*
X470130D01*
X470088Y289510D01*
X470003D01*
X469876Y289524D01*
X469566D01*
X469439Y289538D01*
D02*
G37*
G36*
X459600D02*
X457344D01*
Y287057D01*
X459261D01*
X459543Y287071D01*
X459839Y287085D01*
X460135Y287099D01*
X460262Y287113D01*
X460375Y287127D01*
X460488Y287155D01*
X460558Y287169D01*
X460572D01*
X460615Y287198D01*
X460685Y287226D01*
X460756Y287268D01*
X460939Y287395D01*
X461023Y287480D01*
X461108Y287578D01*
X461122Y287592D01*
X461136Y287635D01*
X461179Y287691D01*
X461221Y287776D01*
X461249Y287888D01*
X461291Y288015D01*
X461305Y288156D01*
X461320Y288311D01*
Y288340D01*
Y288396D01*
X461305Y288480D01*
X461291Y288593D01*
X461249Y288720D01*
X461207Y288847D01*
X461136Y288988D01*
X461052Y289101D01*
X461038Y289115D01*
X461009Y289157D01*
X460939Y289199D01*
X460854Y289270D01*
X460756Y289340D01*
X460629Y289397D01*
X460474Y289453D01*
X460304Y289496D01*
X460290D01*
X460248Y289510D01*
X460163D01*
X460037Y289524D01*
X459726D01*
X459600Y289538D01*
D02*
G37*
G36*
X405111Y289087D02*
X403786Y285464D01*
X406479D01*
X405111Y289087D01*
D02*
G37*
G36*
X374078Y289538D02*
X372612D01*
Y286761D01*
X373965D01*
X374064Y286775D01*
X374318D01*
X374572Y286789D01*
X374825Y286817D01*
X375051Y286859D01*
X375150Y286873D01*
X375234Y286902D01*
X375248Y286916D01*
X375305Y286930D01*
X375375Y286972D01*
X375460Y287014D01*
X375558Y287085D01*
X375657Y287169D01*
X375770Y287268D01*
X375854Y287381D01*
X375869Y287395D01*
X375897Y287437D01*
X375925Y287508D01*
X375967Y287607D01*
X376009Y287719D01*
X376052Y287846D01*
X376066Y287987D01*
X376080Y288142D01*
Y288170D01*
Y288227D01*
X376066Y288325D01*
X376038Y288452D01*
X375995Y288593D01*
X375939Y288748D01*
X375869Y288889D01*
X375756Y289030D01*
X375742Y289044D01*
X375699Y289087D01*
X375629Y289143D01*
X375544Y289214D01*
X375432Y289298D01*
X375291Y289369D01*
X375135Y289425D01*
X374966Y289467D01*
X374952D01*
X374896Y289481D01*
X374797Y289496D01*
X374656Y289510D01*
X374473D01*
X374346Y289524D01*
X374219D01*
X374078Y289538D01*
D02*
G37*
%LPD*%
D10*
X789816Y377530D02*
G03*
X789816Y377530I-1250J0D01*
G01*
X596372Y455422D02*
G03*
X596372Y455422I-1250J0D01*
G01*
X541254Y311404D02*
G03*
X541254Y311404I-1250J0D01*
G01*
X314940Y331724D02*
G03*
X314940Y331724I-1250J0D01*
G01*
D11*
X415528Y435610D02*
G03*
X415528Y435610I-1000J0D01*
G01*
D12*
X319312Y409321D02*
G03*
X319312Y409321I-3810J0D01*
G01*
D13*
X417322Y432816D02*
X423672D01*
X417068Y425958D02*
Y432816D01*
M02*
