G04*
G04 #@! TF.GenerationSoftware,Altium Limited,Altium Designer,22.8.2 (66)*
G04*
G04 Layer_Color=8388736*
%FSLAX44Y44*%
%MOMM*%
G71*
G04*
G04 #@! TF.SameCoordinates,E765EAFB-E956-432D-8013-76C00557599A*
G04*
G04*
G04 #@! TF.FilePolarity,Negative*
G04*
G01*
G75*
%ADD15R,1.5000X1.2000*%
%ADD17R,0.8600X0.2200*%
%ADD18R,0.2200X0.8600*%
%ADD22R,0.9000X0.8000*%
G04:AMPARAMS|DCode=24|XSize=0.5mm|YSize=0.25mm|CornerRadius=0.125mm|HoleSize=0mm|Usage=FLASHONLY|Rotation=270.000|XOffset=0mm|YOffset=0mm|HoleType=Round|Shape=RoundedRectangle|*
%AMROUNDEDRECTD24*
21,1,0.5000,0.0000,0,0,270.0*
21,1,0.2500,0.2500,0,0,270.0*
1,1,0.2500,0.0000,-0.1250*
1,1,0.2500,0.0000,0.1250*
1,1,0.2500,0.0000,0.1250*
1,1,0.2500,0.0000,-0.1250*
%
%ADD24ROUNDEDRECTD24*%
G04:AMPARAMS|DCode=33|XSize=0.75mm|YSize=1.4mm|CornerRadius=0mm|HoleSize=0mm|Usage=FLASHONLY|Rotation=315.000|XOffset=0mm|YOffset=0mm|HoleType=Round|Shape=Rectangle|*
%AMROTATEDRECTD33*
4,1,4,-0.7601,-0.2298,0.2298,0.7601,0.7601,0.2298,-0.2298,-0.7601,-0.7601,-0.2298,0.0*
%
%ADD33ROTATEDRECTD33*%

G04:AMPARAMS|DCode=35|XSize=0.6mm|YSize=0.25mm|CornerRadius=0.05mm|HoleSize=0mm|Usage=FLASHONLY|Rotation=0.000|XOffset=0mm|YOffset=0mm|HoleType=Round|Shape=RoundedRectangle|*
%AMROUNDEDRECTD35*
21,1,0.6000,0.1500,0,0,0.0*
21,1,0.5000,0.2500,0,0,0.0*
1,1,0.1000,0.2500,-0.0750*
1,1,0.1000,-0.2500,-0.0750*
1,1,0.1000,-0.2500,0.0750*
1,1,0.1000,0.2500,0.0750*
%
%ADD35ROUNDEDRECTD35*%
%ADD37R,2.4000X0.5600*%
%ADD38R,4.4500X4.4500*%
%ADD39R,0.6762X0.7162*%
%ADD40R,0.9762X1.0762*%
%ADD41R,0.7162X0.6762*%
%ADD42R,0.8262X0.6762*%
%ADD43R,1.3500X0.6500*%
%ADD44C,0.4262*%
%ADD45R,0.6762X0.8262*%
%ADD46R,0.5562X0.6162*%
%ADD47R,1.0762X0.9762*%
%ADD48R,0.6262X0.6162*%
%ADD49R,0.6162X0.6262*%
G04:AMPARAMS|DCode=50|XSize=0.6162mm|YSize=0.5562mm|CornerRadius=0mm|HoleSize=0mm|Usage=FLASHONLY|Rotation=225.000|XOffset=0mm|YOffset=0mm|HoleType=Round|Shape=Rectangle|*
%AMROTATEDRECTD50*
4,1,4,0.0212,0.4145,0.4145,0.0212,-0.0212,-0.4145,-0.4145,-0.0212,0.0212,0.4145,0.0*
%
%ADD50ROTATEDRECTD50*%

G04:AMPARAMS|DCode=51|XSize=0.6162mm|YSize=0.6262mm|CornerRadius=0mm|HoleSize=0mm|Usage=FLASHONLY|Rotation=315.000|XOffset=0mm|YOffset=0mm|HoleType=Round|Shape=Rectangle|*
%AMROTATEDRECTD51*
4,1,4,-0.4393,-0.0035,0.0035,0.4393,0.4393,0.0035,-0.0035,-0.4393,-0.4393,-0.0035,0.0*
%
%ADD51ROTATEDRECTD51*%

%ADD52R,0.7962X0.8362*%
%ADD53R,1.6762X0.7262*%
%ADD54C,1.6002*%
%ADD55C,0.8890*%
%ADD56C,1.5240*%
%ADD57C,3.5306*%
%ADD58C,0.5000*%
G36*
X463771Y480454D02*
X463827D01*
X463940Y480426D01*
X464081Y480397D01*
X464222Y480341D01*
X464251D01*
X464307Y480313D01*
X464392Y480256D01*
X464448Y480200D01*
X464476Y480144D01*
X464505Y480002D01*
Y479946D01*
Y479833D01*
Y479777D01*
X464476Y479636D01*
Y479607D01*
X464448Y479579D01*
X464420Y479410D01*
Y479382D01*
X464392Y479325D01*
X464364Y479240D01*
X464335Y479128D01*
X461062Y469279D01*
Y469251D01*
X461034Y469138D01*
X460977Y469025D01*
X460892Y468912D01*
X460864Y468884D01*
X460808Y468856D01*
X460723Y468799D01*
X460554Y468743D01*
X460526D01*
X460385Y468715D01*
X460187Y468686D01*
X459905Y468658D01*
X459623D01*
X459482Y468630D01*
X458494D01*
X458127Y468658D01*
X457788Y468686D01*
X457732D01*
X457563Y468715D01*
X457337Y468743D01*
X457139Y468771D01*
X457111D01*
X457026Y468828D01*
X456914Y468856D01*
X456801Y468940D01*
Y468969D01*
X456744Y469025D01*
X456716Y469138D01*
X456660Y469279D01*
X453386Y479128D01*
Y479156D01*
X453330Y479269D01*
X453302Y479410D01*
X453245Y479551D01*
Y479579D01*
Y479664D01*
X453217Y479748D01*
Y479833D01*
Y479861D01*
Y479889D01*
Y480002D01*
Y480031D01*
Y480059D01*
X453273Y480200D01*
X453302Y480228D01*
X453330Y480256D01*
X453414Y480285D01*
X453527Y480341D01*
X453555Y480369D01*
X453640Y480397D01*
X453781Y480426D01*
X453979Y480454D01*
X454035D01*
X454204Y480482D01*
X455023D01*
X455305Y480454D01*
X455559Y480426D01*
X455616D01*
X455728Y480397D01*
X455898Y480369D01*
X456039Y480341D01*
X456067D01*
X456123Y480313D01*
X456208Y480256D01*
X456264Y480172D01*
X456293Y480144D01*
X456321Y480115D01*
X456406Y479946D01*
X458861Y471960D01*
X458945Y471650D01*
X459030Y471960D01*
X461457Y479946D01*
Y479974D01*
X461485Y480031D01*
X461570Y480172D01*
X461598Y480200D01*
X461626Y480228D01*
X461711Y480285D01*
X461824Y480341D01*
X461852D01*
X461937Y480369D01*
X462078Y480397D01*
X462275Y480426D01*
X462332D01*
X462473Y480454D01*
X462727Y480482D01*
X463545D01*
X463771Y480454D01*
D02*
G37*
G36*
X471362Y484743D02*
X471644D01*
X471983Y484687D01*
X472350Y484630D01*
X472716Y484546D01*
X473055Y484433D01*
X473083D01*
X473224Y484376D01*
X473394Y484292D01*
X473591Y484207D01*
X474099Y483925D01*
X474353Y483756D01*
X474579Y483558D01*
X474607Y483530D01*
X474692Y483473D01*
X474805Y483360D01*
X474918Y483191D01*
X475087Y482994D01*
X475228Y482796D01*
X475369Y482542D01*
X475510Y482260D01*
X475538Y482232D01*
X475567Y482119D01*
X475623Y481978D01*
X475680Y481780D01*
X475736Y481526D01*
X475764Y481244D01*
X475821Y480934D01*
Y480623D01*
Y480595D01*
Y480482D01*
Y480341D01*
X475792Y480144D01*
Y479918D01*
X475764Y479664D01*
X475651Y479099D01*
Y479071D01*
X475623Y478958D01*
X475595Y478817D01*
X475510Y478620D01*
X475425Y478394D01*
X475341Y478112D01*
X475200Y477801D01*
X475030Y477491D01*
X475002Y477463D01*
X474946Y477350D01*
X474833Y477180D01*
X474692Y476926D01*
X474523Y476644D01*
X474297Y476334D01*
X474043Y475995D01*
X473732Y475600D01*
X473704Y475544D01*
X473591Y475431D01*
X473394Y475205D01*
X473140Y474923D01*
X472829Y474556D01*
X472434Y474161D01*
X471983Y473681D01*
X471503Y473201D01*
X469669Y471311D01*
X475962D01*
X476018Y471283D01*
X476103Y471226D01*
X476131Y471198D01*
X476159Y471170D01*
X476272Y471000D01*
X476300Y470972D01*
X476329Y470888D01*
X476357Y470775D01*
X476385Y470605D01*
Y470549D01*
X476413Y470436D01*
X476441Y470238D01*
Y470013D01*
Y469985D01*
Y469956D01*
Y469787D01*
X476413Y469590D01*
X476385Y469392D01*
Y469364D01*
X476357Y469251D01*
X476329Y469110D01*
X476300Y468969D01*
Y468940D01*
X476272Y468884D01*
X476216Y468828D01*
X476131Y468771D01*
X476075Y468743D01*
X475933Y468715D01*
X466536D01*
X466395Y468743D01*
X466367D01*
X466282Y468799D01*
X466170Y468856D01*
X466057Y468940D01*
X466029Y468969D01*
X466000Y469053D01*
X465944Y469166D01*
X465887Y469336D01*
Y469392D01*
Y469533D01*
X465859Y469759D01*
Y470041D01*
Y470069D01*
Y470097D01*
Y470267D01*
Y470493D01*
X465887Y470718D01*
Y470746D01*
Y470775D01*
X465916Y470916D01*
X465944Y471085D01*
X466000Y471254D01*
X466029Y471283D01*
X466085Y471395D01*
X466170Y471537D01*
X466254Y471678D01*
X466282Y471706D01*
X466367Y471819D01*
X466508Y471988D01*
X466678Y472157D01*
X469415Y475092D01*
X469443Y475121D01*
X469556Y475233D01*
X469697Y475403D01*
X469894Y475600D01*
X470092Y475854D01*
X470318Y476108D01*
X470515Y476362D01*
X470713Y476644D01*
X470741Y476673D01*
X470798Y476757D01*
X470882Y476898D01*
X470995Y477068D01*
X471249Y477491D01*
X471503Y477914D01*
Y477942D01*
X471559Y478027D01*
X471588Y478140D01*
X471672Y478281D01*
X471785Y478620D01*
X471898Y478987D01*
Y479015D01*
X471926Y479071D01*
Y479156D01*
X471954Y479297D01*
X471983Y479579D01*
X472011Y479918D01*
Y479946D01*
Y479974D01*
X471983Y480172D01*
X471954Y480397D01*
X471870Y480680D01*
Y480708D01*
X471842Y480736D01*
X471757Y480905D01*
X471644Y481103D01*
X471475Y481301D01*
X471447Y481357D01*
X471306Y481470D01*
X471108Y481611D01*
X470854Y481724D01*
X470826D01*
X470798Y481752D01*
X470713Y481780D01*
X470600Y481809D01*
X470318Y481865D01*
X469951Y481893D01*
X469697D01*
X469528Y481865D01*
X469133Y481809D01*
X468681Y481696D01*
X468653D01*
X468596Y481667D01*
X468484Y481639D01*
X468342Y481583D01*
X468032Y481470D01*
X467693Y481301D01*
X467665D01*
X467637Y481272D01*
X467439Y481159D01*
X467214Y481018D01*
X466988Y480877D01*
X466931Y480849D01*
X466819Y480793D01*
X466678Y480736D01*
X466565Y480708D01*
X466508D01*
X466367Y480764D01*
Y480793D01*
X466311Y480821D01*
X466282Y480905D01*
X466226Y481018D01*
Y481046D01*
X466198Y481131D01*
Y481272D01*
X466170Y481470D01*
Y481526D01*
Y481667D01*
X466141Y481893D01*
Y482175D01*
Y482232D01*
Y482345D01*
Y482486D01*
Y482627D01*
Y482655D01*
X466170Y482740D01*
X466198Y482966D01*
Y482994D01*
X466226Y483050D01*
X466282Y483191D01*
X466311Y483219D01*
X466339Y483276D01*
X466508Y483445D01*
X466536Y483473D01*
X466649Y483558D01*
X466819Y483671D01*
X467073Y483812D01*
X467101D01*
X467157Y483840D01*
X467242Y483897D01*
X467355Y483953D01*
X467693Y484094D01*
X468088Y484235D01*
X468117D01*
X468201Y484263D01*
X468314Y484320D01*
X468484Y484376D01*
X468653Y484433D01*
X468879Y484489D01*
X469387Y484602D01*
X469415D01*
X469528Y484630D01*
X469669Y484659D01*
X469866Y484687D01*
X470092Y484715D01*
X470346Y484743D01*
X470910Y484771D01*
X471108D01*
X471362Y484743D01*
D02*
G37*
G36*
X441026Y484461D02*
X441111D01*
X441280Y484433D01*
X441506Y484405D01*
X441760Y484376D01*
X441816D01*
X441929Y484348D01*
X442098Y484320D01*
X442324Y484292D01*
X442606Y484207D01*
X442888Y484151D01*
X443481Y483925D01*
X443509Y483897D01*
X443622Y483868D01*
X443763Y483784D01*
X443933Y483699D01*
X444356Y483417D01*
X444779Y483050D01*
X444808Y483022D01*
X444864Y482966D01*
X444977Y482853D01*
X445090Y482711D01*
X445202Y482514D01*
X445344Y482316D01*
X445598Y481809D01*
Y481780D01*
X445654Y481667D01*
X445682Y481526D01*
X445739Y481329D01*
X445795Y481075D01*
X445823Y480793D01*
X445880Y480482D01*
Y480144D01*
Y480115D01*
Y480002D01*
Y479861D01*
X445852Y479664D01*
X445823Y479438D01*
X445795Y479184D01*
X445654Y478676D01*
Y478648D01*
X445626Y478563D01*
X445569Y478450D01*
X445513Y478281D01*
X445315Y477914D01*
X445061Y477519D01*
X445033Y477491D01*
X445005Y477435D01*
X444920Y477350D01*
X444808Y477209D01*
X444497Y476926D01*
X444102Y476616D01*
X444074Y476588D01*
X444017Y476560D01*
X443876Y476475D01*
X443735Y476419D01*
X443538Y476306D01*
X443312Y476221D01*
X442804Y476023D01*
X442832D01*
X442860Y475995D01*
X443030Y475911D01*
X443255Y475770D01*
X443481Y475600D01*
X443509D01*
X443538Y475572D01*
X443679Y475431D01*
X443848Y475262D01*
X444045Y475008D01*
Y474979D01*
X444102Y474951D01*
X444215Y474782D01*
X444384Y474528D01*
X444553Y474217D01*
Y474189D01*
X444610Y474133D01*
X444638Y474048D01*
X444723Y473935D01*
X444864Y473625D01*
X445061Y473230D01*
X446388Y470126D01*
Y470097D01*
X446416Y470041D01*
X446472Y469872D01*
X446557Y469618D01*
X446614Y469420D01*
X446642Y469392D01*
X446670Y469307D01*
X446698Y469194D01*
Y469110D01*
Y469081D01*
Y469025D01*
X446642Y468884D01*
X446585Y468828D01*
X446501Y468799D01*
X446388Y468743D01*
X446359D01*
X446247Y468715D01*
X446077Y468686D01*
X445852Y468658D01*
X445598D01*
X445315Y468630D01*
X444328D01*
X444074Y468658D01*
X444017D01*
X443904Y468686D01*
X443763Y468715D01*
X443594Y468743D01*
X443566D01*
X443509Y468771D01*
X443425Y468828D01*
X443340Y468884D01*
Y468912D01*
X443312Y468969D01*
X443284Y469053D01*
X443255Y469166D01*
X441816Y472665D01*
Y472694D01*
X441760Y472778D01*
X441732Y472891D01*
X441647Y473032D01*
X441506Y473371D01*
X441308Y473709D01*
Y473738D01*
X441280Y473794D01*
X441224Y473879D01*
X441167Y473992D01*
X440998Y474246D01*
X440772Y474500D01*
Y474528D01*
X440716Y474556D01*
X440575Y474669D01*
X440377Y474838D01*
X440095Y474979D01*
X440067D01*
X440038Y475008D01*
X439954Y475036D01*
X439841Y475064D01*
X439559Y475121D01*
X439192Y475149D01*
X438204D01*
Y469138D01*
Y469110D01*
Y469053D01*
X438176Y468969D01*
X438120Y468884D01*
X438091D01*
X438063Y468828D01*
X437978Y468799D01*
X437837Y468743D01*
X437809D01*
X437724Y468715D01*
X437555D01*
X437357Y468686D01*
X437301D01*
X437132Y468658D01*
X436906Y468630D01*
X436313D01*
X436059Y468658D01*
X435806Y468686D01*
X435749D01*
X435636Y468715D01*
X435467D01*
X435298Y468743D01*
X435269D01*
X435213Y468771D01*
X435128Y468828D01*
X435044Y468884D01*
Y468912D01*
X435015Y468969D01*
X434987Y469138D01*
Y483473D01*
Y483502D01*
Y483558D01*
X435015Y483643D01*
Y483784D01*
X435100Y484010D01*
X435156Y484151D01*
X435241Y484235D01*
X435298Y484263D01*
X435439Y484376D01*
X435636Y484461D01*
X435918Y484489D01*
X440716D01*
X441026Y484461D01*
D02*
G37*
G36*
X427199D02*
X427565Y484433D01*
X427650D01*
X427763Y484405D01*
X427904Y484376D01*
X428073Y484348D01*
X428299Y484320D01*
X428779Y484235D01*
X428807D01*
X428892Y484207D01*
X429033Y484179D01*
X429230Y484123D01*
X429428Y484066D01*
X429682Y483981D01*
X430190Y483727D01*
X430218Y483699D01*
X430303Y483671D01*
X430444Y483586D01*
X430613Y483473D01*
X431036Y483163D01*
X431432Y482768D01*
X431460Y482740D01*
X431516Y482655D01*
X431601Y482542D01*
X431714Y482401D01*
X431855Y482203D01*
X431968Y481950D01*
X432109Y481696D01*
X432222Y481413D01*
Y481385D01*
X432278Y481272D01*
X432306Y481131D01*
X432363Y480905D01*
X432419Y480652D01*
X432447Y480369D01*
X432504Y480031D01*
Y479692D01*
Y479664D01*
Y479636D01*
Y479466D01*
X432476Y479212D01*
X432447Y478902D01*
X432391Y478535D01*
X432335Y478140D01*
X432222Y477717D01*
X432080Y477322D01*
X432052Y477265D01*
X431996Y477152D01*
X431911Y476955D01*
X431770Y476729D01*
X431601Y476447D01*
X431403Y476165D01*
X431149Y475882D01*
X430867Y475600D01*
X430839Y475572D01*
X430726Y475487D01*
X430557Y475346D01*
X430331Y475205D01*
X430049Y475036D01*
X429710Y474838D01*
X429343Y474669D01*
X428920Y474528D01*
X428863D01*
X428722Y474471D01*
X428468Y474415D01*
X428158Y474358D01*
X427763Y474302D01*
X427283Y474246D01*
X426775Y474217D01*
X426211Y474189D01*
X424913D01*
Y469138D01*
Y469110D01*
Y469053D01*
X424885Y468969D01*
X424828Y468884D01*
X424800D01*
X424772Y468828D01*
X424687Y468799D01*
X424546Y468743D01*
X424518D01*
X424433Y468715D01*
X424264D01*
X424066Y468686D01*
X424010D01*
X423840Y468658D01*
X423615Y468630D01*
X423022D01*
X422768Y468658D01*
X422514Y468686D01*
X422458D01*
X422345Y468715D01*
X422175D01*
X422006Y468743D01*
X421978D01*
X421922Y468771D01*
X421837Y468828D01*
X421752Y468884D01*
Y468912D01*
X421724Y468969D01*
X421696Y469138D01*
Y483332D01*
Y483360D01*
Y483417D01*
X421724Y483530D01*
Y483643D01*
X421809Y483925D01*
X421978Y484179D01*
X422006Y484207D01*
X422034Y484235D01*
X422204Y484348D01*
X422430Y484433D01*
X422599Y484489D01*
X426832D01*
X427199Y484461D01*
D02*
G37*
G36*
X417152Y484546D02*
X417406Y484518D01*
X417463D01*
X417576Y484489D01*
X417745Y484461D01*
X417886Y484433D01*
X417914D01*
X417999Y484405D01*
X418084Y484348D01*
X418168Y484263D01*
X418197Y484235D01*
X418225Y484207D01*
X418253Y484123D01*
Y484038D01*
Y469138D01*
Y469110D01*
Y469053D01*
X418225Y468969D01*
X418168Y468884D01*
X418140D01*
X418112Y468828D01*
X418027Y468799D01*
X417886Y468743D01*
X417858D01*
X417773Y468715D01*
X417604D01*
X417406Y468686D01*
X417350D01*
X417209Y468658D01*
X416955Y468630D01*
X416362D01*
X416108Y468658D01*
X415854Y468686D01*
X415798D01*
X415685Y468715D01*
X415516D01*
X415346Y468743D01*
X415318D01*
X415262Y468771D01*
X415177Y468828D01*
X415092Y468884D01*
Y468912D01*
X415064Y468969D01*
X415036Y469138D01*
Y484038D01*
Y484066D01*
Y484123D01*
X415092Y484263D01*
X415121Y484292D01*
X415149Y484320D01*
X415262Y484376D01*
X415375Y484433D01*
X415403D01*
X415516Y484461D01*
X415657Y484489D01*
X415854Y484518D01*
X415911D01*
X416080Y484546D01*
X416306Y484574D01*
X416898D01*
X417152Y484546D01*
D02*
G37*
%LPC*%
G36*
X439982Y482034D02*
X438204D01*
Y477547D01*
X440067D01*
X440208Y477575D01*
X440603Y477604D01*
X440998Y477688D01*
X441026D01*
X441082Y477717D01*
X441167Y477745D01*
X441308Y477801D01*
X441562Y477942D01*
X441844Y478140D01*
X441873Y478168D01*
X441901Y478196D01*
X442042Y478338D01*
X442211Y478591D01*
X442352Y478874D01*
Y478902D01*
X442381Y478958D01*
X442409Y479043D01*
X442465Y479156D01*
X442522Y479438D01*
X442550Y479805D01*
Y479833D01*
Y479946D01*
X442522Y480087D01*
X442494Y480256D01*
X442409Y480708D01*
X442296Y480934D01*
X442183Y481131D01*
X442155Y481159D01*
X442127Y481216D01*
X442042Y481301D01*
X441901Y481442D01*
X441760Y481554D01*
X441562Y481667D01*
X441308Y481809D01*
X441026Y481893D01*
X440998D01*
X440885Y481921D01*
X440716Y481950D01*
X440490Y481978D01*
X440434D01*
X440264Y482006D01*
X439982Y482034D01*
D02*
G37*
G36*
X426634Y482006D02*
X424913D01*
Y476673D01*
X426606D01*
X426775Y476701D01*
X427199Y476757D01*
X427622Y476870D01*
X427650D01*
X427706Y476898D01*
X427791Y476955D01*
X427904Y477011D01*
X428186Y477180D01*
X428440Y477435D01*
X428468Y477463D01*
X428497Y477491D01*
X428553Y477575D01*
X428638Y477688D01*
X428807Y477971D01*
X428948Y478309D01*
Y478338D01*
X428976Y478394D01*
X429005Y478507D01*
X429061Y478648D01*
X429089Y478817D01*
X429118Y479015D01*
X429146Y479466D01*
Y479495D01*
Y479607D01*
X429118Y479748D01*
Y479946D01*
X429005Y480397D01*
X428948Y480623D01*
X428835Y480821D01*
Y480849D01*
X428779Y480905D01*
X428722Y481018D01*
X428638Y481131D01*
X428412Y481385D01*
X428130Y481611D01*
X428102D01*
X428045Y481639D01*
X427961Y481696D01*
X427848Y481752D01*
X427565Y481837D01*
X427227Y481921D01*
X427199D01*
X427142Y481950D01*
X427057D01*
X426916Y481978D01*
X426634Y482006D01*
D02*
G37*
%LPD*%
D15*
X775316Y377530D02*
D03*
Y355530D02*
D03*
X738016Y377530D02*
D03*
Y270530D02*
D03*
D17*
X544850Y323834D02*
D03*
Y327834D02*
D03*
Y331834D02*
D03*
Y335834D02*
D03*
Y339834D02*
D03*
Y343834D02*
D03*
Y347834D02*
D03*
Y351834D02*
D03*
Y355834D02*
D03*
Y359834D02*
D03*
Y363834D02*
D03*
Y367834D02*
D03*
X603550D02*
D03*
Y363834D02*
D03*
Y359834D02*
D03*
Y355834D02*
D03*
Y351834D02*
D03*
Y347834D02*
D03*
Y343834D02*
D03*
Y339834D02*
D03*
Y335834D02*
D03*
Y331834D02*
D03*
Y327834D02*
D03*
Y323834D02*
D03*
D18*
X552200Y375184D02*
D03*
X556200D02*
D03*
X560200D02*
D03*
X564200D02*
D03*
X568200D02*
D03*
X572200D02*
D03*
X576200D02*
D03*
X580200D02*
D03*
X584200D02*
D03*
X588200D02*
D03*
X592200D02*
D03*
X596200D02*
D03*
Y316484D02*
D03*
X592200D02*
D03*
X588200D02*
D03*
X584200D02*
D03*
X580200D02*
D03*
X576200D02*
D03*
X572200D02*
D03*
X568200D02*
D03*
X564200D02*
D03*
X560200D02*
D03*
X556200D02*
D03*
X552200D02*
D03*
D22*
X483870Y386080D02*
D03*
X497870D02*
D03*
Y375080D02*
D03*
X483870D02*
D03*
X592440Y288886D02*
D03*
X606440D02*
D03*
Y299886D02*
D03*
X592440D02*
D03*
D24*
X585620Y435254D02*
D03*
X579120D02*
D03*
X572620D02*
D03*
Y454254D02*
D03*
X579120D02*
D03*
X585620D02*
D03*
D33*
X536749Y296117D02*
D03*
X526496Y306371D02*
D03*
D35*
X338478Y317380D02*
D03*
Y312380D02*
D03*
Y307380D02*
D03*
Y302380D02*
D03*
X325478D02*
D03*
Y307380D02*
D03*
Y312380D02*
D03*
Y317380D02*
D03*
D37*
X352552Y475234D02*
D03*
Y465074D02*
D03*
Y454914D02*
D03*
Y444754D02*
D03*
Y434594D02*
D03*
X314452Y475234D02*
D03*
Y465074D02*
D03*
Y454914D02*
D03*
Y444754D02*
D03*
Y434594D02*
D03*
D38*
X574200Y345834D02*
D03*
D39*
X587102Y466288D02*
D03*
X578302D02*
D03*
X484722Y359918D02*
D03*
X493522D02*
D03*
X462870Y367030D02*
D03*
X454070D02*
D03*
X549230Y390144D02*
D03*
X540430D02*
D03*
X516210Y331724D02*
D03*
X507410D02*
D03*
D40*
X461156Y353060D02*
D03*
X447656D02*
D03*
X325228Y331216D02*
D03*
X338728D02*
D03*
D41*
X512572Y386162D02*
D03*
Y377362D02*
D03*
X494792Y413086D02*
D03*
Y404286D02*
D03*
X482600Y413430D02*
D03*
Y422230D02*
D03*
X632460Y362794D02*
D03*
Y353994D02*
D03*
Y314624D02*
D03*
Y323424D02*
D03*
X619760Y355174D02*
D03*
Y346374D02*
D03*
Y318434D02*
D03*
Y327234D02*
D03*
X529590Y326734D02*
D03*
Y335534D02*
D03*
Y367964D02*
D03*
Y376764D02*
D03*
Y347644D02*
D03*
Y356444D02*
D03*
X406146Y414700D02*
D03*
Y423500D02*
D03*
D42*
X569630Y423418D02*
D03*
X558130D02*
D03*
X588356D02*
D03*
X599856D02*
D03*
D43*
X579120Y444754D02*
D03*
D44*
X467772Y387266D02*
D03*
Y392266D02*
D03*
Y397266D02*
D03*
Y402266D02*
D03*
Y407266D02*
D03*
Y412266D02*
D03*
Y417266D02*
D03*
Y422266D02*
D03*
X462772Y382266D02*
D03*
Y387266D02*
D03*
Y392266D02*
D03*
Y402266D02*
D03*
Y407266D02*
D03*
Y412266D02*
D03*
Y417266D02*
D03*
Y422266D02*
D03*
Y427266D02*
D03*
X457772Y382266D02*
D03*
Y387266D02*
D03*
Y427266D02*
D03*
X452772Y382266D02*
D03*
Y427266D02*
D03*
X447772Y382266D02*
D03*
Y387266D02*
D03*
Y427266D02*
D03*
X442772Y382266D02*
D03*
Y387266D02*
D03*
Y427266D02*
D03*
X437772Y382266D02*
D03*
Y427266D02*
D03*
X432772Y382266D02*
D03*
Y387266D02*
D03*
Y427266D02*
D03*
X427772Y382266D02*
D03*
Y387266D02*
D03*
Y392266D02*
D03*
Y402266D02*
D03*
Y407266D02*
D03*
Y412266D02*
D03*
Y417266D02*
D03*
Y422266D02*
D03*
Y427266D02*
D03*
X422772Y387266D02*
D03*
Y392266D02*
D03*
Y397266D02*
D03*
Y402266D02*
D03*
Y407266D02*
D03*
Y412266D02*
D03*
Y417266D02*
D03*
Y422266D02*
D03*
D45*
X480060Y273974D02*
D03*
Y262474D02*
D03*
X619760Y292954D02*
D03*
Y304454D02*
D03*
X466090Y262474D02*
D03*
Y273974D02*
D03*
X433070Y262728D02*
D03*
Y274228D02*
D03*
X383540Y262728D02*
D03*
Y274228D02*
D03*
X419100Y262728D02*
D03*
Y274228D02*
D03*
X369570Y262728D02*
D03*
Y274228D02*
D03*
D46*
X686390Y335534D02*
D03*
X677590D02*
D03*
X653370D02*
D03*
X644570D02*
D03*
D47*
X508508Y359702D02*
D03*
Y346202D02*
D03*
X392176Y416414D02*
D03*
Y429914D02*
D03*
X310642Y320440D02*
D03*
Y306940D02*
D03*
D48*
X698320Y335534D02*
D03*
X706120D02*
D03*
D49*
X665480Y343244D02*
D03*
Y335444D02*
D03*
X632460Y343334D02*
D03*
Y335534D02*
D03*
X723392Y327824D02*
D03*
Y335624D02*
D03*
D50*
X749237Y355663D02*
D03*
X755459Y349441D02*
D03*
D51*
X749264Y343372D02*
D03*
X743748Y337856D02*
D03*
D52*
X407924Y377116D02*
D03*
Y386916D02*
D03*
D53*
X356108Y305670D02*
D03*
Y319170D02*
D03*
D54*
X403352Y305308D02*
D03*
X423926D02*
D03*
D55*
X333502Y469914D02*
D03*
Y439914D02*
D03*
D56*
X282956Y314325D02*
D03*
Y441325D02*
D03*
D57*
X369316Y354330D02*
D03*
X669036Y401320D02*
D03*
D58*
X575120Y444754D02*
D03*
X583120D02*
D03*
M02*
