G04*
G04 #@! TF.GenerationSoftware,Altium Limited,Altium Designer,22.8.2 (66)*
G04*
G04 Layer_Color=65535*
%FSLAX44Y44*%
%MOMM*%
G71*
G04*
G04 #@! TF.SameCoordinates,468F8AB8-D0D1-42F9-A28A-8A06B6F8ABAF*
G04*
G04*
G04 #@! TF.FilePolarity,Positive*
G04*
G01*
G75*
%ADD10C,0.5080*%
%ADD11C,0.2500*%
%ADD12C,0.2000*%
%ADD13C,0.1500*%
%ADD14C,0.1270*%
%ADD15C,0.1524*%
G36*
X445667Y278404D02*
X445681D01*
X445695Y278390D01*
X445723Y278320D01*
Y278306D01*
X445737Y278277D01*
X445752Y278235D01*
X445766Y278179D01*
Y278165D01*
X445780Y278122D01*
X445794Y278066D01*
Y277981D01*
Y277967D01*
Y277911D01*
X445780Y277854D01*
X445766Y277784D01*
Y277770D01*
X445752Y277742D01*
X445723Y277643D01*
X445709Y277615D01*
X445667Y277573D01*
X445639D01*
X445582Y277558D01*
X442495D01*
Y275091D01*
X445159D01*
X445216Y275063D01*
X445230D01*
X445244Y275049D01*
X445286Y274979D01*
Y274965D01*
X445300Y274951D01*
X445315Y274908D01*
X445329Y274852D01*
Y274838D01*
X445343Y274795D01*
Y274725D01*
Y274640D01*
Y274626D01*
Y274584D01*
Y274528D01*
X445329Y274457D01*
Y274443D01*
X445315Y274415D01*
X445300Y274373D01*
X445286Y274330D01*
X445272Y274302D01*
X445216Y274260D01*
X445188D01*
X445131Y274246D01*
X442495D01*
Y271426D01*
X445639D01*
X445695Y271398D01*
X445709D01*
X445723Y271384D01*
X445766Y271313D01*
X445780Y271299D01*
X445794Y271285D01*
X445808Y271243D01*
X445822Y271187D01*
Y271173D01*
X445836Y271130D01*
Y271060D01*
Y270975D01*
Y270961D01*
Y270905D01*
Y270848D01*
X445822Y270778D01*
Y270764D01*
X445808Y270736D01*
X445766Y270651D01*
Y270637D01*
X445752Y270623D01*
X445695Y270566D01*
X445681D01*
X445611Y270552D01*
X441804D01*
X441748Y270566D01*
X441664Y270595D01*
X441565Y270637D01*
X441551Y270651D01*
X441508Y270721D01*
X441466Y270820D01*
X441452Y270975D01*
Y277995D01*
Y278010D01*
Y278038D01*
X441466Y278122D01*
X441494Y278235D01*
X441565Y278334D01*
X441593Y278348D01*
X441649Y278390D01*
X441734Y278418D01*
X441833Y278433D01*
X445611D01*
X445667Y278404D01*
D02*
G37*
G36*
X456719Y278418D02*
X456874Y278404D01*
X456902D01*
X457001Y278390D01*
X457114D01*
X457241Y278376D01*
X457255D01*
X457311Y278362D01*
X457396Y278348D01*
X457509Y278320D01*
X457635Y278277D01*
X457776Y278235D01*
X458044Y278122D01*
X458058Y278108D01*
X458101Y278094D01*
X458171Y278052D01*
X458256Y278010D01*
X458439Y277869D01*
X458636Y277685D01*
X458650Y277671D01*
X458679Y277643D01*
X458721Y277587D01*
X458777Y277516D01*
X458834Y277432D01*
X458890Y277333D01*
X458989Y277093D01*
Y277079D01*
X459003Y277037D01*
X459031Y276966D01*
X459059Y276868D01*
X459073Y276769D01*
X459101Y276642D01*
X459115Y276346D01*
Y276332D01*
Y276276D01*
Y276205D01*
X459101Y276106D01*
X459087Y275994D01*
X459073Y275881D01*
X459003Y275627D01*
Y275613D01*
X458989Y275571D01*
X458960Y275514D01*
X458918Y275444D01*
X458820Y275261D01*
X458693Y275077D01*
X458679Y275063D01*
X458664Y275035D01*
X458622Y274993D01*
X458566Y274937D01*
X458411Y274795D01*
X458213Y274655D01*
X458199D01*
X458171Y274626D01*
X458101Y274598D01*
X458030Y274556D01*
X457931Y274513D01*
X457833Y274471D01*
X457579Y274373D01*
X457593D01*
X457607Y274359D01*
X457692Y274302D01*
X457804Y274232D01*
X457931Y274147D01*
X457946D01*
X457960Y274119D01*
X458030Y274062D01*
X458129Y273964D01*
X458227Y273837D01*
Y273823D01*
X458256Y273809D01*
X458284Y273766D01*
X458312Y273710D01*
X458397Y273583D01*
X458481Y273414D01*
Y273400D01*
X458509Y273372D01*
X458523Y273329D01*
X458566Y273259D01*
X458636Y273090D01*
X458735Y272878D01*
X459440Y271144D01*
Y271130D01*
X459454Y271102D01*
X459482Y271017D01*
X459524Y270919D01*
X459538Y270834D01*
Y270820D01*
X459552Y270792D01*
X459567Y270693D01*
Y270665D01*
X459552Y270609D01*
X459538Y270595D01*
X459510Y270581D01*
X459468Y270552D01*
X459454D01*
X459426Y270538D01*
X459369D01*
X459299Y270524D01*
X459228D01*
X459144Y270510D01*
X458834D01*
X458749Y270524D01*
X458735D01*
X458693Y270538D01*
X458636D01*
X458594Y270552D01*
X458580D01*
X458566Y270566D01*
X458495Y270623D01*
Y270637D01*
X458481Y270665D01*
X458439Y270750D01*
X457720Y272610D01*
Y272624D01*
X457692Y272667D01*
X457678Y272723D01*
X457635Y272808D01*
X457551Y272991D01*
X457452Y273188D01*
Y273202D01*
X457424Y273231D01*
X457396Y273287D01*
X457353Y273344D01*
X457255Y273499D01*
X457114Y273640D01*
X457100Y273654D01*
X457086Y273668D01*
X457043Y273710D01*
X456987Y273752D01*
X456846Y273851D01*
X456677Y273950D01*
X456663D01*
X456634Y273964D01*
X456578Y273992D01*
X456508Y274006D01*
X456409Y274034D01*
X456310Y274048D01*
X456057Y274062D01*
X455366D01*
Y270693D01*
Y270665D01*
X455337Y270609D01*
X455309Y270595D01*
X455281Y270581D01*
X455239Y270566D01*
X455225D01*
X455197Y270552D01*
X455154D01*
X455084Y270538D01*
X455070D01*
X455013Y270524D01*
X454943Y270510D01*
X454760D01*
X454675Y270524D01*
X454590Y270538D01*
X454576D01*
X454534Y270552D01*
X454421Y270566D01*
X454407D01*
X454393Y270581D01*
X454337Y270609D01*
Y270623D01*
Y270637D01*
X454323Y270693D01*
Y277995D01*
Y278010D01*
Y278038D01*
X454337Y278122D01*
X454365Y278235D01*
X454435Y278334D01*
X454464Y278348D01*
X454520Y278390D01*
X454604Y278418D01*
X454703Y278433D01*
X456550D01*
X456719Y278418D01*
D02*
G37*
G36*
X449938D02*
X450093Y278404D01*
X450122D01*
X450220Y278390D01*
X450333D01*
X450460Y278376D01*
X450474D01*
X450531Y278362D01*
X450615Y278348D01*
X450728Y278320D01*
X450855Y278277D01*
X450996Y278235D01*
X451264Y278122D01*
X451278Y278108D01*
X451320Y278094D01*
X451390Y278052D01*
X451475Y278010D01*
X451658Y277869D01*
X451856Y277685D01*
X451870Y277671D01*
X451898Y277643D01*
X451940Y277587D01*
X451997Y277516D01*
X452053Y277432D01*
X452109Y277333D01*
X452208Y277093D01*
Y277079D01*
X452222Y277037D01*
X452250Y276966D01*
X452279Y276868D01*
X452293Y276769D01*
X452321Y276642D01*
X452335Y276346D01*
Y276332D01*
Y276276D01*
Y276205D01*
X452321Y276106D01*
X452307Y275994D01*
X452293Y275881D01*
X452222Y275627D01*
Y275613D01*
X452208Y275571D01*
X452180Y275514D01*
X452137Y275444D01*
X452039Y275261D01*
X451912Y275077D01*
X451898Y275063D01*
X451884Y275035D01*
X451842Y274993D01*
X451785Y274937D01*
X451630Y274795D01*
X451433Y274655D01*
X451419D01*
X451390Y274626D01*
X451320Y274598D01*
X451249Y274556D01*
X451151Y274513D01*
X451052Y274471D01*
X450798Y274373D01*
X450812D01*
X450826Y274359D01*
X450911Y274302D01*
X451024Y274232D01*
X451151Y274147D01*
X451165D01*
X451179Y274119D01*
X451249Y274062D01*
X451348Y273964D01*
X451447Y273837D01*
Y273823D01*
X451475Y273809D01*
X451503Y273766D01*
X451531Y273710D01*
X451616Y273583D01*
X451701Y273414D01*
Y273400D01*
X451729Y273372D01*
X451743Y273329D01*
X451785Y273259D01*
X451856Y273090D01*
X451954Y272878D01*
X452659Y271144D01*
Y271130D01*
X452673Y271102D01*
X452701Y271017D01*
X452744Y270919D01*
X452758Y270834D01*
Y270820D01*
X452772Y270792D01*
X452786Y270693D01*
Y270665D01*
X452772Y270609D01*
X452758Y270595D01*
X452730Y270581D01*
X452687Y270552D01*
X452673D01*
X452645Y270538D01*
X452589D01*
X452518Y270524D01*
X452448D01*
X452363Y270510D01*
X452053D01*
X451968Y270524D01*
X451954D01*
X451912Y270538D01*
X451856D01*
X451813Y270552D01*
X451799D01*
X451785Y270566D01*
X451715Y270623D01*
Y270637D01*
X451701Y270665D01*
X451658Y270750D01*
X450939Y272610D01*
Y272624D01*
X450911Y272667D01*
X450897Y272723D01*
X450855Y272808D01*
X450770Y272991D01*
X450671Y273188D01*
Y273202D01*
X450643Y273231D01*
X450615Y273287D01*
X450573Y273344D01*
X450474Y273499D01*
X450333Y273640D01*
X450319Y273654D01*
X450305Y273668D01*
X450263Y273710D01*
X450206Y273752D01*
X450065Y273851D01*
X449896Y273950D01*
X449882D01*
X449854Y273964D01*
X449797Y273992D01*
X449727Y274006D01*
X449628Y274034D01*
X449530Y274048D01*
X449276Y274062D01*
X448585D01*
Y270693D01*
Y270665D01*
X448557Y270609D01*
X448529Y270595D01*
X448501Y270581D01*
X448458Y270566D01*
X448444D01*
X448416Y270552D01*
X448374D01*
X448303Y270538D01*
X448289D01*
X448233Y270524D01*
X448162Y270510D01*
X447979D01*
X447894Y270524D01*
X447810Y270538D01*
X447796D01*
X447753Y270552D01*
X447641Y270566D01*
X447626D01*
X447612Y270581D01*
X447556Y270609D01*
Y270623D01*
Y270637D01*
X447542Y270693D01*
Y277995D01*
Y278010D01*
Y278038D01*
X447556Y278122D01*
X447584Y278235D01*
X447655Y278334D01*
X447683Y278348D01*
X447739Y278390D01*
X447824Y278418D01*
X447923Y278433D01*
X449769D01*
X449938Y278418D01*
D02*
G37*
G36*
X403962Y278319D02*
X404060D01*
X404173Y278305D01*
X404413Y278263D01*
X404427D01*
X404469Y278249D01*
X404525Y278235D01*
X404610Y278221D01*
X404793Y278164D01*
X405005Y278094D01*
X405019D01*
X405047Y278080D01*
X405103Y278052D01*
X405174Y278023D01*
X405329Y277953D01*
X405498Y277868D01*
X405512D01*
X405526Y277854D01*
X405611Y277798D01*
X405710Y277727D01*
X405794Y277657D01*
X405808Y277643D01*
X405836Y277615D01*
X405879Y277572D01*
X405893Y277530D01*
X405907Y277502D01*
X405935Y277431D01*
Y277417D01*
X405949Y277389D01*
Y277347D01*
X405963Y277290D01*
Y277276D01*
X405978Y277248D01*
Y277178D01*
Y277107D01*
Y277093D01*
Y277037D01*
Y276980D01*
X405963Y276910D01*
Y276896D01*
X405949Y276853D01*
X405921Y276755D01*
Y276741D01*
X405907Y276726D01*
X405865Y276670D01*
X405851D01*
X405780Y276656D01*
X405766D01*
X405724Y276670D01*
X405639Y276698D01*
X405541Y276769D01*
X405512Y276783D01*
X405428Y276839D01*
X405315Y276924D01*
X405146Y277023D01*
X405132Y277037D01*
X405103Y277051D01*
X405047Y277079D01*
X404977Y277121D01*
X404892Y277164D01*
X404793Y277206D01*
X404554Y277290D01*
X404540D01*
X404497Y277304D01*
X404427Y277333D01*
X404328Y277361D01*
X404201Y277375D01*
X404060Y277403D01*
X403905Y277417D01*
X403637D01*
X403539Y277403D01*
X403412Y277389D01*
X403257Y277361D01*
X403102Y277333D01*
X402933Y277276D01*
X402763Y277206D01*
X402749Y277192D01*
X402693Y277164D01*
X402608Y277121D01*
X402510Y277051D01*
X402397Y276966D01*
X402270Y276853D01*
X402157Y276726D01*
X402030Y276586D01*
X402016Y276572D01*
X401974Y276515D01*
X401917Y276430D01*
X401861Y276304D01*
X401777Y276163D01*
X401692Y275993D01*
X401622Y275796D01*
X401551Y275585D01*
Y275557D01*
X401523Y275486D01*
X401509Y275359D01*
X401480Y275204D01*
X401452Y275007D01*
X401424Y274781D01*
X401410Y274527D01*
X401396Y274245D01*
Y274231D01*
Y274217D01*
Y274175D01*
Y274119D01*
X401410Y273978D01*
Y273794D01*
X401438Y273597D01*
X401466Y273371D01*
X401495Y273146D01*
X401551Y272920D01*
X401565Y272892D01*
X401579Y272822D01*
X401622Y272723D01*
X401678Y272582D01*
X401734Y272427D01*
X401819Y272272D01*
X401917Y272117D01*
X402016Y271962D01*
X402030Y271948D01*
X402073Y271905D01*
X402143Y271835D01*
X402228Y271750D01*
X402340Y271652D01*
X402467Y271553D01*
X402608Y271468D01*
X402763Y271384D01*
X402777Y271370D01*
X402848Y271356D01*
X402933Y271327D01*
X403059Y271285D01*
X403200Y271243D01*
X403369Y271215D01*
X403553Y271201D01*
X403764Y271186D01*
X403933D01*
X404046Y271201D01*
X404173Y271215D01*
X404300Y271229D01*
X404582Y271299D01*
X404596D01*
X404638Y271313D01*
X404709Y271341D01*
X404793Y271370D01*
X404977Y271454D01*
X405174Y271553D01*
X405188D01*
X405216Y271581D01*
X405258Y271609D01*
X405315Y271637D01*
X405456Y271722D01*
X405583Y271807D01*
X405597D01*
X405611Y271821D01*
X405681Y271877D01*
X405766Y271919D01*
X405836Y271933D01*
X405865D01*
X405907Y271905D01*
X405921D01*
X405935Y271891D01*
X405949Y271877D01*
X405963Y271835D01*
Y271821D01*
X405978Y271807D01*
Y271764D01*
X405992Y271694D01*
Y271680D01*
X406006Y271637D01*
Y271567D01*
Y271468D01*
Y271454D01*
Y271412D01*
Y271356D01*
X405992Y271285D01*
Y271271D01*
Y271243D01*
X405963Y271158D01*
X405949Y271130D01*
X405921Y271074D01*
Y271059D01*
X405907Y271045D01*
X405879Y271003D01*
X405836Y270961D01*
X405822Y270947D01*
X405780Y270919D01*
X405710Y270862D01*
X405583Y270778D01*
X405569D01*
X405555Y270749D01*
X405512Y270735D01*
X405456Y270693D01*
X405301Y270623D01*
X405103Y270524D01*
X405089D01*
X405047Y270510D01*
X404991Y270482D01*
X404920Y270453D01*
X404822Y270425D01*
X404709Y270397D01*
X404441Y270341D01*
X404427D01*
X404370Y270326D01*
X404300Y270312D01*
X404201Y270298D01*
X404074Y270284D01*
X403933Y270270D01*
X403623Y270256D01*
X403496D01*
X403341Y270270D01*
X403158Y270284D01*
X402947Y270312D01*
X402707Y270369D01*
X402467Y270425D01*
X402228Y270510D01*
X402200Y270524D01*
X402129Y270552D01*
X402016Y270623D01*
X401875Y270693D01*
X401706Y270806D01*
X401537Y270933D01*
X401354Y271088D01*
X401185Y271257D01*
X401170Y271285D01*
X401114Y271341D01*
X401029Y271454D01*
X400931Y271609D01*
X400832Y271779D01*
X400719Y271990D01*
X400606Y272230D01*
X400508Y272497D01*
Y272512D01*
X400494Y272526D01*
Y272568D01*
X400480Y272624D01*
X400451Y272695D01*
X400437Y272779D01*
X400395Y272991D01*
X400353Y273230D01*
X400325Y273526D01*
X400296Y273837D01*
X400282Y274189D01*
Y274203D01*
Y274231D01*
Y274288D01*
Y274358D01*
X400296Y274443D01*
Y274541D01*
X400311Y274767D01*
X400339Y275035D01*
X400381Y275331D01*
X400437Y275627D01*
X400522Y275923D01*
Y275937D01*
X400536Y275951D01*
X400550Y275993D01*
X400564Y276050D01*
X400621Y276191D01*
X400705Y276374D01*
X400804Y276586D01*
X400931Y276797D01*
X401072Y277023D01*
X401227Y277234D01*
X401255Y277262D01*
X401311Y277319D01*
X401410Y277417D01*
X401537Y277544D01*
X401706Y277671D01*
X401889Y277812D01*
X402101Y277939D01*
X402326Y278052D01*
X402340D01*
X402355Y278066D01*
X402439Y278094D01*
X402566Y278136D01*
X402749Y278193D01*
X402961Y278249D01*
X403200Y278291D01*
X403468Y278319D01*
X403750Y278334D01*
X403877D01*
X403962Y278319D01*
D02*
G37*
G36*
X412194Y278207D02*
X412208D01*
X412222Y278193D01*
X412265Y278122D01*
Y278108D01*
X412279Y278080D01*
X412293Y278037D01*
X412307Y277981D01*
Y277967D01*
X412321Y277925D01*
Y277868D01*
Y277784D01*
Y277770D01*
Y277713D01*
Y277643D01*
X412307Y277572D01*
Y277558D01*
X412293Y277530D01*
X412265Y277431D01*
X412251Y277403D01*
X412194Y277361D01*
X412166D01*
X412110Y277347D01*
X409896D01*
Y270496D01*
Y270467D01*
X409868Y270411D01*
X409840Y270397D01*
X409812Y270383D01*
X409770Y270369D01*
X409756D01*
X409727Y270355D01*
X409685D01*
X409614Y270341D01*
X409600D01*
X409544Y270326D01*
X409473Y270312D01*
X409290D01*
X409206Y270326D01*
X409121Y270341D01*
X409107D01*
X409065Y270355D01*
X408952Y270369D01*
X408938D01*
X408924Y270383D01*
X408867Y270411D01*
Y270425D01*
Y270439D01*
X408853Y270496D01*
Y277347D01*
X406598D01*
X406541Y277361D01*
X406513Y277375D01*
X406471Y277431D01*
Y277446D01*
X406457Y277474D01*
Y277516D01*
X406443Y277572D01*
Y277586D01*
Y277629D01*
X406429Y277699D01*
Y277784D01*
Y277798D01*
Y277854D01*
Y277911D01*
X406443Y277981D01*
Y277995D01*
X406457Y278037D01*
X406471Y278122D01*
Y278136D01*
X406485Y278150D01*
X406541Y278207D01*
X406555D01*
X406570Y278221D01*
X406626Y278235D01*
X412138D01*
X412194Y278207D01*
D02*
G37*
G36*
X396377Y278263D02*
X396406D01*
X396448Y278249D01*
X396518Y278235D01*
X396575Y278221D01*
X396589D01*
X396617Y278207D01*
X396659Y278193D01*
X396702Y278150D01*
X396716D01*
X396730Y278122D01*
X396772Y278052D01*
X399422Y270721D01*
X399436Y270693D01*
X399451Y270637D01*
X399465Y270566D01*
Y270496D01*
Y270482D01*
Y270453D01*
X399451Y270411D01*
X399422Y270369D01*
X399408D01*
X399394Y270355D01*
X399338Y270341D01*
X399267Y270326D01*
X399183D01*
X399084Y270312D01*
X398760D01*
X398661Y270326D01*
X398647D01*
X398605Y270341D01*
X398548D01*
X398492Y270355D01*
X398478D01*
X398464Y270369D01*
X398407Y270397D01*
Y270411D01*
X398393Y270425D01*
X398351Y270496D01*
X397674Y272427D01*
X394390D01*
X393755Y270524D01*
Y270510D01*
X393741Y270496D01*
X393699Y270425D01*
X393685Y270397D01*
X393614Y270355D01*
X393600D01*
X393572Y270341D01*
X393516D01*
X393445Y270326D01*
X393375D01*
X393290Y270312D01*
X393079D01*
X392980Y270326D01*
X392881Y270341D01*
X392867D01*
X392825Y270355D01*
X392769Y270369D01*
X392726Y270383D01*
Y270397D01*
X392712Y270411D01*
X392698Y270453D01*
X392684Y270496D01*
Y270510D01*
X392698Y270552D01*
X392712Y270623D01*
X392740Y270721D01*
X395377Y278052D01*
Y278066D01*
X395391Y278094D01*
X395433Y278164D01*
X395447Y278179D01*
X395461Y278193D01*
X395546Y278221D01*
X395560D01*
X395602Y278235D01*
X395658Y278249D01*
X395743Y278263D01*
X395771D01*
X395828Y278277D01*
X396279D01*
X396377Y278263D01*
D02*
G37*
G36*
X358868Y278418D02*
X359037Y278404D01*
X359080D01*
X359136Y278390D01*
X359192Y278376D01*
X359277Y278362D01*
X359376Y278348D01*
X359601Y278306D01*
X359615D01*
X359658Y278291D01*
X359728Y278277D01*
X359799Y278249D01*
X359897Y278221D01*
X360010Y278179D01*
X360250Y278052D01*
X360264Y278038D01*
X360306Y278024D01*
X360363Y277981D01*
X360447Y277925D01*
X360630Y277770D01*
X360814Y277573D01*
X360828Y277558D01*
X360856Y277530D01*
X360898Y277460D01*
X360955Y277389D01*
X361011Y277291D01*
X361067Y277178D01*
X361180Y276924D01*
Y276910D01*
X361194Y276854D01*
X361222Y276783D01*
X361251Y276684D01*
X361265Y276572D01*
X361293Y276431D01*
X361307Y276121D01*
Y276092D01*
Y276022D01*
X361293Y275909D01*
X361279Y275768D01*
X361265Y275599D01*
X361222Y275416D01*
X361180Y275233D01*
X361110Y275049D01*
X361096Y275035D01*
X361067Y274965D01*
X361025Y274880D01*
X360969Y274767D01*
X360884Y274640D01*
X360785Y274499D01*
X360673Y274359D01*
X360546Y274232D01*
X360532Y274217D01*
X360475Y274175D01*
X360405Y274119D01*
X360292Y274034D01*
X360165Y273950D01*
X360010Y273865D01*
X359841Y273780D01*
X359644Y273710D01*
X359615D01*
X359545Y273682D01*
X359446Y273654D01*
X359291Y273625D01*
X359108Y273597D01*
X358896Y273569D01*
X358657Y273555D01*
X358389Y273541D01*
X357501D01*
Y270693D01*
Y270665D01*
X357473Y270609D01*
X357444Y270595D01*
X357416Y270581D01*
X357374Y270566D01*
X357360D01*
X357332Y270552D01*
X357289D01*
X357219Y270538D01*
X357205D01*
X357148Y270524D01*
X357078Y270510D01*
X356895D01*
X356810Y270524D01*
X356726Y270538D01*
X356711D01*
X356669Y270552D01*
X356556Y270566D01*
X356542D01*
X356528Y270581D01*
X356472Y270609D01*
Y270623D01*
Y270637D01*
X356458Y270693D01*
Y277981D01*
Y277995D01*
Y278024D01*
X356472Y278108D01*
X356514Y278221D01*
X356585Y278320D01*
X356613Y278334D01*
X356669Y278376D01*
X356754Y278418D01*
X356866Y278433D01*
X358713D01*
X358868Y278418D01*
D02*
G37*
G36*
X353991Y278461D02*
X354075Y278447D01*
X354089D01*
X354132Y278433D01*
X354188Y278418D01*
X354230Y278404D01*
X354244D01*
X354273Y278390D01*
X354301Y278376D01*
X354329Y278348D01*
X354343Y278334D01*
X354357Y278277D01*
Y270693D01*
Y270665D01*
X354329Y270609D01*
X354301Y270595D01*
X354273Y270581D01*
X354230Y270566D01*
X354216D01*
X354188Y270552D01*
X354146D01*
X354075Y270538D01*
X354061D01*
X354005Y270524D01*
X353934Y270510D01*
X353751D01*
X353666Y270524D01*
X353582Y270538D01*
X353568D01*
X353526Y270552D01*
X353413Y270566D01*
X353399D01*
X353385Y270581D01*
X353328Y270609D01*
Y270623D01*
Y270637D01*
X353314Y270693D01*
Y278277D01*
Y278291D01*
Y278306D01*
X353328Y278348D01*
Y278362D01*
X353356Y278376D01*
X353413Y278404D01*
X353427D01*
X353455Y278418D01*
X353511Y278433D01*
X353582Y278447D01*
X353596D01*
X353652Y278461D01*
X353737Y278475D01*
X353920D01*
X353991Y278461D01*
D02*
G37*
%LPC*%
G36*
X456451Y277573D02*
X455366D01*
Y274908D01*
X456536D01*
X456634Y274922D01*
X456860Y274951D01*
X457100Y275007D01*
X457114D01*
X457156Y275021D01*
X457212Y275049D01*
X457283Y275077D01*
X457452Y275162D01*
X457607Y275275D01*
X457621Y275289D01*
X457635Y275303D01*
X457678Y275345D01*
X457720Y275402D01*
X457819Y275529D01*
X457903Y275698D01*
Y275712D01*
X457917Y275740D01*
X457931Y275796D01*
X457960Y275867D01*
X457988Y276036D01*
X458002Y276233D01*
Y276248D01*
Y276318D01*
X457988Y276402D01*
X457974Y276501D01*
X457946Y276628D01*
X457917Y276769D01*
X457861Y276896D01*
X457790Y277023D01*
X457776Y277037D01*
X457748Y277079D01*
X457692Y277136D01*
X457621Y277206D01*
X457523Y277277D01*
X457410Y277361D01*
X457255Y277432D01*
X457086Y277488D01*
X457057Y277502D01*
X456987Y277516D01*
X456888Y277530D01*
X456747Y277544D01*
X456719D01*
X456663Y277558D01*
X456536D01*
X456451Y277573D01*
D02*
G37*
G36*
X449671D02*
X448585D01*
Y274908D01*
X449755D01*
X449854Y274922D01*
X450079Y274951D01*
X450319Y275007D01*
X450333D01*
X450375Y275021D01*
X450432Y275049D01*
X450502Y275077D01*
X450671Y275162D01*
X450826Y275275D01*
X450841Y275289D01*
X450855Y275303D01*
X450897Y275345D01*
X450939Y275402D01*
X451038Y275529D01*
X451123Y275698D01*
Y275712D01*
X451137Y275740D01*
X451151Y275796D01*
X451179Y275867D01*
X451207Y276036D01*
X451221Y276233D01*
Y276248D01*
Y276318D01*
X451207Y276402D01*
X451193Y276501D01*
X451165Y276628D01*
X451137Y276769D01*
X451080Y276896D01*
X451010Y277023D01*
X450996Y277037D01*
X450967Y277079D01*
X450911Y277136D01*
X450841Y277206D01*
X450742Y277277D01*
X450629Y277361D01*
X450474Y277432D01*
X450305Y277488D01*
X450277Y277502D01*
X450206Y277516D01*
X450108Y277530D01*
X449967Y277544D01*
X449938D01*
X449882Y277558D01*
X449755D01*
X449671Y277573D01*
D02*
G37*
G36*
X396025Y277192D02*
X396011D01*
X394658Y273259D01*
X397407D01*
X396025Y277192D01*
D02*
G37*
G36*
X358474Y277573D02*
X357501D01*
Y274401D01*
X358615D01*
X358727Y274415D01*
X358854Y274429D01*
X358981Y274443D01*
X359108Y274471D01*
X359235Y274513D01*
X359249D01*
X359291Y274542D01*
X359347Y274570D01*
X359418Y274598D01*
X359587Y274711D01*
X359756Y274852D01*
X359770Y274866D01*
X359799Y274894D01*
X359841Y274937D01*
X359883Y275007D01*
X359996Y275162D01*
X360095Y275373D01*
Y275388D01*
X360109Y275430D01*
X360137Y275486D01*
X360151Y275571D01*
X360179Y275669D01*
X360193Y275782D01*
X360207Y276036D01*
Y276064D01*
Y276121D01*
X360193Y276205D01*
X360179Y276318D01*
X360165Y276445D01*
X360137Y276572D01*
X360081Y276713D01*
X360024Y276840D01*
X360010Y276854D01*
X359996Y276896D01*
X359954Y276952D01*
X359897Y277023D01*
X359756Y277178D01*
X359672Y277248D01*
X359573Y277319D01*
X359559Y277333D01*
X359531Y277347D01*
X359474Y277375D01*
X359404Y277403D01*
X359235Y277474D01*
X359023Y277516D01*
X359009D01*
X358981Y277530D01*
X358925D01*
X358854Y277544D01*
X358671Y277558D01*
X358474Y277573D01*
D02*
G37*
%LPD*%
D10*
X319312Y409321D02*
G03*
X319312Y409321I-3810J0D01*
G01*
D11*
X314940Y331724D02*
G03*
X314940Y331724I-1250J0D01*
G01*
X595102Y428498D02*
G03*
X595102Y428498I-1250J0D01*
G01*
X719520Y287020D02*
G03*
X719520Y287020I-1250J0D01*
G01*
X539730Y284480D02*
G03*
X539730Y284480I-1250J0D01*
G01*
D12*
X415528Y435610D02*
G03*
X415528Y435610I-1000J0D01*
G01*
X480370Y367080D02*
X501370D01*
X480370Y394080D02*
X501370D01*
X566350Y407330D02*
Y428330D01*
X589350Y407330D02*
Y428330D01*
X724020Y260520D02*
X776320D01*
X724020Y318770D02*
Y398020D01*
Y296770D02*
Y299270D01*
Y260520D02*
Y277270D01*
Y398020D02*
X757570D01*
X776320Y296770D02*
Y384270D01*
Y260520D02*
Y277270D01*
X323978Y296880D02*
X339978D01*
X323978Y322880D02*
X339978D01*
X359918Y299720D02*
X367108D01*
Y325120D01*
X359918D02*
X367108D01*
X345108D02*
X352298D01*
X345108Y299720D02*
Y325120D01*
Y299720D02*
X352298D01*
X587416Y253962D02*
X608416D01*
X587416Y280962D02*
X608416D01*
D13*
X454406Y346060D02*
Y360060D01*
X440406Y357060D02*
Y360060D01*
X468406D01*
Y357060D02*
Y360060D01*
Y346060D02*
Y349060D01*
X440406Y346060D02*
X468406D01*
X440406D02*
Y349060D01*
X571432Y434364D02*
Y436364D01*
Y434364D02*
X591432D01*
Y436364D01*
Y442364D02*
Y444364D01*
X571432D02*
X591432D01*
X571432Y442364D02*
Y444364D01*
X396176Y409164D02*
X399176D01*
Y437164D01*
X396176D02*
X399176D01*
X385176D02*
X388176D01*
X385176Y409164D02*
Y437164D01*
Y409164D02*
X388176D01*
X385176Y423164D02*
X399176D01*
X514302Y371000D02*
X516302D01*
Y391000D01*
X514302D02*
X516302D01*
X506302D02*
X508302D01*
X506302Y371000D02*
Y391000D01*
Y371000D02*
X508302D01*
X500220Y364442D02*
Y366442D01*
X480220D02*
X500220D01*
X480220Y364442D02*
Y366442D01*
Y356442D02*
Y358442D01*
Y356442D02*
X500220D01*
Y358442D01*
X709700Y304110D02*
Y305610D01*
X692200Y304110D02*
X709700D01*
X692200D02*
Y305610D01*
Y311610D02*
Y313110D01*
X709700D01*
Y311610D02*
Y313110D01*
X659710Y321170D02*
X661210D01*
X659710Y303670D02*
Y321170D01*
Y303670D02*
X661210D01*
X667210D02*
X668710D01*
Y321170D01*
X667210D02*
X668710D01*
X689470Y311110D02*
Y313110D01*
X671970D02*
X689470D01*
X671970Y311110D02*
Y313110D01*
Y304110D02*
Y306110D01*
Y304110D02*
X689470D01*
Y306110D01*
X680720Y304110D02*
Y313110D01*
X656450Y311110D02*
Y313110D01*
X638950D02*
X656450D01*
X638950Y311110D02*
Y313110D01*
Y304110D02*
Y306110D01*
Y304110D02*
X656450D01*
Y306110D01*
X647700Y304110D02*
Y313110D01*
X626690Y321260D02*
X628190D01*
X626690Y303760D02*
Y321260D01*
Y303760D02*
X628190D01*
X634190D02*
X635690D01*
Y321260D01*
X634190D02*
X635690D01*
X634190Y341470D02*
X636190D01*
Y321470D02*
Y341470D01*
X634190Y321470D02*
X636190D01*
X626190D02*
X628190D01*
X626190D02*
Y341470D01*
X628190D01*
X474980Y268224D02*
X485140D01*
X474980Y256794D02*
X476250D01*
X474980D02*
Y279654D01*
X476250D01*
X483870D02*
X485140D01*
Y256794D02*
Y279654D01*
X483870Y256794D02*
X485140D01*
X581406Y391414D02*
Y392684D01*
Y391414D02*
X604266D01*
Y392684D01*
Y400304D02*
Y401574D01*
X581406D02*
X604266D01*
X581406Y400304D02*
Y401574D01*
X592836Y391414D02*
Y401574D01*
X574040Y400304D02*
Y401574D01*
X551180D02*
X574040D01*
X551180Y400304D02*
Y401574D01*
Y391414D02*
Y392684D01*
Y391414D02*
X574040D01*
Y392684D01*
X562610Y391414D02*
Y401574D01*
X621490Y333850D02*
X623490D01*
Y313850D02*
Y333850D01*
X621490Y313850D02*
X623490D01*
X613490D02*
X615490D01*
X613490D02*
Y333850D01*
X615490D01*
X317978Y324216D02*
Y327216D01*
Y324216D02*
X345978D01*
Y327216D01*
Y335216D02*
Y338216D01*
X317978D02*
X345978D01*
X317978Y335216D02*
Y338216D01*
X331978Y324216D02*
Y338216D01*
X303642Y327690D02*
X306642D01*
X303642Y299690D02*
Y327690D01*
Y299690D02*
X306642D01*
X314642D02*
X317642D01*
Y327690D01*
X314642D02*
X317642D01*
X303642Y313690D02*
X317642D01*
X523320Y294210D02*
X525320D01*
X523320D02*
Y314210D01*
X525320D01*
X531320D02*
X533320D01*
Y294210D02*
Y314210D01*
X531320Y294210D02*
X533320D01*
X497792Y398686D02*
X499792D01*
Y418686D01*
X497792D02*
X499792D01*
X489792D02*
X491792D01*
X489792Y398686D02*
Y418686D01*
Y398686D02*
X491792D01*
X477600Y427830D02*
X479600D01*
X477600Y407830D02*
Y427830D01*
Y407830D02*
X479600D01*
X485600D02*
X487600D01*
Y427830D01*
X485600D02*
X487600D01*
X401146Y429100D02*
X403146D01*
X401146Y409100D02*
Y429100D01*
Y409100D02*
X403146D01*
X409146D02*
X411146D01*
Y429100D01*
X409146D02*
X411146D01*
X448470Y362030D02*
Y364030D01*
Y362030D02*
X468470D01*
Y364030D01*
Y370030D02*
Y372030D01*
X448470D02*
X468470D01*
X448470Y370030D02*
Y372030D01*
X370840Y279908D02*
Y281178D01*
X374650D01*
Y279908D02*
Y281178D01*
X368300Y279908D02*
Y281178D01*
X364490D02*
X368300D01*
X364490Y279908D02*
Y281178D01*
X373380Y257048D02*
X374650D01*
Y279908D01*
X370840D02*
X374650D01*
X364490D02*
X368300D01*
X364490Y257048D02*
Y279908D01*
Y257048D02*
X365760D01*
X364490Y268478D02*
X374650D01*
X420370Y279908D02*
Y281178D01*
X424180D01*
Y279908D02*
Y281178D01*
X417830Y279908D02*
Y281178D01*
X414020D02*
X417830D01*
X414020Y279908D02*
Y281178D01*
X422910Y257048D02*
X424180D01*
Y279908D01*
X420370D02*
X424180D01*
X414020D02*
X417830D01*
X414020Y257048D02*
Y279908D01*
Y257048D02*
X415290D01*
X414020Y268478D02*
X424180D01*
X387350Y257048D02*
X388620D01*
Y279908D01*
X387350D02*
X388620D01*
X378460D02*
X379730D01*
X378460Y257048D02*
Y279908D01*
Y257048D02*
X379730D01*
X378460Y268478D02*
X388620D01*
X467360Y279654D02*
Y280924D01*
X471170D01*
Y279654D02*
Y280924D01*
X464820Y279654D02*
Y280924D01*
X461010D02*
X464820D01*
X461010Y279654D02*
Y280924D01*
X469900Y256794D02*
X471170D01*
Y279654D01*
X467360D02*
X471170D01*
X461010D02*
X464820D01*
X461010Y256794D02*
Y279654D01*
Y256794D02*
X462280D01*
X461010Y268224D02*
X471170D01*
X436880Y257048D02*
X438150D01*
Y279908D01*
X436880D02*
X438150D01*
X427990D02*
X429260D01*
X427990Y257048D02*
Y279908D01*
Y257048D02*
X429260D01*
X427990Y268478D02*
X438150D01*
X622300Y260350D02*
X623570D01*
Y283210D01*
X622300D02*
X623570D01*
X613410D02*
X614680D01*
X613410Y260350D02*
Y283210D01*
Y260350D02*
X614680D01*
X613410Y271780D02*
X623570D01*
X533560Y358220D02*
Y360220D01*
Y358220D02*
X553560D01*
Y360220D01*
Y366220D02*
Y368220D01*
X533560D02*
X553560D01*
X533560Y366220D02*
Y368220D01*
X626190Y302100D02*
X628190D01*
X626190Y282100D02*
Y302100D01*
Y282100D02*
X628190D01*
X634190D02*
X636190D01*
Y302100D01*
X634190D02*
X636190D01*
X613490Y305910D02*
X615490D01*
X613490Y285910D02*
Y305910D01*
Y285910D02*
X615490D01*
X621490D02*
X623490D01*
Y305910D01*
X621490D02*
X623490D01*
X500238Y340028D02*
X503238D01*
X500238Y312028D02*
Y340028D01*
Y312028D02*
X503238D01*
X511238D02*
X514238D01*
Y340028D01*
X511238D02*
X514238D01*
X500238Y326028D02*
X514238D01*
X500540Y299800D02*
Y301800D01*
Y299800D02*
X520540D01*
Y301800D01*
Y307800D02*
Y309800D01*
X500540D02*
X520540D01*
X500540Y307800D02*
Y309800D01*
X523320Y355440D02*
X525320D01*
X523320Y335440D02*
Y355440D01*
Y335440D02*
X525320D01*
X531320D02*
X533320D01*
Y355440D01*
X531320D02*
X533320D01*
X523320Y335120D02*
X525320D01*
X523320Y315120D02*
Y335120D01*
Y315120D02*
X525320D01*
X531320D02*
X533320D01*
Y335120D01*
X531320D02*
X533320D01*
D14*
X473073Y376966D02*
Y391066D01*
X417472Y376966D02*
Y391066D01*
Y376966D02*
X431172D01*
X459372D02*
X473073D01*
Y418466D02*
Y432566D01*
X459372D02*
X473073D01*
X417472Y418466D02*
Y432566D01*
X431172D01*
D15*
X541660Y350180D02*
X546503D01*
X604200Y345337D02*
Y350180D01*
X599357Y287640D02*
X604200D01*
X541660D02*
X546503D01*
X541660Y345337D02*
Y350180D01*
X599357D02*
X604200D01*
Y287640D02*
Y292483D01*
X541660Y287640D02*
Y292483D01*
X315468Y427101D02*
Y428787D01*
Y427101D02*
X351536D01*
X315468Y481041D02*
Y482727D01*
X351536D01*
Y427101D02*
Y428787D01*
Y481041D02*
Y482727D01*
M02*
