G04*
G04 #@! TF.GenerationSoftware,Altium Limited,Altium Designer,22.8.2 (66)*
G04*
G04 Layer_Physical_Order=1*
G04 Layer_Color=255*
%FSLAX44Y44*%
%MOMM*%
G71*
G04*
G04 #@! TF.SameCoordinates,E765EAFB-E956-432D-8013-76C00557599A*
G04*
G04*
G04 #@! TF.FilePolarity,Positive*
G04*
G01*
G75*
%ADD13C,0.2540*%
%ADD15R,1.5000X1.2000*%
%ADD17R,0.8600X0.2200*%
%ADD18R,0.2200X0.8600*%
%ADD19R,0.6000X0.6400*%
%ADD20R,0.9000X1.0000*%
%ADD21R,0.6400X0.6000*%
%ADD22R,0.9000X0.8000*%
%ADD23R,0.7500X0.6000*%
G04:AMPARAMS|DCode=24|XSize=0.5mm|YSize=0.25mm|CornerRadius=0.125mm|HoleSize=0mm|Usage=FLASHONLY|Rotation=270.000|XOffset=0mm|YOffset=0mm|HoleType=Round|Shape=RoundedRectangle|*
%AMROUNDEDRECTD24*
21,1,0.5000,0.0000,0,0,270.0*
21,1,0.2500,0.2500,0,0,270.0*
1,1,0.2500,0.0000,-0.1250*
1,1,0.2500,0.0000,0.1250*
1,1,0.2500,0.0000,0.1250*
1,1,0.2500,0.0000,-0.1250*
%
%ADD24ROUNDEDRECTD24*%
%ADD25C,0.3500*%
%ADD26R,0.6000X0.7500*%
%ADD27R,0.4800X0.5400*%
%ADD28R,1.0000X0.9000*%
%ADD29R,0.5500X0.5400*%
%ADD30R,0.5400X0.5500*%
G04:AMPARAMS|DCode=31|XSize=0.54mm|YSize=0.48mm|CornerRadius=0mm|HoleSize=0mm|Usage=FLASHONLY|Rotation=225.000|XOffset=0mm|YOffset=0mm|HoleType=Round|Shape=Rectangle|*
%AMROTATEDRECTD31*
4,1,4,0.0212,0.3606,0.3606,0.0212,-0.0212,-0.3606,-0.3606,-0.0212,0.0212,0.3606,0.0*
%
%ADD31ROTATEDRECTD31*%

G04:AMPARAMS|DCode=32|XSize=0.54mm|YSize=0.55mm|CornerRadius=0mm|HoleSize=0mm|Usage=FLASHONLY|Rotation=315.000|XOffset=0mm|YOffset=0mm|HoleType=Round|Shape=Rectangle|*
%AMROTATEDRECTD32*
4,1,4,-0.3854,-0.0035,0.0035,0.3854,0.3854,0.0035,-0.0035,-0.3854,-0.3854,-0.0035,0.0*
%
%ADD32ROTATEDRECTD32*%

G04:AMPARAMS|DCode=33|XSize=0.75mm|YSize=1.4mm|CornerRadius=0mm|HoleSize=0mm|Usage=FLASHONLY|Rotation=315.000|XOffset=0mm|YOffset=0mm|HoleType=Round|Shape=Rectangle|*
%AMROTATEDRECTD33*
4,1,4,-0.7601,-0.2298,0.2298,0.7601,0.7601,0.2298,-0.2298,-0.7601,-0.7601,-0.2298,0.0*
%
%ADD33ROTATEDRECTD33*%

%ADD34R,0.7200X0.7600*%
G04:AMPARAMS|DCode=35|XSize=0.6mm|YSize=0.25mm|CornerRadius=0.05mm|HoleSize=0mm|Usage=FLASHONLY|Rotation=0.000|XOffset=0mm|YOffset=0mm|HoleType=Round|Shape=RoundedRectangle|*
%AMROUNDEDRECTD35*
21,1,0.6000,0.1500,0,0,0.0*
21,1,0.5000,0.2500,0,0,0.0*
1,1,0.1000,0.2500,-0.0750*
1,1,0.1000,-0.2500,-0.0750*
1,1,0.1000,-0.2500,0.0750*
1,1,0.1000,0.2500,0.0750*
%
%ADD35ROUNDEDRECTD35*%
%ADD36R,1.6000X0.6500*%
%ADD37R,2.4000X0.5600*%
%ADD38R,4.4500X4.4500*%
%ADD43R,1.3500X0.6500*%
%ADD56C,1.5240*%
%ADD58C,0.5000*%
%ADD59C,0.2501*%
%ADD60C,0.1270*%
%ADD61C,0.2032*%
%ADD62C,0.3048*%
%ADD63C,0.1016*%
%ADD64C,0.1524*%
%ADD65C,0.8128*%
%ADD66C,3.4544*%
%ADD67C,0.4500*%
G36*
X782821Y366098D02*
X764794D01*
X764016Y365776D01*
X763694Y364998D01*
Y358902D01*
X762835Y357657D01*
X761238D01*
X760354Y357481D01*
X759604Y356980D01*
X756390Y353766D01*
X755671Y354484D01*
X750416Y349229D01*
X749439Y348523D01*
X749299Y348662D01*
X744682Y344045D01*
X743973Y343336D01*
X743075Y342438D01*
X738572Y337935D01*
X727108D01*
Y339390D01*
X719676D01*
Y337890D01*
X709886D01*
Y339250D01*
X703356D01*
X702354Y339250D01*
X701084Y339250D01*
X694554D01*
Y337845D01*
X689806D01*
Y339250D01*
X682974D01*
Y331818D01*
X689806D01*
Y333223D01*
X694554D01*
Y331818D01*
X701084D01*
X702086Y331818D01*
X703356Y331818D01*
X709886D01*
Y333268D01*
X719676D01*
Y331858D01*
X727108D01*
Y333313D01*
X741008D01*
X741892Y333489D01*
X742430Y333848D01*
X743713Y332566D01*
X748330Y337183D01*
X749039Y337892D01*
X749937Y338790D01*
X754554Y343407D01*
X754541Y343420D01*
X755247Y344398D01*
X760502Y349653D01*
X759658Y350498D01*
X761674Y352515D01*
X763246Y352505D01*
X763694Y352044D01*
Y346456D01*
X764016Y345678D01*
X764794Y345356D01*
X782821D01*
Y254769D01*
X257309D01*
Y292121D01*
X257944Y499611D01*
X782821D01*
Y366098D01*
D02*
G37*
%LPC*%
G36*
X327468Y479050D02*
X301436D01*
Y477697D01*
X299695D01*
X299428Y477964D01*
X298134Y478500D01*
X296734D01*
X295440Y477964D01*
X294450Y476974D01*
X293914Y475680D01*
Y474280D01*
X294450Y472986D01*
X295440Y471996D01*
X296734Y471460D01*
X298134D01*
X299428Y471996D01*
X299949Y472517D01*
X301436D01*
Y471418D01*
X326447D01*
X326938Y470778D01*
Y469050D01*
X326815Y468890D01*
X301436D01*
Y464592D01*
X298576D01*
X297904Y465264D01*
X296610Y465800D01*
X295210D01*
X293916Y465264D01*
X292926Y464274D01*
X292390Y462980D01*
Y461580D01*
X292926Y460286D01*
X293916Y459296D01*
X295210Y458760D01*
X296610D01*
X297904Y459296D01*
X298894Y460286D01*
X299283Y461226D01*
X311017D01*
X311180Y461258D01*
X325819D01*
X326345Y459988D01*
X325087Y458730D01*
X301436D01*
Y451098D01*
X325819D01*
X326345Y449828D01*
X325087Y448570D01*
X301436D01*
Y440938D01*
X326815D01*
X326938Y440778D01*
Y439050D01*
X326447Y438410D01*
X301436D01*
Y430778D01*
X320897D01*
Y428817D01*
X320586Y428688D01*
X319596Y427698D01*
X319060Y426404D01*
Y425004D01*
X319596Y423710D01*
X320586Y422720D01*
X321880Y422184D01*
X323280D01*
X324574Y422720D01*
X325564Y423710D01*
X326100Y425004D01*
Y426404D01*
X325564Y427698D01*
X324574Y428688D01*
X324263Y428817D01*
Y430778D01*
X327468D01*
Y434869D01*
X328738Y435395D01*
X329472Y434661D01*
X330968Y433797D01*
X332638Y433350D01*
X334366D01*
X336036Y433797D01*
X337532Y434661D01*
X338266Y435395D01*
X339536Y434869D01*
Y430778D01*
X347941D01*
X348758Y429508D01*
X348524Y428944D01*
Y427544D01*
X349060Y426250D01*
X350050Y425260D01*
X351344Y424724D01*
X352744D01*
X354038Y425260D01*
X355028Y426250D01*
X355564Y427544D01*
Y428944D01*
X355330Y429508D01*
X356147Y430778D01*
X365568D01*
Y438410D01*
X340557D01*
X340066Y439050D01*
Y440778D01*
X340189Y440938D01*
X365568D01*
Y448570D01*
X350550D01*
X350387Y448602D01*
X337817D01*
X336768Y449388D01*
Y450788D01*
X336727Y450886D01*
X336742Y452156D01*
X337365Y452414D01*
X338036Y452692D01*
X338266Y452922D01*
X339536Y452396D01*
Y451098D01*
X365568D01*
Y455396D01*
X367360D01*
X368004Y455524D01*
X368550Y455889D01*
X379142Y466481D01*
X379507Y467027D01*
X379635Y467671D01*
Y471450D01*
X380428Y472243D01*
X380964Y473537D01*
Y474937D01*
X380428Y476231D01*
X379438Y477221D01*
X378144Y477757D01*
X376744D01*
X375450Y477221D01*
X374460Y476231D01*
X373924Y474937D01*
Y473537D01*
X374460Y472243D01*
X375450Y471253D01*
X376269Y470914D01*
Y468368D01*
X375022Y467121D01*
X373524Y467419D01*
X373316Y467921D01*
X372326Y468911D01*
X371032Y469447D01*
X369632D01*
X368338Y468911D01*
X367348Y467921D01*
X367219Y467610D01*
X365568D01*
Y468890D01*
X340189D01*
X340066Y469050D01*
Y470778D01*
X339619Y472448D01*
X338755Y473944D01*
X337532Y475167D01*
X336036Y476031D01*
X334366Y476478D01*
X332638D01*
X330968Y476031D01*
X329472Y475167D01*
X328738Y474433D01*
X327468Y474959D01*
Y479050D01*
D02*
G37*
G36*
X591118Y470504D02*
X583086D01*
Y462072D01*
X583309D01*
Y454355D01*
X583289Y454254D01*
X583310Y454151D01*
Y453004D01*
X583485Y452120D01*
X583986Y451370D01*
X584736Y450869D01*
X585620Y450694D01*
X586504Y450869D01*
X587254Y451370D01*
X587755Y452120D01*
X587930Y453004D01*
Y454071D01*
X587971Y454274D01*
Y462072D01*
X591118D01*
Y463604D01*
X592639D01*
X592646Y463588D01*
X593636Y462598D01*
X594930Y462062D01*
X596330D01*
X597624Y462598D01*
X598614Y463588D01*
X599150Y464882D01*
Y466282D01*
X598614Y467576D01*
X597624Y468566D01*
X596330Y469102D01*
X594930D01*
X593636Y468566D01*
X593336Y468266D01*
X591118D01*
Y470504D01*
D02*
G37*
G36*
X562896Y427434D02*
X553364D01*
Y426008D01*
X550774D01*
X550380Y426402D01*
X549086Y426938D01*
X547686D01*
X546392Y426402D01*
X545402Y425412D01*
X544866Y424118D01*
Y422718D01*
X545402Y421424D01*
X546392Y420434D01*
X547686Y419898D01*
X549086D01*
X550380Y420434D01*
X550774Y420828D01*
X553364D01*
Y419402D01*
X562896D01*
Y427434D01*
D02*
G37*
G36*
X585620Y438814D02*
X584736Y438638D01*
X583986Y438138D01*
X583485Y437388D01*
X583310Y436504D01*
Y434004D01*
X583485Y433120D01*
X583937Y432445D01*
Y427434D01*
X583590D01*
Y425039D01*
X582386Y424880D01*
X581850Y426174D01*
X580860Y427164D01*
X580676Y427240D01*
Y432319D01*
X580754Y432370D01*
X581255Y433120D01*
X581430Y434004D01*
Y436504D01*
X581255Y437388D01*
X580754Y438138D01*
X580004Y438638D01*
X579120Y438814D01*
X578236Y438638D01*
X577486Y438138D01*
X576986Y437388D01*
X576810Y436504D01*
Y434004D01*
X576986Y433120D01*
X577310Y432635D01*
Y427345D01*
X576872Y427164D01*
X575882Y426174D01*
X575666Y425653D01*
X574396Y425905D01*
Y427434D01*
X571913D01*
Y430917D01*
X572708Y431711D01*
X573504Y431870D01*
X574254Y432370D01*
X574754Y433120D01*
X574930Y434004D01*
Y436504D01*
X574754Y437388D01*
X574254Y438138D01*
X573504Y438638D01*
X572620Y438814D01*
X571736Y438638D01*
X570986Y438138D01*
X570485Y437388D01*
X570310Y436504D01*
Y434074D01*
X569040Y432804D01*
X568675Y432258D01*
X568547Y431614D01*
Y427434D01*
X564864D01*
Y419402D01*
X568547D01*
Y412177D01*
X553569Y397199D01*
X553204Y396653D01*
X553076Y396009D01*
Y394360D01*
X545214D01*
Y385928D01*
X546899D01*
Y381014D01*
X547077Y380122D01*
X547582Y379366D01*
X550084Y376864D01*
Y371104D01*
X550084Y369950D01*
X548930Y369950D01*
X539534D01*
Y366424D01*
X534993D01*
X533806Y367611D01*
Y371980D01*
X525374D01*
Y367611D01*
X521337Y363574D01*
X520776Y362734D01*
X520765Y362679D01*
X519907Y361821D01*
X519371Y360527D01*
Y359127D01*
X519907Y357833D01*
X520897Y356843D01*
X522191Y356307D01*
X523591D01*
X524885Y356843D01*
X525875Y357833D01*
X526411Y359127D01*
Y360527D01*
X526178Y361089D01*
X529036Y363948D01*
X530144D01*
X532089Y362003D01*
X532929Y361441D01*
X533920Y361244D01*
X544850D01*
X545841Y361441D01*
X546255Y361718D01*
X550166D01*
Y368714D01*
X550166Y369868D01*
X551320Y369868D01*
X597080D01*
X598234Y369868D01*
X598234Y368714D01*
Y357718D01*
Y345718D01*
Y333718D01*
X602637D01*
X602666Y333699D01*
X603550Y333523D01*
X608401D01*
X608754Y332994D01*
Y329950D01*
X598234D01*
Y322954D01*
X598234Y321800D01*
X597080Y321800D01*
X551320D01*
X550166Y321800D01*
X550166Y322954D01*
Y337718D01*
Y346767D01*
X550248Y346964D01*
Y356870D01*
X550166Y357067D01*
Y357950D01*
X549196D01*
X549148Y357970D01*
X538988D01*
X538210Y357648D01*
X532436Y351874D01*
X505714D01*
X505338Y351718D01*
X502492D01*
Y340686D01*
X505611D01*
X511980Y334316D01*
Y328676D01*
X512194Y328160D01*
Y327508D01*
X520226D01*
Y327576D01*
X522224D01*
X523002Y327898D01*
X526621Y331518D01*
X533806D01*
Y332292D01*
X533992Y332740D01*
Y338634D01*
X538361Y343003D01*
X539534Y342517D01*
Y337718D01*
Y328609D01*
X539460Y328559D01*
X535512Y324611D01*
X535147Y324065D01*
X535019Y323421D01*
Y317181D01*
X531020Y313183D01*
X528794Y315409D01*
X517457Y304072D01*
X524197Y297332D01*
X535534Y308669D01*
X533400Y310802D01*
X536190Y313591D01*
X537363Y313105D01*
Y303472D01*
X527710Y293819D01*
X534450Y287079D01*
X545787Y298416D01*
X540730Y303472D01*
Y320533D01*
X541915Y321718D01*
X543397D01*
X543560Y321686D01*
X543722Y321718D01*
X548930D01*
X550084Y321718D01*
X550084Y320564D01*
Y311168D01*
X555332D01*
X556180Y309898D01*
X556042Y309564D01*
Y308164D01*
X556578Y306870D01*
X557568Y305880D01*
X558862Y305344D01*
X560262D01*
X561556Y305880D01*
X562480Y306804D01*
X563338Y305947D01*
X564631Y305411D01*
X566032D01*
X567326Y305947D01*
X568316Y306937D01*
X568852Y308231D01*
Y309631D01*
X568741Y309898D01*
X569590Y311168D01*
X574279D01*
X574933Y309898D01*
X574584Y309056D01*
Y307656D01*
X575120Y306362D01*
X576110Y305372D01*
X577404Y304836D01*
X578804D01*
X579943Y303933D01*
X580200Y303314D01*
X581190Y302324D01*
X582484Y301788D01*
X583884D01*
X585178Y302324D01*
X585654Y302800D01*
X586924Y302274D01*
Y294870D01*
X586924Y294870D01*
Y293902D01*
X586924D01*
X586924Y293600D01*
Y283870D01*
X597956D01*
Y292029D01*
X599781Y293855D01*
X599962Y294126D01*
X600924Y294870D01*
X611956D01*
Y304902D01*
X604130D01*
X604130Y304903D01*
X603765Y305449D01*
X602204Y307011D01*
X602067Y307215D01*
X599761Y309521D01*
X599557Y309658D01*
X599000Y310214D01*
X598316Y311168D01*
X598316D01*
X598316Y311168D01*
Y320564D01*
X598316Y321718D01*
X599470Y321718D01*
X605532D01*
Y317749D01*
X605660Y317105D01*
X606025Y316559D01*
X607374Y315210D01*
X607350Y315152D01*
Y313752D01*
X607886Y312458D01*
X608876Y311468D01*
X610170Y310932D01*
X611570D01*
X611628Y310956D01*
X615744Y306839D01*
Y299688D01*
X623776D01*
Y309220D01*
X618125D01*
X614395Y312950D01*
X614448Y313151D01*
X614902Y314262D01*
X615685Y314418D01*
X615685Y314418D01*
X620313D01*
X621939Y312793D01*
X622779Y312231D01*
X623770Y312034D01*
X628244D01*
Y310608D01*
X629870D01*
Y308712D01*
X629476Y308318D01*
X628940Y307024D01*
Y305624D01*
X629476Y304330D01*
X630466Y303340D01*
X631760Y302804D01*
X633160D01*
X634454Y303340D01*
X635444Y304330D01*
X635980Y305624D01*
Y307024D01*
X635444Y308318D01*
X635050Y308712D01*
Y310608D01*
X636676D01*
Y318640D01*
X628244D01*
Y317214D01*
X624843D01*
X623976Y318081D01*
Y322450D01*
X617976D01*
X617776Y322490D01*
X617776Y322490D01*
X617603D01*
X614830Y325263D01*
X614950Y325866D01*
X615272Y326644D01*
Y332994D01*
X615625Y333523D01*
X628744D01*
Y331768D01*
X636176D01*
Y333523D01*
X641154D01*
Y331818D01*
X647986D01*
Y339250D01*
X641154D01*
Y338145D01*
X636176D01*
Y339300D01*
X629399D01*
X628744Y339300D01*
X628226Y340355D01*
Y345440D01*
X627904Y346218D01*
X628671Y347109D01*
X631540Y349978D01*
X636676D01*
Y351922D01*
X638822D01*
X638822Y351922D01*
X639615Y352080D01*
X640246Y352501D01*
X640650Y352334D01*
X642050D01*
X643344Y352870D01*
X644334Y353860D01*
X644870Y355154D01*
Y356554D01*
X644334Y357848D01*
X643344Y358838D01*
X642050Y359374D01*
X640650D01*
X639356Y358838D01*
X638366Y357848D01*
X637946Y356834D01*
X636676Y357087D01*
Y358010D01*
X628244D01*
Y353274D01*
X625405Y350435D01*
X621490D01*
X621265Y350390D01*
X616071D01*
X615507Y350448D01*
X614898Y351392D01*
Y351910D01*
X614362Y353204D01*
X614494Y354853D01*
X614621Y354980D01*
X615157Y356274D01*
Y357674D01*
X615523Y358223D01*
X615585D01*
X616879Y358759D01*
X617869Y359749D01*
X618405Y361043D01*
Y362443D01*
X617869Y363737D01*
X616879Y364727D01*
X615585Y365263D01*
X615354D01*
X615041Y365731D01*
Y367131D01*
X614506Y368425D01*
X613515Y369415D01*
X612222Y369951D01*
X610821D01*
X610136Y369667D01*
X608866Y369950D01*
Y369950D01*
X608866Y369950D01*
X599470D01*
X598316Y369950D01*
X598316Y371104D01*
Y380500D01*
X592206D01*
X591537Y381770D01*
X591875Y382586D01*
Y383986D01*
X591339Y385280D01*
X590349Y386270D01*
X589055Y386806D01*
X587655D01*
X587336Y387979D01*
Y388202D01*
X586801Y389496D01*
X585810Y390486D01*
X584517Y391022D01*
X583116D01*
X581823Y390486D01*
X580832Y389496D01*
X580297Y388202D01*
Y387403D01*
X579677Y387201D01*
X578576Y387796D01*
X578040Y389090D01*
X577050Y390080D01*
X575756Y390616D01*
X574356D01*
X573062Y390080D01*
X572324Y389342D01*
X572072Y389090D01*
X570974Y389652D01*
X571159Y390097D01*
Y391497D01*
X570623Y392791D01*
X569633Y393781D01*
X568339Y394317D01*
X566939D01*
X565645Y393781D01*
X565478Y393615D01*
X564233Y393862D01*
X564184Y393979D01*
X563194Y394969D01*
X562322Y395331D01*
X561873Y396679D01*
X584597Y419402D01*
X593122D01*
Y427434D01*
X587303D01*
Y432445D01*
X587755Y433120D01*
X587930Y434004D01*
Y436504D01*
X587755Y437388D01*
X587254Y438138D01*
X586504Y438638D01*
X585620Y438814D01*
D02*
G37*
G36*
X428323Y430032D02*
X427222D01*
X426206Y429611D01*
X425428Y428833D01*
X425006Y427816D01*
Y426716D01*
X425428Y425699D01*
X426206Y424921D01*
X427222Y424500D01*
X428323D01*
X429339Y424921D01*
X430117Y425699D01*
X430538Y426716D01*
Y427816D01*
X430117Y428833D01*
X429339Y429611D01*
X428323Y430032D01*
D02*
G37*
G36*
X604622Y427434D02*
X595090D01*
Y419402D01*
X604622D01*
Y420955D01*
X607593D01*
X607860Y420688D01*
X609154Y420152D01*
X610554D01*
X611848Y420688D01*
X612838Y421678D01*
X613374Y422972D01*
Y424372D01*
X612838Y425666D01*
X611848Y426656D01*
X610554Y427192D01*
X609154D01*
X607860Y426656D01*
X607339Y426135D01*
X604622D01*
Y427434D01*
D02*
G37*
G36*
X423323Y425032D02*
X422222D01*
X421206Y424611D01*
X420428Y423833D01*
X420006Y422816D01*
Y421716D01*
X420428Y420699D01*
X421206Y419921D01*
X422222Y419500D01*
X423323D01*
X424339Y419921D01*
X425117Y420699D01*
X425538Y421716D01*
Y422816D01*
X425117Y423833D01*
X424339Y424611D01*
X423323Y425032D01*
D02*
G37*
G36*
X398192Y421930D02*
X386160D01*
Y410898D01*
X398192D01*
Y412369D01*
X401930D01*
Y410684D01*
X403688D01*
Y408412D01*
X402908Y407632D01*
X402372Y406338D01*
Y404938D01*
X402908Y403644D01*
X403898Y402654D01*
X405192Y402118D01*
X406592D01*
X407886Y402654D01*
X408876Y403644D01*
X409412Y404938D01*
Y406338D01*
X408876Y407632D01*
X408350Y408158D01*
Y409582D01*
X408780Y409935D01*
X421192D01*
X421206Y409921D01*
X422222Y409500D01*
X423323D01*
X424339Y409921D01*
X425117Y410699D01*
X425538Y411716D01*
Y412468D01*
X427570Y414500D01*
X428323D01*
X429339Y414921D01*
X430117Y415699D01*
X430538Y416716D01*
Y417816D01*
X430117Y418833D01*
X429339Y419611D01*
X428323Y420032D01*
X427222D01*
X426206Y419611D01*
X425428Y418833D01*
X425006Y417816D01*
Y417064D01*
X422975Y415032D01*
X422222D01*
X421206Y414611D01*
X421192Y414597D01*
X410362D01*
Y418716D01*
X401930D01*
Y417031D01*
X398192D01*
Y421930D01*
D02*
G37*
G36*
X463323Y420032D02*
X462222D01*
X461206Y419611D01*
X460428Y418833D01*
X460006Y417816D01*
Y416716D01*
X460428Y415699D01*
X461206Y414921D01*
X462222Y414500D01*
X462975D01*
X465006Y412468D01*
Y411716D01*
X465428Y410699D01*
X466206Y409921D01*
X467222Y409500D01*
X468323D01*
X469339Y409921D01*
X470055Y410637D01*
X476198D01*
X476708Y410296D01*
X477600Y410119D01*
X478384D01*
Y409414D01*
X480108D01*
X480128Y408144D01*
X479362Y407378D01*
X478826Y406084D01*
Y404684D01*
X479362Y403390D01*
X480352Y402400D01*
X481646Y401864D01*
X483046D01*
X484340Y402400D01*
X485330Y403390D01*
X485866Y404684D01*
Y406084D01*
X485330Y407378D01*
X484804Y407904D01*
Y409414D01*
X486816D01*
Y410119D01*
X490576D01*
Y409070D01*
X499008D01*
Y417102D01*
X490576D01*
Y414781D01*
X486816D01*
Y417446D01*
X478384D01*
Y414781D01*
X477600D01*
X476708Y414603D01*
X476198Y414263D01*
X469688D01*
X469339Y414611D01*
X468323Y415032D01*
X467570D01*
X465538Y417064D01*
Y417816D01*
X465117Y418833D01*
X464339Y419611D01*
X463323Y420032D01*
D02*
G37*
G36*
X474664Y405856D02*
X473264D01*
X471970Y405320D01*
X470980Y404330D01*
X469663Y404287D01*
X469339Y404611D01*
X468323Y405032D01*
X467222D01*
X466206Y404611D01*
X465428Y403833D01*
X465006Y402816D01*
Y401716D01*
X465428Y400699D01*
X466206Y399921D01*
X467222Y399500D01*
X468323D01*
X469339Y399921D01*
X469692Y400274D01*
X470980Y400342D01*
X471970Y399352D01*
X473264Y398816D01*
X474664D01*
X475958Y399352D01*
X476948Y400342D01*
X477484Y401636D01*
Y403036D01*
X476948Y404330D01*
X475958Y405320D01*
X474664Y405856D01*
D02*
G37*
G36*
X468323Y395032D02*
X467222D01*
X466206Y394611D01*
X465428Y393833D01*
X465006Y392816D01*
Y391716D01*
X465428Y390699D01*
X465531Y390596D01*
X465633Y390447D01*
X465589Y390262D01*
X464907Y389813D01*
X464212Y389664D01*
X463323Y390032D01*
X462222D01*
X461206Y389611D01*
X460428Y388833D01*
X460006Y387816D01*
Y386716D01*
X460254Y386118D01*
X459671Y384959D01*
X459524Y384815D01*
X459172Y384680D01*
X458323Y385032D01*
X457222D01*
X456206Y384611D01*
X455428Y383833D01*
X455006Y382816D01*
Y381716D01*
X455428Y380699D01*
X455450Y380677D01*
X455714Y379412D01*
X454724Y378422D01*
X454188Y377128D01*
Y375728D01*
X454724Y374434D01*
X455714Y373444D01*
X457008Y372908D01*
X458408D01*
X459220Y373245D01*
X460490Y372573D01*
Y371246D01*
X458854D01*
Y362814D01*
X460539D01*
Y359076D01*
X455640D01*
Y347044D01*
X466672D01*
Y359076D01*
X465201D01*
Y362814D01*
X466886D01*
Y362814D01*
X468086Y362685D01*
X469380Y362149D01*
X470780D01*
X472074Y362685D01*
X473064Y363675D01*
X473600Y364969D01*
Y366369D01*
X473064Y367663D01*
X472074Y368653D01*
X470780Y369189D01*
X469380D01*
X468086Y368653D01*
X466886Y369216D01*
Y371246D01*
X465152D01*
Y380783D01*
X465538Y381716D01*
Y382816D01*
X465291Y383414D01*
X465874Y384572D01*
X466021Y384717D01*
X466373Y384852D01*
X467222Y384500D01*
X468158D01*
X475403Y377255D01*
X475949Y376890D01*
X476594Y376762D01*
X478354D01*
Y370064D01*
X484137D01*
Y364134D01*
X480706D01*
Y355702D01*
X488738D01*
Y364134D01*
X487503D01*
Y370064D01*
X489386D01*
Y380096D01*
X480238D01*
X480075Y380128D01*
X477291D01*
X470538Y386881D01*
Y387816D01*
X470117Y388833D01*
X470014Y388936D01*
X469636Y389488D01*
X470300Y390583D01*
X490487D01*
X492354Y388715D01*
Y381064D01*
X503386D01*
Y384397D01*
X508356D01*
Y382146D01*
X516788D01*
Y390178D01*
X508356D01*
Y387763D01*
X503386D01*
Y391096D01*
X494735D01*
X492374Y393456D01*
X491828Y393821D01*
X491184Y393949D01*
X470001D01*
X469339Y394611D01*
X468323Y395032D01*
D02*
G37*
G36*
X670983Y421092D02*
X667089D01*
X663269Y420332D01*
X659670Y418842D01*
X656432Y416678D01*
X653678Y413924D01*
X651514Y410686D01*
X650024Y407087D01*
X649264Y403267D01*
Y399373D01*
X650024Y395553D01*
X651514Y391954D01*
X653678Y388716D01*
X656432Y385962D01*
X659670Y383798D01*
X663269Y382308D01*
X667089Y381548D01*
X670983D01*
X674803Y382308D01*
X678401Y383798D01*
X681640Y385962D01*
X684394Y388716D01*
X686558Y391954D01*
X688048Y395553D01*
X688808Y399373D01*
Y403267D01*
X688048Y407087D01*
X686558Y410686D01*
X684394Y413924D01*
X681640Y416678D01*
X678401Y418842D01*
X674803Y420332D01*
X670983Y421092D01*
D02*
G37*
G36*
X402441Y392561D02*
X401041D01*
X399747Y392025D01*
X398757Y391035D01*
X398221Y389741D01*
Y388341D01*
X398757Y387047D01*
X399747Y386057D01*
X401041Y385521D01*
X402441D01*
X403308Y384941D01*
Y382100D01*
X412540D01*
Y385194D01*
X418806D01*
X419332Y383924D01*
X418944Y383536D01*
X418408Y382242D01*
Y380842D01*
X418944Y379548D01*
X419934Y378558D01*
X421228Y378022D01*
X422628D01*
X422752Y378073D01*
X423754Y377174D01*
Y375774D01*
X424290Y374480D01*
X425280Y373490D01*
X426574Y372954D01*
X427974D01*
X429268Y373490D01*
X430139Y374361D01*
X431050Y373450D01*
X432344Y372914D01*
X433744D01*
X435038Y373450D01*
X436028Y374440D01*
X436564Y375734D01*
Y377134D01*
X436028Y378428D01*
X435038Y379418D01*
X435116Y380673D01*
X435139Y380751D01*
X435538Y381716D01*
Y382816D01*
X435117Y383833D01*
X434339Y384611D01*
X433323Y385032D01*
X432222D01*
X431206Y384611D01*
X431102Y384507D01*
X430953Y384406D01*
X430768Y384450D01*
X430320Y385131D01*
X430170Y385827D01*
X430538Y386716D01*
Y387816D01*
X430117Y388833D01*
X429339Y389611D01*
X428323Y390032D01*
X427222D01*
X426206Y389611D01*
X426102Y389507D01*
X425272Y388939D01*
X424443Y389507D01*
X424339Y389611D01*
X423323Y390032D01*
X422222D01*
X421206Y389611D01*
X420933Y389338D01*
X412540D01*
Y391732D01*
X404028D01*
X403735Y392025D01*
X402441Y392561D01*
D02*
G37*
G36*
X448323Y385032D02*
X447222D01*
X446206Y384611D01*
X445428Y383833D01*
X445006Y382816D01*
Y381716D01*
X445428Y380699D01*
X445673Y380454D01*
X445808Y379158D01*
X444818Y378168D01*
X444282Y376874D01*
Y375474D01*
X444818Y374180D01*
X445808Y373190D01*
X447102Y372654D01*
X448502D01*
X449796Y373190D01*
X450786Y374180D01*
X451322Y375474D01*
Y376874D01*
X450786Y378168D01*
X449796Y379158D01*
X449884Y380466D01*
X450117Y380699D01*
X450538Y381716D01*
Y382816D01*
X450117Y383833D01*
X449339Y384611D01*
X448323Y385032D01*
D02*
G37*
G36*
X753110Y390609D02*
X724154D01*
X723376Y390287D01*
X723054Y389509D01*
Y384556D01*
Y370078D01*
Y365379D01*
X723376Y364601D01*
X724154Y364279D01*
X753110D01*
X753888Y364601D01*
X754210Y365379D01*
Y370332D01*
Y389509D01*
X753888Y390287D01*
X753110Y390609D01*
D02*
G37*
G36*
X681006Y339250D02*
X674174D01*
Y337755D01*
X669196D01*
Y339210D01*
X661764D01*
Y337845D01*
X656786D01*
Y339250D01*
X649954D01*
Y331818D01*
X656786D01*
Y333223D01*
X661764D01*
Y331678D01*
X669196D01*
Y333133D01*
X674174D01*
Y331818D01*
X681006D01*
Y339250D01*
D02*
G37*
G36*
X371263Y374102D02*
X367369D01*
X363549Y373342D01*
X359950Y371852D01*
X356712Y369688D01*
X353958Y366934D01*
X351794Y363695D01*
X350304Y360097D01*
X349544Y356277D01*
Y352383D01*
X350304Y348563D01*
X351794Y344964D01*
X353958Y341726D01*
X356712Y338972D01*
X359950Y336808D01*
X363549Y335318D01*
X367369Y334558D01*
X371263D01*
X375083Y335318D01*
X378681Y336808D01*
X381920Y338972D01*
X384674Y341726D01*
X386838Y344964D01*
X388328Y348563D01*
X389088Y352383D01*
Y356277D01*
X388328Y360097D01*
X386838Y363695D01*
X384674Y366934D01*
X381920Y369688D01*
X378681Y371852D01*
X375083Y373342D01*
X371263Y374102D01*
D02*
G37*
G36*
X578912Y342935D02*
X578218Y342797D01*
X577630Y342404D01*
X577237Y341816D01*
X577099Y341122D01*
Y337255D01*
X570726Y330882D01*
X570333Y330294D01*
X570195Y329600D01*
Y329438D01*
X570333Y328744D01*
X570726Y328156D01*
X571314Y327763D01*
X572008Y327625D01*
X572702Y327763D01*
X573290Y328156D01*
X573616Y328644D01*
X580194Y335222D01*
X580297Y335377D01*
X581575Y335665D01*
X581845Y335625D01*
X583334Y334137D01*
X583426Y333998D01*
X583565Y333905D01*
X586918Y330552D01*
X587506Y330159D01*
X588200Y330021D01*
X588894Y330159D01*
X589482Y330552D01*
X589875Y331140D01*
X590013Y331834D01*
X589875Y332528D01*
X589482Y333116D01*
X586036Y336562D01*
X586008Y336580D01*
X585990Y336608D01*
X580194Y342404D01*
X579606Y342797D01*
X578912Y342935D01*
D02*
G37*
G36*
X297688Y323426D02*
X279618Y323426D01*
X279332Y323307D01*
X279027Y323254D01*
X272968Y319398D01*
X272896Y319295D01*
X272780Y319247D01*
X272662Y318962D01*
X272484Y318708D01*
X272506Y318585D01*
X272458Y318470D01*
Y309118D01*
X272780Y308340D01*
X280908Y300212D01*
X281686Y299890D01*
X313931Y299890D01*
X314133Y299974D01*
X314352D01*
X314507Y300129D01*
X314709Y300212D01*
X314725Y300252D01*
X314745Y300275D01*
X315624Y300723D01*
X316074Y300825D01*
X316718Y300697D01*
X321724D01*
X321818Y300470D01*
X322978Y299989D01*
X327978D01*
X329138Y300470D01*
X329619Y301630D01*
Y303130D01*
X329138Y304290D01*
X327978Y304771D01*
X322978D01*
X321818Y304290D01*
X320632Y304746D01*
Y309932D01*
X320750Y310050D01*
X322830D01*
X322978Y309989D01*
X327978D01*
X328126Y310050D01*
X328168D01*
X328946Y310372D01*
X328975Y310402D01*
X329138Y310470D01*
X329619Y311630D01*
Y313130D01*
X329522Y313365D01*
Y313690D01*
X329200Y314468D01*
X328422Y314790D01*
X306779D01*
X305868Y315702D01*
X305539Y315837D01*
X305404Y316166D01*
X298466Y323104D01*
X297688Y323426D01*
D02*
G37*
G36*
X344244Y337232D02*
X333212D01*
Y335649D01*
X333164Y335534D01*
Y316230D01*
X333486Y315452D01*
X333728Y315352D01*
X334260Y314744D01*
X334253Y313865D01*
X334180Y313690D01*
Y311150D01*
X334502Y310372D01*
X335280Y310050D01*
X335830D01*
X335978Y309989D01*
X340978D01*
X341126Y310050D01*
X341936D01*
X344340Y307647D01*
Y304292D01*
X344662Y303514D01*
X346948Y301228D01*
X347726Y300906D01*
X364236D01*
X365014Y301228D01*
X365086Y301404D01*
X365124D01*
Y301495D01*
X365336Y302006D01*
Y309118D01*
X365124Y309629D01*
Y309936D01*
X364973D01*
X363490Y311420D01*
X362712Y311742D01*
X349451D01*
X347559Y313634D01*
X348085Y314904D01*
X365124D01*
Y315719D01*
X365336Y316230D01*
Y324612D01*
X365014Y325390D01*
X354092Y336312D01*
X353314Y336634D01*
X344244D01*
Y337232D01*
D02*
G37*
G36*
X404489Y313944D02*
X402215D01*
X400019Y313356D01*
X398049Y312218D01*
X396441Y310611D01*
X395304Y308641D01*
X394716Y306445D01*
Y304171D01*
X395304Y301975D01*
X396441Y300005D01*
X398049Y298398D01*
X400019Y297260D01*
X402215Y296672D01*
X404489D01*
X406685Y297260D01*
X408655Y298398D01*
X410262Y300005D01*
X411399Y301975D01*
X411988Y304171D01*
Y306445D01*
X411399Y308641D01*
X410262Y310611D01*
X408655Y312218D01*
X406685Y313356D01*
X404489Y313944D01*
D02*
G37*
G36*
X623776Y297720D02*
X615744D01*
Y288188D01*
X623776D01*
Y290364D01*
X625664D01*
X625666Y290360D01*
X626656Y289370D01*
X627950Y288834D01*
X629350D01*
X630644Y289370D01*
X631634Y290360D01*
X632170Y291654D01*
Y293054D01*
X631634Y294348D01*
X630644Y295338D01*
X629350Y295874D01*
X627950D01*
X627153Y295544D01*
X623776D01*
Y297720D01*
D02*
G37*
G36*
X433516Y287746D02*
X432116D01*
X430822Y287210D01*
X429832Y286220D01*
X429296Y284926D01*
Y283526D01*
X429832Y282232D01*
X430822Y281242D01*
X431166Y281099D01*
Y278994D01*
X429054D01*
Y269462D01*
X437086D01*
Y278994D01*
X434466D01*
Y281099D01*
X434810Y281242D01*
X435800Y282232D01*
X436336Y283526D01*
Y284926D01*
X435800Y286220D01*
X434810Y287210D01*
X433516Y287746D01*
D02*
G37*
G36*
X383986Y288000D02*
X382586D01*
X381292Y287464D01*
X380302Y286474D01*
X379766Y285180D01*
Y283780D01*
X380302Y282486D01*
X381292Y281496D01*
X381603Y281367D01*
Y278994D01*
X379524D01*
Y269462D01*
X387556D01*
Y278994D01*
X384969D01*
Y281367D01*
X385280Y281496D01*
X386270Y282486D01*
X386806Y283780D01*
Y285180D01*
X386270Y286474D01*
X385280Y287464D01*
X383986Y288000D01*
D02*
G37*
G36*
X480506Y286984D02*
X479106D01*
X477812Y286448D01*
X476822Y285458D01*
X476286Y284164D01*
Y282764D01*
X476822Y281470D01*
X477812Y280480D01*
X478156Y280337D01*
Y278740D01*
X476044D01*
Y269208D01*
X484076D01*
Y278740D01*
X481456D01*
Y280337D01*
X481800Y280480D01*
X482790Y281470D01*
X483326Y282764D01*
Y284164D01*
X482790Y285458D01*
X481800Y286448D01*
X480506Y286984D01*
D02*
G37*
G36*
X484076Y267240D02*
X476044D01*
Y262633D01*
X470106D01*
Y267240D01*
X462074D01*
Y257708D01*
X470106D01*
Y259267D01*
X476044D01*
Y257708D01*
X484076D01*
Y267240D01*
D02*
G37*
G36*
X437086Y267494D02*
X429054D01*
Y262633D01*
X423116D01*
Y267494D01*
X415084D01*
Y257962D01*
X423116D01*
Y259267D01*
X429054D01*
Y257962D01*
X437086D01*
Y267494D01*
D02*
G37*
G36*
X387556D02*
X379524D01*
Y262633D01*
X373586D01*
Y267494D01*
X365554D01*
Y257962D01*
X373586D01*
Y259267D01*
X379524D01*
Y257962D01*
X387556D01*
Y267494D01*
D02*
G37*
G36*
X752602Y283040D02*
X723646D01*
X722868Y282718D01*
X722546Y281940D01*
Y259334D01*
X722868Y258556D01*
X723355Y258355D01*
X723376Y258302D01*
X724154Y257980D01*
X753110D01*
X753888Y258302D01*
X754210Y259080D01*
Y281686D01*
X753888Y282464D01*
X753401Y282665D01*
X753380Y282718D01*
X752602Y283040D01*
D02*
G37*
%LPD*%
G36*
X549148Y347218D02*
Y346964D01*
X540766D01*
X539752Y345950D01*
X539534D01*
Y345732D01*
X532892Y339090D01*
Y332740D01*
X526288D01*
X522224Y328676D01*
X513080D01*
Y334772D01*
X505206Y342646D01*
Y350266D01*
X505714Y350774D01*
X532892D01*
X538988Y356870D01*
X549148D01*
Y347218D01*
D02*
G37*
G36*
X304626Y315388D02*
Y314924D01*
X305090D01*
X306324Y313690D01*
X328422D01*
Y311404D01*
X328168Y311150D01*
X320294D01*
X319532Y310388D01*
Y304292D01*
X319303Y304063D01*
X317415D01*
X313356Y308122D01*
X312810Y308487D01*
X312166Y308615D01*
X311909Y308564D01*
X311794Y308641D01*
X311150Y308769D01*
X310506Y308641D01*
X309960Y308276D01*
X309595Y307730D01*
X309467Y307086D01*
Y306932D01*
X309595Y306288D01*
X309960Y305742D01*
X310506Y305377D01*
X311150Y305249D01*
X311416Y305301D01*
X314457Y302260D01*
X313931Y300990D01*
X281686Y300990D01*
X273558Y309118D01*
Y318470D01*
X279618Y322326D01*
X297688Y322326D01*
X304626Y315388D01*
D02*
G37*
G36*
X364236Y324612D02*
Y316230D01*
X334264D01*
Y335534D01*
X353314D01*
X364236Y324612D01*
D02*
G37*
G36*
X348996Y310642D02*
X362712D01*
X364236Y309118D01*
Y302006D01*
X347726D01*
X345440Y304292D01*
Y308102D01*
X342392Y311150D01*
X335280D01*
Y313690D01*
X345948D01*
X348996Y310642D01*
D02*
G37*
D13*
X462870Y353142D02*
Y367030D01*
X469705Y366044D02*
X470080Y365669D01*
X462870Y367030D02*
X463856Y366044D01*
X469705D01*
X462821Y367079D02*
Y382217D01*
X462772Y382266D02*
X462821Y382217D01*
X621490Y348104D02*
X626370D01*
X632460Y354194D02*
Y355092D01*
X626370Y348104D02*
X632260Y353994D01*
X632460Y354194D01*
X549230Y389836D02*
X549284Y389890D01*
X549230Y381014D02*
Y389836D01*
Y381014D02*
X552030Y378214D01*
X619760Y346374D02*
X621490Y348104D01*
X482473Y412450D02*
X495680D01*
X391160Y416306D02*
X392766Y414700D01*
X406400Y414646D02*
Y415036D01*
X477600Y412450D02*
X482473D01*
Y413303D01*
Y405511D02*
Y412450D01*
Y413303D02*
X482600Y413430D01*
X482346Y405384D02*
X482473Y405511D01*
X406019Y405765D02*
Y414573D01*
X406146Y414700D01*
X405892Y405638D02*
X406019Y405765D01*
X392766Y414700D02*
X406146D01*
X406400Y414646D02*
X408780Y412266D01*
X422772D01*
X587102Y466288D02*
X587455Y465935D01*
X595277D01*
X595630Y465582D01*
X585620Y454254D02*
X585640Y454274D01*
Y465244D01*
X586740Y466344D01*
X462534Y352806D02*
X462870Y353142D01*
X495680Y412450D02*
X496570Y413340D01*
X462821Y367079D02*
X462870Y367030D01*
X462772Y382266D02*
Y387266D01*
D15*
X775316Y377530D02*
D03*
Y355530D02*
D03*
X738016Y377530D02*
D03*
Y270530D02*
D03*
D17*
X544850Y323834D02*
D03*
Y327834D02*
D03*
Y331834D02*
D03*
Y335834D02*
D03*
Y339834D02*
D03*
Y343834D02*
D03*
Y347834D02*
D03*
Y351834D02*
D03*
Y355834D02*
D03*
Y359834D02*
D03*
Y363834D02*
D03*
Y367834D02*
D03*
X603550D02*
D03*
Y363834D02*
D03*
Y359834D02*
D03*
Y355834D02*
D03*
Y351834D02*
D03*
Y347834D02*
D03*
Y343834D02*
D03*
Y339834D02*
D03*
Y335834D02*
D03*
Y331834D02*
D03*
Y327834D02*
D03*
Y323834D02*
D03*
D18*
X552200Y375184D02*
D03*
X556200D02*
D03*
X560200D02*
D03*
X564200D02*
D03*
X568200D02*
D03*
X572200D02*
D03*
X576200D02*
D03*
X580200D02*
D03*
X584200D02*
D03*
X588200D02*
D03*
X592200D02*
D03*
X596200D02*
D03*
Y316484D02*
D03*
X592200D02*
D03*
X588200D02*
D03*
X584200D02*
D03*
X580200D02*
D03*
X576200D02*
D03*
X572200D02*
D03*
X568200D02*
D03*
X564200D02*
D03*
X560200D02*
D03*
X556200D02*
D03*
X552200D02*
D03*
D19*
X587102Y466288D02*
D03*
X578302D02*
D03*
X484722Y359918D02*
D03*
X493522D02*
D03*
X462870Y367030D02*
D03*
X454070D02*
D03*
X549230Y390144D02*
D03*
X540430D02*
D03*
X516210Y331724D02*
D03*
X507410D02*
D03*
D20*
X461156Y353060D02*
D03*
X447656D02*
D03*
X325228Y331216D02*
D03*
X338728D02*
D03*
D21*
X512572Y386162D02*
D03*
Y377362D02*
D03*
X494792Y413086D02*
D03*
Y404286D02*
D03*
X482600Y413430D02*
D03*
Y422230D02*
D03*
X632460Y362794D02*
D03*
Y353994D02*
D03*
Y314624D02*
D03*
Y323424D02*
D03*
X619760Y355174D02*
D03*
Y346374D02*
D03*
Y318434D02*
D03*
Y327234D02*
D03*
X529590Y326734D02*
D03*
Y335534D02*
D03*
Y367964D02*
D03*
Y376764D02*
D03*
Y347644D02*
D03*
Y356444D02*
D03*
X406146Y414700D02*
D03*
Y423500D02*
D03*
D22*
X483870Y386080D02*
D03*
X497870D02*
D03*
Y375080D02*
D03*
X483870D02*
D03*
X592440Y288886D02*
D03*
X606440D02*
D03*
Y299886D02*
D03*
X592440D02*
D03*
D23*
X569630Y423418D02*
D03*
X558130D02*
D03*
X588356D02*
D03*
X599856D02*
D03*
D24*
X585620Y435254D02*
D03*
X579120D02*
D03*
X572620D02*
D03*
Y454254D02*
D03*
X579120D02*
D03*
X585620D02*
D03*
D25*
X467772Y387266D02*
D03*
Y392266D02*
D03*
Y397266D02*
D03*
Y402266D02*
D03*
Y407266D02*
D03*
Y412266D02*
D03*
Y417266D02*
D03*
Y422266D02*
D03*
X462772Y382266D02*
D03*
Y387266D02*
D03*
Y392266D02*
D03*
Y402266D02*
D03*
Y407266D02*
D03*
Y412266D02*
D03*
Y417266D02*
D03*
Y422266D02*
D03*
Y427266D02*
D03*
X457772Y382266D02*
D03*
Y387266D02*
D03*
Y427266D02*
D03*
X452772Y382266D02*
D03*
Y427266D02*
D03*
X447772Y382266D02*
D03*
Y387266D02*
D03*
Y427266D02*
D03*
X442772Y382266D02*
D03*
Y387266D02*
D03*
Y427266D02*
D03*
X437772Y382266D02*
D03*
Y427266D02*
D03*
X432772Y382266D02*
D03*
Y387266D02*
D03*
Y427266D02*
D03*
X427772Y382266D02*
D03*
Y387266D02*
D03*
Y392266D02*
D03*
Y402266D02*
D03*
Y407266D02*
D03*
Y412266D02*
D03*
Y417266D02*
D03*
Y422266D02*
D03*
Y427266D02*
D03*
X422772Y387266D02*
D03*
Y392266D02*
D03*
Y397266D02*
D03*
Y402266D02*
D03*
Y407266D02*
D03*
Y412266D02*
D03*
Y417266D02*
D03*
Y422266D02*
D03*
D26*
X480060Y273974D02*
D03*
Y262474D02*
D03*
X619760Y292954D02*
D03*
Y304454D02*
D03*
X466090Y262474D02*
D03*
Y273974D02*
D03*
X433070Y262728D02*
D03*
Y274228D02*
D03*
X383540Y262728D02*
D03*
Y274228D02*
D03*
X419100Y262728D02*
D03*
Y274228D02*
D03*
X369570Y262728D02*
D03*
Y274228D02*
D03*
D27*
X686390Y335534D02*
D03*
X677590D02*
D03*
X653370D02*
D03*
X644570D02*
D03*
D28*
X508508Y359702D02*
D03*
Y346202D02*
D03*
X392176Y416414D02*
D03*
Y429914D02*
D03*
X310642Y320440D02*
D03*
Y306940D02*
D03*
D29*
X698320Y335534D02*
D03*
X706120D02*
D03*
D30*
X665480Y343244D02*
D03*
Y335444D02*
D03*
X632460Y343334D02*
D03*
Y335534D02*
D03*
X723392Y327824D02*
D03*
Y335624D02*
D03*
D31*
X749237Y355663D02*
D03*
X755459Y349441D02*
D03*
D32*
X749264Y343372D02*
D03*
X743748Y337856D02*
D03*
D33*
X536749Y296117D02*
D03*
X526496Y306371D02*
D03*
D34*
X407924Y377116D02*
D03*
Y386916D02*
D03*
D35*
X338478Y317380D02*
D03*
Y312380D02*
D03*
Y307380D02*
D03*
Y302380D02*
D03*
X325478D02*
D03*
Y307380D02*
D03*
Y312380D02*
D03*
Y317380D02*
D03*
D36*
X356108Y305670D02*
D03*
Y319170D02*
D03*
D37*
X352552Y475234D02*
D03*
Y465074D02*
D03*
Y454914D02*
D03*
Y444754D02*
D03*
Y434594D02*
D03*
X314452Y475234D02*
D03*
Y465074D02*
D03*
Y454914D02*
D03*
Y444754D02*
D03*
Y434594D02*
D03*
D38*
X574200Y345834D02*
D03*
D43*
X579120Y444754D02*
D03*
D56*
X403352Y305308D02*
D03*
X423926D02*
D03*
X282956Y314325D02*
D03*
Y441325D02*
D03*
D58*
X575120Y444754D02*
D03*
X583120D02*
D03*
D59*
X749264Y343372D02*
X761238Y355346D01*
X603550Y335834D02*
X644270D01*
X644570Y335534D01*
X665480Y335444D02*
X677500D01*
X653370Y335534D02*
X665480D01*
X697738D02*
X697992Y335788D01*
X686390Y335534D02*
X697738D01*
X749264Y343372D02*
X749935D01*
X761238Y355346D02*
X774954D01*
X723945Y335579D02*
X723990Y335624D01*
X706165Y335579D02*
X723945D01*
X723990Y335624D02*
X741008D01*
X723392D02*
X723990D01*
X741008D02*
X742188Y336804D01*
X706120Y335534D02*
X706165Y335579D01*
X653288Y335534D02*
X653370D01*
X652526Y336296D02*
X653288Y335534D01*
D60*
X512318Y386080D02*
X512826Y386588D01*
X512572Y386162D02*
X513252Y386842D01*
X514350D01*
X497870Y386080D02*
X512318D01*
X421988Y381542D02*
X427712Y387266D01*
X421928Y381542D02*
X421988D01*
X427523Y376723D02*
Y382017D01*
X432772Y382266D02*
X432908Y382130D01*
X427523Y382017D02*
X427772Y382266D01*
X427274Y376474D02*
X427523Y376723D01*
X432908Y376570D02*
Y382130D01*
Y376570D02*
X433044Y376434D01*
X457740Y376460D02*
Y382234D01*
X457708Y376428D02*
X457740Y376460D01*
X447787Y376189D02*
Y382251D01*
Y376189D02*
X447802Y376174D01*
X563327Y385704D02*
Y388984D01*
X561200Y391111D02*
X563327Y388984D01*
X561200Y391111D02*
Y391985D01*
X447772Y382266D02*
X447787Y382251D01*
X457740Y382234D02*
X457772Y382266D01*
X583816Y387502D02*
X584200Y387118D01*
Y375184D02*
Y387118D01*
X557045Y394231D02*
X585620Y422806D01*
X588200Y375184D02*
X588278Y375261D01*
X610512Y314452D02*
X618490Y306474D01*
Y305054D02*
Y306474D01*
X602575Y303759D02*
X605940Y300394D01*
X606440D01*
X609452Y363834D02*
X611521Y365903D01*
Y366431D01*
X588278Y375261D02*
Y383209D01*
X588355Y383286D01*
X575274Y382018D02*
X576200Y381092D01*
X571119Y382878D02*
X571735Y382262D01*
X576200Y375184D02*
Y381092D01*
X571735Y375649D02*
Y382262D01*
X566964Y381157D02*
X567735Y380386D01*
X571735Y375649D02*
X572200Y375184D01*
X567735Y375649D02*
X568200Y375184D01*
X567735Y375649D02*
Y380386D01*
X580122Y375261D02*
Y382954D01*
Y375261D02*
X580200Y375184D01*
X580045Y383032D02*
X580122Y382954D01*
X554759Y387736D02*
Y396009D01*
X556208Y375192D02*
Y386287D01*
X567021Y388347D02*
Y390179D01*
X575274Y382018D02*
Y386878D01*
X567021Y390179D02*
X567639Y390797D01*
X566964Y381157D02*
Y388290D01*
X575056Y387096D02*
X575274Y386878D01*
X566964Y388290D02*
X567021Y388347D01*
X556200Y375184D02*
X556208Y375192D01*
X560200Y375184D02*
X560386Y375370D01*
X554759Y387736D02*
X556208Y386287D01*
X557045Y388683D02*
Y394231D01*
X564200Y375184D02*
Y384832D01*
X560386Y375370D02*
Y384543D01*
X559172Y385757D02*
Y386556D01*
X557045Y388683D02*
X559172Y386556D01*
Y385757D02*
X560386Y384543D01*
X563327Y385704D02*
X564200Y384832D01*
X543560Y323369D02*
X544025Y323834D01*
X541999Y327369D02*
X542544Y327914D01*
X544025Y323834D02*
X544850D01*
X541920Y324104D02*
X542290D01*
X611066Y351522D02*
X611378Y351210D01*
X608575Y347369D02*
X610504Y345440D01*
X603550Y347834D02*
X604015Y347369D01*
X610504Y345440D02*
X611378D01*
X603862Y351522D02*
X611066D01*
X603550Y351834D02*
X603862Y351522D01*
X611378Y351028D02*
Y351210D01*
X604015Y347369D02*
X608575D01*
X559881Y316165D02*
X560200Y316484D01*
X609622Y355834D02*
X610763Y356974D01*
X609085Y360299D02*
X610529Y361743D01*
X604015Y360299D02*
X609085D01*
X610529Y361743D02*
X614885D01*
X603550Y359834D02*
X604015Y360299D01*
X603550Y355834D02*
X609622D01*
X603550Y363834D02*
X609452D01*
X610763Y356974D02*
X611637D01*
X610512Y314452D02*
X610870D01*
X607215Y317749D02*
X610512Y314452D01*
X606750Y323834D02*
X607215Y323369D01*
X603550Y323834D02*
X606750D01*
X607215Y317749D02*
Y323369D01*
X592200Y316484D02*
X592470Y316214D01*
X583929Y315959D02*
X584200Y316230D01*
X598591Y295045D02*
Y305078D01*
X598571Y308331D02*
X600877Y306025D01*
X590550Y289814D02*
Y290784D01*
X602575Y303759D02*
Y304259D01*
X592940Y289394D02*
X598591Y295045D01*
X600877Y305957D02*
X602575Y304259D01*
X597556Y306045D02*
X597624D01*
X598503Y308331D02*
X598571D01*
X600877Y305957D02*
Y306025D01*
X597624Y306045D02*
X598591Y305078D01*
X592440Y289394D02*
X592940D01*
X593449Y310152D02*
X597556Y306045D01*
X596200Y310634D02*
X598503Y308331D01*
X596200Y310634D02*
Y316484D01*
X592470Y311200D02*
Y316214D01*
X536749Y296117D02*
X539047Y298416D01*
X559881Y309691D02*
Y316165D01*
X559562Y308864D02*
X559881Y309183D01*
X593449Y310152D02*
Y310222D01*
X583929Y310279D02*
Y315959D01*
X592470Y311200D02*
X593449Y310222D01*
X583184Y309534D02*
X583929Y310279D01*
X583184Y305308D02*
Y309534D01*
X539047Y298416D02*
Y321231D01*
X536702Y316484D02*
Y323421D01*
X540650Y327369D02*
X541999D01*
X539047Y321231D02*
X541920Y324104D01*
X536702Y323421D02*
X540650Y327369D01*
X526796Y306578D02*
Y306578D01*
X536702Y316484D01*
X554759Y396009D02*
X570230Y411480D01*
X585620Y422806D02*
Y435254D01*
X570230Y411480D02*
Y431614D01*
X578866Y424180D02*
X578993Y424307D01*
Y435127D01*
X579120Y435254D01*
X351119Y465927D02*
X370332D01*
X334010Y449326D02*
Y450342D01*
X312674Y444246D02*
X323144D01*
X377952Y467671D02*
Y474980D01*
X321310Y425450D02*
X322580Y426720D01*
X311150Y306932D02*
Y307086D01*
X369570Y260950D02*
X381854D01*
X419100D02*
X433070D01*
X466090D02*
X478120D01*
X572516Y433900D02*
Y435356D01*
X483870Y375920D02*
X485820Y373970D01*
Y361442D02*
Y373970D01*
X484722Y357886D02*
Y359918D01*
X513252Y386842D02*
X513842Y387432D01*
X383286Y274482D02*
X383540Y274228D01*
X383286Y274482D02*
Y284480D01*
X478120Y260950D02*
X479552Y262382D01*
X433070Y262728D02*
X434756D01*
X435102Y262382D01*
X381854Y260950D02*
X382270Y261366D01*
X585620Y435254D02*
Y435506D01*
X585978Y435864D01*
X570230Y431614D02*
X572516Y433900D01*
X320415Y434594D02*
X322580Y432429D01*
Y426720D02*
Y432429D01*
X314452Y434594D02*
X320415D01*
X297413Y462909D02*
X311017D01*
X295910Y462280D02*
X296784D01*
X311017Y462909D02*
X313690Y465582D01*
X296784Y462280D02*
X297413Y462909D01*
X332342Y455058D02*
X335424D01*
X334010Y449326D02*
X336417Y446919D01*
X323144Y444246D02*
X329080Y450182D01*
Y451796D02*
X332342Y455058D01*
X329080Y450182D02*
Y451796D01*
X335424Y455058D02*
X336042Y455676D01*
X323906Y455168D02*
X329237Y460499D01*
X332335D01*
X332953Y461117D01*
X314706Y455168D02*
X323906D01*
X351028Y465836D02*
X351119Y465927D01*
X377698Y475234D02*
X377952Y474980D01*
X352552Y454914D02*
X354717Y457079D01*
X367360D01*
X377952Y467671D01*
X350387Y446919D02*
X352552Y444754D01*
X336417Y446919D02*
X350387D01*
X316718Y302380D02*
X325478D01*
X312166Y306932D02*
X316718Y302380D01*
X467807Y402301D02*
X473929D01*
X473964Y402336D01*
X467772Y402266D02*
X467807Y402301D01*
X427712Y387266D02*
X427772D01*
X480075Y378445D02*
X483235Y375285D01*
X467772Y387266D02*
X476594Y378445D01*
X480075D01*
X467772Y392266D02*
X491184D01*
X497370Y386080D01*
X497840D01*
D61*
X613020Y339834D02*
X619660Y346474D01*
X603550Y339834D02*
X613020D01*
X401741Y389041D02*
X405799D01*
X407924Y386916D01*
X638822Y353994D02*
X640682Y355854D01*
X641350D01*
X632260Y353994D02*
X632460D01*
X638822D01*
X616744Y320418D02*
X617776D01*
X619760Y318434D01*
X609412Y327750D02*
X616744Y320418D01*
X603550Y327834D02*
X603634Y327750D01*
X609412D01*
X408262Y387266D02*
X422772D01*
D62*
X523169Y361743D02*
X529390Y367964D01*
X522891Y359827D02*
X523169Y360105D01*
X530098Y367656D02*
Y368808D01*
X523169Y360105D02*
Y361743D01*
X529390Y367964D02*
X529590D01*
X530098Y367656D02*
X533920Y363834D01*
X544850D01*
X632460Y306324D02*
Y314624D01*
X623770D02*
X632460D01*
X627657Y292954D02*
X628257Y292354D01*
X628650D01*
X619760Y292954D02*
X627657D01*
X619760Y318434D02*
X619960D01*
X623770Y314624D01*
X599983Y423545D02*
X609727D01*
X609854Y423672D01*
X599856Y423418D02*
X599983Y423545D01*
X548386Y423418D02*
X558130D01*
X314325Y475107D02*
X314452Y475234D01*
X297561Y475107D02*
X314325D01*
X297434Y474980D02*
X297561Y475107D01*
D63*
X564200Y315026D02*
Y316484D01*
Y315026D02*
X564388Y315214D01*
X588200Y308918D02*
Y316484D01*
X578104Y309121D02*
X580390Y311407D01*
X564200Y311005D02*
Y315026D01*
X578104Y308356D02*
Y309121D01*
X580390Y311407D02*
Y312674D01*
X351028Y434340D02*
X352044Y433324D01*
X479806Y274228D02*
Y283464D01*
Y274228D02*
X480060Y273974D01*
X432816Y274482D02*
X433070Y274228D01*
X432816Y274482D02*
Y284226D01*
X352044Y428244D02*
Y433324D01*
D64*
X572008Y329600D02*
X578912Y336504D01*
X572008Y329438D02*
Y329600D01*
X578912Y336504D02*
Y341122D01*
X584708Y335326D01*
Y335280D02*
X584754D01*
X584708D02*
Y335326D01*
X584754Y335280D02*
X588200Y331834D01*
X467589Y412450D02*
X477600D01*
X422910Y412750D02*
X423256D01*
X462772Y417266D02*
X467589Y412450D01*
X423256Y412750D02*
X427772Y417266D01*
D65*
X333502Y469914D02*
D03*
Y439914D02*
D03*
D66*
X369316Y354330D02*
D03*
X669036Y401320D02*
D03*
D67*
X771525Y476250D02*
D03*
X762000Y457200D02*
D03*
X771525Y438150D02*
D03*
X762000Y419100D02*
D03*
X771525Y400050D02*
D03*
X762000Y381000D02*
D03*
X771525Y323850D02*
D03*
X762000Y304800D02*
D03*
X771525Y285750D02*
D03*
X762000Y266700D02*
D03*
X752475Y476250D02*
D03*
X742950Y457200D02*
D03*
X752475Y438150D02*
D03*
X742950Y419100D02*
D03*
X752475Y400050D02*
D03*
Y323850D02*
D03*
X742950Y304800D02*
D03*
X733425Y476250D02*
D03*
X723900Y457200D02*
D03*
X733425Y438150D02*
D03*
X723900Y419100D02*
D03*
X733425Y400050D02*
D03*
Y323850D02*
D03*
X723900Y304800D02*
D03*
X714375Y476250D02*
D03*
X704850Y457200D02*
D03*
X714375Y438150D02*
D03*
X704850Y419100D02*
D03*
X714375Y400050D02*
D03*
X704850Y381000D02*
D03*
X714375Y361950D02*
D03*
X704850Y304800D02*
D03*
X714375Y285750D02*
D03*
X704850Y266700D02*
D03*
X695325Y476250D02*
D03*
X685800Y457200D02*
D03*
X695325Y438150D02*
D03*
X685800Y419100D02*
D03*
X695325Y400050D02*
D03*
X685800Y381000D02*
D03*
X695325Y361950D02*
D03*
Y323850D02*
D03*
X685800Y304800D02*
D03*
X695325Y285750D02*
D03*
X685800Y266700D02*
D03*
X676275Y476250D02*
D03*
X666750Y457200D02*
D03*
X676275Y438150D02*
D03*
Y361950D02*
D03*
X666750Y304800D02*
D03*
X676275Y285750D02*
D03*
X666750Y266700D02*
D03*
X657225Y476250D02*
D03*
X647700Y457200D02*
D03*
X657225Y438150D02*
D03*
X647700Y419100D02*
D03*
Y381000D02*
D03*
X657225Y361950D02*
D03*
X647700Y304800D02*
D03*
X657225Y285750D02*
D03*
X647700Y266700D02*
D03*
X638175Y476250D02*
D03*
X628650Y457200D02*
D03*
X638175Y438150D02*
D03*
X628650Y419100D02*
D03*
X638175Y400050D02*
D03*
X628650Y381000D02*
D03*
X638175Y285750D02*
D03*
X628650Y266700D02*
D03*
X619125Y476250D02*
D03*
X609600Y457200D02*
D03*
X619125Y438150D02*
D03*
Y400050D02*
D03*
X609600Y266700D02*
D03*
X600075Y476250D02*
D03*
X590550Y457200D02*
D03*
X600075Y438150D02*
D03*
Y400050D02*
D03*
X590550Y266700D02*
D03*
X581025Y476250D02*
D03*
Y285750D02*
D03*
X571500Y266700D02*
D03*
X561975Y476250D02*
D03*
X552450Y457200D02*
D03*
X561975Y438150D02*
D03*
Y285750D02*
D03*
X552450Y266700D02*
D03*
X542925Y476250D02*
D03*
X533400Y457200D02*
D03*
X542925Y400050D02*
D03*
Y285750D02*
D03*
X533400Y266700D02*
D03*
X523875Y476250D02*
D03*
X514350Y419100D02*
D03*
X523875Y400050D02*
D03*
Y285750D02*
D03*
X514350Y266700D02*
D03*
X504825Y438150D02*
D03*
Y400050D02*
D03*
X495300Y342900D02*
D03*
X504825Y323850D02*
D03*
Y285750D02*
D03*
X495300Y266700D02*
D03*
X476250Y457200D02*
D03*
X485775Y438150D02*
D03*
Y400050D02*
D03*
X476250Y342900D02*
D03*
X485775Y323850D02*
D03*
X457200Y457200D02*
D03*
X466725Y438150D02*
D03*
X457200Y419100D02*
D03*
Y342900D02*
D03*
Y304800D02*
D03*
Y266700D02*
D03*
X438150Y457200D02*
D03*
X447675Y438150D02*
D03*
X438150Y419100D02*
D03*
X447675Y400050D02*
D03*
Y323850D02*
D03*
X419100Y457200D02*
D03*
X428625Y438150D02*
D03*
X419100Y342900D02*
D03*
X428625Y323850D02*
D03*
X400050Y457200D02*
D03*
X409575Y438150D02*
D03*
Y400050D02*
D03*
Y361950D02*
D03*
X400050Y342900D02*
D03*
X409575Y323850D02*
D03*
Y285750D02*
D03*
X400050Y266700D02*
D03*
X381000Y457200D02*
D03*
X390525Y438150D02*
D03*
X381000Y381000D02*
D03*
X390525Y361950D02*
D03*
Y323850D02*
D03*
X381000Y304800D02*
D03*
X371475Y438150D02*
D03*
Y400050D02*
D03*
X361950Y381000D02*
D03*
X371475Y323850D02*
D03*
Y285750D02*
D03*
X361950Y266700D02*
D03*
X352425Y400050D02*
D03*
X342900Y381000D02*
D03*
Y342900D02*
D03*
X352425Y285750D02*
D03*
X342900Y266700D02*
D03*
X323850Y419100D02*
D03*
X333375Y400050D02*
D03*
X323850Y381000D02*
D03*
X333375Y361950D02*
D03*
X323850Y342900D02*
D03*
X333375Y285750D02*
D03*
X323850Y266700D02*
D03*
X304800Y419100D02*
D03*
X314325Y400050D02*
D03*
X304800Y381000D02*
D03*
X314325Y361950D02*
D03*
X304800Y342900D02*
D03*
X314325Y285750D02*
D03*
X304800Y266700D02*
D03*
X285750Y457200D02*
D03*
X295275Y438150D02*
D03*
X285750Y419100D02*
D03*
X295275Y400050D02*
D03*
X285750Y381000D02*
D03*
X295275Y361950D02*
D03*
X285750Y342900D02*
D03*
X295275Y285750D02*
D03*
X285750Y266700D02*
D03*
X276225Y476250D02*
D03*
X266700Y457200D02*
D03*
Y419100D02*
D03*
X276225Y400050D02*
D03*
X266700Y381000D02*
D03*
X276225Y361950D02*
D03*
X266700Y342900D02*
D03*
Y304800D02*
D03*
X276225Y285750D02*
D03*
X266700Y266700D02*
D03*
X662432Y342392D02*
D03*
X626618Y329184D02*
D03*
X645160Y350012D02*
D03*
X603250Y309626D02*
D03*
X632206Y343662D02*
D03*
X779526Y368554D02*
D03*
X773938Y368808D02*
D03*
X766318D02*
D03*
X760730Y365506D02*
D03*
X779780Y341884D02*
D03*
X774954D02*
D03*
X768350Y342392D02*
D03*
X761238Y345440D02*
D03*
X756412Y340360D02*
D03*
X750824Y336042D02*
D03*
X746252Y330708D02*
D03*
X737870Y329946D02*
D03*
X730250Y329438D02*
D03*
X715264Y329184D02*
D03*
X707644Y328676D02*
D03*
X699770Y328422D02*
D03*
X691642Y328676D02*
D03*
X683006D02*
D03*
X673862D02*
D03*
X665226D02*
D03*
X657352Y328930D02*
D03*
X649986D02*
D03*
X643128D02*
D03*
X646684Y342138D02*
D03*
X757682Y358648D02*
D03*
X744220Y347726D02*
D03*
X738632Y341884D02*
D03*
X729996Y341376D02*
D03*
X719836Y341884D02*
D03*
X712724Y341376D02*
D03*
X704850Y342392D02*
D03*
X696468Y342646D02*
D03*
X689102Y341884D02*
D03*
X679958Y342138D02*
D03*
X671576Y341376D02*
D03*
X655066Y342138D02*
D03*
X639572Y341884D02*
D03*
X421928Y381542D02*
D03*
X427274Y376474D02*
D03*
X433044Y376434D02*
D03*
X401741Y389041D02*
D03*
X470080Y365669D02*
D03*
X447802Y376174D02*
D03*
X457708Y376428D02*
D03*
X561200Y391985D02*
D03*
X563880Y365506D02*
D03*
X522891Y359827D02*
D03*
X583816Y387502D02*
D03*
X564134Y355092D02*
D03*
X554228Y354910D02*
D03*
X520192Y341884D02*
D03*
X574294Y326136D02*
D03*
X584962D02*
D03*
X553720Y335280D02*
D03*
X563880Y326136D02*
D03*
X553974D02*
D03*
X563626Y335280D02*
D03*
X574548Y355092D02*
D03*
X553974Y345440D02*
D03*
X520192Y348234D02*
D03*
X553974Y365506D02*
D03*
X584962D02*
D03*
X574294D02*
D03*
X580045Y383032D02*
D03*
X594614Y365506D02*
D03*
X567639Y390797D02*
D03*
X571119Y382878D02*
D03*
X575056Y387096D02*
D03*
X588355Y383286D02*
D03*
X632460Y306324D02*
D03*
X641350Y355854D02*
D03*
X628650Y292354D02*
D03*
X583184Y305308D02*
D03*
X594614Y326136D02*
D03*
X614885Y361743D02*
D03*
X611521Y366431D02*
D03*
X594614Y345440D02*
D03*
X578104Y308356D02*
D03*
X610870Y314452D02*
D03*
X611378Y345440D02*
D03*
X559562Y308864D02*
D03*
X611637Y356974D02*
D03*
X585216Y355092D02*
D03*
X565332Y308931D02*
D03*
X588200Y308918D02*
D03*
X611378Y351210D02*
D03*
X594868Y355092D02*
D03*
X584708Y335280D02*
D03*
X584962Y345440D02*
D03*
X594360Y335280D02*
D03*
X574294Y345440D02*
D03*
X563880D02*
D03*
X574040Y335280D02*
D03*
X548386Y423418D02*
D03*
X609854Y423672D02*
D03*
X578866Y424180D02*
D03*
X595630Y465582D02*
D03*
X473964Y402336D02*
D03*
X482346Y405384D02*
D03*
X405892Y405638D02*
D03*
X383286Y284480D02*
D03*
X479806Y283464D02*
D03*
X432816Y284226D02*
D03*
X297434Y474980D02*
D03*
X355346Y328422D02*
D03*
X349504Y329946D02*
D03*
X295910Y462280D02*
D03*
X333248Y450088D02*
D03*
X336042Y455676D02*
D03*
X370332Y465927D02*
D03*
X377444Y474237D02*
D03*
X332953Y461117D02*
D03*
X352044Y428244D02*
D03*
X322580Y425704D02*
D03*
M02*
