%TF.GenerationSoftware,Altium Limited,Altium Designer,22.8.2 (66)*%
G04 Layer_Color=8388736*
%FSLAX45Y45*%
%MOMM*%
%TF.SameCoordinates,DE4C73A7-34E9-4613-BA68-141157798951*%
%TF.FilePolarity,Negative*%
%TF.FileFunction,Soldermask,Top*%
%TF.Part,Single*%
G01*
G75*
%TA.AperFunction,ConnectorPad*%
%ADD10R,1.50000X1.20000*%
%TA.AperFunction,SMDPad,CuDef*%
%ADD11R,4.45000X4.45000*%
%ADD12R,0.86000X0.22000*%
%ADD13R,0.22000X0.86000*%
%ADD17R,0.90000X0.80000*%
%ADD19R,1.35000X0.65000*%
G04:AMPARAMS|DCode=20|XSize=0.5mm|YSize=0.25mm|CornerRadius=0.125mm|HoleSize=0mm|Usage=FLASHONLY|Rotation=270.000|XOffset=0mm|YOffset=0mm|HoleType=Round|Shape=RoundedRectangle|*
%AMROUNDEDRECTD20*
21,1,0.50000,0.00000,0,0,270.0*
21,1,0.25000,0.25000,0,0,270.0*
1,1,0.25000,0.00000,-0.12500*
1,1,0.25000,0.00000,0.12500*
1,1,0.25000,0.00000,0.12500*
1,1,0.25000,0.00000,-0.12500*
%
%ADD20ROUNDEDRECTD20*%
G04:AMPARAMS|DCode=29|XSize=0.75mm|YSize=1.4mm|CornerRadius=0mm|HoleSize=0mm|Usage=FLASHONLY|Rotation=315.000|XOffset=0mm|YOffset=0mm|HoleType=Round|Shape=Rectangle|*
%AMROTATEDRECTD29*
4,1,4,-0.76014,-0.22981,0.22981,0.76014,0.76014,0.22981,-0.22981,-0.76014,-0.76014,-0.22981,0.0*
%
%ADD29ROTATEDRECTD29*%

G04:AMPARAMS|DCode=31|XSize=0.6mm|YSize=0.25mm|CornerRadius=0.05mm|HoleSize=0mm|Usage=FLASHONLY|Rotation=0.000|XOffset=0mm|YOffset=0mm|HoleType=Round|Shape=RoundedRectangle|*
%AMROUNDEDRECTD31*
21,1,0.60000,0.15000,0,0,0.0*
21,1,0.50000,0.25000,0,0,0.0*
1,1,0.10000,0.25000,-0.07500*
1,1,0.10000,-0.25000,-0.07500*
1,1,0.10000,-0.25000,0.07500*
1,1,0.10000,0.25000,0.07500*
%
%ADD31ROUNDEDRECTD31*%
%ADD33R,2.40000X0.56000*%
%TA.AperFunction,ComponentPad*%
%ADD43C,1.52400*%
%TA.AperFunction,ViaPad*%
%ADD46C,0.50000*%
%ADD49C,1.60020*%
%TA.AperFunction,ComponentPad*%
%ADD50C,0.88900*%
%ADD51C,3.53060*%
%TA.AperFunction,SMDPad,CuDef*%
%ADD57R,0.67620X0.71620*%
%ADD58R,0.97620X1.07620*%
%ADD59R,0.71620X0.67620*%
%ADD60R,0.82620X0.67620*%
%TA.AperFunction,BGAPad,CuDef*%
%ADD61C,0.42620*%
%TA.AperFunction,SMDPad,CuDef*%
%ADD62R,0.67620X0.82620*%
%ADD63R,0.55620X0.61620*%
%ADD64R,1.07620X0.97620*%
%ADD65R,0.62620X0.61620*%
%ADD66R,0.61620X0.62620*%
G04:AMPARAMS|DCode=67|XSize=0.6162mm|YSize=0.5562mm|CornerRadius=0mm|HoleSize=0mm|Usage=FLASHONLY|Rotation=225.000|XOffset=0mm|YOffset=0mm|HoleType=Round|Shape=Rectangle|*
%AMROTATEDRECTD67*
4,1,4,0.02121,0.41451,0.41451,0.02121,-0.02121,-0.41451,-0.41451,-0.02121,0.02121,0.41451,0.0*
%
%ADD67ROTATEDRECTD67*%

G04:AMPARAMS|DCode=68|XSize=0.6162mm|YSize=0.6262mm|CornerRadius=0mm|HoleSize=0mm|Usage=FLASHONLY|Rotation=315.000|XOffset=0mm|YOffset=0mm|HoleType=Round|Shape=Rectangle|*
%AMROTATEDRECTD68*
4,1,4,-0.43925,-0.00354,0.00354,0.43925,0.43925,0.00354,-0.00354,-0.43925,-0.43925,-0.00354,0.0*
%
%ADD68ROTATEDRECTD68*%

%ADD69R,0.79620X0.83620*%
%ADD70R,1.67620X0.72620*%
G36*
X4637709Y4804539D02*
X4638273D01*
X4639402Y4804257D01*
X4640813Y4803975D01*
X4642224Y4803411D01*
X4642506D01*
X4643071Y4803128D01*
X4643917Y4802564D01*
X4644482Y4802000D01*
X4644764Y4801435D01*
X4645046Y4800024D01*
Y4799460D01*
Y4798331D01*
Y4797767D01*
X4644764Y4796356D01*
Y4796073D01*
X4644482Y4795791D01*
X4644199Y4794098D01*
Y4793816D01*
X4643917Y4793252D01*
X4643635Y4792405D01*
X4643353Y4791276D01*
X4610618Y4692790D01*
Y4692508D01*
X4610336Y4691379D01*
X4609772Y4690251D01*
X4608925Y4689122D01*
X4608643Y4688840D01*
X4608079Y4688558D01*
X4607232Y4687993D01*
X4605539Y4687429D01*
X4605257D01*
X4603846Y4687147D01*
X4601870Y4686864D01*
X4599048Y4686582D01*
X4596227D01*
X4594816Y4686300D01*
X4584939D01*
X4581270Y4686582D01*
X4577884Y4686864D01*
X4577320D01*
X4575626Y4687147D01*
X4573369Y4687429D01*
X4571393Y4687711D01*
X4571111D01*
X4570265Y4688275D01*
X4569136Y4688558D01*
X4568007Y4689404D01*
Y4689686D01*
X4567443Y4690251D01*
X4567161Y4691379D01*
X4566596Y4692790D01*
X4533862Y4791276D01*
Y4791558D01*
X4533297Y4792687D01*
X4533015Y4794098D01*
X4532451Y4795509D01*
Y4795791D01*
Y4796638D01*
X4532168Y4797484D01*
Y4798331D01*
Y4798613D01*
Y4798895D01*
Y4800024D01*
Y4800306D01*
Y4800589D01*
X4532733Y4802000D01*
X4533015Y4802282D01*
X4533297Y4802564D01*
X4534144Y4802846D01*
X4535273Y4803411D01*
X4535555Y4803693D01*
X4536401Y4803975D01*
X4537812Y4804257D01*
X4539788Y4804539D01*
X4540352D01*
X4542045Y4804821D01*
X4550229D01*
X4553051Y4804539D01*
X4555591Y4804257D01*
X4556155D01*
X4557284Y4803975D01*
X4558977Y4803693D01*
X4560388Y4803411D01*
X4560670D01*
X4561234Y4803128D01*
X4562081Y4802564D01*
X4562645Y4801717D01*
X4562928Y4801435D01*
X4563210Y4801153D01*
X4564056Y4799460D01*
X4588607Y4719599D01*
X4589454Y4716495D01*
X4590300Y4719599D01*
X4614569Y4799460D01*
Y4799742D01*
X4614851Y4800306D01*
X4615698Y4801717D01*
X4615980Y4802000D01*
X4616262Y4802282D01*
X4617109Y4802846D01*
X4618238Y4803411D01*
X4618520D01*
X4619366Y4803693D01*
X4620777Y4803975D01*
X4622753Y4804257D01*
X4623317D01*
X4624728Y4804539D01*
X4627268Y4804821D01*
X4635451D01*
X4637709Y4804539D01*
D02*
G37*
G36*
X4713619Y4847433D02*
X4716441D01*
X4719827Y4846868D01*
X4723496Y4846304D01*
X4727165Y4845457D01*
X4730551Y4844329D01*
X4730833D01*
X4732244Y4843764D01*
X4733937Y4842918D01*
X4735913Y4842071D01*
X4740992Y4839249D01*
X4743532Y4837556D01*
X4745789Y4835581D01*
X4746072Y4835298D01*
X4746918Y4834734D01*
X4748047Y4833605D01*
X4749176Y4831912D01*
X4750869Y4829937D01*
X4752280Y4827961D01*
X4753691Y4825422D01*
X4755102Y4822600D01*
X4755384Y4822318D01*
X4755666Y4821189D01*
X4756231Y4819778D01*
X4756795Y4817802D01*
X4757359Y4815263D01*
X4757641Y4812441D01*
X4758206Y4809337D01*
Y4806232D01*
Y4805950D01*
Y4804821D01*
Y4803411D01*
X4757924Y4801435D01*
Y4799178D01*
X4757641Y4796638D01*
X4756513Y4790994D01*
Y4790712D01*
X4756231Y4789583D01*
X4755948Y4788172D01*
X4755102Y4786197D01*
X4754255Y4783939D01*
X4753409Y4781117D01*
X4751998Y4778013D01*
X4750304Y4774909D01*
X4750022Y4774627D01*
X4749458Y4773498D01*
X4748329Y4771805D01*
X4746918Y4769265D01*
X4745225Y4766443D01*
X4742967Y4763339D01*
X4740428Y4759953D01*
X4737324Y4756002D01*
X4737041Y4755438D01*
X4735913Y4754309D01*
X4733937Y4752051D01*
X4731397Y4749229D01*
X4728293Y4745561D01*
X4724343Y4741610D01*
X4719827Y4736813D01*
X4715030Y4732015D01*
X4696688Y4713108D01*
X4759617D01*
X4760181Y4712826D01*
X4761028Y4712262D01*
X4761310Y4711980D01*
X4761592Y4711697D01*
X4762721Y4710004D01*
X4763003Y4709722D01*
X4763285Y4708876D01*
X4763568Y4707747D01*
X4763850Y4706054D01*
Y4705489D01*
X4764132Y4704360D01*
X4764414Y4702385D01*
Y4700128D01*
Y4699845D01*
Y4699563D01*
Y4697870D01*
X4764132Y4695895D01*
X4763850Y4693919D01*
Y4693637D01*
X4763568Y4692508D01*
X4763285Y4691097D01*
X4763003Y4689686D01*
Y4689404D01*
X4762721Y4688840D01*
X4762157Y4688275D01*
X4761310Y4687711D01*
X4760746Y4687429D01*
X4759335Y4687147D01*
X4665364D01*
X4663953Y4687429D01*
X4663671D01*
X4662824Y4687993D01*
X4661696Y4688558D01*
X4660567Y4689404D01*
X4660285Y4689686D01*
X4660002Y4690533D01*
X4659438Y4691662D01*
X4658874Y4693355D01*
Y4693919D01*
Y4695330D01*
X4658591Y4697588D01*
Y4700410D01*
Y4700692D01*
Y4700974D01*
Y4702667D01*
Y4704925D01*
X4658874Y4707182D01*
Y4707465D01*
Y4707747D01*
X4659156Y4709158D01*
X4659438Y4710851D01*
X4660002Y4712544D01*
X4660285Y4712826D01*
X4660849Y4713955D01*
X4661696Y4715366D01*
X4662542Y4716777D01*
X4662824Y4717059D01*
X4663671Y4718188D01*
X4665082Y4719881D01*
X4666775Y4721574D01*
X4694148Y4750922D01*
X4694430Y4751205D01*
X4695559Y4752333D01*
X4696970Y4754027D01*
X4698945Y4756002D01*
X4700920Y4758542D01*
X4703178Y4761081D01*
X4705153Y4763621D01*
X4707129Y4766443D01*
X4707411Y4766725D01*
X4707975Y4767572D01*
X4708822Y4768983D01*
X4709951Y4770676D01*
X4712490Y4774909D01*
X4715030Y4779142D01*
Y4779424D01*
X4715595Y4780271D01*
X4715877Y4781399D01*
X4716723Y4782810D01*
X4717852Y4786197D01*
X4718981Y4789865D01*
Y4790147D01*
X4719263Y4790712D01*
Y4791558D01*
X4719545Y4792969D01*
X4719827Y4795791D01*
X4720110Y4799178D01*
Y4799460D01*
Y4799742D01*
X4719827Y4801717D01*
X4719545Y4803975D01*
X4718699Y4806797D01*
Y4807079D01*
X4718417Y4807361D01*
X4717570Y4809054D01*
X4716441Y4811030D01*
X4714748Y4813005D01*
X4714466Y4813569D01*
X4713055Y4814698D01*
X4711079Y4816109D01*
X4708540Y4817238D01*
X4708258D01*
X4707975Y4817520D01*
X4707129Y4817802D01*
X4706000Y4818085D01*
X4703178Y4818649D01*
X4699510Y4818931D01*
X4696970D01*
X4695277Y4818649D01*
X4691326Y4818085D01*
X4686811Y4816956D01*
X4686529D01*
X4685964Y4816674D01*
X4684835Y4816391D01*
X4683424Y4815827D01*
X4680320Y4814698D01*
X4676934Y4813005D01*
X4676652D01*
X4676370Y4812723D01*
X4674394Y4811594D01*
X4672137Y4810183D01*
X4669879Y4808772D01*
X4669315Y4808490D01*
X4668186Y4807926D01*
X4666775Y4807361D01*
X4665646Y4807079D01*
X4665082D01*
X4663671Y4807643D01*
Y4807926D01*
X4663106Y4808208D01*
X4662824Y4809054D01*
X4662260Y4810183D01*
Y4810465D01*
X4661978Y4811312D01*
Y4812723D01*
X4661696Y4814698D01*
Y4815263D01*
Y4816674D01*
X4661413Y4818931D01*
Y4821753D01*
Y4822318D01*
Y4823446D01*
Y4824857D01*
Y4826268D01*
Y4826550D01*
X4661696Y4827397D01*
X4661978Y4829655D01*
Y4829937D01*
X4662260Y4830501D01*
X4662824Y4831912D01*
X4663106Y4832194D01*
X4663389Y4832759D01*
X4665082Y4834452D01*
X4665364Y4834734D01*
X4666493Y4835581D01*
X4668186Y4836709D01*
X4670726Y4838120D01*
X4671008D01*
X4671572Y4838403D01*
X4672419Y4838967D01*
X4673548Y4839531D01*
X4676934Y4840942D01*
X4680885Y4842353D01*
X4681167D01*
X4682013Y4842635D01*
X4683142Y4843200D01*
X4684835Y4843764D01*
X4686529Y4844329D01*
X4688786Y4844893D01*
X4693866Y4846022D01*
X4694148D01*
X4695277Y4846304D01*
X4696688Y4846586D01*
X4698663Y4846868D01*
X4700920Y4847151D01*
X4703460Y4847433D01*
X4709104Y4847715D01*
X4711079D01*
X4713619Y4847433D01*
D02*
G37*
G36*
X4410261Y4844611D02*
X4411107D01*
X4412800Y4844329D01*
X4415058Y4844046D01*
X4417598Y4843764D01*
X4418162D01*
X4419291Y4843482D01*
X4420984Y4843200D01*
X4423242Y4842918D01*
X4426064Y4842071D01*
X4428885Y4841507D01*
X4434812Y4839249D01*
X4435094Y4838967D01*
X4436223Y4838685D01*
X4437633Y4837838D01*
X4439327Y4836992D01*
X4443560Y4834170D01*
X4447792Y4830501D01*
X4448075Y4830219D01*
X4448639Y4829655D01*
X4449768Y4828526D01*
X4450897Y4827115D01*
X4452025Y4825139D01*
X4453436Y4823164D01*
X4455976Y4818085D01*
Y4817802D01*
X4456540Y4816674D01*
X4456823Y4815263D01*
X4457387Y4813287D01*
X4457951Y4810748D01*
X4458234Y4807926D01*
X4458798Y4804821D01*
Y4801435D01*
Y4801153D01*
Y4800024D01*
Y4798613D01*
X4458516Y4796638D01*
X4458234Y4794380D01*
X4457951Y4791841D01*
X4456540Y4786761D01*
Y4786479D01*
X4456258Y4785632D01*
X4455694Y4784504D01*
X4455130Y4782810D01*
X4453154Y4779142D01*
X4450614Y4775191D01*
X4450332Y4774909D01*
X4450050Y4774345D01*
X4449203Y4773498D01*
X4448075Y4772087D01*
X4444971Y4769265D01*
X4441020Y4766161D01*
X4440738Y4765879D01*
X4440173Y4765597D01*
X4438762Y4764750D01*
X4437351Y4764186D01*
X4435376Y4763057D01*
X4433118Y4762210D01*
X4428039Y4760235D01*
X4428321D01*
X4428603Y4759953D01*
X4430296Y4759106D01*
X4432554Y4757695D01*
X4434812Y4756002D01*
X4435094D01*
X4435376Y4755720D01*
X4436787Y4754309D01*
X4438480Y4752616D01*
X4440455Y4750076D01*
Y4749794D01*
X4441020Y4749511D01*
X4442149Y4747818D01*
X4443842Y4745279D01*
X4445535Y4742174D01*
Y4741892D01*
X4446099Y4741328D01*
X4446382Y4740481D01*
X4447228Y4739352D01*
X4448639Y4736248D01*
X4450614Y4732298D01*
X4463878Y4701256D01*
Y4700974D01*
X4464160Y4700410D01*
X4464724Y4698717D01*
X4465571Y4696177D01*
X4466135Y4694201D01*
X4466417Y4693919D01*
X4466699Y4693073D01*
X4466982Y4691944D01*
Y4691097D01*
Y4690815D01*
Y4690251D01*
X4466417Y4688840D01*
X4465853Y4688275D01*
X4465006Y4687993D01*
X4463878Y4687429D01*
X4463595D01*
X4462467Y4687147D01*
X4460773Y4686864D01*
X4458516Y4686582D01*
X4455976D01*
X4453154Y4686300D01*
X4443277D01*
X4440738Y4686582D01*
X4440173D01*
X4439044Y4686864D01*
X4437633Y4687147D01*
X4435940Y4687429D01*
X4435658D01*
X4435094Y4687711D01*
X4434247Y4688275D01*
X4433401Y4688840D01*
Y4689122D01*
X4433118Y4689686D01*
X4432836Y4690533D01*
X4432554Y4691662D01*
X4418162Y4726654D01*
Y4726936D01*
X4417598Y4727783D01*
X4417316Y4728911D01*
X4416469Y4730322D01*
X4415058Y4733709D01*
X4413083Y4737095D01*
Y4737377D01*
X4412800Y4737942D01*
X4412236Y4738788D01*
X4411672Y4739917D01*
X4409978Y4742457D01*
X4407721Y4744996D01*
Y4745279D01*
X4407157Y4745561D01*
X4405746Y4746690D01*
X4403770Y4748383D01*
X4400948Y4749794D01*
X4400666D01*
X4400384Y4750076D01*
X4399537Y4750358D01*
X4398409Y4750640D01*
X4395587Y4751205D01*
X4391918Y4751487D01*
X4382041D01*
Y4691379D01*
Y4691097D01*
Y4690533D01*
X4381759Y4689686D01*
X4381195Y4688840D01*
X4380912D01*
X4380630Y4688275D01*
X4379784Y4687993D01*
X4378373Y4687429D01*
X4378091D01*
X4377244Y4687147D01*
X4375551D01*
X4373575Y4686864D01*
X4373011D01*
X4371318Y4686582D01*
X4369060Y4686300D01*
X4363134D01*
X4360595Y4686582D01*
X4358055Y4686864D01*
X4357490D01*
X4356362Y4687147D01*
X4354668D01*
X4352975Y4687429D01*
X4352693D01*
X4352129Y4687711D01*
X4351282Y4688275D01*
X4350436Y4688840D01*
Y4689122D01*
X4350153Y4689686D01*
X4349871Y4691379D01*
Y4834734D01*
Y4835016D01*
Y4835581D01*
X4350153Y4836427D01*
Y4837838D01*
X4351000Y4840096D01*
X4351564Y4841507D01*
X4352411Y4842353D01*
X4352975Y4842635D01*
X4354386Y4843764D01*
X4356362Y4844611D01*
X4359184Y4844893D01*
X4407157D01*
X4410261Y4844611D01*
D02*
G37*
G36*
X4271986D02*
X4275654Y4844329D01*
X4276501D01*
X4277629Y4844046D01*
X4279040Y4843764D01*
X4280734Y4843482D01*
X4282991Y4843200D01*
X4287788Y4842353D01*
X4288071D01*
X4288917Y4842071D01*
X4290328Y4841789D01*
X4292304Y4841225D01*
X4294279Y4840660D01*
X4296819Y4839814D01*
X4301898Y4837274D01*
X4302180Y4836992D01*
X4303027Y4836709D01*
X4304438Y4835863D01*
X4306131Y4834734D01*
X4310364Y4831630D01*
X4314315Y4827679D01*
X4314597Y4827397D01*
X4315161Y4826550D01*
X4316008Y4825422D01*
X4317137Y4824011D01*
X4318548Y4822035D01*
X4319676Y4819496D01*
X4321087Y4816956D01*
X4322216Y4814134D01*
Y4813852D01*
X4322781Y4812723D01*
X4323063Y4811312D01*
X4323627Y4809054D01*
X4324192Y4806515D01*
X4324474Y4803693D01*
X4325038Y4800306D01*
Y4796920D01*
Y4796638D01*
Y4796356D01*
Y4794662D01*
X4324756Y4792123D01*
X4324474Y4789019D01*
X4323909Y4785350D01*
X4323345Y4781399D01*
X4322216Y4777166D01*
X4320805Y4773216D01*
X4320523Y4772651D01*
X4319959Y4771523D01*
X4319112Y4769547D01*
X4317701Y4767290D01*
X4316008Y4764468D01*
X4314033Y4761646D01*
X4311493Y4758824D01*
X4308671Y4756002D01*
X4308389Y4755720D01*
X4307260Y4754873D01*
X4305567Y4753462D01*
X4303309Y4752051D01*
X4300487Y4750358D01*
X4297101Y4748383D01*
X4293432Y4746690D01*
X4289199Y4745279D01*
X4288635D01*
X4287224Y4744714D01*
X4284684Y4744150D01*
X4281580Y4743585D01*
X4277629Y4743021D01*
X4272832Y4742457D01*
X4267753Y4742174D01*
X4262109Y4741892D01*
X4249128D01*
Y4691379D01*
Y4691097D01*
Y4690533D01*
X4248846Y4689686D01*
X4248281Y4688840D01*
X4247999D01*
X4247717Y4688275D01*
X4246870Y4687993D01*
X4245459Y4687429D01*
X4245177D01*
X4244331Y4687147D01*
X4242637D01*
X4240662Y4686864D01*
X4240098D01*
X4238405Y4686582D01*
X4236147Y4686300D01*
X4230221D01*
X4227681Y4686582D01*
X4225141Y4686864D01*
X4224577D01*
X4223448Y4687147D01*
X4221755D01*
X4220062Y4687429D01*
X4219780D01*
X4219215Y4687711D01*
X4218369Y4688275D01*
X4217522Y4688840D01*
Y4689122D01*
X4217240Y4689686D01*
X4216958Y4691379D01*
Y4833323D01*
Y4833605D01*
Y4834170D01*
X4217240Y4835298D01*
Y4836427D01*
X4218087Y4839249D01*
X4219780Y4841789D01*
X4220062Y4842071D01*
X4220344Y4842353D01*
X4222037Y4843482D01*
X4224295Y4844329D01*
X4225988Y4844893D01*
X4268317D01*
X4271986Y4844611D01*
D02*
G37*
G36*
X4171525Y4845457D02*
X4174064Y4845175D01*
X4174629D01*
X4175757Y4844893D01*
X4177451Y4844611D01*
X4178862Y4844329D01*
X4179144D01*
X4179990Y4844046D01*
X4180837Y4843482D01*
X4181684Y4842635D01*
X4181966Y4842353D01*
X4182248Y4842071D01*
X4182530Y4841225D01*
Y4840378D01*
Y4691379D01*
Y4691097D01*
Y4690533D01*
X4182248Y4689686D01*
X4181684Y4688840D01*
X4181401D01*
X4181119Y4688275D01*
X4180273Y4687993D01*
X4178862Y4687429D01*
X4178579D01*
X4177733Y4687147D01*
X4176040D01*
X4174064Y4686864D01*
X4173500D01*
X4172089Y4686582D01*
X4169549Y4686300D01*
X4163623D01*
X4161083Y4686582D01*
X4158544Y4686864D01*
X4157979D01*
X4156850Y4687147D01*
X4155157D01*
X4153464Y4687429D01*
X4153182D01*
X4152618Y4687711D01*
X4151771Y4688275D01*
X4150924Y4688840D01*
Y4689122D01*
X4150642Y4689686D01*
X4150360Y4691379D01*
Y4840378D01*
Y4840660D01*
Y4841225D01*
X4150924Y4842635D01*
X4151207Y4842918D01*
X4151489Y4843200D01*
X4152618Y4843764D01*
X4153746Y4844329D01*
X4154029D01*
X4155157Y4844611D01*
X4156568Y4844893D01*
X4158544Y4845175D01*
X4159108D01*
X4160801Y4845457D01*
X4163059Y4845740D01*
X4168985D01*
X4171525Y4845457D01*
D02*
G37*
%LPC*%
G36*
X4399819Y4820342D02*
X4382041D01*
Y4775473D01*
X4400666D01*
X4402077Y4775755D01*
X4406028Y4776038D01*
X4409978Y4776884D01*
X4410261D01*
X4410825Y4777166D01*
X4411672Y4777449D01*
X4413083Y4778013D01*
X4415622Y4779424D01*
X4418444Y4781399D01*
X4418726Y4781682D01*
X4419009Y4781964D01*
X4420420Y4783375D01*
X4422113Y4785914D01*
X4423524Y4788736D01*
Y4789019D01*
X4423806Y4789583D01*
X4424088Y4790430D01*
X4424653Y4791558D01*
X4425217Y4794380D01*
X4425499Y4798049D01*
Y4798331D01*
Y4799460D01*
X4425217Y4800871D01*
X4424935Y4802564D01*
X4424088Y4807079D01*
X4422959Y4809337D01*
X4421831Y4811312D01*
X4421548Y4811594D01*
X4421266Y4812159D01*
X4420420Y4813005D01*
X4419009Y4814416D01*
X4417598Y4815545D01*
X4415622Y4816674D01*
X4413083Y4818085D01*
X4410261Y4818931D01*
X4409978D01*
X4408850Y4819213D01*
X4407157Y4819496D01*
X4404899Y4819778D01*
X4404335D01*
X4402641Y4820060D01*
X4399819Y4820342D01*
D02*
G37*
G36*
X4266342Y4820060D02*
X4249128D01*
Y4766725D01*
X4266060D01*
X4267753Y4767007D01*
X4271986Y4767572D01*
X4276219Y4768701D01*
X4276501D01*
X4277065Y4768983D01*
X4277912Y4769547D01*
X4279040Y4770112D01*
X4281862Y4771805D01*
X4284402Y4774345D01*
X4284684Y4774627D01*
X4284967Y4774909D01*
X4285531Y4775755D01*
X4286378Y4776884D01*
X4288071Y4779706D01*
X4289482Y4783093D01*
Y4783375D01*
X4289764Y4783939D01*
X4290046Y4785068D01*
X4290610Y4786479D01*
X4290893Y4788172D01*
X4291175Y4790147D01*
X4291457Y4794662D01*
Y4794945D01*
Y4796073D01*
X4291175Y4797484D01*
Y4799460D01*
X4290046Y4803975D01*
X4289482Y4806232D01*
X4288353Y4808208D01*
Y4808490D01*
X4287788Y4809054D01*
X4287224Y4810183D01*
X4286378Y4811312D01*
X4284120Y4813852D01*
X4281298Y4816109D01*
X4281016D01*
X4280451Y4816391D01*
X4279605Y4816956D01*
X4278476Y4817520D01*
X4275654Y4818367D01*
X4272268Y4819213D01*
X4271986D01*
X4271421Y4819496D01*
X4270575D01*
X4269164Y4819778D01*
X4266342Y4820060D01*
D02*
G37*
%LPD*%
D10*
X7753160Y3775300D02*
D03*
Y3555300D02*
D03*
X7380160Y3775300D02*
D03*
Y2705300D02*
D03*
D11*
X5742000Y3458340D02*
D03*
D12*
X5448500Y3238340D02*
D03*
Y3278340D02*
D03*
Y3318340D02*
D03*
Y3358340D02*
D03*
Y3398340D02*
D03*
Y3438340D02*
D03*
Y3478340D02*
D03*
Y3518340D02*
D03*
Y3558340D02*
D03*
Y3598340D02*
D03*
Y3638340D02*
D03*
Y3678340D02*
D03*
X6035500D02*
D03*
Y3638340D02*
D03*
Y3598340D02*
D03*
Y3558340D02*
D03*
Y3518340D02*
D03*
Y3478340D02*
D03*
Y3438340D02*
D03*
Y3398340D02*
D03*
Y3358340D02*
D03*
Y3318340D02*
D03*
Y3278340D02*
D03*
Y3238340D02*
D03*
D13*
X5522000Y3751840D02*
D03*
X5562000D02*
D03*
X5602000D02*
D03*
X5642000D02*
D03*
X5682000D02*
D03*
X5722000D02*
D03*
X5762000D02*
D03*
X5802000D02*
D03*
X5842000D02*
D03*
X5882000D02*
D03*
X5922000D02*
D03*
X5962000D02*
D03*
Y3164840D02*
D03*
X5922000D02*
D03*
X5882000D02*
D03*
X5842000D02*
D03*
X5802000D02*
D03*
X5762000D02*
D03*
X5722000D02*
D03*
X5682000D02*
D03*
X5642000D02*
D03*
X5602000D02*
D03*
X5562000D02*
D03*
X5522000D02*
D03*
D17*
X4838700Y3860800D02*
D03*
X4978700D02*
D03*
Y3750800D02*
D03*
X4838700D02*
D03*
X5924400Y2888860D02*
D03*
X6064400D02*
D03*
Y2998860D02*
D03*
X5924400D02*
D03*
D19*
X5791200Y4447540D02*
D03*
D20*
X5856200Y4352540D02*
D03*
X5791200D02*
D03*
X5726200D02*
D03*
Y4542540D02*
D03*
X5791200D02*
D03*
X5856200D02*
D03*
D29*
X5367485Y2961175D02*
D03*
X5264955Y3063705D02*
D03*
D31*
X3384780Y3173800D02*
D03*
Y3123800D02*
D03*
Y3073800D02*
D03*
Y3023800D02*
D03*
X3254780D02*
D03*
Y3073800D02*
D03*
Y3123800D02*
D03*
Y3173800D02*
D03*
D33*
X3525520Y4752340D02*
D03*
Y4650740D02*
D03*
Y4549140D02*
D03*
Y4447540D02*
D03*
Y4345940D02*
D03*
X3144520Y4752340D02*
D03*
Y4650740D02*
D03*
Y4549140D02*
D03*
Y4447540D02*
D03*
Y4345940D02*
D03*
D43*
X2829560Y3143250D02*
D03*
Y4413250D02*
D03*
D46*
X5751200Y4447540D02*
D03*
X5831200D02*
D03*
D49*
X4033520Y3053080D02*
D03*
X4239260D02*
D03*
D50*
X3335020Y4699140D02*
D03*
Y4399140D02*
D03*
D51*
X3693160Y3543300D02*
D03*
X6690360Y4013200D02*
D03*
D57*
X5871023Y4662880D02*
D03*
X5783023D02*
D03*
X4847220Y3599180D02*
D03*
X4935220D02*
D03*
X4628700Y3670300D02*
D03*
X4540700D02*
D03*
X5492300Y3901440D02*
D03*
X5404300D02*
D03*
X5162100Y3317240D02*
D03*
X5074100D02*
D03*
D58*
X4611560Y3530600D02*
D03*
X4476560D02*
D03*
X3252280Y3312160D02*
D03*
X3387280D02*
D03*
D59*
X5125720Y3861620D02*
D03*
Y3773620D02*
D03*
X4947920Y4130860D02*
D03*
Y4042860D02*
D03*
X4826000Y4134300D02*
D03*
Y4222300D02*
D03*
X6324600Y3627940D02*
D03*
Y3539940D02*
D03*
Y3146240D02*
D03*
Y3234240D02*
D03*
X6197600Y3551740D02*
D03*
Y3463740D02*
D03*
Y3184340D02*
D03*
Y3272340D02*
D03*
X5295900Y3267340D02*
D03*
Y3355340D02*
D03*
Y3679640D02*
D03*
Y3767640D02*
D03*
Y3476440D02*
D03*
Y3564440D02*
D03*
X4061460Y4147000D02*
D03*
Y4235000D02*
D03*
D60*
X5696300Y4234180D02*
D03*
X5581300D02*
D03*
X5883560D02*
D03*
X5998560D02*
D03*
D61*
X4677725Y3872660D02*
D03*
Y3922660D02*
D03*
Y3972660D02*
D03*
Y4022660D02*
D03*
Y4072660D02*
D03*
Y4122660D02*
D03*
Y4172660D02*
D03*
Y4222660D02*
D03*
X4627725Y3822660D02*
D03*
Y3872660D02*
D03*
Y3922660D02*
D03*
Y4022660D02*
D03*
Y4072660D02*
D03*
Y4122660D02*
D03*
Y4172660D02*
D03*
Y4222660D02*
D03*
Y4272660D02*
D03*
X4577725Y3822660D02*
D03*
Y3872660D02*
D03*
Y4272660D02*
D03*
X4527725Y3822660D02*
D03*
Y4272660D02*
D03*
X4477725Y3822660D02*
D03*
Y3872660D02*
D03*
Y4272660D02*
D03*
X4427725Y3822660D02*
D03*
Y3872660D02*
D03*
Y4272660D02*
D03*
X4377725Y3822660D02*
D03*
Y4272660D02*
D03*
X4327725Y3822660D02*
D03*
Y3872660D02*
D03*
Y4272660D02*
D03*
X4277725Y3822660D02*
D03*
Y3872660D02*
D03*
Y3922660D02*
D03*
Y4022660D02*
D03*
Y4072660D02*
D03*
Y4122660D02*
D03*
Y4172660D02*
D03*
Y4222660D02*
D03*
Y4272660D02*
D03*
X4227725Y3872660D02*
D03*
Y3922660D02*
D03*
Y3972660D02*
D03*
Y4022660D02*
D03*
Y4072660D02*
D03*
Y4122660D02*
D03*
Y4172660D02*
D03*
Y4222660D02*
D03*
D62*
X4800600Y2739740D02*
D03*
Y2624740D02*
D03*
X6197600Y2929540D02*
D03*
Y3044540D02*
D03*
X4660900Y2624740D02*
D03*
Y2739740D02*
D03*
X4330700Y2627280D02*
D03*
Y2742280D02*
D03*
X3835400Y2627280D02*
D03*
Y2742280D02*
D03*
X4191000Y2627280D02*
D03*
Y2742280D02*
D03*
X3695700Y2627280D02*
D03*
Y2742280D02*
D03*
D63*
X6863900Y3355340D02*
D03*
X6775900D02*
D03*
X6533700D02*
D03*
X6445700D02*
D03*
D64*
X5085080Y3597020D02*
D03*
Y3462020D02*
D03*
X3921760Y4164140D02*
D03*
Y4299140D02*
D03*
X3106420Y3204400D02*
D03*
Y3069400D02*
D03*
D65*
X6983200Y3355340D02*
D03*
X7061200D02*
D03*
D66*
X6654800Y3432440D02*
D03*
Y3354440D02*
D03*
X6324600Y3433340D02*
D03*
Y3355340D02*
D03*
X7233920Y3278240D02*
D03*
Y3356240D02*
D03*
D67*
X7492367Y3556633D02*
D03*
X7554593Y3494407D02*
D03*
D68*
X7492637Y3433717D02*
D03*
X7437483Y3378563D02*
D03*
D69*
X4079240Y3771160D02*
D03*
Y3869160D02*
D03*
D70*
X3561080Y3056700D02*
D03*
Y3191700D02*
D03*
%TF.MD5,272fa7cfa604c40a6309c7551444c053*%
M02*
