%TF.GenerationSoftware,Altium Limited,Altium Designer,22.8.2 (66)*%
G04 Layer_Color=65535*
%FSLAX45Y45*%
%MOMM*%
%TF.SameCoordinates,DE4C73A7-34E9-4613-BA68-141157798951*%
%TF.FilePolarity,Positive*%
%TF.FileFunction,Other,Top_Courtyard*%
%TF.Part,Single*%
G01*
G75*
%TA.AperFunction,NonConductor*%
%ADD53C,0.20000*%
D53*
X7240160Y4050300D02*
X7858160D01*
Y2582800D02*
Y4050300D01*
X7240160Y2582800D02*
X7858160D01*
X7240160D02*
Y4050300D01*
X4783700Y3700800D02*
Y3910800D01*
Y3700800D02*
X5033700D01*
Y3910800D01*
X4783700D02*
X5033700D01*
X5676200Y4577540D02*
X5906200D01*
X5676200Y4317540D02*
Y4577540D01*
Y4317540D02*
X5906200D01*
Y4577540D01*
X5869400Y2838860D02*
Y3048860D01*
Y2838860D02*
X6119400D01*
Y3048860D01*
X5869400D02*
X6119400D01*
X5174799Y3040724D02*
X5287936Y3153861D01*
X5174799Y3040724D02*
X5344504Y2871019D01*
X5457641Y2984156D01*
X5287936Y3153861D02*
X5457641Y2984156D01*
X3214780Y2983800D02*
Y3213800D01*
Y2983800D02*
X3424780D01*
Y3213800D01*
X3214780D02*
X3424780D01*
%TF.MD5,9f1aac6cbd5ce3fd00f50ecb71f0c4ef*%
M02*
