%TF.GenerationSoftware,Altium Limited,Altium Designer,22.8.2 (66)*%
G04 Layer_Color=0*
%FSLAX45Y45*%
%MOMM*%
%TF.SameCoordinates,DE4C73A7-34E9-4613-BA68-141157798951*%
%TF.FilePolarity,Positive*%
%TF.FileFunction,Plated,1,4,PTH,Drill*%
%TF.Part,Single*%
G01*
G75*
%TA.AperFunction,OtherDrill,Pad Free-2 (40.335mm,30.531mm)*%
%ADD78C,0.76200*%
%TA.AperFunction,OtherDrill,Pad Free-3 (42.393mm,30.531mm)*%
%ADD79C,0.76200*%
%TA.AperFunction,ComponentDrill*%
%ADD80C,1.01600*%
%TA.AperFunction,ViaDrill,NotFilled*%
%ADD81C,0.20000*%
D78*
X4033520Y3053080D02*
D03*
D79*
X4239260D02*
D03*
D80*
X2829560Y3143250D02*
D03*
Y4413250D02*
D03*
D81*
X7715250Y4762500D02*
D03*
X7620000Y4572000D02*
D03*
X7715250Y4381500D02*
D03*
X7620000Y4191000D02*
D03*
X7715250Y4000500D02*
D03*
X7620000Y3810000D02*
D03*
X7715250Y3238500D02*
D03*
X7620000Y3048000D02*
D03*
X7715250Y2857500D02*
D03*
X7620000Y2667000D02*
D03*
X7524750Y4762500D02*
D03*
X7429500Y4572000D02*
D03*
X7524750Y4381500D02*
D03*
X7429500Y4191000D02*
D03*
X7524750Y4000500D02*
D03*
Y3238500D02*
D03*
X7429500Y3048000D02*
D03*
X7334250Y4762500D02*
D03*
X7239000Y4572000D02*
D03*
X7334250Y4381500D02*
D03*
X7239000Y4191000D02*
D03*
X7334250Y4000500D02*
D03*
Y3238500D02*
D03*
X7239000Y3048000D02*
D03*
X7143750Y4762500D02*
D03*
X7048500Y4572000D02*
D03*
X7143750Y4381500D02*
D03*
X7048500Y4191000D02*
D03*
X7143750Y4000500D02*
D03*
X7048500Y3810000D02*
D03*
X7143750Y3619500D02*
D03*
X7048500Y3048000D02*
D03*
X7143750Y2857500D02*
D03*
X7048500Y2667000D02*
D03*
X6953250Y4762500D02*
D03*
X6858000Y4572000D02*
D03*
X6953250Y4381500D02*
D03*
X6858000Y4191000D02*
D03*
X6953250Y4000500D02*
D03*
X6858000Y3810000D02*
D03*
X6953250Y3619500D02*
D03*
Y3238500D02*
D03*
X6858000Y3048000D02*
D03*
X6953250Y2857500D02*
D03*
X6858000Y2667000D02*
D03*
X6762750Y4762500D02*
D03*
X6667500Y4572000D02*
D03*
X6762750Y4381500D02*
D03*
Y3619500D02*
D03*
X6667500Y3048000D02*
D03*
X6762750Y2857500D02*
D03*
X6667500Y2667000D02*
D03*
X6572250Y4762500D02*
D03*
X6477000Y4572000D02*
D03*
X6572250Y4381500D02*
D03*
X6477000Y4191000D02*
D03*
Y3810000D02*
D03*
X6572250Y3619500D02*
D03*
X6477000Y3048000D02*
D03*
X6572250Y2857500D02*
D03*
X6477000Y2667000D02*
D03*
X6381750Y4762500D02*
D03*
X6286500Y4572000D02*
D03*
X6381750Y4381500D02*
D03*
X6286500Y4191000D02*
D03*
X6381750Y4000500D02*
D03*
X6286500Y3810000D02*
D03*
X6381750Y2857500D02*
D03*
X6286500Y2667000D02*
D03*
X6191250Y4762500D02*
D03*
X6096000Y4572000D02*
D03*
X6191250Y4381500D02*
D03*
Y4000500D02*
D03*
X6096000Y2667000D02*
D03*
X6000750Y4762500D02*
D03*
X5905500Y4572000D02*
D03*
X6000750Y4381500D02*
D03*
Y4000500D02*
D03*
X5905500Y2667000D02*
D03*
X5810250Y4762500D02*
D03*
Y2857500D02*
D03*
X5715000Y2667000D02*
D03*
X5619750Y4762500D02*
D03*
X5524500Y4572000D02*
D03*
X5619750Y4381500D02*
D03*
Y2857500D02*
D03*
X5524500Y2667000D02*
D03*
X5429250Y4762500D02*
D03*
X5334000Y4572000D02*
D03*
X5429250Y4000500D02*
D03*
Y2857500D02*
D03*
X5334000Y2667000D02*
D03*
X5238750Y4762500D02*
D03*
X5143500Y4191000D02*
D03*
X5238750Y4000500D02*
D03*
Y2857500D02*
D03*
X5143500Y2667000D02*
D03*
X5048250Y4381500D02*
D03*
Y4000500D02*
D03*
X4953000Y3429000D02*
D03*
X5048250Y3238500D02*
D03*
Y2857500D02*
D03*
X4953000Y2667000D02*
D03*
X4762500Y4572000D02*
D03*
X4857750Y4381500D02*
D03*
Y4000500D02*
D03*
X4762500Y3429000D02*
D03*
X4857750Y3238500D02*
D03*
X4572000Y4572000D02*
D03*
X4667250Y4381500D02*
D03*
X4572000Y4191000D02*
D03*
Y3429000D02*
D03*
Y3048000D02*
D03*
Y2667000D02*
D03*
X4381500Y4572000D02*
D03*
X4476750Y4381500D02*
D03*
X4381500Y4191000D02*
D03*
X4476750Y4000500D02*
D03*
Y3238500D02*
D03*
X4191000Y4572000D02*
D03*
X4286250Y4381500D02*
D03*
X4191000Y3429000D02*
D03*
X4286250Y3238500D02*
D03*
X4000500Y4572000D02*
D03*
X4095750Y4381500D02*
D03*
Y4000500D02*
D03*
Y3619500D02*
D03*
X4000500Y3429000D02*
D03*
X4095750Y3238500D02*
D03*
Y2857500D02*
D03*
X4000500Y2667000D02*
D03*
X3810000Y4572000D02*
D03*
X3905250Y4381500D02*
D03*
X3810000Y3810000D02*
D03*
X3905250Y3619500D02*
D03*
Y3238500D02*
D03*
X3810000Y3048000D02*
D03*
X3714750Y4381500D02*
D03*
Y4000500D02*
D03*
X3619500Y3810000D02*
D03*
X3714750Y3238500D02*
D03*
Y2857500D02*
D03*
X3619500Y2667000D02*
D03*
X3524250Y4000500D02*
D03*
X3429000Y3810000D02*
D03*
Y3429000D02*
D03*
X3524250Y2857500D02*
D03*
X3429000Y2667000D02*
D03*
X3238500Y4191000D02*
D03*
X3333750Y4000500D02*
D03*
X3238500Y3810000D02*
D03*
X3333750Y3619500D02*
D03*
X3238500Y3429000D02*
D03*
X3333750Y2857500D02*
D03*
X3238500Y2667000D02*
D03*
X3048000Y4191000D02*
D03*
X3143250Y4000500D02*
D03*
X3048000Y3810000D02*
D03*
X3143250Y3619500D02*
D03*
X3048000Y3429000D02*
D03*
X3143250Y2857500D02*
D03*
X3048000Y2667000D02*
D03*
X2857500Y4572000D02*
D03*
X2952750Y4381500D02*
D03*
X2857500Y4191000D02*
D03*
X2952750Y4000500D02*
D03*
X2857500Y3810000D02*
D03*
X2952750Y3619500D02*
D03*
X2857500Y3429000D02*
D03*
X2952750Y2857500D02*
D03*
X2857500Y2667000D02*
D03*
X2762250Y4762500D02*
D03*
X2667000Y4572000D02*
D03*
Y4191000D02*
D03*
X2762250Y4000500D02*
D03*
X2667000Y3810000D02*
D03*
X2762250Y3619500D02*
D03*
X2667000Y3429000D02*
D03*
Y3048000D02*
D03*
X2762250Y2857500D02*
D03*
X2667000Y2667000D02*
D03*
X6624320Y3423920D02*
D03*
X6266180Y3291840D02*
D03*
X6451600Y3500120D02*
D03*
X6032500Y3096260D02*
D03*
X6322060Y3436620D02*
D03*
X7795260Y3685540D02*
D03*
X7739380Y3688080D02*
D03*
X7663180D02*
D03*
X7607300Y3655060D02*
D03*
X7797800Y3418840D02*
D03*
X7749540D02*
D03*
X7683500Y3423920D02*
D03*
X7612380Y3454400D02*
D03*
X7564120Y3403600D02*
D03*
X7508240Y3360420D02*
D03*
X7462520Y3307080D02*
D03*
X7378700Y3299460D02*
D03*
X7302500Y3294380D02*
D03*
X7152640Y3291840D02*
D03*
X7076440Y3286760D02*
D03*
X6997700Y3284220D02*
D03*
X6916420Y3286760D02*
D03*
X6830060D02*
D03*
X6738620D02*
D03*
X6652260D02*
D03*
X6573520Y3289300D02*
D03*
X6499860D02*
D03*
X6431280D02*
D03*
X6466840Y3421380D02*
D03*
X7576820Y3586480D02*
D03*
X7442200Y3477260D02*
D03*
X7386320Y3418840D02*
D03*
X7299960Y3413760D02*
D03*
X7198360Y3418840D02*
D03*
X7127240Y3413760D02*
D03*
X7048500Y3423920D02*
D03*
X6964680Y3426460D02*
D03*
X6891020Y3418840D02*
D03*
X6799580Y3421380D02*
D03*
X6715760Y3413760D02*
D03*
X6550660Y3421380D02*
D03*
X6395720Y3418840D02*
D03*
X5751200Y4447540D02*
D03*
X5831200D02*
D03*
X4219281Y3815421D02*
D03*
X4272740Y3764740D02*
D03*
X4330438Y3764339D02*
D03*
X4017408Y3890408D02*
D03*
X4700799Y3656690D02*
D03*
X4478020Y3761740D02*
D03*
X4577080Y3764280D02*
D03*
X5612001Y3919853D02*
D03*
X5638800Y3655060D02*
D03*
X5228909Y3598270D02*
D03*
X5838165Y3875018D02*
D03*
X5641340Y3550920D02*
D03*
X5542280Y3549100D02*
D03*
X5201920Y3418840D02*
D03*
X5742940Y3261360D02*
D03*
X5849620D02*
D03*
X5537200Y3352800D02*
D03*
X5638800Y3261360D02*
D03*
X5539740D02*
D03*
X5636260Y3352800D02*
D03*
X5745480Y3550920D02*
D03*
X5539740Y3454400D02*
D03*
X5201920Y3482340D02*
D03*
X5539740Y3655060D02*
D03*
X5849620D02*
D03*
X5742940D02*
D03*
X5800450Y3830320D02*
D03*
X5946140Y3655060D02*
D03*
X5676388Y3907970D02*
D03*
X5711190Y3828778D02*
D03*
X5750560Y3870960D02*
D03*
X5883550Y3832860D02*
D03*
X6324600Y3063240D02*
D03*
X6413500Y3558540D02*
D03*
X6286500Y2923540D02*
D03*
X5831840Y3053080D02*
D03*
X5946140Y3261360D02*
D03*
X6148850Y3617429D02*
D03*
X6115214Y3664311D02*
D03*
X5946140Y3454400D02*
D03*
X5781040Y3083560D02*
D03*
X6108700Y3144520D02*
D03*
X6113780Y3454400D02*
D03*
X5595620Y3088640D02*
D03*
X6116367Y3569742D02*
D03*
X5852160Y3550920D02*
D03*
X5653316Y3089310D02*
D03*
X5882000Y3089178D02*
D03*
X6113780Y3512100D02*
D03*
X5948680Y3550920D02*
D03*
X5847080Y3352800D02*
D03*
X5849620Y3454400D02*
D03*
X5943600Y3352800D02*
D03*
X5742940Y3454400D02*
D03*
X5638800D02*
D03*
X5740400Y3352800D02*
D03*
X5483860Y4234180D02*
D03*
X6098540Y4236720D02*
D03*
X5788660Y4241800D02*
D03*
X5956300Y4655820D02*
D03*
X4739640Y4023360D02*
D03*
X4823460Y4053840D02*
D03*
X4058920Y4056380D02*
D03*
X3832860Y2844800D02*
D03*
X4798060Y2834640D02*
D03*
X4328160Y2842260D02*
D03*
X2974340Y4749800D02*
D03*
X3553460Y3284220D02*
D03*
X3495040Y3299460D02*
D03*
X2959100Y4622800D02*
D03*
X3332480Y4500880D02*
D03*
X3360420Y4556760D02*
D03*
X3703320Y4659270D02*
D03*
X3774440Y4742370D02*
D03*
X3329531Y4611171D02*
D03*
X3520440Y4282440D02*
D03*
X3225800Y4257040D02*
D03*
%TF.MD5,fa49904fe42eee5c1d825936b82d17da*%
M02*
