%TF.GenerationSoftware,Altium Limited,Altium Designer,22.8.2 (66)*%
G04 Layer_Color=65535*
%FSLAX45Y45*%
%MOMM*%
%TF.SameCoordinates,DE4C73A7-34E9-4613-BA68-141157798951*%
%TF.FilePolarity,Positive*%
%TF.FileFunction,Legend,Top*%
%TF.Part,Single*%
G01*
G75*
%TA.AperFunction,NonConductor*%
%ADD47C,0.50800*%
%ADD52C,0.25000*%
%ADD53C,0.20000*%
%ADD54C,0.25400*%
G36*
X4198968Y3148188D02*
X4191356D01*
X4173593Y3195366D01*
X4182052D01*
X4192201Y3167078D01*
Y3166984D01*
X4192295Y3166890D01*
X4192389Y3166608D01*
X4192483Y3166326D01*
X4192765Y3165386D01*
X4193141Y3164164D01*
X4193611Y3162755D01*
X4194175Y3161157D01*
X4194645Y3159371D01*
X4195209Y3157586D01*
X4195303Y3157774D01*
X4195397Y3158244D01*
X4195679Y3158995D01*
X4195961Y3160123D01*
X4196431Y3161345D01*
X4196900Y3162943D01*
X4197558Y3164634D01*
X4198216Y3166514D01*
X4208648Y3195366D01*
X4216918D01*
X4198968Y3148188D01*
D02*
G37*
G36*
X4155831D02*
X4147843D01*
Y3199031D01*
X4147749Y3198937D01*
X4147279Y3198561D01*
X4146715Y3197997D01*
X4145775Y3197339D01*
X4144742Y3196493D01*
X4143426Y3195554D01*
X4141922Y3194520D01*
X4140230Y3193486D01*
X4140136D01*
X4140043Y3193392D01*
X4139479Y3193016D01*
X4138539Y3192546D01*
X4137411Y3191982D01*
X4136095Y3191325D01*
X4134686Y3190667D01*
X4133276Y3190009D01*
X4131866Y3189445D01*
Y3197151D01*
X4131960D01*
X4132148Y3197339D01*
X4132524Y3197433D01*
X4132994Y3197715D01*
X4133558Y3197997D01*
X4134216Y3198373D01*
X4135813Y3199313D01*
X4137693Y3200347D01*
X4139573Y3201662D01*
X4141546Y3203166D01*
X4143520Y3204764D01*
X4143614Y3204858D01*
X4143708Y3204952D01*
X4143990Y3205234D01*
X4144366Y3205516D01*
X4145211Y3206455D01*
X4146339Y3207583D01*
X4147467Y3208899D01*
X4148689Y3210403D01*
X4149722Y3211906D01*
X4150662Y3213504D01*
X4155831D01*
Y3148188D01*
D02*
G37*
G36*
X4071249Y3213128D02*
X4072847Y3213034D01*
X4074538Y3212940D01*
X4076136Y3212752D01*
X4077546Y3212564D01*
X4077734D01*
X4078392Y3212376D01*
X4079237Y3212188D01*
X4080365Y3211906D01*
X4081587Y3211436D01*
X4082903Y3210872D01*
X4084312Y3210215D01*
X4085534Y3209463D01*
X4085722Y3209369D01*
X4086098Y3209087D01*
X4086662Y3208523D01*
X4087414Y3207865D01*
X4088260Y3207019D01*
X4089105Y3205891D01*
X4090045Y3204670D01*
X4090797Y3203260D01*
X4090891Y3203072D01*
X4091079Y3202602D01*
X4091455Y3201756D01*
X4091831Y3200629D01*
X4092113Y3199313D01*
X4092489Y3197809D01*
X4092677Y3196118D01*
X4092771Y3194332D01*
Y3194238D01*
Y3193956D01*
Y3193580D01*
X4092677Y3192922D01*
X4092583Y3192264D01*
X4092489Y3191419D01*
X4092301Y3190479D01*
X4092113Y3189445D01*
X4091455Y3187283D01*
X4091079Y3186156D01*
X4090515Y3184934D01*
X4089857Y3183712D01*
X4089199Y3182584D01*
X4088354Y3181457D01*
X4087414Y3180329D01*
X4087320Y3180235D01*
X4087132Y3180047D01*
X4086850Y3179765D01*
X4086380Y3179483D01*
X4085816Y3179013D01*
X4085064Y3178543D01*
X4084124Y3177979D01*
X4083091Y3177510D01*
X4081869Y3176946D01*
X4080459Y3176382D01*
X4078956Y3175912D01*
X4077170Y3175536D01*
X4075290Y3175160D01*
X4073223Y3174878D01*
X4070873Y3174690D01*
X4068430Y3174596D01*
X4051795D01*
Y3148188D01*
X4043149D01*
Y3213222D01*
X4069839D01*
X4071249Y3213128D01*
D02*
G37*
G36*
X4034221Y3205516D02*
X4012794D01*
Y3148188D01*
X4004147D01*
Y3205516D01*
X3982720D01*
Y3213222D01*
X4034221D01*
Y3205516D01*
D02*
G37*
G36*
X4244360Y3213410D02*
X4245112Y3213316D01*
X4245958Y3213222D01*
X4246898Y3213128D01*
X4247838Y3212846D01*
X4250093Y3212282D01*
X4252349Y3211436D01*
X4253476Y3210872D01*
X4254604Y3210215D01*
X4255638Y3209369D01*
X4256672Y3208523D01*
X4256766Y3208429D01*
X4256860Y3208335D01*
X4257142Y3208053D01*
X4257518Y3207677D01*
X4257893Y3207113D01*
X4258363Y3206549D01*
X4259303Y3205140D01*
X4260243Y3203354D01*
X4261089Y3201286D01*
X4261747Y3198937D01*
X4261841Y3197715D01*
X4261935Y3196400D01*
Y3196306D01*
Y3196212D01*
Y3195648D01*
X4261841Y3194802D01*
X4261653Y3193768D01*
X4261371Y3192452D01*
X4260901Y3191137D01*
X4260337Y3189821D01*
X4259491Y3188505D01*
X4259397Y3188317D01*
X4259021Y3187941D01*
X4258457Y3187377D01*
X4257705Y3186626D01*
X4256672Y3185780D01*
X4255450Y3184934D01*
X4254040Y3184088D01*
X4252349Y3183336D01*
X4252443D01*
X4252631Y3183242D01*
X4252913Y3183148D01*
X4253288Y3182960D01*
X4254416Y3182490D01*
X4255732Y3181833D01*
X4257142Y3180893D01*
X4258645Y3179859D01*
X4260055Y3178543D01*
X4261371Y3177040D01*
Y3176946D01*
X4261465Y3176852D01*
X4261841Y3176288D01*
X4262404Y3175348D01*
X4262968Y3174126D01*
X4263532Y3172623D01*
X4264096Y3170837D01*
X4264472Y3168863D01*
X4264566Y3166702D01*
Y3166608D01*
Y3166326D01*
Y3165856D01*
X4264472Y3165292D01*
X4264378Y3164634D01*
X4264284Y3163788D01*
X4264096Y3162849D01*
X4263814Y3161815D01*
X4263156Y3159653D01*
X4262686Y3158432D01*
X4262029Y3157304D01*
X4261371Y3156082D01*
X4260619Y3154954D01*
X4259679Y3153827D01*
X4258645Y3152699D01*
X4258551Y3152605D01*
X4258363Y3152417D01*
X4258081Y3152135D01*
X4257611Y3151853D01*
X4256954Y3151383D01*
X4256296Y3150913D01*
X4255450Y3150443D01*
X4254510Y3149879D01*
X4253476Y3149316D01*
X4252255Y3148846D01*
X4250939Y3148376D01*
X4249623Y3147906D01*
X4248120Y3147624D01*
X4246522Y3147342D01*
X4244924Y3147154D01*
X4243139Y3147060D01*
X4242199D01*
X4241541Y3147154D01*
X4240695Y3147248D01*
X4239755Y3147342D01*
X4238722Y3147530D01*
X4237594Y3147812D01*
X4235056Y3148470D01*
X4233741Y3148940D01*
X4232519Y3149410D01*
X4231203Y3150067D01*
X4229887Y3150819D01*
X4228666Y3151665D01*
X4227538Y3152699D01*
X4227444Y3152793D01*
X4227256Y3152981D01*
X4226974Y3153263D01*
X4226598Y3153733D01*
X4226222Y3154296D01*
X4225658Y3154954D01*
X4225188Y3155706D01*
X4224625Y3156646D01*
X4224061Y3157586D01*
X4223591Y3158714D01*
X4222651Y3161063D01*
X4222275Y3162473D01*
X4221993Y3163882D01*
X4221805Y3165386D01*
X4221711Y3166890D01*
Y3166984D01*
Y3167172D01*
Y3167548D01*
X4221805Y3167924D01*
Y3168487D01*
X4221899Y3169145D01*
X4222087Y3170649D01*
X4222463Y3172341D01*
X4223027Y3174032D01*
X4223873Y3175818D01*
X4224906Y3177510D01*
Y3177603D01*
X4225094Y3177697D01*
X4225470Y3178167D01*
X4226222Y3178919D01*
X4227256Y3179859D01*
X4228572Y3180799D01*
X4230169Y3181833D01*
X4231955Y3182678D01*
X4234116Y3183336D01*
X4234023D01*
X4233929Y3183430D01*
X4233647Y3183524D01*
X4233271Y3183712D01*
X4232425Y3184088D01*
X4231297Y3184652D01*
X4230075Y3185404D01*
X4228854Y3186344D01*
X4227726Y3187377D01*
X4226692Y3188505D01*
X4226598Y3188693D01*
X4226316Y3189069D01*
X4225940Y3189821D01*
X4225564Y3190761D01*
X4225094Y3191982D01*
X4224718Y3193392D01*
X4224437Y3194990D01*
X4224343Y3196681D01*
Y3196775D01*
Y3196963D01*
Y3197339D01*
X4224437Y3197903D01*
X4224531Y3198467D01*
X4224625Y3199219D01*
X4225000Y3200817D01*
X4225564Y3202696D01*
X4226504Y3204670D01*
X4227068Y3205704D01*
X4227726Y3206737D01*
X4228572Y3207677D01*
X4229418Y3208617D01*
X4229511Y3208711D01*
X4229699Y3208805D01*
X4229981Y3209087D01*
X4230357Y3209369D01*
X4230827Y3209745D01*
X4231485Y3210121D01*
X4232237Y3210590D01*
X4232989Y3211060D01*
X4233929Y3211530D01*
X4234962Y3212000D01*
X4236090Y3212376D01*
X4237312Y3212752D01*
X4239943Y3213316D01*
X4241447Y3213410D01*
X4242951Y3213504D01*
X4243796D01*
X4244360Y3213410D01*
D02*
G37*
G36*
X4697354Y2911730D02*
X4698905D01*
X4700455Y2911589D01*
X4702288D01*
X4705953Y2911166D01*
X4709759Y2910743D01*
X4713284Y2910039D01*
X4714834Y2909616D01*
X4716244Y2909193D01*
X4716385D01*
X4716526Y2909052D01*
X4717372Y2908629D01*
X4718641Y2907924D01*
X4720332Y2907078D01*
X4722165Y2905669D01*
X4723997Y2904118D01*
X4725830Y2902144D01*
X4727522Y2899748D01*
Y2899607D01*
X4727663Y2899466D01*
X4727945Y2899043D01*
X4728227Y2898620D01*
X4728931Y2897210D01*
X4729777Y2895378D01*
X4730482Y2893122D01*
X4731187Y2890585D01*
X4731751Y2887624D01*
X4731892Y2884523D01*
Y2884382D01*
Y2884100D01*
Y2883395D01*
X4731751Y2882690D01*
Y2881704D01*
X4731610Y2880717D01*
X4731046Y2878179D01*
X4730341Y2875219D01*
X4729213Y2872259D01*
X4727522Y2869157D01*
X4726535Y2867748D01*
X4725407Y2866338D01*
X4725266Y2866197D01*
X4725125Y2866056D01*
X4724702Y2865633D01*
X4724138Y2865210D01*
X4723574Y2864646D01*
X4722729Y2863941D01*
X4721742Y2863237D01*
X4720614Y2862532D01*
X4719345Y2861686D01*
X4717795Y2860981D01*
X4716244Y2860276D01*
X4714552Y2859571D01*
X4712579Y2858867D01*
X4710605Y2858303D01*
X4708491Y2857739D01*
X4706094Y2857316D01*
X4706235D01*
X4706376Y2857175D01*
X4707222Y2856611D01*
X4708350Y2855906D01*
X4709759Y2854919D01*
X4711451Y2853651D01*
X4713143Y2852382D01*
X4714975Y2850831D01*
X4716526Y2849140D01*
X4716667Y2848999D01*
X4717372Y2848294D01*
X4718218Y2847166D01*
X4719486Y2845474D01*
X4721178Y2843360D01*
X4722024Y2841950D01*
X4723011Y2840540D01*
X4724138Y2838990D01*
X4725266Y2837298D01*
X4726535Y2835325D01*
X4727804Y2833351D01*
X4739786Y2814320D01*
X4716103D01*
X4702006Y2835465D01*
X4701865Y2835606D01*
X4701724Y2836029D01*
X4701301Y2836593D01*
X4700737Y2837298D01*
X4700173Y2838144D01*
X4699469Y2839272D01*
X4697918Y2841527D01*
X4696085Y2844065D01*
X4694394Y2846320D01*
X4692843Y2848435D01*
X4692138Y2849140D01*
X4691574Y2849844D01*
X4691433Y2849985D01*
X4691151Y2850267D01*
X4690588Y2850831D01*
X4689883Y2851536D01*
X4688896Y2852100D01*
X4687909Y2852805D01*
X4686781Y2853369D01*
X4685654Y2853933D01*
X4685513D01*
X4685090Y2854074D01*
X4684385Y2854355D01*
X4683257Y2854496D01*
X4681847Y2854778D01*
X4680156Y2854919D01*
X4678182Y2855060D01*
X4671839D01*
Y2814320D01*
X4652103D01*
Y2911871D01*
X4696085D01*
X4697354Y2911730D01*
D02*
G37*
G36*
X4598957D02*
X4600508D01*
X4602058Y2911589D01*
X4603891D01*
X4607556Y2911166D01*
X4611362Y2910743D01*
X4614887Y2910039D01*
X4616437Y2909616D01*
X4617847Y2909193D01*
X4617988D01*
X4618129Y2909052D01*
X4618975Y2908629D01*
X4620243Y2907924D01*
X4621935Y2907078D01*
X4623768Y2905669D01*
X4625600Y2904118D01*
X4627433Y2902144D01*
X4629125Y2899748D01*
Y2899607D01*
X4629266Y2899466D01*
X4629548Y2899043D01*
X4629829Y2898620D01*
X4630534Y2897210D01*
X4631380Y2895378D01*
X4632085Y2893122D01*
X4632790Y2890585D01*
X4633354Y2887624D01*
X4633495Y2884523D01*
Y2884382D01*
Y2884100D01*
Y2883395D01*
X4633354Y2882690D01*
Y2881704D01*
X4633213Y2880717D01*
X4632649Y2878179D01*
X4631944Y2875219D01*
X4630816Y2872259D01*
X4629125Y2869157D01*
X4628138Y2867748D01*
X4627010Y2866338D01*
X4626869Y2866197D01*
X4626728Y2866056D01*
X4626305Y2865633D01*
X4625741Y2865210D01*
X4625177Y2864646D01*
X4624332Y2863941D01*
X4623345Y2863237D01*
X4622217Y2862532D01*
X4620948Y2861686D01*
X4619398Y2860981D01*
X4617847Y2860276D01*
X4616155Y2859571D01*
X4614182Y2858867D01*
X4612208Y2858303D01*
X4610094Y2857739D01*
X4607697Y2857316D01*
X4607838D01*
X4607979Y2857175D01*
X4608825Y2856611D01*
X4609953Y2855906D01*
X4611362Y2854919D01*
X4613054Y2853651D01*
X4614746Y2852382D01*
X4616578Y2850831D01*
X4618129Y2849140D01*
X4618270Y2848999D01*
X4618975Y2848294D01*
X4619821Y2847166D01*
X4621089Y2845474D01*
X4622781Y2843360D01*
X4623627Y2841950D01*
X4624614Y2840540D01*
X4625741Y2838990D01*
X4626869Y2837298D01*
X4628138Y2835325D01*
X4629407Y2833351D01*
X4641389Y2814320D01*
X4617706D01*
X4603609Y2835465D01*
X4603468Y2835606D01*
X4603327Y2836029D01*
X4602904Y2836593D01*
X4602340Y2837298D01*
X4601776Y2838144D01*
X4601072Y2839272D01*
X4599521Y2841527D01*
X4597688Y2844065D01*
X4595997Y2846320D01*
X4594446Y2848435D01*
X4593741Y2849140D01*
X4593177Y2849844D01*
X4593036Y2849985D01*
X4592754Y2850267D01*
X4592190Y2850831D01*
X4591486Y2851536D01*
X4590499Y2852100D01*
X4589512Y2852805D01*
X4588384Y2853369D01*
X4587257Y2853933D01*
X4587116D01*
X4586693Y2854074D01*
X4585988Y2854355D01*
X4584860Y2854496D01*
X4583450Y2854778D01*
X4581759Y2854919D01*
X4579785Y2855060D01*
X4573441D01*
Y2814320D01*
X4553706D01*
Y2911871D01*
X4597688D01*
X4598957Y2911730D01*
D02*
G37*
G36*
X4535098Y2895378D02*
X4482516D01*
Y2873809D01*
X4531432D01*
Y2857316D01*
X4482516D01*
Y2830813D01*
X4536930D01*
Y2814320D01*
X4462780D01*
Y2911871D01*
X4535098D01*
Y2895378D01*
D02*
G37*
G36*
X4156415Y2915255D02*
X4157966Y2915114D01*
X4159658Y2914832D01*
X4161631Y2914550D01*
X4163746Y2914127D01*
X4166001Y2913563D01*
X4168398Y2912858D01*
X4170794Y2912012D01*
X4173332Y2910884D01*
X4175728Y2909757D01*
X4177984Y2908347D01*
X4180380Y2906655D01*
X4182495Y2904823D01*
X4182636D01*
X4182777Y2904541D01*
X4183200Y2904118D01*
X4183623Y2903695D01*
X4184186Y2902990D01*
X4184750Y2902144D01*
X4186301Y2900171D01*
X4187852Y2897633D01*
X4189543Y2894532D01*
X4191094Y2891008D01*
X4192504Y2886920D01*
X4173050Y2882268D01*
Y2882409D01*
X4172909Y2882549D01*
Y2882972D01*
X4172627Y2883536D01*
X4172204Y2884805D01*
X4171499Y2886497D01*
X4170512Y2888470D01*
X4169244Y2890444D01*
X4167552Y2892417D01*
X4165719Y2894109D01*
X4165437Y2894250D01*
X4164733Y2894814D01*
X4163605Y2895519D01*
X4162054Y2896365D01*
X4160081Y2897210D01*
X4157825Y2897915D01*
X4155288Y2898479D01*
X4152468Y2898620D01*
X4151481D01*
X4150636Y2898479D01*
X4149790Y2898338D01*
X4148662Y2898197D01*
X4146266Y2897633D01*
X4143446Y2896646D01*
X4140486Y2895237D01*
X4138935Y2894391D01*
X4137525Y2893404D01*
X4136116Y2892135D01*
X4134847Y2890726D01*
Y2890585D01*
X4134565Y2890303D01*
X4134283Y2889880D01*
X4133860Y2889175D01*
X4133296Y2888329D01*
X4132732Y2887342D01*
X4132169Y2886074D01*
X4131605Y2884664D01*
X4130900Y2882972D01*
X4130336Y2881140D01*
X4129772Y2879025D01*
X4129208Y2876770D01*
X4128785Y2874232D01*
X4128503Y2871554D01*
X4128362Y2868593D01*
X4128221Y2865351D01*
Y2865210D01*
Y2864505D01*
Y2863519D01*
X4128362Y2862391D01*
Y2860840D01*
X4128644Y2859007D01*
X4128785Y2857175D01*
X4129067Y2855060D01*
X4129913Y2850690D01*
X4131041Y2846320D01*
X4131746Y2844206D01*
X4132732Y2842232D01*
X4133719Y2840399D01*
X4134847Y2838849D01*
X4134988Y2838708D01*
X4135129Y2838567D01*
X4135552Y2838144D01*
X4136116Y2837580D01*
X4137525Y2836452D01*
X4139499Y2835043D01*
X4141895Y2833492D01*
X4144856Y2832364D01*
X4148239Y2831377D01*
X4150072Y2831236D01*
X4152045Y2831095D01*
X4152750D01*
X4153314Y2831236D01*
X4154865Y2831377D01*
X4156697Y2831659D01*
X4158671Y2832364D01*
X4160926Y2833210D01*
X4163182Y2834338D01*
X4165437Y2836029D01*
X4165719Y2836311D01*
X4166424Y2837016D01*
X4167411Y2838144D01*
X4168539Y2839836D01*
X4169948Y2842091D01*
X4171217Y2844770D01*
X4172486Y2848012D01*
X4173614Y2851818D01*
X4192786Y2845897D01*
Y2845756D01*
X4192645Y2845192D01*
X4192363Y2844347D01*
X4191940Y2843219D01*
X4191376Y2841950D01*
X4190812Y2840399D01*
X4190107Y2838708D01*
X4189261Y2836875D01*
X4187288Y2833069D01*
X4184750Y2829122D01*
X4181649Y2825316D01*
X4179957Y2823624D01*
X4178125Y2822073D01*
X4177984Y2821932D01*
X4177702Y2821791D01*
X4177138Y2821368D01*
X4176292Y2820805D01*
X4175305Y2820241D01*
X4174037Y2819677D01*
X4172627Y2818972D01*
X4171076Y2818267D01*
X4169244Y2817421D01*
X4167270Y2816716D01*
X4165156Y2816153D01*
X4162900Y2815589D01*
X4160503Y2815025D01*
X4157825Y2814602D01*
X4155147Y2814461D01*
X4152186Y2814320D01*
X4151340D01*
X4150354Y2814461D01*
X4148944Y2814602D01*
X4147393Y2814743D01*
X4145420Y2815025D01*
X4143305Y2815448D01*
X4140909Y2816012D01*
X4138512Y2816716D01*
X4135975Y2817562D01*
X4133296Y2818690D01*
X4130618Y2819959D01*
X4127939Y2821368D01*
X4125261Y2823201D01*
X4122724Y2825175D01*
X4120327Y2827571D01*
X4120186Y2827712D01*
X4119763Y2828135D01*
X4119199Y2828981D01*
X4118353Y2829968D01*
X4117508Y2831377D01*
X4116380Y2832928D01*
X4115252Y2834902D01*
X4114124Y2837157D01*
X4112997Y2839554D01*
X4111869Y2842232D01*
X4110741Y2845333D01*
X4109895Y2848576D01*
X4109049Y2851959D01*
X4108486Y2855765D01*
X4108063Y2859712D01*
X4107922Y2863941D01*
Y2864082D01*
Y2864223D01*
Y2865069D01*
X4108063Y2866338D01*
Y2868030D01*
X4108345Y2870003D01*
X4108627Y2872400D01*
X4108908Y2874937D01*
X4109472Y2877897D01*
X4110177Y2880858D01*
X4111023Y2883959D01*
X4112010Y2887061D01*
X4113279Y2890303D01*
X4114688Y2893404D01*
X4116380Y2896365D01*
X4118212Y2899184D01*
X4120468Y2901862D01*
X4120609Y2902003D01*
X4121032Y2902426D01*
X4121737Y2903131D01*
X4122724Y2903977D01*
X4123992Y2904964D01*
X4125543Y2906091D01*
X4127235Y2907360D01*
X4129349Y2908629D01*
X4131605Y2909898D01*
X4134001Y2911166D01*
X4136821Y2912294D01*
X4139640Y2913281D01*
X4142882Y2914127D01*
X4146125Y2914832D01*
X4149790Y2915255D01*
X4153455Y2915395D01*
X4155147D01*
X4156415Y2915255D01*
D02*
G37*
G36*
X4280328Y2897069D02*
X4251570D01*
Y2816012D01*
X4231834D01*
Y2897069D01*
X4202935D01*
Y2913563D01*
X4280328D01*
Y2897069D01*
D02*
G37*
G36*
X4100873Y2816012D02*
X4079587D01*
X4071129Y2838144D01*
X4031939D01*
X4023904Y2816012D01*
X4003040D01*
X4040820Y2913563D01*
X4061684D01*
X4100873Y2816012D01*
D02*
G37*
G36*
X3743884Y2911730D02*
X3747549D01*
X3751496Y2911448D01*
X3755443Y2911166D01*
X3757135Y2911025D01*
X3758827Y2910884D01*
X3760236Y2910603D01*
X3761364Y2910321D01*
X3761505D01*
X3761787Y2910180D01*
X3762210Y2910039D01*
X3762774Y2909898D01*
X3764324Y2909193D01*
X3766298Y2908347D01*
X3768413Y2907078D01*
X3770809Y2905387D01*
X3773065Y2903272D01*
X3775320Y2900735D01*
Y2900594D01*
X3775602Y2900453D01*
X3775884Y2900030D01*
X3776166Y2899466D01*
X3776730Y2898620D01*
X3777153Y2897774D01*
X3777717Y2896787D01*
X3778280Y2895660D01*
X3779267Y2892840D01*
X3780254Y2889739D01*
X3780818Y2885933D01*
X3781100Y2881845D01*
Y2881704D01*
Y2881422D01*
Y2880999D01*
Y2880294D01*
X3780959Y2879589D01*
Y2878602D01*
X3780677Y2876629D01*
X3780254Y2874232D01*
X3779690Y2871554D01*
X3778844Y2869016D01*
X3777717Y2866620D01*
X3777576Y2866338D01*
X3777153Y2865633D01*
X3776448Y2864505D01*
X3775461Y2863096D01*
X3774333Y2861686D01*
X3772783Y2859994D01*
X3771232Y2858444D01*
X3769399Y2857034D01*
X3769117Y2856893D01*
X3768554Y2856470D01*
X3767567Y2855906D01*
X3766298Y2855201D01*
X3764747Y2854355D01*
X3763056Y2853651D01*
X3761223Y2852946D01*
X3759250Y2852382D01*
X3758968D01*
X3758545Y2852241D01*
X3757981D01*
X3757276Y2852100D01*
X3756289Y2851959D01*
X3755302Y2851818D01*
X3754034D01*
X3752765Y2851677D01*
X3751214Y2851536D01*
X3749523Y2851395D01*
X3747690Y2851254D01*
X3745716D01*
X3743602Y2851113D01*
X3726122D01*
Y2814320D01*
X3706386D01*
Y2911871D01*
X3742333D01*
X3743884Y2911730D01*
D02*
G37*
G36*
X3687496Y2814320D02*
X3667760D01*
Y2911871D01*
X3687496D01*
Y2814320D01*
D02*
G37*
%LPC*%
G36*
X4070403Y3205516D02*
X4051795D01*
Y3182303D01*
X4069276D01*
X4069933Y3182396D01*
X4070591D01*
X4071343Y3182490D01*
X4073129Y3182678D01*
X4075102Y3183054D01*
X4077076Y3183618D01*
X4078862Y3184370D01*
X4079707Y3184840D01*
X4080365Y3185404D01*
X4080553Y3185592D01*
X4080929Y3185968D01*
X4081493Y3186720D01*
X4082151Y3187659D01*
X4082809Y3188881D01*
X4083373Y3190385D01*
X4083749Y3192076D01*
X4083936Y3194050D01*
Y3194144D01*
Y3194238D01*
Y3194708D01*
X4083842Y3195554D01*
X4083655Y3196493D01*
X4083467Y3197527D01*
X4083091Y3198749D01*
X4082527Y3199877D01*
X4081869Y3201005D01*
X4081775Y3201098D01*
X4081493Y3201474D01*
X4081023Y3201944D01*
X4080459Y3202602D01*
X4079613Y3203260D01*
X4078674Y3203824D01*
X4077640Y3204388D01*
X4076418Y3204858D01*
X4076324D01*
X4075948Y3204952D01*
X4075384Y3205046D01*
X4074632Y3205234D01*
X4073505Y3205328D01*
X4072095Y3205422D01*
X4070403Y3205516D01*
D02*
G37*
G36*
X4243139Y3206925D02*
X4242387D01*
X4241541Y3206737D01*
X4240413Y3206549D01*
X4239191Y3206173D01*
X4237876Y3205704D01*
X4236654Y3204952D01*
X4235432Y3203918D01*
X4235338Y3203824D01*
X4234962Y3203448D01*
X4234492Y3202790D01*
X4234023Y3201944D01*
X4233459Y3200911D01*
X4232989Y3199689D01*
X4232613Y3198373D01*
X4232519Y3196869D01*
Y3196775D01*
Y3196681D01*
X4232613Y3196118D01*
X4232707Y3195272D01*
X4232895Y3194238D01*
X4233271Y3193016D01*
X4233741Y3191794D01*
X4234492Y3190479D01*
X4235432Y3189351D01*
X4235526Y3189257D01*
X4235996Y3188881D01*
X4236654Y3188411D01*
X4237500Y3187941D01*
X4238628Y3187377D01*
X4239943Y3186908D01*
X4241447Y3186532D01*
X4243139Y3186438D01*
X4243327D01*
X4243890Y3186532D01*
X4244736Y3186626D01*
X4245864Y3186814D01*
X4247086Y3187189D01*
X4248307Y3187659D01*
X4249623Y3188411D01*
X4250751Y3189351D01*
X4250845Y3189445D01*
X4251221Y3189915D01*
X4251691Y3190479D01*
X4252255Y3191325D01*
X4252819Y3192358D01*
X4253288Y3193580D01*
X4253664Y3194990D01*
X4253758Y3196493D01*
Y3196587D01*
Y3196681D01*
Y3197245D01*
X4253570Y3198091D01*
X4253382Y3199125D01*
X4253006Y3200253D01*
X4252443Y3201474D01*
X4251691Y3202696D01*
X4250657Y3203918D01*
X4250563Y3204012D01*
X4250093Y3204388D01*
X4249435Y3204858D01*
X4248589Y3205422D01*
X4247462Y3205985D01*
X4246240Y3206455D01*
X4244736Y3206831D01*
X4243139Y3206925D01*
D02*
G37*
G36*
X4242857Y3179953D02*
X4242293D01*
X4241917Y3179859D01*
X4240883Y3179765D01*
X4239567Y3179483D01*
X4238064Y3179013D01*
X4236560Y3178355D01*
X4234962Y3177416D01*
X4233553Y3176194D01*
X4233365Y3176006D01*
X4232989Y3175536D01*
X4232425Y3174690D01*
X4231767Y3173656D01*
X4231015Y3172247D01*
X4230451Y3170649D01*
X4230075Y3168863D01*
X4229887Y3166890D01*
Y3166702D01*
Y3166326D01*
X4229981Y3165668D01*
X4230075Y3164822D01*
X4230263Y3163788D01*
X4230545Y3162661D01*
X4230921Y3161533D01*
X4231391Y3160311D01*
X4231485Y3160217D01*
X4231673Y3159747D01*
X4232049Y3159183D01*
X4232613Y3158526D01*
X4233271Y3157680D01*
X4234116Y3156834D01*
X4235056Y3156082D01*
X4236184Y3155330D01*
X4236372Y3155236D01*
X4236748Y3155048D01*
X4237406Y3154766D01*
X4238252Y3154484D01*
X4239285Y3154202D01*
X4240507Y3153921D01*
X4241823Y3153733D01*
X4243139Y3153639D01*
X4243702D01*
X4244078Y3153733D01*
X4245206Y3153827D01*
X4246522Y3154108D01*
X4248026Y3154578D01*
X4249623Y3155142D01*
X4251127Y3156082D01*
X4252631Y3157304D01*
X4252819Y3157492D01*
X4253194Y3157962D01*
X4253852Y3158807D01*
X4254510Y3159841D01*
X4255168Y3161157D01*
X4255826Y3162755D01*
X4256202Y3164634D01*
X4256390Y3166608D01*
Y3166702D01*
Y3166890D01*
Y3167172D01*
X4256296Y3167548D01*
X4256202Y3168581D01*
X4255920Y3169991D01*
X4255450Y3171401D01*
X4254792Y3172998D01*
X4253852Y3174596D01*
X4252537Y3176100D01*
X4252349Y3176288D01*
X4251879Y3176664D01*
X4251033Y3177322D01*
X4249905Y3178073D01*
X4248495Y3178731D01*
X4246804Y3179389D01*
X4244924Y3179765D01*
X4242857Y3179953D01*
D02*
G37*
G36*
X4694394Y2895378D02*
X4671839D01*
Y2870567D01*
X4691010D01*
X4693830Y2870708D01*
X4696790Y2870849D01*
X4699751Y2870990D01*
X4701019Y2871131D01*
X4702147Y2871272D01*
X4703275Y2871554D01*
X4703980Y2871695D01*
X4704121D01*
X4704544Y2871977D01*
X4705248Y2872259D01*
X4705953Y2872682D01*
X4707786Y2873950D01*
X4708632Y2874796D01*
X4709477Y2875783D01*
X4709618Y2875924D01*
X4709759Y2876347D01*
X4710182Y2876911D01*
X4710605Y2877756D01*
X4710887Y2878884D01*
X4711310Y2880153D01*
X4711451Y2881563D01*
X4711592Y2883113D01*
Y2883395D01*
Y2883959D01*
X4711451Y2884805D01*
X4711310Y2885933D01*
X4710887Y2887201D01*
X4710464Y2888470D01*
X4709759Y2889880D01*
X4708914Y2891008D01*
X4708773Y2891149D01*
X4708491Y2891572D01*
X4707786Y2891994D01*
X4706940Y2892699D01*
X4705953Y2893404D01*
X4704685Y2893968D01*
X4703134Y2894532D01*
X4701442Y2894955D01*
X4701301D01*
X4700878Y2895096D01*
X4700033D01*
X4698764Y2895237D01*
X4695662D01*
X4694394Y2895378D01*
D02*
G37*
G36*
X4595997D02*
X4573441D01*
Y2870567D01*
X4592613D01*
X4595433Y2870708D01*
X4598393Y2870849D01*
X4601354Y2870990D01*
X4602622Y2871131D01*
X4603750Y2871272D01*
X4604878Y2871554D01*
X4605583Y2871695D01*
X4605724D01*
X4606146Y2871977D01*
X4606851Y2872259D01*
X4607556Y2872682D01*
X4609389Y2873950D01*
X4610235Y2874796D01*
X4611080Y2875783D01*
X4611221Y2875924D01*
X4611362Y2876347D01*
X4611785Y2876911D01*
X4612208Y2877756D01*
X4612490Y2878884D01*
X4612913Y2880153D01*
X4613054Y2881563D01*
X4613195Y2883113D01*
Y2883395D01*
Y2883959D01*
X4613054Y2884805D01*
X4612913Y2885933D01*
X4612490Y2887201D01*
X4612067Y2888470D01*
X4611362Y2889880D01*
X4610517Y2891008D01*
X4610376Y2891149D01*
X4610094Y2891572D01*
X4609389Y2891994D01*
X4608543Y2892699D01*
X4607556Y2893404D01*
X4606287Y2893968D01*
X4604737Y2894532D01*
X4603045Y2894955D01*
X4602904D01*
X4602481Y2895096D01*
X4601635D01*
X4600367Y2895237D01*
X4597265D01*
X4595997Y2895378D01*
D02*
G37*
G36*
X4051111Y2890867D02*
X4037860Y2854637D01*
X4064785D01*
X4051111Y2890867D01*
D02*
G37*
G36*
X3740782Y2895378D02*
X3726122D01*
Y2867607D01*
X3739655D01*
X3740641Y2867748D01*
X3743179D01*
X3745716Y2867889D01*
X3748254Y2868171D01*
X3750509Y2868593D01*
X3751496Y2868734D01*
X3752342Y2869016D01*
X3752483Y2869157D01*
X3753047Y2869298D01*
X3753752Y2869721D01*
X3754598Y2870144D01*
X3755584Y2870849D01*
X3756571Y2871695D01*
X3757699Y2872682D01*
X3758545Y2873809D01*
X3758686Y2873950D01*
X3758968Y2874373D01*
X3759250Y2875078D01*
X3759672Y2876065D01*
X3760095Y2877193D01*
X3760518Y2878461D01*
X3760659Y2879871D01*
X3760800Y2881422D01*
Y2881704D01*
Y2882268D01*
X3760659Y2883254D01*
X3760377Y2884523D01*
X3759954Y2885933D01*
X3759390Y2887483D01*
X3758686Y2888893D01*
X3757558Y2890303D01*
X3757417Y2890444D01*
X3756994Y2890867D01*
X3756289Y2891431D01*
X3755443Y2892135D01*
X3754316Y2892981D01*
X3752906Y2893686D01*
X3751355Y2894250D01*
X3749664Y2894673D01*
X3749523D01*
X3748959Y2894814D01*
X3747972Y2894955D01*
X3746562Y2895096D01*
X3744730D01*
X3743461Y2895237D01*
X3742192D01*
X3740782Y2895378D01*
D02*
G37*
%LPD*%
D47*
X3193120Y4093210D02*
G03*
X3193120Y4093210I-38100J0D01*
G01*
D52*
X7898160Y3775300D02*
G03*
X7898160Y3775300I-12500J0D01*
G01*
X5963720Y4554220D02*
G03*
X5963720Y4554220I-12500J0D01*
G01*
X5412540Y3114040D02*
G03*
X5412540Y3114040I-12500J0D01*
G01*
X3149400Y3317240D02*
G03*
X3149400Y3317240I-12500J0D01*
G01*
D53*
X4155280Y4356100D02*
G03*
X4155280Y4356100I-10000J0D01*
G01*
D54*
X4173220Y4328160D02*
X4236720D01*
X4170680Y4259580D02*
Y4328160D01*
%TF.MD5,9928a07ced5a7eddabea5ea0bf015a7c*%
M02*
