%TF.GenerationSoftware,Altium Limited,Altium Designer,22.8.2 (66)*%
G04 Layer_Color=128*
%FSLAX45Y45*%
%MOMM*%
%TF.SameCoordinates,DE4C73A7-34E9-4613-BA68-141157798951*%
%TF.FilePolarity,Positive*%
%TF.FileFunction,Drillmap*%
%TF.Part,Single*%
G01*
G75*
%TA.AperFunction,NonConductor*%
%ADD74C,0.12700*%
D74*
X3995420Y3053080D02*
X4071620D01*
X4033520Y3014980D02*
Y3091180D01*
X4201160Y3053080D02*
X4277360D01*
X4239260Y3014980D02*
Y3091180D01*
X3294380Y4699140D02*
X3375660D01*
X3335020Y4658500D02*
Y4739780D01*
X3294380Y4399140D02*
X3375660D01*
X3335020Y4358500D02*
Y4439780D01*
X2778760Y3143250D02*
X2880360D01*
X2829560Y3092450D02*
Y3194050D01*
X2778760Y4413250D02*
X2880360D01*
X2829560Y4362450D02*
Y4464050D01*
X3520440Y3543300D02*
X3865880D01*
X3693160Y3370580D02*
Y3716020D01*
X6517640Y4013200D02*
X6863080D01*
X6690360Y3840480D02*
Y4185920D01*
X7705250Y4762500D02*
X7725250D01*
X7715250Y4752500D02*
Y4772500D01*
X7610000Y4572000D02*
X7630000D01*
X7620000Y4562000D02*
Y4582000D01*
X7705250Y4381500D02*
X7725250D01*
X7715250Y4371500D02*
Y4391500D01*
X7610000Y4191000D02*
X7630000D01*
X7620000Y4181000D02*
Y4201000D01*
X7705250Y4000500D02*
X7725250D01*
X7715250Y3990500D02*
Y4010500D01*
X7610000Y3810000D02*
X7630000D01*
X7620000Y3800000D02*
Y3820000D01*
X7705250Y3238500D02*
X7725250D01*
X7715250Y3228500D02*
Y3248500D01*
X7610000Y3048000D02*
X7630000D01*
X7620000Y3038000D02*
Y3058000D01*
X7705250Y2857500D02*
X7725250D01*
X7715250Y2847500D02*
Y2867500D01*
X7610000Y2667000D02*
X7630000D01*
X7620000Y2657000D02*
Y2677000D01*
X7514750Y4762500D02*
X7534750D01*
X7524750Y4752500D02*
Y4772500D01*
X7419500Y4572000D02*
X7439500D01*
X7429500Y4562000D02*
Y4582000D01*
X7514750Y4381500D02*
X7534750D01*
X7524750Y4371500D02*
Y4391500D01*
X7419500Y4191000D02*
X7439500D01*
X7429500Y4181000D02*
Y4201000D01*
X7514750Y4000500D02*
X7534750D01*
X7524750Y3990500D02*
Y4010500D01*
X7514750Y3238500D02*
X7534750D01*
X7524750Y3228500D02*
Y3248500D01*
X7419500Y3048000D02*
X7439500D01*
X7429500Y3038000D02*
Y3058000D01*
X7324250Y4762500D02*
X7344250D01*
X7334250Y4752500D02*
Y4772500D01*
X7229000Y4572000D02*
X7249000D01*
X7239000Y4562000D02*
Y4582000D01*
X7324250Y4381500D02*
X7344250D01*
X7334250Y4371500D02*
Y4391500D01*
X7229000Y4191000D02*
X7249000D01*
X7239000Y4181000D02*
Y4201000D01*
X7324250Y4000500D02*
X7344250D01*
X7334250Y3990500D02*
Y4010500D01*
X7324250Y3238500D02*
X7344250D01*
X7334250Y3228500D02*
Y3248500D01*
X7229000Y3048000D02*
X7249000D01*
X7239000Y3038000D02*
Y3058000D01*
X7133750Y4762500D02*
X7153750D01*
X7143750Y4752500D02*
Y4772500D01*
X7038500Y4572000D02*
X7058500D01*
X7048500Y4562000D02*
Y4582000D01*
X7133750Y4381500D02*
X7153750D01*
X7143750Y4371500D02*
Y4391500D01*
X7038500Y4191000D02*
X7058500D01*
X7048500Y4181000D02*
Y4201000D01*
X7133750Y4000500D02*
X7153750D01*
X7143750Y3990500D02*
Y4010500D01*
X7038500Y3810000D02*
X7058500D01*
X7048500Y3800000D02*
Y3820000D01*
X7133750Y3619500D02*
X7153750D01*
X7143750Y3609500D02*
Y3629500D01*
X7038500Y3048000D02*
X7058500D01*
X7048500Y3038000D02*
Y3058000D01*
X7133750Y2857500D02*
X7153750D01*
X7143750Y2847500D02*
Y2867500D01*
X7038500Y2667000D02*
X7058500D01*
X7048500Y2657000D02*
Y2677000D01*
X6943250Y4762500D02*
X6963250D01*
X6953250Y4752500D02*
Y4772500D01*
X6848000Y4572000D02*
X6868000D01*
X6858000Y4562000D02*
Y4582000D01*
X6943250Y4381500D02*
X6963250D01*
X6953250Y4371500D02*
Y4391500D01*
X6848000Y4191000D02*
X6868000D01*
X6858000Y4181000D02*
Y4201000D01*
X6943250Y4000500D02*
X6963250D01*
X6953250Y3990500D02*
Y4010500D01*
X6848000Y3810000D02*
X6868000D01*
X6858000Y3800000D02*
Y3820000D01*
X6943250Y3619500D02*
X6963250D01*
X6953250Y3609500D02*
Y3629500D01*
X6943250Y3238500D02*
X6963250D01*
X6953250Y3228500D02*
Y3248500D01*
X6848000Y3048000D02*
X6868000D01*
X6858000Y3038000D02*
Y3058000D01*
X6943250Y2857500D02*
X6963250D01*
X6953250Y2847500D02*
Y2867500D01*
X6848000Y2667000D02*
X6868000D01*
X6858000Y2657000D02*
Y2677000D01*
X6752750Y4762500D02*
X6772750D01*
X6762750Y4752500D02*
Y4772500D01*
X6657500Y4572000D02*
X6677500D01*
X6667500Y4562000D02*
Y4582000D01*
X6752750Y4381500D02*
X6772750D01*
X6762750Y4371500D02*
Y4391500D01*
X6752750Y3619500D02*
X6772750D01*
X6762750Y3609500D02*
Y3629500D01*
X6657500Y3048000D02*
X6677500D01*
X6667500Y3038000D02*
Y3058000D01*
X6752750Y2857500D02*
X6772750D01*
X6762750Y2847500D02*
Y2867500D01*
X6657500Y2667000D02*
X6677500D01*
X6667500Y2657000D02*
Y2677000D01*
X6562250Y4762500D02*
X6582250D01*
X6572250Y4752500D02*
Y4772500D01*
X6467000Y4572000D02*
X6487000D01*
X6477000Y4562000D02*
Y4582000D01*
X6562250Y4381500D02*
X6582250D01*
X6572250Y4371500D02*
Y4391500D01*
X6467000Y4191000D02*
X6487000D01*
X6477000Y4181000D02*
Y4201000D01*
X6467000Y3810000D02*
X6487000D01*
X6477000Y3800000D02*
Y3820000D01*
X6562250Y3619500D02*
X6582250D01*
X6572250Y3609500D02*
Y3629500D01*
X6467000Y3048000D02*
X6487000D01*
X6477000Y3038000D02*
Y3058000D01*
X6562250Y2857500D02*
X6582250D01*
X6572250Y2847500D02*
Y2867500D01*
X6467000Y2667000D02*
X6487000D01*
X6477000Y2657000D02*
Y2677000D01*
X6371750Y4762500D02*
X6391750D01*
X6381750Y4752500D02*
Y4772500D01*
X6276500Y4572000D02*
X6296500D01*
X6286500Y4562000D02*
Y4582000D01*
X6371750Y4381500D02*
X6391750D01*
X6381750Y4371500D02*
Y4391500D01*
X6276500Y4191000D02*
X6296500D01*
X6286500Y4181000D02*
Y4201000D01*
X6371750Y4000500D02*
X6391750D01*
X6381750Y3990500D02*
Y4010500D01*
X6276500Y3810000D02*
X6296500D01*
X6286500Y3800000D02*
Y3820000D01*
X6371750Y2857500D02*
X6391750D01*
X6381750Y2847500D02*
Y2867500D01*
X6276500Y2667000D02*
X6296500D01*
X6286500Y2657000D02*
Y2677000D01*
X6181250Y4762500D02*
X6201250D01*
X6191250Y4752500D02*
Y4772500D01*
X6086000Y4572000D02*
X6106000D01*
X6096000Y4562000D02*
Y4582000D01*
X6181250Y4381500D02*
X6201250D01*
X6191250Y4371500D02*
Y4391500D01*
X6181250Y4000500D02*
X6201250D01*
X6191250Y3990500D02*
Y4010500D01*
X6086000Y2667000D02*
X6106000D01*
X6096000Y2657000D02*
Y2677000D01*
X5990750Y4762500D02*
X6010750D01*
X6000750Y4752500D02*
Y4772500D01*
X5895500Y4572000D02*
X5915500D01*
X5905500Y4562000D02*
Y4582000D01*
X5990750Y4381500D02*
X6010750D01*
X6000750Y4371500D02*
Y4391500D01*
X5990750Y4000500D02*
X6010750D01*
X6000750Y3990500D02*
Y4010500D01*
X5895500Y2667000D02*
X5915500D01*
X5905500Y2657000D02*
Y2677000D01*
X5800250Y4762500D02*
X5820250D01*
X5810250Y4752500D02*
Y4772500D01*
X5800250Y2857500D02*
X5820250D01*
X5810250Y2847500D02*
Y2867500D01*
X5705000Y2667000D02*
X5725000D01*
X5715000Y2657000D02*
Y2677000D01*
X5609750Y4762500D02*
X5629750D01*
X5619750Y4752500D02*
Y4772500D01*
X5514500Y4572000D02*
X5534500D01*
X5524500Y4562000D02*
Y4582000D01*
X5609750Y4381500D02*
X5629750D01*
X5619750Y4371500D02*
Y4391500D01*
X5609750Y2857500D02*
X5629750D01*
X5619750Y2847500D02*
Y2867500D01*
X5514500Y2667000D02*
X5534500D01*
X5524500Y2657000D02*
Y2677000D01*
X5419250Y4762500D02*
X5439250D01*
X5429250Y4752500D02*
Y4772500D01*
X5324000Y4572000D02*
X5344000D01*
X5334000Y4562000D02*
Y4582000D01*
X5419250Y4000500D02*
X5439250D01*
X5429250Y3990500D02*
Y4010500D01*
X5419250Y2857500D02*
X5439250D01*
X5429250Y2847500D02*
Y2867500D01*
X5324000Y2667000D02*
X5344000D01*
X5334000Y2657000D02*
Y2677000D01*
X5228750Y4762500D02*
X5248750D01*
X5238750Y4752500D02*
Y4772500D01*
X5133500Y4191000D02*
X5153500D01*
X5143500Y4181000D02*
Y4201000D01*
X5228750Y4000500D02*
X5248750D01*
X5238750Y3990500D02*
Y4010500D01*
X5228750Y2857500D02*
X5248750D01*
X5238750Y2847500D02*
Y2867500D01*
X5133500Y2667000D02*
X5153500D01*
X5143500Y2657000D02*
Y2677000D01*
X5038250Y4381500D02*
X5058250D01*
X5048250Y4371500D02*
Y4391500D01*
X5038250Y4000500D02*
X5058250D01*
X5048250Y3990500D02*
Y4010500D01*
X4943000Y3429000D02*
X4963000D01*
X4953000Y3419000D02*
Y3439000D01*
X5038250Y3238500D02*
X5058250D01*
X5048250Y3228500D02*
Y3248500D01*
X5038250Y2857500D02*
X5058250D01*
X5048250Y2847500D02*
Y2867500D01*
X4943000Y2667000D02*
X4963000D01*
X4953000Y2657000D02*
Y2677000D01*
X4752500Y4572000D02*
X4772500D01*
X4762500Y4562000D02*
Y4582000D01*
X4847750Y4381500D02*
X4867750D01*
X4857750Y4371500D02*
Y4391500D01*
X4847750Y4000500D02*
X4867750D01*
X4857750Y3990500D02*
Y4010500D01*
X4752500Y3429000D02*
X4772500D01*
X4762500Y3419000D02*
Y3439000D01*
X4847750Y3238500D02*
X4867750D01*
X4857750Y3228500D02*
Y3248500D01*
X4562000Y4572000D02*
X4582000D01*
X4572000Y4562000D02*
Y4582000D01*
X4657250Y4381500D02*
X4677250D01*
X4667250Y4371500D02*
Y4391500D01*
X4562000Y4191000D02*
X4582000D01*
X4572000Y4181000D02*
Y4201000D01*
X4562000Y3429000D02*
X4582000D01*
X4572000Y3419000D02*
Y3439000D01*
X4562000Y3048000D02*
X4582000D01*
X4572000Y3038000D02*
Y3058000D01*
X4562000Y2667000D02*
X4582000D01*
X4572000Y2657000D02*
Y2677000D01*
X4371500Y4572000D02*
X4391500D01*
X4381500Y4562000D02*
Y4582000D01*
X4466750Y4381500D02*
X4486750D01*
X4476750Y4371500D02*
Y4391500D01*
X4371500Y4191000D02*
X4391500D01*
X4381500Y4181000D02*
Y4201000D01*
X4466750Y4000500D02*
X4486750D01*
X4476750Y3990500D02*
Y4010500D01*
X4466750Y3238500D02*
X4486750D01*
X4476750Y3228500D02*
Y3248500D01*
X4181000Y4572000D02*
X4201000D01*
X4191000Y4562000D02*
Y4582000D01*
X4276250Y4381500D02*
X4296250D01*
X4286250Y4371500D02*
Y4391500D01*
X4181000Y3429000D02*
X4201000D01*
X4191000Y3419000D02*
Y3439000D01*
X4276250Y3238500D02*
X4296250D01*
X4286250Y3228500D02*
Y3248500D01*
X3990500Y4572000D02*
X4010500D01*
X4000500Y4562000D02*
Y4582000D01*
X4085750Y4381500D02*
X4105750D01*
X4095750Y4371500D02*
Y4391500D01*
X4085750Y4000500D02*
X4105750D01*
X4095750Y3990500D02*
Y4010500D01*
X4085750Y3619500D02*
X4105750D01*
X4095750Y3609500D02*
Y3629500D01*
X3990500Y3429000D02*
X4010500D01*
X4000500Y3419000D02*
Y3439000D01*
X4085750Y3238500D02*
X4105750D01*
X4095750Y3228500D02*
Y3248500D01*
X4085750Y2857500D02*
X4105750D01*
X4095750Y2847500D02*
Y2867500D01*
X3990500Y2667000D02*
X4010500D01*
X4000500Y2657000D02*
Y2677000D01*
X3800000Y4572000D02*
X3820000D01*
X3810000Y4562000D02*
Y4582000D01*
X3895250Y4381500D02*
X3915250D01*
X3905250Y4371500D02*
Y4391500D01*
X3800000Y3810000D02*
X3820000D01*
X3810000Y3800000D02*
Y3820000D01*
X3895250Y3619500D02*
X3915250D01*
X3905250Y3609500D02*
Y3629500D01*
X3895250Y3238500D02*
X3915250D01*
X3905250Y3228500D02*
Y3248500D01*
X3800000Y3048000D02*
X3820000D01*
X3810000Y3038000D02*
Y3058000D01*
X3704750Y4381500D02*
X3724750D01*
X3714750Y4371500D02*
Y4391500D01*
X3704750Y4000500D02*
X3724750D01*
X3714750Y3990500D02*
Y4010500D01*
X3609500Y3810000D02*
X3629500D01*
X3619500Y3800000D02*
Y3820000D01*
X3704750Y3238500D02*
X3724750D01*
X3714750Y3228500D02*
Y3248500D01*
X3704750Y2857500D02*
X3724750D01*
X3714750Y2847500D02*
Y2867500D01*
X3609500Y2667000D02*
X3629500D01*
X3619500Y2657000D02*
Y2677000D01*
X3514250Y4000500D02*
X3534250D01*
X3524250Y3990500D02*
Y4010500D01*
X3419000Y3810000D02*
X3439000D01*
X3429000Y3800000D02*
Y3820000D01*
X3419000Y3429000D02*
X3439000D01*
X3429000Y3419000D02*
Y3439000D01*
X3514250Y2857500D02*
X3534250D01*
X3524250Y2847500D02*
Y2867500D01*
X3419000Y2667000D02*
X3439000D01*
X3429000Y2657000D02*
Y2677000D01*
X3228500Y4191000D02*
X3248500D01*
X3238500Y4181000D02*
Y4201000D01*
X3323750Y4000500D02*
X3343750D01*
X3333750Y3990500D02*
Y4010500D01*
X3228500Y3810000D02*
X3248500D01*
X3238500Y3800000D02*
Y3820000D01*
X3323750Y3619500D02*
X3343750D01*
X3333750Y3609500D02*
Y3629500D01*
X3228500Y3429000D02*
X3248500D01*
X3238500Y3419000D02*
Y3439000D01*
X3323750Y2857500D02*
X3343750D01*
X3333750Y2847500D02*
Y2867500D01*
X3228500Y2667000D02*
X3248500D01*
X3238500Y2657000D02*
Y2677000D01*
X3038000Y4191000D02*
X3058000D01*
X3048000Y4181000D02*
Y4201000D01*
X3133250Y4000500D02*
X3153250D01*
X3143250Y3990500D02*
Y4010500D01*
X3038000Y3810000D02*
X3058000D01*
X3048000Y3800000D02*
Y3820000D01*
X3133250Y3619500D02*
X3153250D01*
X3143250Y3609500D02*
Y3629500D01*
X3038000Y3429000D02*
X3058000D01*
X3048000Y3419000D02*
Y3439000D01*
X3133250Y2857500D02*
X3153250D01*
X3143250Y2847500D02*
Y2867500D01*
X3038000Y2667000D02*
X3058000D01*
X3048000Y2657000D02*
Y2677000D01*
X2847500Y4572000D02*
X2867500D01*
X2857500Y4562000D02*
Y4582000D01*
X2942750Y4381500D02*
X2962750D01*
X2952750Y4371500D02*
Y4391500D01*
X2847500Y4191000D02*
X2867500D01*
X2857500Y4181000D02*
Y4201000D01*
X2942750Y4000500D02*
X2962750D01*
X2952750Y3990500D02*
Y4010500D01*
X2847500Y3810000D02*
X2867500D01*
X2857500Y3800000D02*
Y3820000D01*
X2942750Y3619500D02*
X2962750D01*
X2952750Y3609500D02*
Y3629500D01*
X2847500Y3429000D02*
X2867500D01*
X2857500Y3419000D02*
Y3439000D01*
X2942750Y2857500D02*
X2962750D01*
X2952750Y2847500D02*
Y2867500D01*
X2847500Y2667000D02*
X2867500D01*
X2857500Y2657000D02*
Y2677000D01*
X2752250Y4762500D02*
X2772250D01*
X2762250Y4752500D02*
Y4772500D01*
X2657000Y4572000D02*
X2677000D01*
X2667000Y4562000D02*
Y4582000D01*
X2657000Y4191000D02*
X2677000D01*
X2667000Y4181000D02*
Y4201000D01*
X2752250Y4000500D02*
X2772250D01*
X2762250Y3990500D02*
Y4010500D01*
X2657000Y3810000D02*
X2677000D01*
X2667000Y3800000D02*
Y3820000D01*
X2752250Y3619500D02*
X2772250D01*
X2762250Y3609500D02*
Y3629500D01*
X2657000Y3429000D02*
X2677000D01*
X2667000Y3419000D02*
Y3439000D01*
X2657000Y3048000D02*
X2677000D01*
X2667000Y3038000D02*
Y3058000D01*
X2752250Y2857500D02*
X2772250D01*
X2762250Y2847500D02*
Y2867500D01*
X2657000Y2667000D02*
X2677000D01*
X2667000Y2657000D02*
Y2677000D01*
X6614320Y3423920D02*
X6634320D01*
X6624320Y3413920D02*
Y3433920D01*
X6256180Y3291840D02*
X6276180D01*
X6266180Y3281840D02*
Y3301840D01*
X6441600Y3500120D02*
X6461600D01*
X6451600Y3490120D02*
Y3510120D01*
X6022500Y3096260D02*
X6042500D01*
X6032500Y3086260D02*
Y3106260D01*
X6312060Y3436620D02*
X6332060D01*
X6322060Y3426620D02*
Y3446620D01*
X7785260Y3685540D02*
X7805260D01*
X7795260Y3675540D02*
Y3695540D01*
X7729380Y3688080D02*
X7749380D01*
X7739380Y3678080D02*
Y3698080D01*
X7653180Y3688080D02*
X7673180D01*
X7663180Y3678080D02*
Y3698080D01*
X7597300Y3655060D02*
X7617300D01*
X7607300Y3645060D02*
Y3665060D01*
X7787800Y3418840D02*
X7807800D01*
X7797800Y3408840D02*
Y3428840D01*
X7739540Y3418840D02*
X7759540D01*
X7749540Y3408840D02*
Y3428840D01*
X7673500Y3423920D02*
X7693500D01*
X7683500Y3413920D02*
Y3433920D01*
X7602380Y3454400D02*
X7622380D01*
X7612380Y3444400D02*
Y3464400D01*
X7554120Y3403600D02*
X7574120D01*
X7564120Y3393600D02*
Y3413600D01*
X7498240Y3360420D02*
X7518240D01*
X7508240Y3350420D02*
Y3370420D01*
X7452520Y3307080D02*
X7472520D01*
X7462520Y3297080D02*
Y3317080D01*
X7368700Y3299460D02*
X7388700D01*
X7378700Y3289460D02*
Y3309460D01*
X7292500Y3294380D02*
X7312500D01*
X7302500Y3284380D02*
Y3304380D01*
X7142640Y3291840D02*
X7162640D01*
X7152640Y3281840D02*
Y3301840D01*
X7066440Y3286760D02*
X7086440D01*
X7076440Y3276760D02*
Y3296760D01*
X6987700Y3284220D02*
X7007700D01*
X6997700Y3274220D02*
Y3294220D01*
X6906420Y3286760D02*
X6926420D01*
X6916420Y3276760D02*
Y3296760D01*
X6820060Y3286760D02*
X6840060D01*
X6830060Y3276760D02*
Y3296760D01*
X6728620Y3286760D02*
X6748620D01*
X6738620Y3276760D02*
Y3296760D01*
X6642260Y3286760D02*
X6662260D01*
X6652260Y3276760D02*
Y3296760D01*
X6563520Y3289300D02*
X6583520D01*
X6573520Y3279300D02*
Y3299300D01*
X6489860Y3289300D02*
X6509860D01*
X6499860Y3279300D02*
Y3299300D01*
X6421280Y3289300D02*
X6441280D01*
X6431280Y3279300D02*
Y3299300D01*
X6456840Y3421380D02*
X6476840D01*
X6466840Y3411380D02*
Y3431380D01*
X7566820Y3586480D02*
X7586820D01*
X7576820Y3576480D02*
Y3596480D01*
X7432200Y3477260D02*
X7452200D01*
X7442200Y3467260D02*
Y3487260D01*
X7376320Y3418840D02*
X7396320D01*
X7386320Y3408840D02*
Y3428840D01*
X7289960Y3413760D02*
X7309960D01*
X7299960Y3403760D02*
Y3423760D01*
X7188360Y3418840D02*
X7208360D01*
X7198360Y3408840D02*
Y3428840D01*
X7117240Y3413760D02*
X7137240D01*
X7127240Y3403760D02*
Y3423760D01*
X7038500Y3423920D02*
X7058500D01*
X7048500Y3413920D02*
Y3433920D01*
X6954680Y3426460D02*
X6974680D01*
X6964680Y3416460D02*
Y3436460D01*
X6881020Y3418840D02*
X6901020D01*
X6891020Y3408840D02*
Y3428840D01*
X6789580Y3421380D02*
X6809580D01*
X6799580Y3411380D02*
Y3431380D01*
X6705760Y3413760D02*
X6725760D01*
X6715760Y3403760D02*
Y3423760D01*
X6540660Y3421380D02*
X6560660D01*
X6550660Y3411380D02*
Y3431380D01*
X6385720Y3418840D02*
X6405720D01*
X6395720Y3408840D02*
Y3428840D01*
X5741200Y4447540D02*
X5761200D01*
X5751200Y4437540D02*
Y4457540D01*
X5821200Y4447540D02*
X5841200D01*
X5831200Y4437540D02*
Y4457540D01*
X4209281Y3815421D02*
X4229281D01*
X4219281Y3805421D02*
Y3825421D01*
X4262740Y3764740D02*
X4282740D01*
X4272740Y3754740D02*
Y3774740D01*
X4320438Y3764339D02*
X4340438D01*
X4330438Y3754339D02*
Y3774339D01*
X4007408Y3890408D02*
X4027408D01*
X4017408Y3880408D02*
Y3900408D01*
X4690799Y3656690D02*
X4710799D01*
X4700799Y3646690D02*
Y3666690D01*
X4468020Y3761740D02*
X4488020D01*
X4478020Y3751740D02*
Y3771740D01*
X4567080Y3764280D02*
X4587080D01*
X4577080Y3754280D02*
Y3774280D01*
X5602001Y3919853D02*
X5622001D01*
X5612001Y3909853D02*
Y3929853D01*
X5628800Y3655060D02*
X5648800D01*
X5638800Y3645060D02*
Y3665060D01*
X5218909Y3598270D02*
X5238908D01*
X5228909Y3588270D02*
Y3608270D01*
X5828165Y3875018D02*
X5848165D01*
X5838165Y3865018D02*
Y3885018D01*
X5631340Y3550920D02*
X5651340D01*
X5641340Y3540920D02*
Y3560920D01*
X5532280Y3549100D02*
X5552280D01*
X5542280Y3539100D02*
Y3559100D01*
X5191920Y3418840D02*
X5211920D01*
X5201920Y3408840D02*
Y3428840D01*
X5732940Y3261360D02*
X5752940D01*
X5742940Y3251360D02*
Y3271360D01*
X5839620Y3261360D02*
X5859620D01*
X5849620Y3251360D02*
Y3271360D01*
X5527200Y3352800D02*
X5547200D01*
X5537200Y3342800D02*
Y3362800D01*
X5628800Y3261360D02*
X5648800D01*
X5638800Y3251360D02*
Y3271360D01*
X5529740Y3261360D02*
X5549740D01*
X5539740Y3251360D02*
Y3271360D01*
X5626260Y3352800D02*
X5646260D01*
X5636260Y3342800D02*
Y3362800D01*
X5735480Y3550920D02*
X5755480D01*
X5745480Y3540920D02*
Y3560920D01*
X5529740Y3454400D02*
X5549740D01*
X5539740Y3444400D02*
Y3464400D01*
X5191920Y3482340D02*
X5211920D01*
X5201920Y3472340D02*
Y3492340D01*
X5529740Y3655060D02*
X5549740D01*
X5539740Y3645060D02*
Y3665060D01*
X5839620Y3655060D02*
X5859620D01*
X5849620Y3645060D02*
Y3665060D01*
X5732940Y3655060D02*
X5752940D01*
X5742940Y3645060D02*
Y3665060D01*
X5790450Y3830320D02*
X5810450D01*
X5800450Y3820320D02*
Y3840320D01*
X5936140Y3655060D02*
X5956140D01*
X5946140Y3645060D02*
Y3665060D01*
X5666388Y3907970D02*
X5686388D01*
X5676388Y3897970D02*
Y3917970D01*
X5701190Y3828778D02*
X5721190D01*
X5711190Y3818778D02*
Y3838778D01*
X5740560Y3870960D02*
X5760560D01*
X5750560Y3860960D02*
Y3880960D01*
X5873550Y3832860D02*
X5893550D01*
X5883550Y3822860D02*
Y3842860D01*
X6314600Y3063240D02*
X6334600D01*
X6324600Y3053240D02*
Y3073240D01*
X6403500Y3558540D02*
X6423500D01*
X6413500Y3548540D02*
Y3568540D01*
X6276500Y2923540D02*
X6296500D01*
X6286500Y2913540D02*
Y2933540D01*
X5821840Y3053080D02*
X5841840D01*
X5831840Y3043080D02*
Y3063080D01*
X5936140Y3261360D02*
X5956140D01*
X5946140Y3251360D02*
Y3271360D01*
X6138850Y3617429D02*
X6158850D01*
X6148850Y3607429D02*
Y3627429D01*
X6105214Y3664311D02*
X6125214D01*
X6115214Y3654311D02*
Y3674311D01*
X5936140Y3454400D02*
X5956140D01*
X5946140Y3444400D02*
Y3464400D01*
X5771040Y3083560D02*
X5791040D01*
X5781040Y3073560D02*
Y3093560D01*
X6098700Y3144520D02*
X6118700D01*
X6108700Y3134520D02*
Y3154520D01*
X6103780Y3454400D02*
X6123780D01*
X6113780Y3444400D02*
Y3464400D01*
X5585620Y3088640D02*
X5605620D01*
X5595620Y3078640D02*
Y3098640D01*
X6106367Y3569742D02*
X6126367D01*
X6116367Y3559742D02*
Y3579742D01*
X5842160Y3550920D02*
X5862160D01*
X5852160Y3540920D02*
Y3560920D01*
X5643316Y3089310D02*
X5663316D01*
X5653316Y3079310D02*
Y3099310D01*
X5872000Y3089178D02*
X5892000D01*
X5882000Y3079178D02*
Y3099178D01*
X6103780Y3512100D02*
X6123780D01*
X6113780Y3502100D02*
Y3522100D01*
X5938680Y3550920D02*
X5958680D01*
X5948680Y3540920D02*
Y3560920D01*
X5837080Y3352800D02*
X5857080D01*
X5847080Y3342800D02*
Y3362800D01*
X5839620Y3454400D02*
X5859620D01*
X5849620Y3444400D02*
Y3464400D01*
X5933600Y3352800D02*
X5953600D01*
X5943600Y3342800D02*
Y3362800D01*
X5732940Y3454400D02*
X5752940D01*
X5742940Y3444400D02*
Y3464400D01*
X5628800Y3454400D02*
X5648800D01*
X5638800Y3444400D02*
Y3464400D01*
X5730400Y3352800D02*
X5750400D01*
X5740400Y3342800D02*
Y3362800D01*
X5473860Y4234180D02*
X5493860D01*
X5483860Y4224180D02*
Y4244180D01*
X6088540Y4236720D02*
X6108540D01*
X6098540Y4226720D02*
Y4246720D01*
X5778660Y4241800D02*
X5798660D01*
X5788660Y4231800D02*
Y4251800D01*
X5946300Y4655820D02*
X5966300D01*
X5956300Y4645820D02*
Y4665820D01*
X4729640Y4023360D02*
X4749640D01*
X4739640Y4013360D02*
Y4033360D01*
X4813460Y4053840D02*
X4833460D01*
X4823460Y4043840D02*
Y4063840D01*
X4048920Y4056380D02*
X4068920D01*
X4058920Y4046380D02*
Y4066380D01*
X3822860Y2844800D02*
X3842860D01*
X3832860Y2834800D02*
Y2854800D01*
X4788060Y2834640D02*
X4808060D01*
X4798060Y2824640D02*
Y2844640D01*
X4318160Y2842260D02*
X4338160D01*
X4328160Y2832260D02*
Y2852260D01*
X2964340Y4749800D02*
X2984340D01*
X2974340Y4739800D02*
Y4759800D01*
X3543460Y3284220D02*
X3563460D01*
X3553460Y3274220D02*
Y3294220D01*
X3485040Y3299460D02*
X3505040D01*
X3495040Y3289460D02*
Y3309460D01*
X2949100Y4622800D02*
X2969100D01*
X2959100Y4612800D02*
Y4632800D01*
X3322480Y4500880D02*
X3342480D01*
X3332480Y4490880D02*
Y4510880D01*
X3350420Y4556760D02*
X3370420D01*
X3360420Y4546760D02*
Y4566760D01*
X3693320Y4659270D02*
X3713320D01*
X3703320Y4649270D02*
Y4669270D01*
X3764440Y4742370D02*
X3784440D01*
X3774440Y4732370D02*
Y4752370D01*
X3319531Y4611171D02*
X3339531D01*
X3329531Y4601171D02*
Y4621171D01*
X3510440Y4282440D02*
X3530440D01*
X3520440Y4272440D02*
Y4292440D01*
X3215800Y4257040D02*
X3235800D01*
X3225800Y4247040D02*
Y4267040D01*
%TF.MD5,bf9f10e4a40beb22055c3ac64742bca4*%
M02*
