%TF.GenerationSoftware,Altium Limited,Altium Designer,22.8.2 (66)*%
G04 Layer_Physical_Order=1*
G04 Layer_Color=255*
%FSLAX45Y45*%
%MOMM*%
%TF.SameCoordinates,DE4C73A7-34E9-4613-BA68-141157798951*%
%TF.FilePolarity,Positive*%
%TF.FileFunction,Copper,L1,Top,Signal*%
%TF.Part,Single*%
G01*
G75*
%TA.AperFunction,ConnectorPad*%
%ADD10R,1.50000X1.20000*%
%TA.AperFunction,SMDPad,CuDef*%
%ADD11R,4.45000X4.45000*%
%ADD12R,0.86000X0.22000*%
%ADD13R,0.22000X0.86000*%
%ADD14R,0.60000X0.64000*%
%ADD15R,0.90000X1.00000*%
%ADD16R,0.64000X0.60000*%
%ADD17R,0.90000X0.80000*%
%ADD18R,0.75000X0.60000*%
%ADD19R,1.35000X0.65000*%
G04:AMPARAMS|DCode=20|XSize=0.5mm|YSize=0.25mm|CornerRadius=0.125mm|HoleSize=0mm|Usage=FLASHONLY|Rotation=270.000|XOffset=0mm|YOffset=0mm|HoleType=Round|Shape=RoundedRectangle|*
%AMROUNDEDRECTD20*
21,1,0.50000,0.00000,0,0,270.0*
21,1,0.25000,0.25000,0,0,270.0*
1,1,0.25000,0.00000,-0.12500*
1,1,0.25000,0.00000,0.12500*
1,1,0.25000,0.00000,0.12500*
1,1,0.25000,0.00000,-0.12500*
%
%ADD20ROUNDEDRECTD20*%
%TA.AperFunction,BGAPad,CuDef*%
%ADD21C,0.35000*%
%TA.AperFunction,SMDPad,CuDef*%
%ADD22R,0.60000X0.75000*%
%ADD23R,0.48000X0.54000*%
%ADD24R,1.00000X0.90000*%
%ADD25R,0.55000X0.54000*%
%ADD26R,0.54000X0.55000*%
G04:AMPARAMS|DCode=27|XSize=0.54mm|YSize=0.48mm|CornerRadius=0mm|HoleSize=0mm|Usage=FLASHONLY|Rotation=225.000|XOffset=0mm|YOffset=0mm|HoleType=Round|Shape=Rectangle|*
%AMROTATEDRECTD27*
4,1,4,0.02121,0.36062,0.36062,0.02121,-0.02121,-0.36062,-0.36062,-0.02121,0.02121,0.36062,0.0*
%
%ADD27ROTATEDRECTD27*%

G04:AMPARAMS|DCode=28|XSize=0.54mm|YSize=0.55mm|CornerRadius=0mm|HoleSize=0mm|Usage=FLASHONLY|Rotation=315.000|XOffset=0mm|YOffset=0mm|HoleType=Round|Shape=Rectangle|*
%AMROTATEDRECTD28*
4,1,4,-0.38537,-0.00354,0.00354,0.38537,0.38537,0.00354,-0.00354,-0.38537,-0.38537,-0.00354,0.0*
%
%ADD28ROTATEDRECTD28*%

G04:AMPARAMS|DCode=29|XSize=0.75mm|YSize=1.4mm|CornerRadius=0mm|HoleSize=0mm|Usage=FLASHONLY|Rotation=315.000|XOffset=0mm|YOffset=0mm|HoleType=Round|Shape=Rectangle|*
%AMROTATEDRECTD29*
4,1,4,-0.76014,-0.22981,0.22981,0.76014,0.76014,0.22981,-0.22981,-0.76014,-0.76014,-0.22981,0.0*
%
%ADD29ROTATEDRECTD29*%

%ADD30R,0.72000X0.76000*%
G04:AMPARAMS|DCode=31|XSize=0.6mm|YSize=0.25mm|CornerRadius=0.05mm|HoleSize=0mm|Usage=FLASHONLY|Rotation=0.000|XOffset=0mm|YOffset=0mm|HoleType=Round|Shape=RoundedRectangle|*
%AMROUNDEDRECTD31*
21,1,0.60000,0.15000,0,0,0.0*
21,1,0.50000,0.25000,0,0,0.0*
1,1,0.10000,0.25000,-0.07500*
1,1,0.10000,-0.25000,-0.07500*
1,1,0.10000,-0.25000,0.07500*
1,1,0.10000,0.25000,0.07500*
%
%ADD31ROUNDEDRECTD31*%
%ADD32R,1.60000X0.65000*%
%ADD33R,2.40000X0.56000*%
%TA.AperFunction,Conductor*%
%ADD34C,0.25008*%
%ADD35C,0.12700*%
%ADD36C,0.20320*%
%ADD37C,0.25400*%
%ADD38C,0.30480*%
%ADD39C,0.10160*%
%ADD40C,0.15240*%
%TA.AperFunction,ViaPad*%
%ADD41C,1.52400*%
%TA.AperFunction,ComponentPad*%
%ADD42C,0.81280*%
%ADD43C,1.52400*%
%ADD44C,3.45440*%
%TA.AperFunction,ViaPad*%
%ADD45C,0.45000*%
%ADD46C,0.50000*%
G36*
X7828209Y3660977D02*
X7647940D01*
X7640164Y3657756D01*
X7636943Y3649980D01*
Y3589020D01*
X7628354Y3576568D01*
X7612380D01*
X7603537Y3574809D01*
X7596040Y3569800D01*
X7563896Y3537656D01*
X7556714Y3544838D01*
X7504162Y3492286D01*
X7494386Y3485228D01*
X7492991Y3486623D01*
X7446817Y3440449D01*
X7439731Y3433364D01*
X7430751Y3424383D01*
X7385716Y3379348D01*
X7271080D01*
Y3393900D01*
X7196760D01*
Y3378898D01*
X7098860D01*
Y3392500D01*
X7033560D01*
X7023540Y3392500D01*
X7010840Y3392500D01*
X6945540D01*
Y3378448D01*
X6898060D01*
Y3392500D01*
X6829740D01*
Y3318180D01*
X6898060D01*
Y3332232D01*
X6945540D01*
Y3318180D01*
X7010840D01*
X7020860Y3318180D01*
X7033560Y3318180D01*
X7098860D01*
Y3332682D01*
X7196760D01*
Y3318580D01*
X7271080D01*
Y3333133D01*
X7410080D01*
X7418923Y3334891D01*
X7424301Y3338485D01*
X7437129Y3325657D01*
X7483303Y3371831D01*
X7490389Y3378916D01*
X7499369Y3387897D01*
X7545543Y3434071D01*
X7545413Y3434200D01*
X7552472Y3443977D01*
X7605023Y3496529D01*
X7596576Y3504976D01*
X7616745Y3525146D01*
X7632456Y3525053D01*
X7636943Y3520440D01*
Y3464560D01*
X7640164Y3456784D01*
X7647940Y3453563D01*
X7828209D01*
Y2547691D01*
X2573091D01*
Y2921214D01*
X2579436Y4996109D01*
X7828209D01*
Y3660977D01*
D02*
G37*
%LPC*%
G36*
X3274680Y4790500D02*
X3014360D01*
Y4776968D01*
X2996952D01*
X2994279Y4779641D01*
X2981342Y4785000D01*
X2967338D01*
X2954401Y4779641D01*
X2944499Y4769739D01*
X2939140Y4756802D01*
Y4742798D01*
X2944499Y4729861D01*
X2954401Y4719959D01*
X2967338Y4714600D01*
X2981342D01*
X2994279Y4719959D01*
X2999492Y4725172D01*
X3014360D01*
Y4714180D01*
X3264470D01*
X3269380Y4707781D01*
Y4690499D01*
X3268153Y4688900D01*
X3014360D01*
Y4645923D01*
X2985757D01*
X2979039Y4652641D01*
X2966102Y4658000D01*
X2952098D01*
X2939161Y4652641D01*
X2929259Y4642739D01*
X2923900Y4629802D01*
Y4615798D01*
X2929259Y4602861D01*
X2939161Y4592959D01*
X2952098Y4587600D01*
X2966102D01*
X2979039Y4592959D01*
X2988941Y4602861D01*
X2992833Y4612256D01*
X3110170D01*
X3111797Y4612580D01*
X3258193D01*
X3263454Y4599880D01*
X3250874Y4587300D01*
X3014360D01*
Y4510980D01*
X3258193D01*
X3263454Y4498280D01*
X3250874Y4485700D01*
X3014360D01*
Y4409380D01*
X3268153D01*
X3269380Y4407781D01*
Y4390499D01*
X3264470Y4384100D01*
X3014360D01*
Y4307780D01*
X3208967D01*
Y4288167D01*
X3205861Y4286881D01*
X3195959Y4276979D01*
X3190600Y4264042D01*
Y4250038D01*
X3195959Y4237101D01*
X3205861Y4227199D01*
X3218798Y4221840D01*
X3232802D01*
X3245739Y4227199D01*
X3255641Y4237101D01*
X3261000Y4250038D01*
Y4264042D01*
X3255641Y4276979D01*
X3245739Y4286881D01*
X3242633Y4288167D01*
Y4307780D01*
X3274680D01*
Y4348690D01*
X3287380Y4353951D01*
X3294716Y4346615D01*
X3309684Y4337973D01*
X3326378Y4333500D01*
X3343662D01*
X3360356Y4337973D01*
X3375324Y4346615D01*
X3382660Y4353951D01*
X3395360Y4348690D01*
Y4307780D01*
X3479407D01*
X3487576Y4295080D01*
X3485240Y4289442D01*
Y4275438D01*
X3490599Y4262501D01*
X3500501Y4252599D01*
X3513438Y4247240D01*
X3527442D01*
X3540379Y4252599D01*
X3550281Y4262501D01*
X3555640Y4275438D01*
Y4289442D01*
X3553304Y4295080D01*
X3561473Y4307780D01*
X3655680D01*
Y4384100D01*
X3405570D01*
X3400660Y4390499D01*
Y4407781D01*
X3401887Y4409380D01*
X3655680D01*
Y4485700D01*
X3505497D01*
X3503870Y4486024D01*
X3378173D01*
X3367680Y4493878D01*
Y4507882D01*
X3367275Y4508860D01*
X3367422Y4521560D01*
X3373646Y4524139D01*
X3380359Y4526919D01*
X3382660Y4529220D01*
X3395360Y4523959D01*
Y4510980D01*
X3655680D01*
Y4553957D01*
X3673601D01*
X3680043Y4555238D01*
X3685504Y4558887D01*
X3791423Y4664807D01*
X3795072Y4670268D01*
X3796353Y4676709D01*
Y4714504D01*
X3804281Y4722431D01*
X3809640Y4735368D01*
Y4749372D01*
X3804281Y4762309D01*
X3794379Y4772211D01*
X3781442Y4777570D01*
X3767438D01*
X3754501Y4772211D01*
X3744599Y4762309D01*
X3739240Y4749372D01*
Y4735368D01*
X3744599Y4722431D01*
X3754501Y4712529D01*
X3762687Y4709139D01*
Y4683682D01*
X3750219Y4671214D01*
X3735238Y4674194D01*
X3733161Y4679209D01*
X3723259Y4689111D01*
X3710322Y4694470D01*
X3696318D01*
X3683381Y4689111D01*
X3673479Y4679209D01*
X3672193Y4676103D01*
X3655680D01*
Y4688900D01*
X3401887D01*
X3400660Y4690499D01*
Y4707782D01*
X3396187Y4724476D01*
X3387545Y4739444D01*
X3375324Y4751665D01*
X3360356Y4760307D01*
X3343662Y4764780D01*
X3326378D01*
X3309684Y4760307D01*
X3294716Y4751665D01*
X3287380Y4744329D01*
X3274680Y4749590D01*
Y4790500D01*
D02*
G37*
G36*
X5911183Y4705040D02*
X5830863D01*
Y4620720D01*
X5833092D01*
Y4543545D01*
X5832892Y4542540D01*
X5833096Y4541515D01*
Y4530040D01*
X5834855Y4521198D01*
X5839863Y4513703D01*
X5847359Y4508695D01*
X5856200Y4506936D01*
X5865042Y4508695D01*
X5872537Y4513703D01*
X5877545Y4521198D01*
X5879304Y4530040D01*
Y4540710D01*
X5879708Y4542740D01*
Y4620720D01*
X5911183D01*
Y4636042D01*
X5926392D01*
X5926459Y4635881D01*
X5936361Y4625979D01*
X5949298Y4620620D01*
X5963302D01*
X5976239Y4625979D01*
X5986141Y4635881D01*
X5991500Y4648818D01*
Y4662822D01*
X5986141Y4675759D01*
X5976239Y4685661D01*
X5963302Y4691020D01*
X5949298D01*
X5936361Y4685661D01*
X5933358Y4682658D01*
X5911183D01*
Y4705040D01*
D02*
G37*
G36*
X5628960Y4274340D02*
X5533640D01*
Y4260078D01*
X5507742D01*
X5503799Y4264021D01*
X5490862Y4269380D01*
X5476858D01*
X5463921Y4264021D01*
X5454019Y4254119D01*
X5448660Y4241182D01*
Y4227178D01*
X5454019Y4214241D01*
X5463921Y4204339D01*
X5476858Y4198980D01*
X5490862D01*
X5503799Y4204339D01*
X5507742Y4208282D01*
X5533640D01*
Y4194020D01*
X5628960D01*
Y4274340D01*
D02*
G37*
G36*
X5856200Y4388144D02*
X5847359Y4386385D01*
X5839863Y4381377D01*
X5834855Y4373882D01*
X5833096Y4365040D01*
Y4340040D01*
X5834855Y4331198D01*
X5839367Y4324446D01*
Y4274340D01*
X5835900D01*
Y4250395D01*
X5823860Y4248802D01*
X5818501Y4261739D01*
X5808599Y4271641D01*
X5806763Y4272401D01*
Y4323186D01*
X5807537Y4323703D01*
X5812545Y4331198D01*
X5814304Y4340040D01*
Y4365040D01*
X5812545Y4373882D01*
X5807537Y4381377D01*
X5800041Y4386385D01*
X5791200Y4388144D01*
X5782359Y4386385D01*
X5774863Y4381377D01*
X5769855Y4373882D01*
X5768096Y4365040D01*
Y4340040D01*
X5769855Y4331198D01*
X5773097Y4326347D01*
Y4273453D01*
X5768721Y4271641D01*
X5758819Y4261739D01*
X5756660Y4256527D01*
X5743960Y4259053D01*
Y4274340D01*
X5719133D01*
Y4309168D01*
X5727076Y4317110D01*
X5735041Y4318695D01*
X5742537Y4323703D01*
X5747545Y4331198D01*
X5749304Y4340040D01*
Y4365040D01*
X5747545Y4373882D01*
X5742537Y4381377D01*
X5735041Y4386385D01*
X5726200Y4388144D01*
X5717358Y4386385D01*
X5709863Y4381377D01*
X5704855Y4373882D01*
X5703096Y4365040D01*
Y4340742D01*
X5690397Y4328043D01*
X5686748Y4322582D01*
X5685467Y4316140D01*
Y4274340D01*
X5648640D01*
Y4194020D01*
X5685467D01*
Y4121773D01*
X5535688Y3971994D01*
X5532039Y3966533D01*
X5530758Y3960091D01*
Y3943600D01*
X5452140D01*
Y3859280D01*
X5468992D01*
Y3810140D01*
X5470767Y3801220D01*
X5475819Y3793659D01*
X5500840Y3768638D01*
Y3711041D01*
X5500839Y3699501D01*
X5489300Y3699500D01*
X5395340D01*
Y3664238D01*
X5349927D01*
X5338060Y3676105D01*
Y3719800D01*
X5253740D01*
Y3676105D01*
X5213374Y3635739D01*
X5207760Y3627337D01*
X5207652Y3626794D01*
X5199068Y3618209D01*
X5193709Y3605272D01*
Y3591268D01*
X5199068Y3578331D01*
X5208970Y3568429D01*
X5221907Y3563070D01*
X5235910D01*
X5248848Y3568429D01*
X5258749Y3578331D01*
X5264108Y3591268D01*
Y3605272D01*
X5261779Y3610894D01*
X5290365Y3639480D01*
X5301435D01*
X5320888Y3620028D01*
X5329290Y3614414D01*
X5339200Y3612442D01*
X5448500D01*
X5458410Y3614414D01*
X5462551Y3617180D01*
X5501660D01*
Y3687139D01*
X5501661Y3698679D01*
X5513200Y3698680D01*
X5970799D01*
X5982339Y3698679D01*
X5982340Y3687140D01*
Y3577180D01*
Y3457180D01*
Y3337180D01*
X6026375D01*
X6026657Y3336991D01*
X6035500Y3335232D01*
X6084006D01*
X6087543Y3329940D01*
Y3299500D01*
X5982340D01*
Y3229541D01*
X5982339Y3218001D01*
X5970800Y3218000D01*
X5513201D01*
X5501661Y3218001D01*
X5501660Y3229540D01*
Y3377180D01*
Y3467667D01*
X5502477Y3469640D01*
Y3568700D01*
X5501660Y3570673D01*
Y3579500D01*
X5491956D01*
X5491480Y3579697D01*
X5389880D01*
X5382104Y3576476D01*
X5324365Y3518737D01*
X5057140D01*
X5053380Y3517180D01*
X5024920D01*
Y3406860D01*
X5056107D01*
X5119803Y3343165D01*
Y3286760D01*
X5121940Y3281600D01*
Y3275080D01*
X5202260D01*
Y3275763D01*
X5222240D01*
X5230016Y3278984D01*
X5266212Y3315180D01*
X5338060D01*
Y3322916D01*
X5339917Y3327400D01*
Y3386345D01*
X5383607Y3430034D01*
X5395340Y3425174D01*
Y3377180D01*
Y3286088D01*
X5394599Y3285593D01*
X5355117Y3246112D01*
X5351468Y3240651D01*
X5350187Y3234209D01*
Y3171813D01*
X5310198Y3131825D01*
X5287936Y3154088D01*
X5174572Y3040724D01*
X5241974Y2973323D01*
X5355337Y3086686D01*
X5334004Y3108019D01*
X5361900Y3135914D01*
X5373633Y3131054D01*
Y3034724D01*
X5277103Y2938194D01*
X5344504Y2870792D01*
X5457868Y2984156D01*
X5407300Y3034723D01*
Y3205334D01*
X5419146Y3217180D01*
X5433975D01*
X5435600Y3216857D01*
X5437225Y3217180D01*
X5489299D01*
X5500839Y3217179D01*
X5500840Y3205640D01*
Y3111680D01*
X5553317D01*
X5561803Y3098980D01*
X5560420Y3095642D01*
Y3081638D01*
X5565779Y3068701D01*
X5575681Y3058799D01*
X5588618Y3053440D01*
X5602622D01*
X5615559Y3058799D01*
X5624803Y3068043D01*
X5633377Y3059469D01*
X5646314Y3054110D01*
X5660318D01*
X5673255Y3059469D01*
X5683157Y3069371D01*
X5688516Y3082308D01*
Y3096312D01*
X5687410Y3098980D01*
X5695896Y3111680D01*
X5742787D01*
X5749327Y3098980D01*
X5745840Y3090562D01*
Y3076558D01*
X5751199Y3063621D01*
X5761101Y3053719D01*
X5774038Y3048360D01*
X5788042D01*
X5799434Y3039333D01*
X5801999Y3033141D01*
X5811901Y3023239D01*
X5824838Y3017880D01*
X5838842D01*
X5851779Y3023239D01*
X5856540Y3028000D01*
X5869240Y3022739D01*
Y2948700D01*
X5869239Y2948700D01*
Y2939020D01*
X5869240D01*
X5869240Y2936000D01*
Y2838700D01*
X5979560D01*
Y2920294D01*
X5997813Y2938547D01*
X5999623Y2941256D01*
X6009240Y2948700D01*
X6119560D01*
Y3049020D01*
X6041304D01*
X6041302Y3049032D01*
X6037653Y3054493D01*
X6022038Y3070108D01*
X6020673Y3072150D01*
X5997610Y3095213D01*
X5995569Y3096577D01*
X5990002Y3102144D01*
X5983160Y3111680D01*
X5983160D01*
X5983160Y3111681D01*
Y3205639D01*
X5983161Y3217179D01*
X5994700Y3217180D01*
X6055317D01*
Y3177490D01*
X6056598Y3171048D01*
X6060247Y3165587D01*
X6073738Y3152096D01*
X6073500Y3151522D01*
Y3137518D01*
X6078859Y3124581D01*
X6088761Y3114679D01*
X6101698Y3109320D01*
X6115702D01*
X6116276Y3109558D01*
X6157440Y3068394D01*
Y2996880D01*
X6237760D01*
Y3092200D01*
X6181246D01*
X6143949Y3129497D01*
X6144480Y3131511D01*
X6149022Y3142622D01*
X6156851Y3144179D01*
X6156852Y3144180D01*
X6203135D01*
X6219388Y3127927D01*
X6227790Y3122314D01*
X6237700Y3120342D01*
X6282440D01*
Y3106080D01*
X6298702D01*
Y3087122D01*
X6294759Y3083179D01*
X6289400Y3070242D01*
Y3056238D01*
X6294759Y3043301D01*
X6304661Y3033399D01*
X6317598Y3028040D01*
X6331602D01*
X6344539Y3033399D01*
X6354441Y3043301D01*
X6359800Y3056238D01*
Y3070242D01*
X6354441Y3083179D01*
X6350498Y3087122D01*
Y3106080D01*
X6366760D01*
Y3186400D01*
X6282440D01*
Y3172137D01*
X6248427D01*
X6239760Y3180805D01*
Y3224500D01*
X6179762D01*
X6177760Y3224898D01*
X6177759Y3224898D01*
X6176025D01*
X6148296Y3252627D01*
X6149496Y3258664D01*
X6152717Y3266440D01*
Y3329940D01*
X6156254Y3335232D01*
X6287440D01*
Y3317680D01*
X6361760D01*
Y3335232D01*
X6411540D01*
Y3318180D01*
X6479860D01*
Y3392500D01*
X6411540D01*
Y3381448D01*
X6361760D01*
Y3393000D01*
X6293991D01*
X6287440Y3393000D01*
X6282257Y3403553D01*
Y3454400D01*
X6279036Y3462176D01*
X6286714Y3471092D01*
X6315402Y3499780D01*
X6366760D01*
Y3519222D01*
X6388220D01*
X6388221Y3519222D01*
X6396150Y3520799D01*
X6402458Y3525014D01*
X6406498Y3523340D01*
X6420502D01*
X6433439Y3528699D01*
X6443341Y3538601D01*
X6448700Y3551538D01*
Y3565542D01*
X6443341Y3578479D01*
X6433439Y3588381D01*
X6420502Y3593740D01*
X6406498D01*
X6393561Y3588381D01*
X6383659Y3578479D01*
X6379460Y3568342D01*
X6366760Y3570868D01*
Y3580100D01*
X6282440D01*
Y3532742D01*
X6254045Y3504348D01*
X6214900D01*
X6212649Y3503900D01*
X6160713D01*
X6155069Y3504476D01*
X6148980Y3513924D01*
Y3519102D01*
X6143621Y3532039D01*
X6144937Y3548532D01*
X6146208Y3549803D01*
X6151567Y3562740D01*
Y3576743D01*
X6155232Y3582230D01*
X6155852D01*
X6168789Y3587588D01*
X6178691Y3597490D01*
X6184050Y3610428D01*
Y3624431D01*
X6178691Y3637368D01*
X6168789Y3647270D01*
X6155852Y3652629D01*
X6153541D01*
X6150414Y3657310D01*
Y3671313D01*
X6145055Y3684250D01*
X6135153Y3694152D01*
X6122216Y3699511D01*
X6108212D01*
X6101360Y3696673D01*
X6088660Y3699500D01*
Y3699501D01*
X6088659Y3699500D01*
X5994701D01*
X5983161Y3699501D01*
X5983160Y3711040D01*
Y3805000D01*
X5922064D01*
X5915371Y3817700D01*
X5918750Y3825858D01*
Y3839862D01*
X5913391Y3852799D01*
X5903489Y3862701D01*
X5890552Y3868060D01*
X5876549D01*
X5873364Y3879793D01*
Y3882020D01*
X5868006Y3894957D01*
X5858104Y3904859D01*
X5845166Y3910218D01*
X5831163D01*
X5818226Y3904859D01*
X5808324Y3894957D01*
X5802965Y3882020D01*
Y3874026D01*
X5796774Y3872012D01*
X5785760Y3877962D01*
X5780401Y3890899D01*
X5770499Y3900801D01*
X5757562Y3906160D01*
X5743558D01*
X5730621Y3900801D01*
X5723243Y3893422D01*
X5720719Y3890900D01*
X5709744Y3896517D01*
X5711588Y3900969D01*
Y3914972D01*
X5706229Y3927909D01*
X5696327Y3937811D01*
X5683390Y3943170D01*
X5669386D01*
X5656449Y3937811D01*
X5654782Y3936145D01*
X5642327Y3938623D01*
X5641842Y3939792D01*
X5631940Y3949694D01*
X5623215Y3953308D01*
X5618732Y3966786D01*
X5845966Y4194020D01*
X5931220D01*
Y4274340D01*
X5873033D01*
Y4324446D01*
X5877545Y4331198D01*
X5879304Y4340040D01*
Y4365040D01*
X5877545Y4373882D01*
X5872537Y4381377D01*
X5865042Y4386385D01*
X5856200Y4388144D01*
D02*
G37*
G36*
X4283227Y4300320D02*
X4272223D01*
X4262057Y4296109D01*
X4254276Y4288328D01*
X4250065Y4278162D01*
Y4267158D01*
X4254276Y4256992D01*
X4262057Y4249211D01*
X4272223Y4245000D01*
X4283227D01*
X4293393Y4249211D01*
X4301174Y4256992D01*
X4305385Y4267158D01*
Y4278162D01*
X4301174Y4288328D01*
X4293393Y4296109D01*
X4283227Y4300320D01*
D02*
G37*
G36*
X6046220Y4274340D02*
X5950900D01*
Y4194020D01*
X6046220D01*
Y4209552D01*
X6075928D01*
X6078601Y4206879D01*
X6091538Y4201520D01*
X6105542D01*
X6118479Y4206879D01*
X6128381Y4216781D01*
X6133740Y4229718D01*
Y4243722D01*
X6128381Y4256659D01*
X6118479Y4266561D01*
X6105542Y4271920D01*
X6091538D01*
X6078601Y4266561D01*
X6073388Y4261348D01*
X6046220D01*
Y4274340D01*
D02*
G37*
G36*
X4233226Y4250320D02*
X4222223D01*
X4212057Y4246109D01*
X4204276Y4238328D01*
X4200065Y4228162D01*
Y4217158D01*
X4204276Y4206992D01*
X4212057Y4199211D01*
X4222223Y4195000D01*
X4233226D01*
X4243393Y4199211D01*
X4251173Y4206992D01*
X4255384Y4217158D01*
Y4228162D01*
X4251173Y4238328D01*
X4243393Y4246109D01*
X4233226Y4250320D01*
D02*
G37*
G36*
X3981920Y4219300D02*
X3861600D01*
Y4108980D01*
X3981920D01*
Y4123692D01*
X4019300D01*
Y4106840D01*
X4036882D01*
Y4084122D01*
X4029079Y4076319D01*
X4023720Y4063382D01*
Y4049378D01*
X4029079Y4036441D01*
X4038981Y4026539D01*
X4051918Y4021180D01*
X4065922D01*
X4078859Y4026539D01*
X4088761Y4036441D01*
X4094120Y4049378D01*
Y4063382D01*
X4088761Y4076319D01*
X4083498Y4081582D01*
Y4095822D01*
X4087800Y4099352D01*
X4211916D01*
X4212057Y4099212D01*
X4222223Y4095000D01*
X4233226D01*
X4243393Y4099212D01*
X4251173Y4106992D01*
X4255384Y4117158D01*
Y4124683D01*
X4275702Y4145000D01*
X4283227D01*
X4293393Y4149211D01*
X4301174Y4156992D01*
X4305385Y4167158D01*
Y4178162D01*
X4301174Y4188328D01*
X4293393Y4196109D01*
X4283227Y4200320D01*
X4272223D01*
X4262057Y4196109D01*
X4254276Y4188328D01*
X4250065Y4178162D01*
Y4170638D01*
X4229747Y4150320D01*
X4222223D01*
X4212057Y4146109D01*
X4211916Y4145968D01*
X4103620D01*
Y4187160D01*
X4019300D01*
Y4170308D01*
X3981920D01*
Y4219300D01*
D02*
G37*
G36*
X4633226Y4200320D02*
X4622223D01*
X4612057Y4196109D01*
X4604276Y4188328D01*
X4600065Y4178162D01*
Y4167158D01*
X4604276Y4156992D01*
X4612057Y4149211D01*
X4622223Y4145000D01*
X4629747D01*
X4650065Y4124683D01*
Y4117158D01*
X4654276Y4106992D01*
X4662057Y4099212D01*
X4672223Y4095000D01*
X4683227D01*
X4693393Y4099212D01*
X4700550Y4106369D01*
X4761984D01*
X4767081Y4102963D01*
X4776000Y4101189D01*
X4783840D01*
Y4094140D01*
X4801079D01*
X4801280Y4081440D01*
X4793619Y4073779D01*
X4788260Y4060842D01*
Y4046838D01*
X4793619Y4033901D01*
X4803521Y4023999D01*
X4816458Y4018640D01*
X4830462D01*
X4843399Y4023999D01*
X4853301Y4033901D01*
X4858660Y4046838D01*
Y4060842D01*
X4853301Y4073779D01*
X4848038Y4079042D01*
Y4094140D01*
X4868160D01*
Y4101189D01*
X4905760D01*
Y4090700D01*
X4990080D01*
Y4171020D01*
X4905760D01*
Y4147805D01*
X4868160D01*
Y4174460D01*
X4783840D01*
Y4147805D01*
X4776000D01*
X4767081Y4146031D01*
X4761984Y4142625D01*
X4696877D01*
X4693393Y4146109D01*
X4683227Y4150320D01*
X4675702D01*
X4655384Y4170638D01*
Y4178162D01*
X4651173Y4188328D01*
X4643393Y4196109D01*
X4633226Y4200320D01*
D02*
G37*
G36*
X4746642Y4058560D02*
X4732638D01*
X4719701Y4053201D01*
X4709799Y4043299D01*
X4696634Y4042867D01*
X4693393Y4046109D01*
X4683227Y4050320D01*
X4672223D01*
X4662057Y4046109D01*
X4654276Y4038328D01*
X4650065Y4028162D01*
Y4017158D01*
X4654276Y4006992D01*
X4662057Y3999211D01*
X4672223Y3995000D01*
X4683227D01*
X4693393Y3999211D01*
X4696924Y4002743D01*
X4709799Y4003421D01*
X4719701Y3993519D01*
X4732638Y3988160D01*
X4746642D01*
X4759579Y3993519D01*
X4769481Y4003421D01*
X4774840Y4016358D01*
Y4030362D01*
X4769481Y4043299D01*
X4759579Y4053201D01*
X4746642Y4058560D01*
D02*
G37*
G36*
X4683227Y3950320D02*
X4672223D01*
X4662057Y3946109D01*
X4654276Y3938328D01*
X4650065Y3928162D01*
Y3917158D01*
X4654276Y3906992D01*
X4655311Y3905957D01*
X4656330Y3904469D01*
X4655887Y3902618D01*
X4649075Y3898133D01*
X4642116Y3896638D01*
X4633226Y3900320D01*
X4622223D01*
X4612057Y3896109D01*
X4604276Y3888328D01*
X4600065Y3878162D01*
Y3867158D01*
X4602541Y3861180D01*
X4596710Y3849595D01*
X4595236Y3848154D01*
X4591717Y3846803D01*
X4583227Y3850320D01*
X4572223D01*
X4562057Y3846109D01*
X4554276Y3838328D01*
X4550065Y3828162D01*
Y3817158D01*
X4554276Y3806992D01*
X4554496Y3806772D01*
X4557141Y3794121D01*
X4547239Y3784219D01*
X4541880Y3771282D01*
Y3757278D01*
X4547239Y3744341D01*
X4557141Y3734439D01*
X4570078Y3729080D01*
X4584082D01*
X4592204Y3732445D01*
X4604905Y3725731D01*
Y3712460D01*
X4588540D01*
Y3628140D01*
X4605392D01*
Y3590760D01*
X4556400D01*
Y3470440D01*
X4666720D01*
Y3590760D01*
X4652008D01*
Y3628140D01*
X4668860D01*
Y3628140D01*
X4680860Y3626849D01*
X4693797Y3621490D01*
X4707801D01*
X4720738Y3626849D01*
X4730640Y3636751D01*
X4735999Y3649688D01*
Y3663692D01*
X4730640Y3676629D01*
X4720738Y3686531D01*
X4707801Y3691890D01*
X4693797D01*
X4680860Y3686531D01*
X4668860Y3692156D01*
Y3712460D01*
X4651520D01*
Y3807830D01*
X4655384Y3817158D01*
Y3828162D01*
X4652908Y3834141D01*
X4658739Y3845725D01*
X4660213Y3847166D01*
X4663732Y3848517D01*
X4672223Y3845000D01*
X4681579D01*
X4754032Y3772547D01*
X4759493Y3768898D01*
X4765935Y3767617D01*
X4783540D01*
Y3700640D01*
X4841366D01*
Y3641340D01*
X4807060D01*
Y3557020D01*
X4887380D01*
Y3641340D01*
X4875033D01*
Y3700640D01*
X4893860D01*
Y3800960D01*
X4802376D01*
X4800750Y3801284D01*
X4772907D01*
X4705385Y3868806D01*
Y3878162D01*
X4701173Y3888328D01*
X4700138Y3889364D01*
X4696360Y3894880D01*
X4702996Y3905827D01*
X4904868D01*
X4923540Y3887154D01*
Y3810640D01*
X5033860D01*
Y3843967D01*
X5083560D01*
Y3821460D01*
X5167880D01*
Y3901780D01*
X5083560D01*
Y3877633D01*
X5033860D01*
Y3910960D01*
X4947346D01*
X4923743Y3934563D01*
X4918282Y3938212D01*
X4911840Y3939494D01*
X4700008D01*
X4693393Y3946109D01*
X4683227Y3950320D01*
D02*
G37*
G36*
X6709834Y4210920D02*
X6670886D01*
X6632687Y4203322D01*
X6596705Y4188417D01*
X6564321Y4166779D01*
X6536781Y4139239D01*
X6515143Y4106855D01*
X6500238Y4070873D01*
X6492640Y4032674D01*
Y3993726D01*
X6500238Y3955527D01*
X6515143Y3919545D01*
X6536781Y3887161D01*
X6564321Y3859621D01*
X6596705Y3837983D01*
X6632687Y3823078D01*
X6670886Y3815480D01*
X6709834D01*
X6748033Y3823078D01*
X6784015Y3837983D01*
X6816399Y3859621D01*
X6843939Y3887161D01*
X6865577Y3919545D01*
X6880482Y3955527D01*
X6888080Y3993726D01*
Y4032674D01*
X6880482Y4070873D01*
X6865577Y4106855D01*
X6843939Y4139239D01*
X6816399Y4166779D01*
X6784015Y4188417D01*
X6748033Y4203322D01*
X6709834Y4210920D01*
D02*
G37*
G36*
X4024410Y3925608D02*
X4010407D01*
X3997469Y3920249D01*
X3987567Y3910347D01*
X3982208Y3897410D01*
Y3883407D01*
X3987567Y3870469D01*
X3997469Y3860567D01*
X4010407Y3855208D01*
X4024410D01*
X4033080Y3849415D01*
Y3821000D01*
X4125400D01*
Y3851942D01*
X4188062D01*
X4193322Y3839242D01*
X4189440Y3835360D01*
X4184081Y3822422D01*
Y3808419D01*
X4189440Y3795482D01*
X4199342Y3785580D01*
X4212279Y3780221D01*
X4226282D01*
X4227518Y3780732D01*
X4237540Y3771741D01*
Y3757738D01*
X4242899Y3744801D01*
X4252801Y3734899D01*
X4265738Y3729540D01*
X4279742D01*
X4292679Y3734899D01*
X4301388Y3743608D01*
X4310499Y3734498D01*
X4323436Y3729139D01*
X4337440D01*
X4350377Y3734498D01*
X4360279Y3744400D01*
X4365638Y3757337D01*
Y3771340D01*
X4360279Y3784278D01*
X4350377Y3794179D01*
X4351157Y3806729D01*
X4351387Y3807508D01*
X4355384Y3817158D01*
Y3828162D01*
X4351173Y3838328D01*
X4343393Y3846109D01*
X4333227Y3850320D01*
X4322223D01*
X4312057Y3846109D01*
X4311021Y3845074D01*
X4309534Y3844055D01*
X4307683Y3844498D01*
X4303198Y3851310D01*
X4301702Y3858269D01*
X4305385Y3867158D01*
Y3878162D01*
X4301174Y3888328D01*
X4293393Y3896109D01*
X4283227Y3900320D01*
X4272223D01*
X4262057Y3896109D01*
X4261021Y3895074D01*
X4252725Y3889391D01*
X4244428Y3895074D01*
X4243393Y3896109D01*
X4233226Y3900320D01*
X4222223D01*
X4212057Y3896109D01*
X4209326Y3893378D01*
X4125400D01*
Y3917320D01*
X4040276D01*
X4037347Y3920249D01*
X4024410Y3925608D01*
D02*
G37*
G36*
X4483226Y3850320D02*
X4472223D01*
X4462057Y3846109D01*
X4454276Y3838328D01*
X4450065Y3828162D01*
Y3817158D01*
X4454276Y3806992D01*
X4456728Y3804540D01*
X4458081Y3791581D01*
X4448179Y3781679D01*
X4442820Y3768742D01*
Y3754738D01*
X4448179Y3741801D01*
X4458081Y3731899D01*
X4471018Y3726540D01*
X4485022D01*
X4497959Y3731899D01*
X4507861Y3741801D01*
X4513220Y3754738D01*
Y3768742D01*
X4507861Y3781679D01*
X4497959Y3791581D01*
X4498843Y3804662D01*
X4501173Y3806992D01*
X4505384Y3817158D01*
Y3828162D01*
X4501173Y3838328D01*
X4493393Y3846109D01*
X4483226Y3850320D01*
D02*
G37*
G36*
X7531100Y3906087D02*
X7241540D01*
X7233764Y3902866D01*
X7230543Y3895090D01*
Y3845560D01*
Y3700780D01*
Y3653790D01*
X7233764Y3646014D01*
X7241540Y3642793D01*
X7531100D01*
X7538876Y3646014D01*
X7542097Y3653790D01*
Y3703320D01*
Y3895090D01*
X7538876Y3902866D01*
X7531100Y3906087D01*
D02*
G37*
G36*
X6810060Y3392500D02*
X6741740D01*
Y3377547D01*
X6691960D01*
Y3392100D01*
X6617640D01*
Y3378448D01*
X6567860D01*
Y3392500D01*
X6499540D01*
Y3318180D01*
X6567860D01*
Y3332232D01*
X6617640D01*
Y3316780D01*
X6691960D01*
Y3331332D01*
X6741740D01*
Y3318180D01*
X6810060D01*
Y3392500D01*
D02*
G37*
G36*
X3712634Y3741020D02*
X3673686D01*
X3635487Y3733422D01*
X3599505Y3718517D01*
X3567121Y3696879D01*
X3539581Y3669339D01*
X3517943Y3636955D01*
X3503038Y3600973D01*
X3495440Y3562774D01*
Y3523826D01*
X3503038Y3485627D01*
X3517943Y3449645D01*
X3539581Y3417261D01*
X3567121Y3389721D01*
X3599505Y3368083D01*
X3635487Y3353178D01*
X3673686Y3345580D01*
X3712634D01*
X3750833Y3353178D01*
X3786815Y3368083D01*
X3819199Y3389721D01*
X3846739Y3417261D01*
X3868377Y3449645D01*
X3883282Y3485627D01*
X3890880Y3523826D01*
Y3562774D01*
X3883282Y3600973D01*
X3868377Y3636955D01*
X3846739Y3669339D01*
X3819199Y3696879D01*
X3786815Y3718517D01*
X3750833Y3733422D01*
X3712634Y3741020D01*
D02*
G37*
G36*
X5789120Y3429348D02*
X5782182Y3427968D01*
X5776301Y3424039D01*
X5772372Y3418158D01*
X5770992Y3411220D01*
Y3372549D01*
X5707261Y3308819D01*
X5703332Y3302938D01*
X5701952Y3296000D01*
Y3294380D01*
X5703332Y3287443D01*
X5707261Y3281561D01*
X5713143Y3277632D01*
X5720080Y3276252D01*
X5727017Y3277632D01*
X5732899Y3281561D01*
X5736160Y3286443D01*
X5801939Y3352221D01*
X5802973Y3353769D01*
X5815745Y3356651D01*
X5818449Y3356253D01*
X5833335Y3341367D01*
X5834261Y3339981D01*
X5835647Y3339055D01*
X5869181Y3305521D01*
X5875062Y3301592D01*
X5882000Y3300212D01*
X5888937Y3301592D01*
X5894819Y3305521D01*
X5898748Y3311403D01*
X5900128Y3318340D01*
X5898748Y3325278D01*
X5894819Y3331159D01*
X5860359Y3365619D01*
X5860083Y3365803D01*
X5859899Y3366079D01*
X5801939Y3424039D01*
X5796057Y3427968D01*
X5789120Y3429348D01*
D02*
G37*
G36*
X2976880Y3234257D02*
X2796176Y3234257D01*
X2793319Y3233073D01*
X2790272Y3232537D01*
X2729676Y3193976D01*
X2728958Y3192952D01*
X2727804Y3192474D01*
X2726620Y3189616D01*
X2724845Y3187083D01*
X2725061Y3185852D01*
X2724583Y3184698D01*
Y3091180D01*
X2727804Y3083404D01*
X2809084Y3002124D01*
X2816860Y2998903D01*
X3139314Y2998903D01*
X3141334Y2999740D01*
X3143522D01*
X3145069Y3001287D01*
X3147090Y3002124D01*
X3147254Y3002520D01*
X3147450Y3002749D01*
X3156243Y3007228D01*
X3160738Y3008248D01*
X3167180Y3006967D01*
X3217237D01*
X3218177Y3004697D01*
X3229780Y2999891D01*
X3279780D01*
X3291383Y3004697D01*
X3296189Y3016300D01*
Y3031300D01*
X3291383Y3042903D01*
X3279780Y3047709D01*
X3229780D01*
X3218177Y3042903D01*
X3206317Y3047457D01*
Y3099325D01*
X3207495Y3100503D01*
X3228303D01*
X3229780Y3099891D01*
X3279780D01*
X3281257Y3100503D01*
X3281680D01*
X3289456Y3103724D01*
X3289755Y3104023D01*
X3291383Y3104697D01*
X3296189Y3116300D01*
Y3131300D01*
X3295217Y3133646D01*
Y3136900D01*
X3291996Y3144676D01*
X3284220Y3147897D01*
X3067795D01*
X3058676Y3157016D01*
X3055395Y3158375D01*
X3054036Y3161656D01*
X2984656Y3231036D01*
X2976880Y3234257D01*
D02*
G37*
G36*
X3442440Y3372320D02*
X3332120D01*
Y3356492D01*
X3331643Y3355340D01*
Y3162300D01*
X3334864Y3154524D01*
X3337278Y3153524D01*
X3342605Y3147438D01*
X3342527Y3138649D01*
X3341803Y3136900D01*
Y3111500D01*
X3345024Y3103724D01*
X3352800Y3100503D01*
X3358303D01*
X3359780Y3099891D01*
X3409780D01*
X3411257Y3100503D01*
X3419365D01*
X3443403Y3076465D01*
Y3042920D01*
X3446624Y3035144D01*
X3469484Y3012284D01*
X3477260Y3009063D01*
X3642360D01*
X3650136Y3012284D01*
X3650864Y3014040D01*
X3651240D01*
Y3014948D01*
X3653357Y3020060D01*
Y3091180D01*
X3651240Y3096292D01*
Y3099360D01*
X3649732D01*
X3634896Y3114196D01*
X3627120Y3117417D01*
X3494515D01*
X3475592Y3136340D01*
X3480853Y3149040D01*
X3651240D01*
Y3157188D01*
X3653357Y3162300D01*
Y3246120D01*
X3650136Y3253896D01*
X3540916Y3363116D01*
X3533140Y3366337D01*
X3442440D01*
Y3372320D01*
D02*
G37*
G36*
X4044890Y3139440D02*
X4022150D01*
X4000186Y3133555D01*
X3980494Y3122185D01*
X3964415Y3106106D01*
X3953045Y3086414D01*
X3947160Y3064450D01*
Y3041710D01*
X3953045Y3019746D01*
X3964415Y3000054D01*
X3980494Y2983975D01*
X4000186Y2972605D01*
X4022150Y2966720D01*
X4044890D01*
X4066854Y2972605D01*
X4086546Y2983975D01*
X4102625Y3000054D01*
X4113995Y3019746D01*
X4119880Y3041710D01*
Y3064450D01*
X4113995Y3086414D01*
X4102625Y3106106D01*
X4086546Y3122185D01*
X4066854Y3133555D01*
X4044890Y3139440D01*
D02*
G37*
G36*
X6237760Y2977200D02*
X6157440D01*
Y2881880D01*
X6237760D01*
Y2903642D01*
X6256642D01*
X6256659Y2903601D01*
X6266561Y2893699D01*
X6279498Y2888340D01*
X6293502D01*
X6306439Y2893699D01*
X6316341Y2903601D01*
X6321700Y2916538D01*
Y2930542D01*
X6316341Y2943479D01*
X6306439Y2953381D01*
X6293502Y2958740D01*
X6279498D01*
X6271526Y2955438D01*
X6237760D01*
Y2977200D01*
D02*
G37*
G36*
X4335162Y2877460D02*
X4321158D01*
X4308221Y2872101D01*
X4298319Y2862199D01*
X4292960Y2849262D01*
Y2835258D01*
X4298319Y2822321D01*
X4308221Y2812419D01*
X4311664Y2810993D01*
Y2789940D01*
X4290540D01*
Y2694620D01*
X4370860D01*
Y2789940D01*
X4344656D01*
Y2810993D01*
X4348099Y2812419D01*
X4358001Y2822321D01*
X4363360Y2835258D01*
Y2849262D01*
X4358001Y2862199D01*
X4348099Y2872101D01*
X4335162Y2877460D01*
D02*
G37*
G36*
X3839862Y2880000D02*
X3825858D01*
X3812921Y2874641D01*
X3803019Y2864739D01*
X3797660Y2851802D01*
Y2837798D01*
X3803019Y2824861D01*
X3812921Y2814959D01*
X3816027Y2813673D01*
Y2789940D01*
X3795240D01*
Y2694620D01*
X3875560D01*
Y2789940D01*
X3849693D01*
Y2813673D01*
X3852799Y2814959D01*
X3862701Y2824861D01*
X3868060Y2837798D01*
Y2851802D01*
X3862701Y2864739D01*
X3852799Y2874641D01*
X3839862Y2880000D01*
D02*
G37*
G36*
X4805062Y2869840D02*
X4791058D01*
X4778121Y2864481D01*
X4768219Y2854579D01*
X4762860Y2841642D01*
Y2827638D01*
X4768219Y2814701D01*
X4778121Y2804799D01*
X4781564Y2803373D01*
Y2787400D01*
X4760440D01*
Y2692080D01*
X4840760D01*
Y2787400D01*
X4814556D01*
Y2803373D01*
X4817999Y2804799D01*
X4827901Y2814701D01*
X4833260Y2827638D01*
Y2841642D01*
X4827901Y2854579D01*
X4817999Y2864481D01*
X4805062Y2869840D01*
D02*
G37*
G36*
X4840760Y2672400D02*
X4760440D01*
Y2626333D01*
X4701060D01*
Y2672400D01*
X4620740D01*
Y2577080D01*
X4701060D01*
Y2592667D01*
X4760440D01*
Y2577080D01*
X4840760D01*
Y2672400D01*
D02*
G37*
G36*
X4370860Y2674940D02*
X4290540D01*
Y2626333D01*
X4231160D01*
Y2674940D01*
X4150840D01*
Y2579620D01*
X4231160D01*
Y2592667D01*
X4290540D01*
Y2579620D01*
X4370860D01*
Y2674940D01*
D02*
G37*
G36*
X3875560D02*
X3795240D01*
Y2626333D01*
X3735860D01*
Y2674940D01*
X3655540D01*
Y2579620D01*
X3735860D01*
Y2592667D01*
X3795240D01*
Y2579620D01*
X3875560D01*
Y2674940D01*
D02*
G37*
G36*
X7526020Y2830397D02*
X7236460D01*
X7228684Y2827176D01*
X7225463Y2819400D01*
Y2593340D01*
X7228684Y2585564D01*
X7233546Y2583550D01*
X7233764Y2583024D01*
X7241540Y2579803D01*
X7531100D01*
X7538876Y2583024D01*
X7542097Y2590800D01*
Y2816860D01*
X7538876Y2824636D01*
X7534014Y2826650D01*
X7533796Y2827176D01*
X7526020Y2830397D01*
D02*
G37*
%LPD*%
G36*
X5491480Y3472180D02*
Y3469640D01*
X5407660D01*
X5397520Y3459500D01*
X5395340D01*
Y3457320D01*
X5328920Y3390900D01*
Y3327400D01*
X5262880D01*
X5222240Y3286760D01*
X5130800D01*
Y3347720D01*
X5052060Y3426460D01*
Y3502660D01*
X5057140Y3507740D01*
X5328920D01*
X5389880Y3568700D01*
X5491480D01*
Y3472180D01*
D02*
G37*
G36*
X3046260Y3153880D02*
Y3149240D01*
X3050900D01*
X3063240Y3136900D01*
X3284220D01*
Y3114040D01*
X3281680Y3111500D01*
X3202940D01*
X3195320Y3103880D01*
Y3042920D01*
X3193033Y3040633D01*
X3174153D01*
X3133563Y3081223D01*
X3128102Y3084872D01*
X3121660Y3086153D01*
X3119093Y3085643D01*
X3117942Y3086412D01*
X3111500Y3087693D01*
X3105058Y3086412D01*
X3099597Y3082763D01*
X3095948Y3077302D01*
X3094667Y3070860D01*
Y3069320D01*
X3095948Y3062878D01*
X3099597Y3057417D01*
X3105058Y3053768D01*
X3111500Y3052487D01*
X3114159Y3053015D01*
X3144574Y3022600D01*
X3139314Y3009900D01*
X2816860Y3009900D01*
X2735580Y3091180D01*
Y3184698D01*
X2796176Y3223259D01*
X2976880Y3223260D01*
X3046260Y3153880D01*
D02*
G37*
G36*
X3642360Y3246120D02*
Y3162300D01*
X3342640D01*
Y3355340D01*
X3533140D01*
X3642360Y3246120D01*
D02*
G37*
G36*
X3489960Y3106420D02*
X3627120D01*
X3642360Y3091180D01*
Y3020060D01*
X3477260D01*
X3454400Y3042920D01*
Y3081020D01*
X3423920Y3111500D01*
X3352800D01*
Y3136900D01*
X3459480D01*
X3489960Y3106420D01*
D02*
G37*
D10*
X7753160Y3775300D02*
D03*
Y3555300D02*
D03*
X7380160Y3775300D02*
D03*
Y2705300D02*
D03*
D11*
X5742000Y3458340D02*
D03*
D12*
X5448500Y3238340D02*
D03*
Y3278340D02*
D03*
Y3318340D02*
D03*
Y3358340D02*
D03*
Y3398340D02*
D03*
Y3438340D02*
D03*
Y3478340D02*
D03*
Y3518340D02*
D03*
Y3558340D02*
D03*
Y3598340D02*
D03*
Y3638340D02*
D03*
Y3678340D02*
D03*
X6035500D02*
D03*
Y3638340D02*
D03*
Y3598340D02*
D03*
Y3558340D02*
D03*
Y3518340D02*
D03*
Y3478340D02*
D03*
Y3438340D02*
D03*
Y3398340D02*
D03*
Y3358340D02*
D03*
Y3318340D02*
D03*
Y3278340D02*
D03*
Y3238340D02*
D03*
D13*
X5522000Y3751840D02*
D03*
X5562000D02*
D03*
X5602000D02*
D03*
X5642000D02*
D03*
X5682000D02*
D03*
X5722000D02*
D03*
X5762000D02*
D03*
X5802000D02*
D03*
X5842000D02*
D03*
X5882000D02*
D03*
X5922000D02*
D03*
X5962000D02*
D03*
Y3164840D02*
D03*
X5922000D02*
D03*
X5882000D02*
D03*
X5842000D02*
D03*
X5802000D02*
D03*
X5762000D02*
D03*
X5722000D02*
D03*
X5682000D02*
D03*
X5642000D02*
D03*
X5602000D02*
D03*
X5562000D02*
D03*
X5522000D02*
D03*
D14*
X5871023Y4662880D02*
D03*
X5783023D02*
D03*
X4847220Y3599180D02*
D03*
X4935220D02*
D03*
X4628700Y3670300D02*
D03*
X4540700D02*
D03*
X5492300Y3901440D02*
D03*
X5404300D02*
D03*
X5162100Y3317240D02*
D03*
X5074100D02*
D03*
D15*
X4611560Y3530600D02*
D03*
X4476560D02*
D03*
X3252280Y3312160D02*
D03*
X3387280D02*
D03*
D16*
X5125720Y3861620D02*
D03*
Y3773620D02*
D03*
X4947920Y4130860D02*
D03*
Y4042860D02*
D03*
X4826000Y4134300D02*
D03*
Y4222300D02*
D03*
X6324600Y3627940D02*
D03*
Y3539940D02*
D03*
Y3146240D02*
D03*
Y3234240D02*
D03*
X6197600Y3551740D02*
D03*
Y3463740D02*
D03*
Y3184340D02*
D03*
Y3272340D02*
D03*
X5295900Y3267340D02*
D03*
Y3355340D02*
D03*
Y3679640D02*
D03*
Y3767640D02*
D03*
Y3476440D02*
D03*
Y3564440D02*
D03*
X4061460Y4147000D02*
D03*
Y4235000D02*
D03*
D17*
X4838700Y3860800D02*
D03*
X4978700D02*
D03*
Y3750800D02*
D03*
X4838700D02*
D03*
X5924400Y2888860D02*
D03*
X6064400D02*
D03*
Y2998860D02*
D03*
X5924400D02*
D03*
D18*
X5696300Y4234180D02*
D03*
X5581300D02*
D03*
X5883560D02*
D03*
X5998560D02*
D03*
D19*
X5791200Y4447540D02*
D03*
D20*
X5856200Y4352540D02*
D03*
X5791200D02*
D03*
X5726200D02*
D03*
Y4542540D02*
D03*
X5791200D02*
D03*
X5856200D02*
D03*
D21*
X4677725Y3872660D02*
D03*
Y3922660D02*
D03*
Y3972660D02*
D03*
Y4022660D02*
D03*
Y4072660D02*
D03*
Y4122660D02*
D03*
Y4172660D02*
D03*
Y4222660D02*
D03*
X4627725Y3822660D02*
D03*
Y3872660D02*
D03*
Y3922660D02*
D03*
Y4022660D02*
D03*
Y4072660D02*
D03*
Y4122660D02*
D03*
Y4172660D02*
D03*
Y4222660D02*
D03*
Y4272660D02*
D03*
X4577725Y3822660D02*
D03*
Y3872660D02*
D03*
Y4272660D02*
D03*
X4527725Y3822660D02*
D03*
Y4272660D02*
D03*
X4477725Y3822660D02*
D03*
Y3872660D02*
D03*
Y4272660D02*
D03*
X4427725Y3822660D02*
D03*
Y3872660D02*
D03*
Y4272660D02*
D03*
X4377725Y3822660D02*
D03*
Y4272660D02*
D03*
X4327725Y3822660D02*
D03*
Y3872660D02*
D03*
Y4272660D02*
D03*
X4277725Y3822660D02*
D03*
Y3872660D02*
D03*
Y3922660D02*
D03*
Y4022660D02*
D03*
Y4072660D02*
D03*
Y4122660D02*
D03*
Y4172660D02*
D03*
Y4222660D02*
D03*
Y4272660D02*
D03*
X4227725Y3872660D02*
D03*
Y3922660D02*
D03*
Y3972660D02*
D03*
Y4022660D02*
D03*
Y4072660D02*
D03*
Y4122660D02*
D03*
Y4172660D02*
D03*
Y4222660D02*
D03*
D22*
X4800600Y2739740D02*
D03*
Y2624740D02*
D03*
X6197600Y2929540D02*
D03*
Y3044540D02*
D03*
X4660900Y2624740D02*
D03*
Y2739740D02*
D03*
X4330700Y2627280D02*
D03*
Y2742280D02*
D03*
X3835400Y2627280D02*
D03*
Y2742280D02*
D03*
X4191000Y2627280D02*
D03*
Y2742280D02*
D03*
X3695700Y2627280D02*
D03*
Y2742280D02*
D03*
D23*
X6863900Y3355340D02*
D03*
X6775900D02*
D03*
X6533700D02*
D03*
X6445700D02*
D03*
D24*
X5085080Y3597020D02*
D03*
Y3462020D02*
D03*
X3921760Y4164140D02*
D03*
Y4299140D02*
D03*
X3106420Y3204400D02*
D03*
Y3069400D02*
D03*
D25*
X6983200Y3355340D02*
D03*
X7061200D02*
D03*
D26*
X6654800Y3432440D02*
D03*
Y3354440D02*
D03*
X6324600Y3433340D02*
D03*
Y3355340D02*
D03*
X7233920Y3278240D02*
D03*
Y3356240D02*
D03*
D27*
X7492367Y3556633D02*
D03*
X7554593Y3494407D02*
D03*
D28*
X7492637Y3433717D02*
D03*
X7437483Y3378563D02*
D03*
D29*
X5367485Y2961175D02*
D03*
X5264955Y3063705D02*
D03*
D30*
X4079240Y3771160D02*
D03*
Y3869160D02*
D03*
D31*
X3384780Y3173800D02*
D03*
Y3123800D02*
D03*
Y3073800D02*
D03*
Y3023800D02*
D03*
X3254780D02*
D03*
Y3073800D02*
D03*
Y3123800D02*
D03*
Y3173800D02*
D03*
D32*
X3561080Y3056700D02*
D03*
Y3191700D02*
D03*
D33*
X3525520Y4752340D02*
D03*
Y4650740D02*
D03*
Y4549140D02*
D03*
Y4447540D02*
D03*
Y4345940D02*
D03*
X3144520Y4752340D02*
D03*
Y4650740D02*
D03*
Y4549140D02*
D03*
Y4447540D02*
D03*
Y4345940D02*
D03*
D34*
X7492637Y3433717D02*
X7612380Y3553460D01*
X6035500Y3358340D02*
X6442700D01*
X6445700Y3355340D01*
X6654800Y3354440D02*
X6775000D01*
X6533700Y3355340D02*
X6654800D01*
X6977380D02*
X6979920Y3357880D01*
X6863900Y3355340D02*
X6977380D01*
X7492637Y3433717D02*
X7499350D01*
X7612380Y3553460D02*
X7749540D01*
X7239450Y3355790D02*
X7239900Y3356240D01*
X7061650Y3355790D02*
X7239450D01*
X7239900Y3356240D02*
X7410080D01*
X7233920D02*
X7239900D01*
X7410080D02*
X7421880Y3368040D01*
X7061200Y3355340D02*
X7061650Y3355790D01*
X6532880Y3355340D02*
X6533700D01*
X6525260Y3362960D02*
X6532880Y3355340D01*
D35*
X5123180Y3860800D02*
X5128260Y3865880D01*
X5125720Y3861620D02*
X5132520Y3868420D01*
X5143500D01*
X4978700Y3860800D02*
X5123180D01*
X4219883Y3815421D02*
X4277122Y3872660D01*
X4219281Y3815421D02*
X4219883D01*
X4275232Y3767232D02*
Y3820168D01*
X4327725Y3822660D02*
X4329082Y3821303D01*
X4275232Y3820168D02*
X4277725Y3822660D01*
X4272740Y3764740D02*
X4275232Y3767232D01*
X4329082Y3765695D02*
Y3821303D01*
Y3765695D02*
X4330438Y3764339D01*
X4577402Y3764602D02*
Y3822338D01*
X4577080Y3764280D02*
X4577402Y3764602D01*
X4477872Y3761888D02*
Y3822512D01*
Y3761888D02*
X4478020Y3761740D01*
X5633274Y3857041D02*
Y3889840D01*
X5612001Y3911113D02*
X5633274Y3889840D01*
X5612001Y3911113D02*
Y3919853D01*
X4477725Y3822660D02*
X4477872Y3822512D01*
X4577402Y3822338D02*
X4577725Y3822660D01*
X5838165Y3875018D02*
X5842000Y3871183D01*
Y3751840D02*
Y3871183D01*
X5570451Y3942311D02*
X5856200Y4228060D01*
X5882000Y3751840D02*
X5882775Y3752615D01*
X6105120Y3144520D02*
X6184900Y3064740D01*
Y3050540D02*
Y3064740D01*
X6025750Y3037590D02*
X6059400Y3003940D01*
X6064400D01*
X6094520Y3638340D02*
X6115214Y3659034D01*
Y3664311D01*
X5882775Y3752615D02*
Y3832085D01*
X5883550Y3832860D01*
X5752740Y3820179D02*
X5762000Y3810919D01*
X5711190Y3828778D02*
X5717350Y3822618D01*
X5762000Y3751840D02*
Y3810919D01*
X5717350Y3756490D02*
Y3822618D01*
X5669640Y3811567D02*
X5677350Y3803858D01*
X5717350Y3756490D02*
X5722000Y3751840D01*
X5677350Y3756490D02*
X5682000Y3751840D01*
X5677350Y3756490D02*
Y3803858D01*
X5801225Y3752615D02*
Y3829545D01*
Y3752615D02*
X5802000Y3751840D01*
X5800450Y3830320D02*
X5801225Y3829545D01*
X5547591Y3877362D02*
Y3960091D01*
X5562078Y3751918D02*
Y3862875D01*
X5670208Y3883467D02*
Y3901790D01*
X5752740Y3820179D02*
Y3868780D01*
X5670208Y3901790D02*
X5676388Y3907970D01*
X5669640Y3811567D02*
Y3882900D01*
X5750560Y3870960D02*
X5752740Y3868780D01*
X5669640Y3882900D02*
X5670208Y3883467D01*
X5562000Y3751840D02*
X5562078Y3751918D01*
X5602000Y3751840D02*
X5603860Y3753700D01*
X5547591Y3877362D02*
X5562078Y3862875D01*
X5570451Y3886831D02*
Y3942311D01*
X5642000Y3751840D02*
Y3848315D01*
X5603860Y3753700D02*
Y3845432D01*
X5591724Y3857569D02*
Y3865558D01*
X5570451Y3886831D02*
X5591724Y3865558D01*
Y3857569D02*
X5603860Y3845432D01*
X5633274Y3857041D02*
X5642000Y3848315D01*
X5435600Y3233690D02*
X5440250Y3238340D01*
X5419990Y3273690D02*
X5425440Y3279140D01*
X5440250Y3238340D02*
X5448500D01*
X5419200Y3241040D02*
X5422900D01*
X6110660Y3515220D02*
X6113780Y3512100D01*
X6085750Y3473690D02*
X6105040Y3454400D01*
X6035500Y3478340D02*
X6040150Y3473690D01*
X6105040Y3454400D02*
X6113780D01*
X6038620Y3515220D02*
X6110660D01*
X6035500Y3518340D02*
X6038620Y3515220D01*
X6113780Y3510280D02*
Y3512100D01*
X6040150Y3473690D02*
X6085750D01*
X5598810Y3161650D02*
X5602000Y3164840D01*
X6096225Y3558340D02*
X6107626Y3569742D01*
X6090854Y3602990D02*
X6105294Y3617429D01*
X6040150Y3602990D02*
X6090854D01*
X6105294Y3617429D02*
X6148850D01*
X6035500Y3598340D02*
X6040150Y3602990D01*
X6035500Y3558340D02*
X6096225D01*
X6035500Y3638340D02*
X6094520D01*
X6107626Y3569742D02*
X6116367D01*
X6105120Y3144520D02*
X6108700D01*
X6072150Y3177490D02*
X6105120Y3144520D01*
X6067500Y3238340D02*
X6072150Y3233690D01*
X6035500Y3238340D02*
X6067500D01*
X6072150Y3177490D02*
Y3233690D01*
X5922000Y3164840D02*
X5924703Y3162137D01*
X5839290Y3159590D02*
X5842000Y3162300D01*
X5985910Y2950450D02*
Y3050779D01*
X5985707Y3083310D02*
X6008770Y3060247D01*
X5905500Y2898140D02*
Y2907840D01*
X6025750Y3037590D02*
Y3042590D01*
X5929400Y2893940D02*
X5985910Y2950450D01*
X6008770Y3059570D02*
X6025750Y3042590D01*
X5975561Y3060450D02*
X5976238D01*
X5985030Y3083310D02*
X5985707D01*
X6008770Y3059570D02*
Y3060247D01*
X5976238Y3060450D02*
X5985910Y3050779D01*
X5924400Y2893940D02*
X5929400D01*
X5934490Y3101521D02*
X5975561Y3060450D01*
X5962000Y3106340D02*
X5985030Y3083310D01*
X5962000Y3106340D02*
Y3164840D01*
X5924703Y3112002D02*
Y3162137D01*
X5367485Y2961175D02*
X5390466Y2984156D01*
X5598810Y3096910D02*
Y3161650D01*
X5595620Y3088640D02*
X5598810Y3091830D01*
X5934490Y3101521D02*
Y3102215D01*
X5839290Y3102790D02*
Y3159590D01*
X5924703Y3112002D02*
X5934490Y3102215D01*
X5831840Y3095340D02*
X5839290Y3102790D01*
X5831840Y3053080D02*
Y3095340D01*
X5390466Y2984156D02*
Y3212307D01*
X5367020Y3164841D02*
Y3234209D01*
X5406502Y3273690D02*
X5419990D01*
X5390466Y3212307D02*
X5419200Y3241040D01*
X5367020Y3234209D02*
X5406502Y3273690D01*
X5267960Y3065780D02*
Y3065781D01*
X5367020Y3164841D01*
X5547591Y3960091D02*
X5702300Y4114800D01*
X5856200Y4228060D02*
Y4352540D01*
X5702300Y4114800D02*
Y4316140D01*
X5788660Y4241800D02*
X5789930Y4243070D01*
Y4351270D01*
X5791200Y4352540D01*
X3511190Y4659270D02*
X3703320D01*
X3340100Y4493260D02*
Y4503420D01*
X3126740Y4442460D02*
X3231440D01*
X3779520Y4676709D02*
Y4749800D01*
X3213100Y4254500D02*
X3225800Y4267200D01*
X3111500Y3069320D02*
Y3070860D01*
X3695700Y2609500D02*
X3818540D01*
X4191000D02*
X4330700D01*
X4660900D02*
X4781200D01*
X5725160Y4339000D02*
Y4353560D01*
X4838700Y3759200D02*
X4858200Y3739700D01*
Y3614420D02*
Y3739700D01*
X4847220Y3578860D02*
Y3599180D01*
X5132520Y3868420D02*
X5138420Y3874320D01*
X3832860Y2744820D02*
X3835400Y2742280D01*
X3832860Y2744820D02*
Y2844800D01*
X4781200Y2609500D02*
X4795520Y2623820D01*
X4330700Y2627280D02*
X4347560D01*
X4351020Y2623820D01*
X3818540Y2609500D02*
X3822700Y2613660D01*
X5856200Y4352540D02*
Y4355060D01*
X5859780Y4358640D01*
X5702300Y4316140D02*
X5725160Y4339000D01*
X3204150Y4345940D02*
X3225800Y4324290D01*
Y4267200D02*
Y4324290D01*
X3144520Y4345940D02*
X3204150D01*
X2974130Y4629090D02*
X3110170D01*
X2959100Y4622800D02*
X2967840D01*
X3110170Y4629090D02*
X3136900Y4655820D01*
X2967840Y4622800D02*
X2974130Y4629090D01*
X3323419Y4550580D02*
X3354240D01*
X3340100Y4493260D02*
X3364170Y4469190D01*
X3231440Y4442460D02*
X3290795Y4501815D01*
Y4517955D02*
X3323419Y4550580D01*
X3290795Y4501815D02*
Y4517955D01*
X3354240Y4550580D02*
X3360420Y4556760D01*
X3239060Y4551680D02*
X3292370Y4604991D01*
X3323351D01*
X3329531Y4611171D01*
X3147060Y4551680D02*
X3239060D01*
X3510280Y4658360D02*
X3511190Y4659270D01*
X3776980Y4752340D02*
X3779520Y4749800D01*
X3525520Y4549140D02*
X3547170Y4570790D01*
X3673601D01*
X3779520Y4676709D01*
X3503870Y4469190D02*
X3525520Y4447540D01*
X3364170Y4469190D02*
X3503870D01*
X3167180Y3023800D02*
X3254780D01*
X3121660Y3069320D02*
X3167180Y3023800D01*
X4678074Y4023010D02*
X4739290D01*
X4739640Y4023360D01*
X4677725Y4022660D02*
X4678074Y4023010D01*
X4277122Y3872660D02*
X4277725D01*
X4800750Y3784450D02*
X4832350Y3752850D01*
X4677725Y3872660D02*
X4765935Y3784450D01*
X4800750D01*
X4677725Y3922660D02*
X4911840D01*
X4973700Y3860800D01*
X4978400D01*
D36*
X6130200Y3398340D02*
X6196600Y3464740D01*
X6035500Y3398340D02*
X6130200D01*
X4017408Y3890408D02*
X4057992D01*
X4079240Y3869160D01*
X6388221Y3539940D02*
X6406822Y3558540D01*
X6413500D01*
X6322600Y3539940D02*
X6324600D01*
X6388221D01*
X6167443Y3204180D02*
X6177760D01*
X6197600Y3184340D01*
X6094123Y3277500D02*
X6167443Y3204180D01*
X6035500Y3278340D02*
X6036340Y3277500D01*
X6094123D01*
X4082620Y3872660D02*
X4227725D01*
D37*
X4628700Y3531420D02*
Y3670300D01*
X4697049Y3660440D02*
X4700799Y3656690D01*
X4628700Y3670300D02*
X4638560Y3660440D01*
X4697049D01*
X4628212Y3670788D02*
Y3822172D01*
X4627725Y3822660D02*
X4628212Y3822172D01*
X6214900Y3481040D02*
X6263700D01*
X6324600Y3541940D02*
Y3550920D01*
X6263700Y3481040D02*
X6322600Y3539940D01*
X6324600Y3541940D01*
X5492300Y3898360D02*
X5492840Y3898900D01*
X5492300Y3810140D02*
Y3898360D01*
Y3810140D02*
X5520300Y3782140D01*
X6197600Y3463740D02*
X6214900Y3481040D01*
X4824730Y4124497D02*
X4956797D01*
X3911600Y4163060D02*
X3927660Y4147000D01*
X4064000Y4146460D02*
Y4150360D01*
X4776000Y4124497D02*
X4824730D01*
Y4133030D01*
Y4055110D02*
Y4124497D01*
Y4133030D02*
X4826000Y4134300D01*
X4823460Y4053840D02*
X4824730Y4055110D01*
X4060190Y4057650D02*
Y4145730D01*
X4061460Y4147000D01*
X4058920Y4056380D02*
X4060190Y4057650D01*
X3927660Y4147000D02*
X4061460D01*
X4064000Y4146460D02*
X4087800Y4122660D01*
X4227725D01*
X5871023Y4662880D02*
X5874553Y4659350D01*
X5952770D01*
X5956300Y4655820D01*
X5856200Y4542540D02*
X5856400Y4542740D01*
Y4652440D01*
X5867400Y4663440D01*
X4625340Y3528060D02*
X4628700Y3531420D01*
X4956797Y4124497D02*
X4965700Y4133400D01*
X4628212Y3670788D02*
X4628700Y3670300D01*
X4627725Y3822660D02*
Y3872660D01*
D38*
X5231687Y3617427D02*
X5293900Y3679640D01*
X5228909Y3598270D02*
X5231687Y3601048D01*
X5300980Y3676560D02*
Y3688080D01*
X5231687Y3601048D02*
Y3617427D01*
X5293900Y3679640D02*
X5295900D01*
X5300980Y3676560D02*
X5339200Y3638340D01*
X5448500D01*
X6324600Y3063240D02*
Y3146240D01*
X6237700D02*
X6324600D01*
X6276571Y2929540D02*
X6282571Y2923540D01*
X6286500D01*
X6197600Y2929540D02*
X6276571D01*
X6197600Y3184340D02*
X6199600D01*
X6237700Y3146240D01*
X5999830Y4235450D02*
X6097270D01*
X6098540Y4236720D01*
X5998560Y4234180D02*
X5999830Y4235450D01*
X5483860Y4234180D02*
X5581300D01*
X3143250Y4751070D02*
X3144520Y4752340D01*
X2975610Y4751070D02*
X3143250D01*
X2974340Y4749800D02*
X2975610Y4751070D01*
D39*
X5642000Y3150260D02*
Y3164840D01*
Y3150260D02*
X5643880Y3152140D01*
X5882000Y3089178D02*
Y3164840D01*
X5781040Y3091212D02*
X5803900Y3114072D01*
X5642000Y3110053D02*
Y3150260D01*
X5781040Y3083560D02*
Y3091212D01*
X5803900Y3114072D02*
Y3126740D01*
X3510280Y4343400D02*
X3520440Y4333240D01*
X4798060Y2742280D02*
Y2834640D01*
Y2742280D02*
X4800600Y2739740D01*
X4328160Y2744820D02*
X4330700Y2742280D01*
X4328160Y2744820D02*
Y2842260D01*
X3520440Y4282440D02*
Y4333240D01*
D40*
X5720080Y3296000D02*
X5789120Y3365040D01*
X5720080Y3294380D02*
Y3296000D01*
X5789120Y3365040D02*
Y3411220D01*
X5847080Y3353260D01*
Y3352800D02*
X5847540D01*
X5847080D02*
Y3353260D01*
X5847540Y3352800D02*
X5882000Y3318340D01*
X4675888Y4124497D02*
X4776000D01*
X4229100Y4127500D02*
X4232565D01*
X4627725Y4172660D02*
X4675888Y4124497D01*
X4232565Y4127500D02*
X4277725Y4172660D01*
D41*
X4033520Y3053080D02*
D03*
X4239260D02*
D03*
D42*
X3335020Y4699140D02*
D03*
Y4399140D02*
D03*
D43*
X2829560Y3143250D02*
D03*
Y4413250D02*
D03*
D44*
X3693160Y3543300D02*
D03*
X6690360Y4013200D02*
D03*
D45*
X7715250Y4762500D02*
D03*
X7620000Y4572000D02*
D03*
X7715250Y4381500D02*
D03*
X7620000Y4191000D02*
D03*
X7715250Y4000500D02*
D03*
X7620000Y3810000D02*
D03*
X7715250Y3238500D02*
D03*
X7620000Y3048000D02*
D03*
X7715250Y2857500D02*
D03*
X7620000Y2667000D02*
D03*
X7524750Y4762500D02*
D03*
X7429500Y4572000D02*
D03*
X7524750Y4381500D02*
D03*
X7429500Y4191000D02*
D03*
X7524750Y4000500D02*
D03*
Y3238500D02*
D03*
X7429500Y3048000D02*
D03*
X7334250Y4762500D02*
D03*
X7239000Y4572000D02*
D03*
X7334250Y4381500D02*
D03*
X7239000Y4191000D02*
D03*
X7334250Y4000500D02*
D03*
Y3238500D02*
D03*
X7239000Y3048000D02*
D03*
X7143750Y4762500D02*
D03*
X7048500Y4572000D02*
D03*
X7143750Y4381500D02*
D03*
X7048500Y4191000D02*
D03*
X7143750Y4000500D02*
D03*
X7048500Y3810000D02*
D03*
X7143750Y3619500D02*
D03*
X7048500Y3048000D02*
D03*
X7143750Y2857500D02*
D03*
X7048500Y2667000D02*
D03*
X6953250Y4762500D02*
D03*
X6858000Y4572000D02*
D03*
X6953250Y4381500D02*
D03*
X6858000Y4191000D02*
D03*
X6953250Y4000500D02*
D03*
X6858000Y3810000D02*
D03*
X6953250Y3619500D02*
D03*
Y3238500D02*
D03*
X6858000Y3048000D02*
D03*
X6953250Y2857500D02*
D03*
X6858000Y2667000D02*
D03*
X6762750Y4762500D02*
D03*
X6667500Y4572000D02*
D03*
X6762750Y4381500D02*
D03*
Y3619500D02*
D03*
X6667500Y3048000D02*
D03*
X6762750Y2857500D02*
D03*
X6667500Y2667000D02*
D03*
X6572250Y4762500D02*
D03*
X6477000Y4572000D02*
D03*
X6572250Y4381500D02*
D03*
X6477000Y4191000D02*
D03*
Y3810000D02*
D03*
X6572250Y3619500D02*
D03*
X6477000Y3048000D02*
D03*
X6572250Y2857500D02*
D03*
X6477000Y2667000D02*
D03*
X6381750Y4762500D02*
D03*
X6286500Y4572000D02*
D03*
X6381750Y4381500D02*
D03*
X6286500Y4191000D02*
D03*
X6381750Y4000500D02*
D03*
X6286500Y3810000D02*
D03*
X6381750Y2857500D02*
D03*
X6286500Y2667000D02*
D03*
X6191250Y4762500D02*
D03*
X6096000Y4572000D02*
D03*
X6191250Y4381500D02*
D03*
Y4000500D02*
D03*
X6096000Y2667000D02*
D03*
X6000750Y4762500D02*
D03*
X5905500Y4572000D02*
D03*
X6000750Y4381500D02*
D03*
Y4000500D02*
D03*
X5905500Y2667000D02*
D03*
X5810250Y4762500D02*
D03*
Y2857500D02*
D03*
X5715000Y2667000D02*
D03*
X5619750Y4762500D02*
D03*
X5524500Y4572000D02*
D03*
X5619750Y4381500D02*
D03*
Y2857500D02*
D03*
X5524500Y2667000D02*
D03*
X5429250Y4762500D02*
D03*
X5334000Y4572000D02*
D03*
X5429250Y4000500D02*
D03*
Y2857500D02*
D03*
X5334000Y2667000D02*
D03*
X5238750Y4762500D02*
D03*
X5143500Y4191000D02*
D03*
X5238750Y4000500D02*
D03*
Y2857500D02*
D03*
X5143500Y2667000D02*
D03*
X5048250Y4381500D02*
D03*
Y4000500D02*
D03*
X4953000Y3429000D02*
D03*
X5048250Y3238500D02*
D03*
Y2857500D02*
D03*
X4953000Y2667000D02*
D03*
X4762500Y4572000D02*
D03*
X4857750Y4381500D02*
D03*
Y4000500D02*
D03*
X4762500Y3429000D02*
D03*
X4857750Y3238500D02*
D03*
X4572000Y4572000D02*
D03*
X4667250Y4381500D02*
D03*
X4572000Y4191000D02*
D03*
Y3429000D02*
D03*
Y3048000D02*
D03*
Y2667000D02*
D03*
X4381500Y4572000D02*
D03*
X4476750Y4381500D02*
D03*
X4381500Y4191000D02*
D03*
X4476750Y4000500D02*
D03*
Y3238500D02*
D03*
X4191000Y4572000D02*
D03*
X4286250Y4381500D02*
D03*
X4191000Y3429000D02*
D03*
X4286250Y3238500D02*
D03*
X4000500Y4572000D02*
D03*
X4095750Y4381500D02*
D03*
Y4000500D02*
D03*
Y3619500D02*
D03*
X4000500Y3429000D02*
D03*
X4095750Y3238500D02*
D03*
Y2857500D02*
D03*
X4000500Y2667000D02*
D03*
X3810000Y4572000D02*
D03*
X3905250Y4381500D02*
D03*
X3810000Y3810000D02*
D03*
X3905250Y3619500D02*
D03*
Y3238500D02*
D03*
X3810000Y3048000D02*
D03*
X3714750Y4381500D02*
D03*
Y4000500D02*
D03*
X3619500Y3810000D02*
D03*
X3714750Y3238500D02*
D03*
Y2857500D02*
D03*
X3619500Y2667000D02*
D03*
X3524250Y4000500D02*
D03*
X3429000Y3810000D02*
D03*
Y3429000D02*
D03*
X3524250Y2857500D02*
D03*
X3429000Y2667000D02*
D03*
X3238500Y4191000D02*
D03*
X3333750Y4000500D02*
D03*
X3238500Y3810000D02*
D03*
X3333750Y3619500D02*
D03*
X3238500Y3429000D02*
D03*
X3333750Y2857500D02*
D03*
X3238500Y2667000D02*
D03*
X3048000Y4191000D02*
D03*
X3143250Y4000500D02*
D03*
X3048000Y3810000D02*
D03*
X3143250Y3619500D02*
D03*
X3048000Y3429000D02*
D03*
X3143250Y2857500D02*
D03*
X3048000Y2667000D02*
D03*
X2857500Y4572000D02*
D03*
X2952750Y4381500D02*
D03*
X2857500Y4191000D02*
D03*
X2952750Y4000500D02*
D03*
X2857500Y3810000D02*
D03*
X2952750Y3619500D02*
D03*
X2857500Y3429000D02*
D03*
X2952750Y2857500D02*
D03*
X2857500Y2667000D02*
D03*
X2762250Y4762500D02*
D03*
X2667000Y4572000D02*
D03*
Y4191000D02*
D03*
X2762250Y4000500D02*
D03*
X2667000Y3810000D02*
D03*
X2762250Y3619500D02*
D03*
X2667000Y3429000D02*
D03*
Y3048000D02*
D03*
X2762250Y2857500D02*
D03*
X2667000Y2667000D02*
D03*
X6624320Y3423920D02*
D03*
X6266180Y3291840D02*
D03*
X6451600Y3500120D02*
D03*
X6032500Y3096260D02*
D03*
X6322060Y3436620D02*
D03*
X7795260Y3685540D02*
D03*
X7739380Y3688080D02*
D03*
X7663180D02*
D03*
X7607300Y3655060D02*
D03*
X7797800Y3418840D02*
D03*
X7749540D02*
D03*
X7683500Y3423920D02*
D03*
X7612380Y3454400D02*
D03*
X7564120Y3403600D02*
D03*
X7508240Y3360420D02*
D03*
X7462520Y3307080D02*
D03*
X7378700Y3299460D02*
D03*
X7302500Y3294380D02*
D03*
X7152640Y3291840D02*
D03*
X7076440Y3286760D02*
D03*
X6997700Y3284220D02*
D03*
X6916420Y3286760D02*
D03*
X6830060D02*
D03*
X6738620D02*
D03*
X6652260D02*
D03*
X6573520Y3289300D02*
D03*
X6499860D02*
D03*
X6431280D02*
D03*
X6466840Y3421380D02*
D03*
X7576820Y3586480D02*
D03*
X7442200Y3477260D02*
D03*
X7386320Y3418840D02*
D03*
X7299960Y3413760D02*
D03*
X7198360Y3418840D02*
D03*
X7127240Y3413760D02*
D03*
X7048500Y3423920D02*
D03*
X6964680Y3426460D02*
D03*
X6891020Y3418840D02*
D03*
X6799580Y3421380D02*
D03*
X6715760Y3413760D02*
D03*
X6550660Y3421380D02*
D03*
X6395720Y3418840D02*
D03*
X4219281Y3815421D02*
D03*
X4272740Y3764740D02*
D03*
X4330438Y3764339D02*
D03*
X4017408Y3890408D02*
D03*
X4700799Y3656690D02*
D03*
X4478020Y3761740D02*
D03*
X4577080Y3764280D02*
D03*
X5612001Y3919853D02*
D03*
X5638800Y3655060D02*
D03*
X5228909Y3598270D02*
D03*
X5838165Y3875018D02*
D03*
X5641340Y3550920D02*
D03*
X5542280Y3549100D02*
D03*
X5201920Y3418840D02*
D03*
X5742940Y3261360D02*
D03*
X5849620D02*
D03*
X5537200Y3352800D02*
D03*
X5638800Y3261360D02*
D03*
X5539740D02*
D03*
X5636260Y3352800D02*
D03*
X5745480Y3550920D02*
D03*
X5539740Y3454400D02*
D03*
X5201920Y3482340D02*
D03*
X5539740Y3655060D02*
D03*
X5849620D02*
D03*
X5742940D02*
D03*
X5800450Y3830320D02*
D03*
X5946140Y3655060D02*
D03*
X5676388Y3907970D02*
D03*
X5711190Y3828778D02*
D03*
X5750560Y3870960D02*
D03*
X5883550Y3832860D02*
D03*
X6324600Y3063240D02*
D03*
X6413500Y3558540D02*
D03*
X6286500Y2923540D02*
D03*
X5831840Y3053080D02*
D03*
X5946140Y3261360D02*
D03*
X6148850Y3617429D02*
D03*
X6115214Y3664311D02*
D03*
X5946140Y3454400D02*
D03*
X5781040Y3083560D02*
D03*
X6108700Y3144520D02*
D03*
X6113780Y3454400D02*
D03*
X5595620Y3088640D02*
D03*
X6116367Y3569742D02*
D03*
X5852160Y3550920D02*
D03*
X5653316Y3089310D02*
D03*
X5882000Y3089178D02*
D03*
X6113780Y3512100D02*
D03*
X5948680Y3550920D02*
D03*
X5847080Y3352800D02*
D03*
X5849620Y3454400D02*
D03*
X5943600Y3352800D02*
D03*
X5742940Y3454400D02*
D03*
X5638800D02*
D03*
X5740400Y3352800D02*
D03*
X5483860Y4234180D02*
D03*
X6098540Y4236720D02*
D03*
X5788660Y4241800D02*
D03*
X5956300Y4655820D02*
D03*
X4739640Y4023360D02*
D03*
X4823460Y4053840D02*
D03*
X4058920Y4056380D02*
D03*
X3832860Y2844800D02*
D03*
X4798060Y2834640D02*
D03*
X4328160Y2842260D02*
D03*
X2974340Y4749800D02*
D03*
X3553460Y3284220D02*
D03*
X3495040Y3299460D02*
D03*
X2959100Y4622800D02*
D03*
X3332480Y4500880D02*
D03*
X3360420Y4556760D02*
D03*
X3703320Y4659270D02*
D03*
X3774440Y4742370D02*
D03*
X3329531Y4611171D02*
D03*
X3520440Y4282440D02*
D03*
X3225800Y4257040D02*
D03*
D46*
X5751200Y4447540D02*
D03*
X5831200D02*
D03*
%TF.MD5,750799d2c94dab8d258beedacc6104a3*%
M02*
