%TF.GenerationSoftware,Altium Limited,Altium Designer,22.8.2 (66)*%
G04 Layer_Physical_Order=2*
G04 Layer_Color=36540*
%FSLAX45Y45*%
%MOMM*%
%TF.SameCoordinates,DE4C73A7-34E9-4613-BA68-141157798951*%
%TF.FilePolarity,Positive*%
%TF.FileFunction,Copper,L2,Inr,Signal*%
%TF.Part,Single*%
G01*
G75*
%TA.AperFunction,ViaPad*%
%ADD41C,1.52400*%
%TA.AperFunction,ComponentPad*%
%ADD42C,0.81280*%
%ADD43C,1.52400*%
%ADD44C,3.45440*%
%TA.AperFunction,ViaPad*%
%ADD45C,0.45000*%
%ADD46C,0.50000*%
G36*
X7828209Y3658437D02*
X7647940D01*
X7640164Y3655216D01*
X7636943Y3647440D01*
Y3462020D01*
X7640164Y3454244D01*
X7647940Y3451023D01*
X7828209D01*
Y2547691D01*
X2573091D01*
Y4996109D01*
X7828209D01*
Y3658437D01*
D02*
G37*
%LPC*%
G36*
X2981342Y4785000D02*
X2967338D01*
X2954401Y4779641D01*
X2944499Y4769739D01*
X2939140Y4756802D01*
Y4742798D01*
X2944499Y4729861D01*
X2954401Y4719959D01*
X2967338Y4714600D01*
X2981342D01*
X2994279Y4719959D01*
X3004181Y4729861D01*
X3009540Y4742798D01*
Y4756802D01*
X3004181Y4769739D01*
X2994279Y4779641D01*
X2981342Y4785000D01*
D02*
G37*
G36*
X3781442Y4777570D02*
X3767438D01*
X3754501Y4772211D01*
X3744599Y4762309D01*
X3739240Y4749372D01*
Y4735368D01*
X3744599Y4722431D01*
X3754501Y4712529D01*
X3767438Y4707170D01*
X3781442D01*
X3794379Y4712529D01*
X3804281Y4722431D01*
X3809640Y4735368D01*
Y4749372D01*
X3804281Y4762309D01*
X3794379Y4772211D01*
X3781442Y4777570D01*
D02*
G37*
G36*
X3710322Y4694470D02*
X3696318D01*
X3683381Y4689111D01*
X3673479Y4679209D01*
X3668120Y4666272D01*
Y4652268D01*
X3673479Y4639331D01*
X3683381Y4629429D01*
X3696318Y4624070D01*
X3710322D01*
X3723259Y4629429D01*
X3733161Y4639331D01*
X3738520Y4652268D01*
Y4666272D01*
X3733161Y4679209D01*
X3723259Y4689111D01*
X3710322Y4694470D01*
D02*
G37*
G36*
X5963302Y4691020D02*
X5949298D01*
X5936361Y4685661D01*
X5926459Y4675759D01*
X5921100Y4662822D01*
Y4648818D01*
X5926459Y4635881D01*
X5936361Y4625979D01*
X5949298Y4620620D01*
X5963302D01*
X5976239Y4625979D01*
X5986141Y4635881D01*
X5991500Y4648818D01*
Y4662822D01*
X5986141Y4675759D01*
X5976239Y4685661D01*
X5963302Y4691020D01*
D02*
G37*
G36*
X2966102Y4658000D02*
X2952098D01*
X2939161Y4652641D01*
X2929259Y4642739D01*
X2923900Y4629802D01*
Y4615798D01*
X2929259Y4602861D01*
X2939161Y4592959D01*
X2952098Y4587600D01*
X2966102D01*
X2979039Y4592959D01*
X2988941Y4602861D01*
X2994300Y4615798D01*
Y4629802D01*
X2988941Y4642739D01*
X2979039Y4652641D01*
X2966102Y4658000D01*
D02*
G37*
G36*
X3343662Y4764780D02*
X3326378D01*
X3309684Y4760307D01*
X3294716Y4751665D01*
X3282495Y4739444D01*
X3273853Y4724476D01*
X3269380Y4707782D01*
Y4690498D01*
X3273853Y4673804D01*
X3282495Y4658836D01*
X3294716Y4646615D01*
X3298666Y4644334D01*
X3300324Y4631743D01*
X3299690Y4631110D01*
X3294331Y4618173D01*
Y4604169D01*
X3299690Y4591232D01*
X3309592Y4581330D01*
X3322529Y4575971D01*
X3327312Y4568813D01*
X3325220Y4563762D01*
Y4549758D01*
X3325625Y4548780D01*
X3325478Y4536080D01*
X3319254Y4533501D01*
X3312541Y4530721D01*
X3302639Y4520819D01*
X3297280Y4507882D01*
Y4493878D01*
X3302639Y4480941D01*
X3310032Y4473548D01*
X3309799Y4464685D01*
X3309614Y4463696D01*
X3307838Y4459241D01*
X3294716Y4451665D01*
X3282495Y4439444D01*
X3273853Y4424476D01*
X3269380Y4407782D01*
Y4390498D01*
X3273853Y4373804D01*
X3282495Y4358836D01*
X3294716Y4346615D01*
X3309684Y4337973D01*
X3326378Y4333500D01*
X3343662D01*
X3360356Y4337973D01*
X3375324Y4346615D01*
X3387545Y4358836D01*
X3396187Y4373804D01*
X3400660Y4390498D01*
Y4407782D01*
X3396187Y4424476D01*
X3387545Y4439444D01*
X3375324Y4451665D01*
X3360356Y4460307D01*
X3358719Y4460745D01*
X3358321Y4461395D01*
X3356002Y4474622D01*
X3362321Y4480941D01*
X3367680Y4493878D01*
Y4507882D01*
X3367275Y4508860D01*
X3367422Y4521560D01*
X3373646Y4524139D01*
X3380359Y4526919D01*
X3390261Y4536821D01*
X3395620Y4549758D01*
Y4563762D01*
X3390261Y4576699D01*
X3380359Y4586601D01*
X3367422Y4591960D01*
X3362639Y4599118D01*
X3364731Y4604169D01*
Y4618173D01*
X3361814Y4625216D01*
X3360892Y4633281D01*
X3366768Y4641675D01*
X3375324Y4646615D01*
X3387545Y4658836D01*
X3396187Y4673804D01*
X3400660Y4690498D01*
Y4707782D01*
X3396187Y4724476D01*
X3387545Y4739444D01*
X3375324Y4751665D01*
X3360356Y4760307D01*
X3343662Y4764780D01*
D02*
G37*
G36*
X3527442Y4317640D02*
X3513438D01*
X3500501Y4312281D01*
X3490599Y4302379D01*
X3485240Y4289442D01*
Y4275438D01*
X3490599Y4262501D01*
X3500501Y4252599D01*
X3513438Y4247240D01*
X3527442D01*
X3540379Y4252599D01*
X3550281Y4262501D01*
X3555640Y4275438D01*
Y4289442D01*
X3550281Y4302379D01*
X3540379Y4312281D01*
X3527442Y4317640D01*
D02*
G37*
G36*
X3232802Y4292240D02*
X3218798D01*
X3205861Y4286881D01*
X3195959Y4276979D01*
X3190600Y4264042D01*
Y4250038D01*
X3195959Y4237101D01*
X3205861Y4227199D01*
X3218798Y4221840D01*
X3232802D01*
X3245739Y4227199D01*
X3255641Y4237101D01*
X3261000Y4250038D01*
Y4264042D01*
X3255641Y4276979D01*
X3245739Y4286881D01*
X3232802Y4292240D01*
D02*
G37*
G36*
X5795662Y4277000D02*
X5781658D01*
X5768721Y4271641D01*
X5758819Y4261739D01*
X5753460Y4248802D01*
Y4234798D01*
X5758819Y4221861D01*
X5768721Y4211959D01*
X5781658Y4206600D01*
X5795662D01*
X5808599Y4211959D01*
X5818501Y4221861D01*
X5823860Y4234798D01*
Y4248802D01*
X5818501Y4261739D01*
X5808599Y4271641D01*
X5795662Y4277000D01*
D02*
G37*
G36*
X6105542Y4271920D02*
X6091538D01*
X6078601Y4266561D01*
X6068699Y4256659D01*
X6063340Y4243722D01*
Y4229718D01*
X6068699Y4216781D01*
X6078601Y4206879D01*
X6091538Y4201520D01*
X6105542D01*
X6118479Y4206879D01*
X6128381Y4216781D01*
X6133740Y4229718D01*
Y4243722D01*
X6128381Y4256659D01*
X6118479Y4266561D01*
X6105542Y4271920D01*
D02*
G37*
G36*
X5490862Y4269380D02*
X5476858D01*
X5463921Y4264021D01*
X5454019Y4254119D01*
X5448660Y4241182D01*
Y4227178D01*
X5454019Y4214241D01*
X5463921Y4204339D01*
X5476858Y4198980D01*
X5490862D01*
X5503799Y4204339D01*
X5513701Y4214241D01*
X5519060Y4227178D01*
Y4241182D01*
X5513701Y4254119D01*
X5503799Y4264021D01*
X5490862Y4269380D01*
D02*
G37*
G36*
X4065922Y4091580D02*
X4051918D01*
X4038981Y4086221D01*
X4029079Y4076319D01*
X4023720Y4063382D01*
Y4049378D01*
X4029079Y4036441D01*
X4038981Y4026539D01*
X4051918Y4021180D01*
X4065922D01*
X4078859Y4026539D01*
X4088761Y4036441D01*
X4094120Y4049378D01*
Y4063382D01*
X4088761Y4076319D01*
X4078859Y4086221D01*
X4065922Y4091580D01*
D02*
G37*
G36*
X4830462Y4089040D02*
X4816458D01*
X4803521Y4083681D01*
X4793619Y4073779D01*
X4788260Y4060842D01*
Y4046838D01*
X4793619Y4033901D01*
X4803521Y4023999D01*
X4816458Y4018640D01*
X4830462D01*
X4843399Y4023999D01*
X4853301Y4033901D01*
X4858660Y4046838D01*
Y4060842D01*
X4853301Y4073779D01*
X4843399Y4083681D01*
X4830462Y4089040D01*
D02*
G37*
G36*
X4746642Y4058560D02*
X4732638D01*
X4719701Y4053201D01*
X4709799Y4043299D01*
X4704440Y4030362D01*
Y4016358D01*
X4709799Y4003421D01*
X4719701Y3993519D01*
X4732638Y3988160D01*
X4746642D01*
X4759579Y3993519D01*
X4769481Y4003421D01*
X4774840Y4016358D01*
Y4030362D01*
X4769481Y4043299D01*
X4759579Y4053201D01*
X4746642Y4058560D01*
D02*
G37*
G36*
X4024410Y3925608D02*
X4010407D01*
X3997469Y3920249D01*
X3987567Y3910347D01*
X3982208Y3897410D01*
Y3883407D01*
X3987567Y3870469D01*
X3997469Y3860567D01*
X4010407Y3855208D01*
X4024410D01*
X4037347Y3860567D01*
X4047249Y3870469D01*
X4052608Y3883407D01*
Y3897410D01*
X4047249Y3910347D01*
X4037347Y3920249D01*
X4024410Y3925608D01*
D02*
G37*
G36*
X6709834Y4210920D02*
X6670886D01*
X6632687Y4203322D01*
X6596705Y4188417D01*
X6564321Y4166779D01*
X6536781Y4139239D01*
X6515143Y4106855D01*
X6500238Y4070873D01*
X6492640Y4032674D01*
Y3993726D01*
X6500238Y3955527D01*
X6515143Y3919545D01*
X6536781Y3887161D01*
X6564321Y3859621D01*
X6596705Y3837983D01*
X6632687Y3823078D01*
X6670886Y3815480D01*
X6709834D01*
X6748033Y3823078D01*
X6784015Y3837983D01*
X6816399Y3859621D01*
X6843939Y3887161D01*
X6865577Y3919545D01*
X6880482Y3955527D01*
X6888080Y3993726D01*
Y4032674D01*
X6880482Y4070873D01*
X6865577Y4106855D01*
X6843939Y4139239D01*
X6816399Y4166779D01*
X6784015Y4188417D01*
X6748033Y4203322D01*
X6709834Y4210920D01*
D02*
G37*
G36*
X5619003Y3955053D02*
X5604999D01*
X5592062Y3949694D01*
X5582160Y3939792D01*
X5576801Y3926855D01*
Y3912851D01*
X5582160Y3899914D01*
X5592062Y3890012D01*
X5604999Y3884653D01*
X5619003D01*
X5631940Y3890012D01*
X5633606Y3891679D01*
X5646062Y3889201D01*
X5646547Y3888031D01*
X5656449Y3878129D01*
X5669386Y3872771D01*
X5683390D01*
X5696327Y3878129D01*
X5703705Y3885508D01*
X5706229Y3888031D01*
X5717203Y3882413D01*
X5715360Y3877962D01*
Y3863978D01*
X5704188D01*
X5691251Y3858619D01*
X5681349Y3848717D01*
X5675990Y3835780D01*
Y3821776D01*
X5681349Y3808839D01*
X5691251Y3798937D01*
X5704188Y3793578D01*
X5718192D01*
X5731129Y3798937D01*
X5741031Y3808839D01*
X5746390Y3821776D01*
Y3832035D01*
X5755885Y3833250D01*
X5765250Y3823667D01*
Y3823318D01*
X5770609Y3810381D01*
X5780511Y3800479D01*
X5793448Y3795120D01*
X5807452D01*
X5820389Y3800479D01*
X5830291Y3810381D01*
X5835650Y3823318D01*
Y3826394D01*
X5848350Y3825858D01*
X5853709Y3812921D01*
X5863611Y3803019D01*
X5876548Y3797660D01*
X5890552D01*
X5903489Y3803019D01*
X5913391Y3812921D01*
X5918750Y3825858D01*
Y3839862D01*
X5913391Y3852799D01*
X5903489Y3862701D01*
X5890552Y3868060D01*
X5876549D01*
X5873364Y3879793D01*
Y3882020D01*
X5868006Y3894957D01*
X5858104Y3904859D01*
X5845166Y3910218D01*
X5831163D01*
X5818226Y3904859D01*
X5808324Y3894957D01*
X5802965Y3882020D01*
Y3874026D01*
X5796774Y3872012D01*
X5785760Y3877962D01*
X5780401Y3890899D01*
X5770499Y3900801D01*
X5757562Y3906160D01*
X5743558D01*
X5730621Y3900801D01*
X5723243Y3893422D01*
X5720719Y3890900D01*
X5709744Y3896517D01*
X5711588Y3900969D01*
Y3914972D01*
X5706229Y3927909D01*
X5696327Y3937811D01*
X5683390Y3943170D01*
X5669386D01*
X5656449Y3937811D01*
X5654782Y3936145D01*
X5642327Y3938623D01*
X5641842Y3939792D01*
X5631940Y3949694D01*
X5619003Y3955053D01*
D02*
G37*
G36*
X4226282Y3850620D02*
X4212279D01*
X4199342Y3845262D01*
X4189440Y3835360D01*
X4184081Y3822422D01*
Y3808419D01*
X4189440Y3795482D01*
X4199342Y3785580D01*
X4212279Y3780221D01*
X4226282D01*
X4227518Y3780732D01*
X4237540Y3771741D01*
Y3757738D01*
X4242899Y3744801D01*
X4252801Y3734899D01*
X4265738Y3729540D01*
X4279742D01*
X4292679Y3734899D01*
X4301388Y3743608D01*
X4310499Y3734498D01*
X4323436Y3729139D01*
X4337440D01*
X4350377Y3734498D01*
X4360279Y3744400D01*
X4365638Y3757337D01*
Y3771340D01*
X4360279Y3784278D01*
X4350377Y3794180D01*
X4337440Y3799539D01*
X4323436D01*
X4310499Y3794180D01*
X4301789Y3785470D01*
X4292679Y3794581D01*
X4279742Y3799940D01*
X4265738D01*
X4264503Y3799428D01*
X4254480Y3808419D01*
Y3822422D01*
X4249122Y3835360D01*
X4239220Y3845262D01*
X4226282Y3850620D01*
D02*
G37*
G36*
X4584082Y3799480D02*
X4570078D01*
X4557141Y3794121D01*
X4547239Y3784219D01*
X4541880Y3771282D01*
Y3757278D01*
X4547239Y3744341D01*
X4557141Y3734439D01*
X4570078Y3729080D01*
X4584082D01*
X4597019Y3734439D01*
X4606921Y3744341D01*
X4612280Y3757278D01*
Y3771282D01*
X4606921Y3784219D01*
X4597019Y3794121D01*
X4584082Y3799480D01*
D02*
G37*
G36*
X4485022Y3796940D02*
X4471018D01*
X4458081Y3791581D01*
X4448179Y3781679D01*
X4442820Y3768742D01*
Y3754738D01*
X4448179Y3741801D01*
X4458081Y3731899D01*
X4471018Y3726540D01*
X4485022D01*
X4497959Y3731899D01*
X4507861Y3741801D01*
X4513220Y3754738D01*
Y3768742D01*
X4507861Y3781679D01*
X4497959Y3791581D01*
X4485022Y3796940D01*
D02*
G37*
G36*
X7526020Y3899737D02*
X7236460D01*
X7228684Y3896516D01*
X7225463Y3888740D01*
Y3662680D01*
X7228684Y3654904D01*
X7236460Y3651683D01*
X7526020D01*
X7533796Y3654904D01*
X7537017Y3662680D01*
Y3888740D01*
X7533796Y3896516D01*
X7526020Y3899737D01*
D02*
G37*
G36*
X4707801Y3691890D02*
X4693797D01*
X4680860Y3686531D01*
X4670958Y3676629D01*
X4665599Y3663692D01*
Y3649688D01*
X4670958Y3636751D01*
X4680860Y3626849D01*
X4693797Y3621490D01*
X4707801D01*
X4720738Y3626849D01*
X4730640Y3636751D01*
X4735999Y3649688D01*
Y3663692D01*
X4730640Y3676629D01*
X4720738Y3686531D01*
X4707801Y3691890D01*
D02*
G37*
G36*
X5235910Y3633470D02*
X5221907D01*
X5208970Y3628111D01*
X5199068Y3618209D01*
X5193709Y3605272D01*
Y3591268D01*
X5199068Y3578331D01*
X5208970Y3568429D01*
X5221907Y3563070D01*
X5235910D01*
X5248848Y3568429D01*
X5258749Y3578331D01*
X5264108Y3591268D01*
Y3605272D01*
X5258749Y3618209D01*
X5248848Y3628111D01*
X5235910Y3633470D01*
D02*
G37*
G36*
X6420502Y3593740D02*
X6406498D01*
X6393561Y3588381D01*
X6383659Y3578479D01*
X6378300Y3565542D01*
Y3551538D01*
X6383659Y3538601D01*
X6393561Y3528699D01*
X6406498Y3523340D01*
X6420502D01*
X6433439Y3528699D01*
X6443341Y3538601D01*
X6448700Y3551538D01*
Y3565542D01*
X6443341Y3578479D01*
X6433439Y3588381D01*
X6420502Y3593740D01*
D02*
G37*
G36*
X6122216Y3699511D02*
X6108212D01*
X6095275Y3694152D01*
X6085373Y3684250D01*
X6080014Y3671313D01*
Y3657310D01*
X6085373Y3644372D01*
X6095275Y3634471D01*
X6108212Y3629112D01*
X6110522D01*
X6113650Y3624431D01*
Y3610428D01*
X6109984Y3604941D01*
X6109365D01*
X6096428Y3599583D01*
X6086526Y3589681D01*
X6081167Y3576743D01*
Y3562740D01*
X6086526Y3549803D01*
X6085210Y3533309D01*
X6083939Y3532039D01*
X6078580Y3519102D01*
Y3505098D01*
X6083939Y3492161D01*
X6092850Y3483250D01*
X6083939Y3474339D01*
X6078580Y3461402D01*
Y3447398D01*
X6083939Y3434461D01*
X6093841Y3424559D01*
X6106778Y3419200D01*
X6120782D01*
X6133719Y3424559D01*
X6143621Y3434461D01*
X6148980Y3447398D01*
Y3461402D01*
X6143621Y3474339D01*
X6134710Y3483250D01*
X6143621Y3492161D01*
X6148980Y3505098D01*
Y3519102D01*
X6143621Y3532039D01*
X6144937Y3548532D01*
X6146208Y3549803D01*
X6151567Y3562740D01*
Y3576743D01*
X6155232Y3582230D01*
X6155852D01*
X6168789Y3587588D01*
X6178691Y3597490D01*
X6184050Y3610428D01*
Y3624431D01*
X6178691Y3637368D01*
X6168789Y3647270D01*
X6155852Y3652629D01*
X6153541D01*
X6150414Y3657310D01*
Y3671313D01*
X6145055Y3684250D01*
X6135153Y3694152D01*
X6122216Y3699511D01*
D02*
G37*
G36*
X5208922Y3517540D02*
X5194918D01*
X5181981Y3512181D01*
X5172079Y3502279D01*
X5166720Y3489342D01*
Y3475338D01*
X5172079Y3462401D01*
X5175593Y3458887D01*
X5180786Y3450590D01*
X5175593Y3442293D01*
X5172079Y3438779D01*
X5166720Y3425842D01*
Y3411838D01*
X5172079Y3398901D01*
X5181981Y3388999D01*
X5194918Y3383640D01*
X5208922D01*
X5221859Y3388999D01*
X5231761Y3398901D01*
X5237120Y3411838D01*
Y3425842D01*
X5231761Y3438779D01*
X5228247Y3442293D01*
X5223054Y3450590D01*
X5228247Y3458887D01*
X5231761Y3462401D01*
X5237120Y3475338D01*
Y3489342D01*
X5231761Y3502279D01*
X5221859Y3512181D01*
X5208922Y3517540D01*
D02*
G37*
G36*
X3712634Y3741020D02*
X3673686D01*
X3635487Y3733422D01*
X3599505Y3718517D01*
X3567121Y3696879D01*
X3539581Y3669339D01*
X3517943Y3636955D01*
X3503038Y3600973D01*
X3495440Y3562774D01*
Y3523826D01*
X3503038Y3485627D01*
X3517943Y3449645D01*
X3539581Y3417261D01*
X3567121Y3389721D01*
X3599505Y3368083D01*
X3635487Y3353178D01*
X3673686Y3345580D01*
X3712634D01*
X3750833Y3353178D01*
X3786815Y3368083D01*
X3819199Y3389721D01*
X3846739Y3417261D01*
X3868377Y3449645D01*
X3883282Y3485627D01*
X3890880Y3523826D01*
Y3562774D01*
X3883282Y3600973D01*
X3868377Y3636955D01*
X3846739Y3669339D01*
X3819199Y3696879D01*
X3786815Y3718517D01*
X3750833Y3733422D01*
X3712634Y3741020D01*
D02*
G37*
G36*
X3502042Y3334660D02*
X3488038D01*
X3475101Y3329301D01*
X3465199Y3319399D01*
X3459840Y3306462D01*
Y3292458D01*
X3465199Y3279521D01*
X3475101Y3269619D01*
X3488038Y3264260D01*
X3502042D01*
X3510252Y3267661D01*
X3523619Y3264281D01*
X3533521Y3254379D01*
X3546458Y3249020D01*
X3560462D01*
X3573399Y3254379D01*
X3583301Y3264281D01*
X3588660Y3277218D01*
Y3291222D01*
X3583301Y3304159D01*
X3573399Y3314061D01*
X3560462Y3319420D01*
X3546458D01*
X3538248Y3316019D01*
X3524881Y3319399D01*
X3514979Y3329301D01*
X3502042Y3334660D01*
D02*
G37*
G36*
X5660318Y3124510D02*
X5646314D01*
X5633377Y3119151D01*
X5624133Y3109907D01*
X5615559Y3118481D01*
X5602622Y3123840D01*
X5588618D01*
X5575681Y3118481D01*
X5565779Y3108579D01*
X5560420Y3095642D01*
Y3081638D01*
X5565779Y3068701D01*
X5575681Y3058799D01*
X5588618Y3053440D01*
X5602622D01*
X5615559Y3058799D01*
X5624803Y3068043D01*
X5633377Y3059469D01*
X5646314Y3054110D01*
X5660318D01*
X5673255Y3059469D01*
X5683157Y3069371D01*
X5688516Y3082308D01*
Y3096312D01*
X5683157Y3109249D01*
X5673255Y3119151D01*
X5660318Y3124510D01*
D02*
G37*
G36*
X6115702Y3179720D02*
X6101698D01*
X6088761Y3174361D01*
X6078859Y3164459D01*
X6073500Y3151522D01*
Y3137518D01*
X6078859Y3124581D01*
X6088761Y3114679D01*
X6101698Y3109320D01*
X6115702D01*
X6128639Y3114679D01*
X6138541Y3124581D01*
X6143900Y3137518D01*
Y3151522D01*
X6138541Y3164459D01*
X6128639Y3174361D01*
X6115702Y3179720D01*
D02*
G37*
G36*
X5889002Y3124378D02*
X5874998D01*
X5862061Y3119019D01*
X5852159Y3109117D01*
X5846800Y3096180D01*
Y3093598D01*
X5838842Y3088280D01*
X5824838D01*
X5813446Y3097307D01*
X5810881Y3103499D01*
X5800979Y3113401D01*
X5788042Y3118760D01*
X5774038D01*
X5761101Y3113401D01*
X5751199Y3103499D01*
X5745840Y3090562D01*
Y3076558D01*
X5751199Y3063621D01*
X5761101Y3053719D01*
X5774038Y3048360D01*
X5788042D01*
X5799434Y3039333D01*
X5801999Y3033141D01*
X5811901Y3023239D01*
X5824838Y3017880D01*
X5838842D01*
X5851779Y3023239D01*
X5861681Y3033141D01*
X5867040Y3046078D01*
Y3048661D01*
X5874998Y3053979D01*
X5889002D01*
X5901939Y3059338D01*
X5911841Y3069239D01*
X5917200Y3082177D01*
Y3096180D01*
X5911841Y3109117D01*
X5901939Y3119019D01*
X5889002Y3124378D01*
D02*
G37*
G36*
X2840930Y3229610D02*
X2818190D01*
X2796226Y3223725D01*
X2776534Y3212355D01*
X2760455Y3196276D01*
X2749085Y3176584D01*
X2743200Y3154620D01*
Y3131880D01*
X2749085Y3109916D01*
X2760455Y3090224D01*
X2776534Y3074145D01*
X2796226Y3062775D01*
X2818190Y3056890D01*
X2840930D01*
X2862894Y3062775D01*
X2882586Y3074145D01*
X2898665Y3090224D01*
X2910035Y3109916D01*
X2915920Y3131880D01*
Y3154620D01*
X2910035Y3176584D01*
X2898665Y3196276D01*
X2882586Y3212355D01*
X2862894Y3223725D01*
X2840930Y3229610D01*
D02*
G37*
G36*
X6331602Y3098440D02*
X6317598D01*
X6304661Y3093081D01*
X6294759Y3083179D01*
X6289400Y3070242D01*
Y3056238D01*
X6294759Y3043301D01*
X6304661Y3033399D01*
X6317598Y3028040D01*
X6331602D01*
X6344539Y3033399D01*
X6354441Y3043301D01*
X6359800Y3056238D01*
Y3070242D01*
X6354441Y3083179D01*
X6344539Y3093081D01*
X6331602Y3098440D01*
D02*
G37*
G36*
X4044890Y3139440D02*
X4022150D01*
X4000186Y3133555D01*
X3980494Y3122185D01*
X3964415Y3106106D01*
X3953045Y3086414D01*
X3947160Y3064450D01*
Y3041710D01*
X3953045Y3019746D01*
X3964415Y3000054D01*
X3980494Y2983975D01*
X4000186Y2972605D01*
X4022150Y2966720D01*
X4044890D01*
X4066854Y2972605D01*
X4086546Y2983975D01*
X4102625Y3000054D01*
X4113995Y3019746D01*
X4119880Y3041710D01*
Y3064450D01*
X4113995Y3086414D01*
X4102625Y3106106D01*
X4086546Y3122185D01*
X4066854Y3133555D01*
X4044890Y3139440D01*
D02*
G37*
G36*
X6293502Y2958740D02*
X6279498D01*
X6266561Y2953381D01*
X6256659Y2943479D01*
X6251300Y2930542D01*
Y2916538D01*
X6256659Y2903601D01*
X6266561Y2893699D01*
X6279498Y2888340D01*
X6293502D01*
X6306439Y2893699D01*
X6316341Y2903601D01*
X6321700Y2916538D01*
Y2930542D01*
X6316341Y2943479D01*
X6306439Y2953381D01*
X6293502Y2958740D01*
D02*
G37*
G36*
X3839862Y2880000D02*
X3825858D01*
X3812921Y2874641D01*
X3803019Y2864739D01*
X3797660Y2851802D01*
Y2837798D01*
X3803019Y2824861D01*
X3812921Y2814959D01*
X3825858Y2809600D01*
X3839862D01*
X3852799Y2814959D01*
X3862701Y2824861D01*
X3868060Y2837798D01*
Y2851802D01*
X3862701Y2864739D01*
X3852799Y2874641D01*
X3839862Y2880000D01*
D02*
G37*
G36*
X4335162Y2877460D02*
X4321158D01*
X4308221Y2872101D01*
X4298319Y2862199D01*
X4292960Y2849262D01*
Y2835258D01*
X4298319Y2822321D01*
X4308221Y2812419D01*
X4321158Y2807060D01*
X4335162D01*
X4348099Y2812419D01*
X4358001Y2822321D01*
X4363360Y2835258D01*
Y2849262D01*
X4358001Y2862199D01*
X4348099Y2872101D01*
X4335162Y2877460D01*
D02*
G37*
G36*
X4805062Y2869840D02*
X4791058D01*
X4778121Y2864481D01*
X4768219Y2854579D01*
X4762860Y2841642D01*
Y2827638D01*
X4768219Y2814701D01*
X4778121Y2804799D01*
X4791058Y2799440D01*
X4805062D01*
X4817999Y2804799D01*
X4827901Y2814701D01*
X4833260Y2827638D01*
Y2841642D01*
X4827901Y2854579D01*
X4817999Y2864481D01*
X4805062Y2869840D01*
D02*
G37*
G36*
X7521114Y2837752D02*
X7231554D01*
X7223778Y2834531D01*
X7220557Y2826755D01*
Y2585455D01*
X7223778Y2577679D01*
X7231554Y2574458D01*
X7521114D01*
X7528890Y2577679D01*
X7532111Y2585455D01*
Y2826755D01*
X7528890Y2834531D01*
X7521114Y2837752D01*
D02*
G37*
%LPD*%
D41*
X4033520Y3053080D02*
D03*
X4239260D02*
D03*
D42*
X3335020Y4699140D02*
D03*
Y4399140D02*
D03*
D43*
X2829560Y3143250D02*
D03*
Y4413250D02*
D03*
D44*
X3693160Y3543300D02*
D03*
X6690360Y4013200D02*
D03*
D45*
X7715250Y4762500D02*
D03*
X7620000Y4572000D02*
D03*
X7715250Y4381500D02*
D03*
X7620000Y4191000D02*
D03*
X7715250Y4000500D02*
D03*
X7620000Y3810000D02*
D03*
X7715250Y3238500D02*
D03*
X7620000Y3048000D02*
D03*
X7715250Y2857500D02*
D03*
X7620000Y2667000D02*
D03*
X7524750Y4762500D02*
D03*
X7429500Y4572000D02*
D03*
X7524750Y4381500D02*
D03*
X7429500Y4191000D02*
D03*
X7524750Y4000500D02*
D03*
Y3238500D02*
D03*
X7429500Y3048000D02*
D03*
X7334250Y4762500D02*
D03*
X7239000Y4572000D02*
D03*
X7334250Y4381500D02*
D03*
X7239000Y4191000D02*
D03*
X7334250Y4000500D02*
D03*
Y3238500D02*
D03*
X7239000Y3048000D02*
D03*
X7143750Y4762500D02*
D03*
X7048500Y4572000D02*
D03*
X7143750Y4381500D02*
D03*
X7048500Y4191000D02*
D03*
X7143750Y4000500D02*
D03*
X7048500Y3810000D02*
D03*
X7143750Y3619500D02*
D03*
X7048500Y3048000D02*
D03*
X7143750Y2857500D02*
D03*
X7048500Y2667000D02*
D03*
X6953250Y4762500D02*
D03*
X6858000Y4572000D02*
D03*
X6953250Y4381500D02*
D03*
X6858000Y4191000D02*
D03*
X6953250Y4000500D02*
D03*
X6858000Y3810000D02*
D03*
X6953250Y3619500D02*
D03*
Y3238500D02*
D03*
X6858000Y3048000D02*
D03*
X6953250Y2857500D02*
D03*
X6858000Y2667000D02*
D03*
X6762750Y4762500D02*
D03*
X6667500Y4572000D02*
D03*
X6762750Y4381500D02*
D03*
Y3619500D02*
D03*
X6667500Y3048000D02*
D03*
X6762750Y2857500D02*
D03*
X6667500Y2667000D02*
D03*
X6572250Y4762500D02*
D03*
X6477000Y4572000D02*
D03*
X6572250Y4381500D02*
D03*
X6477000Y4191000D02*
D03*
Y3810000D02*
D03*
X6572250Y3619500D02*
D03*
X6477000Y3048000D02*
D03*
X6572250Y2857500D02*
D03*
X6477000Y2667000D02*
D03*
X6381750Y4762500D02*
D03*
X6286500Y4572000D02*
D03*
X6381750Y4381500D02*
D03*
X6286500Y4191000D02*
D03*
X6381750Y4000500D02*
D03*
X6286500Y3810000D02*
D03*
X6381750Y2857500D02*
D03*
X6286500Y2667000D02*
D03*
X6191250Y4762500D02*
D03*
X6096000Y4572000D02*
D03*
X6191250Y4381500D02*
D03*
Y4000500D02*
D03*
X6096000Y2667000D02*
D03*
X6000750Y4762500D02*
D03*
X5905500Y4572000D02*
D03*
X6000750Y4381500D02*
D03*
Y4000500D02*
D03*
X5905500Y2667000D02*
D03*
X5810250Y4762500D02*
D03*
Y2857500D02*
D03*
X5715000Y2667000D02*
D03*
X5619750Y4762500D02*
D03*
X5524500Y4572000D02*
D03*
X5619750Y4381500D02*
D03*
Y2857500D02*
D03*
X5524500Y2667000D02*
D03*
X5429250Y4762500D02*
D03*
X5334000Y4572000D02*
D03*
X5429250Y4000500D02*
D03*
Y2857500D02*
D03*
X5334000Y2667000D02*
D03*
X5238750Y4762500D02*
D03*
X5143500Y4191000D02*
D03*
X5238750Y4000500D02*
D03*
Y2857500D02*
D03*
X5143500Y2667000D02*
D03*
X5048250Y4381500D02*
D03*
Y4000500D02*
D03*
X4953000Y3429000D02*
D03*
X5048250Y3238500D02*
D03*
Y2857500D02*
D03*
X4953000Y2667000D02*
D03*
X4762500Y4572000D02*
D03*
X4857750Y4381500D02*
D03*
Y4000500D02*
D03*
X4762500Y3429000D02*
D03*
X4857750Y3238500D02*
D03*
X4572000Y4572000D02*
D03*
X4667250Y4381500D02*
D03*
X4572000Y4191000D02*
D03*
Y3429000D02*
D03*
Y3048000D02*
D03*
Y2667000D02*
D03*
X4381500Y4572000D02*
D03*
X4476750Y4381500D02*
D03*
X4381500Y4191000D02*
D03*
X4476750Y4000500D02*
D03*
Y3238500D02*
D03*
X4191000Y4572000D02*
D03*
X4286250Y4381500D02*
D03*
X4191000Y3429000D02*
D03*
X4286250Y3238500D02*
D03*
X4000500Y4572000D02*
D03*
X4095750Y4381500D02*
D03*
Y4000500D02*
D03*
Y3619500D02*
D03*
X4000500Y3429000D02*
D03*
X4095750Y3238500D02*
D03*
Y2857500D02*
D03*
X4000500Y2667000D02*
D03*
X3810000Y4572000D02*
D03*
X3905250Y4381500D02*
D03*
X3810000Y3810000D02*
D03*
X3905250Y3619500D02*
D03*
Y3238500D02*
D03*
X3810000Y3048000D02*
D03*
X3714750Y4381500D02*
D03*
Y4000500D02*
D03*
X3619500Y3810000D02*
D03*
X3714750Y3238500D02*
D03*
Y2857500D02*
D03*
X3619500Y2667000D02*
D03*
X3524250Y4000500D02*
D03*
X3429000Y3810000D02*
D03*
Y3429000D02*
D03*
X3524250Y2857500D02*
D03*
X3429000Y2667000D02*
D03*
X3238500Y4191000D02*
D03*
X3333750Y4000500D02*
D03*
X3238500Y3810000D02*
D03*
X3333750Y3619500D02*
D03*
X3238500Y3429000D02*
D03*
X3333750Y2857500D02*
D03*
X3238500Y2667000D02*
D03*
X3048000Y4191000D02*
D03*
X3143250Y4000500D02*
D03*
X3048000Y3810000D02*
D03*
X3143250Y3619500D02*
D03*
X3048000Y3429000D02*
D03*
X3143250Y2857500D02*
D03*
X3048000Y2667000D02*
D03*
X2857500Y4572000D02*
D03*
X2952750Y4381500D02*
D03*
X2857500Y4191000D02*
D03*
X2952750Y4000500D02*
D03*
X2857500Y3810000D02*
D03*
X2952750Y3619500D02*
D03*
X2857500Y3429000D02*
D03*
X2952750Y2857500D02*
D03*
X2857500Y2667000D02*
D03*
X2762250Y4762500D02*
D03*
X2667000Y4572000D02*
D03*
Y4191000D02*
D03*
X2762250Y4000500D02*
D03*
X2667000Y3810000D02*
D03*
X2762250Y3619500D02*
D03*
X2667000Y3429000D02*
D03*
Y3048000D02*
D03*
X2762250Y2857500D02*
D03*
X2667000Y2667000D02*
D03*
X6624320Y3423920D02*
D03*
X6266180Y3291840D02*
D03*
X6451600Y3500120D02*
D03*
X6032500Y3096260D02*
D03*
X6322060Y3436620D02*
D03*
X7795260Y3685540D02*
D03*
X7739380Y3688080D02*
D03*
X7663180D02*
D03*
X7607300Y3655060D02*
D03*
X7797800Y3418840D02*
D03*
X7749540D02*
D03*
X7683500Y3423920D02*
D03*
X7612380Y3454400D02*
D03*
X7564120Y3403600D02*
D03*
X7508240Y3360420D02*
D03*
X7462520Y3307080D02*
D03*
X7378700Y3299460D02*
D03*
X7302500Y3294380D02*
D03*
X7152640Y3291840D02*
D03*
X7076440Y3286760D02*
D03*
X6997700Y3284220D02*
D03*
X6916420Y3286760D02*
D03*
X6830060D02*
D03*
X6738620D02*
D03*
X6652260D02*
D03*
X6573520Y3289300D02*
D03*
X6499860D02*
D03*
X6431280D02*
D03*
X6466840Y3421380D02*
D03*
X7576820Y3586480D02*
D03*
X7442200Y3477260D02*
D03*
X7386320Y3418840D02*
D03*
X7299960Y3413760D02*
D03*
X7198360Y3418840D02*
D03*
X7127240Y3413760D02*
D03*
X7048500Y3423920D02*
D03*
X6964680Y3426460D02*
D03*
X6891020Y3418840D02*
D03*
X6799580Y3421380D02*
D03*
X6715760Y3413760D02*
D03*
X6550660Y3421380D02*
D03*
X6395720Y3418840D02*
D03*
X4219281Y3815421D02*
D03*
X4272740Y3764740D02*
D03*
X4330438Y3764339D02*
D03*
X4017408Y3890408D02*
D03*
X4700799Y3656690D02*
D03*
X4478020Y3761740D02*
D03*
X4577080Y3764280D02*
D03*
X5612001Y3919853D02*
D03*
X5638800Y3655060D02*
D03*
X5228909Y3598270D02*
D03*
X5838165Y3875018D02*
D03*
X5641340Y3550920D02*
D03*
X5542280Y3549100D02*
D03*
X5201920Y3418840D02*
D03*
X5742940Y3261360D02*
D03*
X5849620D02*
D03*
X5537200Y3352800D02*
D03*
X5638800Y3261360D02*
D03*
X5539740D02*
D03*
X5636260Y3352800D02*
D03*
X5745480Y3550920D02*
D03*
X5539740Y3454400D02*
D03*
X5201920Y3482340D02*
D03*
X5539740Y3655060D02*
D03*
X5849620D02*
D03*
X5742940D02*
D03*
X5800450Y3830320D02*
D03*
X5946140Y3655060D02*
D03*
X5676388Y3907970D02*
D03*
X5711190Y3828778D02*
D03*
X5750560Y3870960D02*
D03*
X5883550Y3832860D02*
D03*
X6324600Y3063240D02*
D03*
X6413500Y3558540D02*
D03*
X6286500Y2923540D02*
D03*
X5831840Y3053080D02*
D03*
X5946140Y3261360D02*
D03*
X6148850Y3617429D02*
D03*
X6115214Y3664311D02*
D03*
X5946140Y3454400D02*
D03*
X5781040Y3083560D02*
D03*
X6108700Y3144520D02*
D03*
X6113780Y3454400D02*
D03*
X5595620Y3088640D02*
D03*
X6116367Y3569742D02*
D03*
X5852160Y3550920D02*
D03*
X5653316Y3089310D02*
D03*
X5882000Y3089178D02*
D03*
X6113780Y3512100D02*
D03*
X5948680Y3550920D02*
D03*
X5847080Y3352800D02*
D03*
X5849620Y3454400D02*
D03*
X5943600Y3352800D02*
D03*
X5742940Y3454400D02*
D03*
X5638800D02*
D03*
X5740400Y3352800D02*
D03*
X5483860Y4234180D02*
D03*
X6098540Y4236720D02*
D03*
X5788660Y4241800D02*
D03*
X5956300Y4655820D02*
D03*
X4739640Y4023360D02*
D03*
X4823460Y4053840D02*
D03*
X4058920Y4056380D02*
D03*
X3832860Y2844800D02*
D03*
X4798060Y2834640D02*
D03*
X4328160Y2842260D02*
D03*
X2974340Y4749800D02*
D03*
X3553460Y3284220D02*
D03*
X3495040Y3299460D02*
D03*
X2959100Y4622800D02*
D03*
X3332480Y4500880D02*
D03*
X3360420Y4556760D02*
D03*
X3703320Y4659270D02*
D03*
X3774440Y4742370D02*
D03*
X3329531Y4611171D02*
D03*
X3520440Y4282440D02*
D03*
X3225800Y4257040D02*
D03*
D46*
X5751200Y4447540D02*
D03*
X5831200D02*
D03*
%TF.MD5,8afed1ebeb2490b26aeff1108c107892*%
M02*
