%TF.GenerationSoftware,Altium Limited,Altium Designer,22.8.2 (66)*%
G04 Layer_Color=8388736*
%FSLAX45Y45*%
%MOMM*%
%TF.SameCoordinates,DE4C73A7-34E9-4613-BA68-141157798951*%
%TF.FilePolarity,Positive*%
%TF.FileFunction,Other,Top_3D_Body*%
%TF.Part,Single*%
G01*
G75*
%TA.AperFunction,NonConductor*%
%ADD53C,0.20000*%
D53*
X7305160Y4040300D02*
X7828160D01*
Y2665300D02*
Y4040300D01*
X7305160Y2665300D02*
X7828160D01*
X7305160D02*
Y4040300D01*
X4803700Y3720800D02*
Y3890800D01*
Y3720800D02*
X5013700D01*
Y3890800D01*
X4803700D02*
X5013700D01*
X5686200Y4552540D02*
X5896200D01*
X5686200Y4342540D02*
Y4552540D01*
Y4342540D02*
X5896200D01*
Y4552540D01*
X5889400Y2858860D02*
Y3028860D01*
Y2858860D02*
X6099400D01*
Y3028860D01*
X5889400D02*
X6099400D01*
X5194244Y3042492D02*
X5286168Y3134416D01*
X5194244Y3042492D02*
X5346272Y2890464D01*
X5438196Y2982388D01*
X5286168Y3134416D02*
X5438196Y2982388D01*
X3239780Y2993800D02*
Y3203800D01*
Y2993800D02*
X3399780D01*
Y3203800D01*
X3239780D02*
X3399780D01*
%TF.MD5,59f10323140c1c36fc9664a5801e0175*%
M02*
