%TF.GenerationSoftware,Altium Limited,Altium Designer,22.8.2 (66)*%
G04 Layer_Color=16711935*
%FSLAX45Y45*%
%MOMM*%
%TF.SameCoordinates,DE4C73A7-34E9-4613-BA68-141157798951*%
%TF.FilePolarity,Positive*%
%TF.FileFunction,Other,Mechanical_13*%
%TF.Part,Single*%
G01*
G75*
%TA.AperFunction,NonConductor*%
%ADD47C,0.50800*%
%ADD53C,0.20000*%
%ADD71C,0.10000*%
%ADD73C,0.02540*%
%ADD74C,0.12700*%
D47*
X3002620Y4349140D02*
G03*
X3002620Y4349140I-38100J0D01*
G01*
X3058160Y3143250D02*
G03*
X3058160Y3143250I-38100J0D01*
G01*
D53*
X4132725Y4262660D02*
G03*
X4132725Y4262660I-10000J0D01*
G01*
D71*
X5775523Y4636880D02*
X5878523D01*
X5775523Y4688880D02*
X5878523D01*
Y4636880D02*
Y4688880D01*
X5775523Y4636880D02*
Y4688880D01*
X4456560Y3483100D02*
X4631560D01*
X4456560Y3578100D02*
X4631560D01*
Y3483100D02*
Y3578100D01*
X4456560Y3483100D02*
Y3578100D01*
X5151720Y3766120D02*
Y3869120D01*
X5099720Y3766120D02*
Y3869120D01*
X5151720D01*
X5099720Y3766120D02*
X5151720D01*
X4839720Y3625180D02*
X4942720D01*
X4839720Y3573180D02*
X4942720D01*
X4839720D02*
Y3625180D01*
X4942720Y3573180D02*
Y3625180D01*
X5691300Y4206680D02*
Y4261680D01*
X5586300Y4206680D02*
Y4261680D01*
Y4206680D02*
X5691300D01*
X5586300Y4261680D02*
X5691300D01*
X5888560Y4206680D02*
Y4261680D01*
X5993560Y4206680D02*
Y4261680D01*
X5888560D02*
X5993560D01*
X5888560Y4206680D02*
X5993560D01*
X4828100Y2629740D02*
Y2734740D01*
X4773100Y2629740D02*
Y2734740D01*
X4828100D01*
X4773100Y2629740D02*
X4828100D01*
X6170100Y2934540D02*
X6225100D01*
X6170100Y3039540D02*
X6225100D01*
X6170100Y2934540D02*
Y3039540D01*
X6225100Y2934540D02*
Y3039540D01*
X6874900Y3325340D02*
Y3385340D01*
X6764900Y3325340D02*
Y3385340D01*
Y3325340D02*
X6874900D01*
X6764900Y3385340D02*
X6874900D01*
X6544700Y3325340D02*
Y3385340D01*
X6434700Y3325340D02*
Y3385340D01*
Y3325340D02*
X6544700D01*
X6434700Y3385340D02*
X6544700D01*
X4633400Y2629740D02*
X4688400D01*
X4633400Y2734740D02*
X4688400D01*
X4633400Y2629740D02*
Y2734740D01*
X4688400Y2629740D02*
Y2734740D01*
X5037580Y3617020D02*
X5132580D01*
X5037580Y3442020D02*
X5132580D01*
Y3617020D01*
X5037580Y3442020D02*
Y3617020D01*
X4973920Y4035360D02*
Y4138360D01*
X4921920Y4035360D02*
Y4138360D01*
X4973920D01*
X4921920Y4035360D02*
X4973920D01*
X4800000Y4126800D02*
Y4229800D01*
X4852000Y4126800D02*
Y4229800D01*
X4800000Y4126800D02*
X4852000D01*
X4800000Y4229800D02*
X4852000D01*
X4533200Y3644300D02*
X4636200D01*
X4533200Y3696300D02*
X4636200D01*
Y3644300D02*
Y3696300D01*
X4533200Y3644300D02*
Y3696300D01*
X5396800Y3875440D02*
X5499800D01*
X5396800Y3927440D02*
X5499800D01*
Y3875440D02*
Y3927440D01*
X5396800Y3875440D02*
Y3927440D01*
X6970700Y3381340D02*
X7073700D01*
X6970700Y3329340D02*
X7073700D01*
X6970700D02*
Y3381340D01*
X7073700Y3329340D02*
Y3381340D01*
X6628800Y3444940D02*
X6680800D01*
X6628800Y3341940D02*
X6680800D01*
Y3444940D01*
X6628800Y3341940D02*
Y3444940D01*
X6298600Y3445840D02*
X6350600D01*
X6298600Y3342840D02*
X6350600D01*
Y3445840D01*
X6298600Y3342840D02*
Y3445840D01*
Y3635440D02*
X6350600D01*
X6298600Y3532440D02*
X6350600D01*
Y3635440D01*
X6298600Y3532440D02*
Y3635440D01*
Y3138740D02*
Y3241740D01*
X6350600Y3138740D02*
Y3241740D01*
X6298600Y3138740D02*
X6350600D01*
X6298600Y3241740D02*
X6350600D01*
X6171600Y3559240D02*
X6223600D01*
X6171600Y3456240D02*
X6223600D01*
Y3559240D01*
X6171600Y3456240D02*
Y3559240D01*
Y3176840D02*
Y3279840D01*
X6223600Y3176840D02*
Y3279840D01*
X6171600Y3176840D02*
X6223600D01*
X6171600Y3279840D02*
X6223600D01*
X5269900Y3259840D02*
X5321900D01*
X5269900Y3362840D02*
X5321900D01*
X5269900Y3259840D02*
Y3362840D01*
X5321900Y3259840D02*
Y3362840D01*
X5066600Y3291240D02*
X5169600D01*
X5066600Y3343240D02*
X5169600D01*
Y3291240D02*
Y3343240D01*
X5066600Y3291240D02*
Y3343240D01*
X5269900Y3672140D02*
Y3775140D01*
X5321900Y3672140D02*
Y3775140D01*
X5269900Y3672140D02*
X5321900D01*
X5269900Y3775140D02*
X5321900D01*
X5269900Y3468940D02*
Y3571940D01*
X5321900Y3468940D02*
Y3571940D01*
X5269900Y3468940D02*
X5321900D01*
X5269900Y3571940D02*
X5321900D01*
X7505802Y3585624D02*
X7583584Y3507842D01*
X7463376Y3543198D02*
X7541158Y3465416D01*
X7463376Y3543198D02*
X7505802Y3585624D01*
X7541158Y3465416D02*
X7583584Y3507842D01*
X7483091Y3460941D02*
X7519861Y3424171D01*
X7410259Y3388109D02*
X7447029Y3351339D01*
X7519861Y3424171D01*
X7410259Y3388109D02*
X7483091Y3460941D01*
X7207920Y3265740D02*
X7259920D01*
X7207920Y3368740D02*
X7259920D01*
X7207920Y3265740D02*
Y3368740D01*
X7259920Y3265740D02*
Y3368740D01*
X4051740Y3767660D02*
X4106740D01*
X4051740Y3872660D02*
X4106740D01*
X4051740Y3767660D02*
Y3872660D01*
X4106740Y3767660D02*
Y3872660D01*
X3874260Y4144140D02*
X3969260D01*
X3874260Y4319140D02*
X3969260D01*
X3874260Y4144140D02*
Y4319140D01*
X3969260Y4144140D02*
Y4319140D01*
X4303200Y2632280D02*
X4358200D01*
X4303200Y2737280D02*
X4358200D01*
X4303200Y2632280D02*
Y2737280D01*
X4358200Y2632280D02*
Y2737280D01*
X3807900Y2632280D02*
X3862900D01*
X3807900Y2737280D02*
X3862900D01*
X3807900Y2632280D02*
Y2737280D01*
X3862900Y2632280D02*
Y2737280D01*
X3472180Y3014200D02*
X3651080D01*
X3472180Y3234200D02*
X3651080D01*
X3472180Y3014200D02*
Y3234200D01*
X3651080Y3014200D02*
Y3234200D01*
X4163500Y2632280D02*
X4218500D01*
X4163500Y2737280D02*
X4218500D01*
X4163500Y2632280D02*
Y2737280D01*
X4218500Y2632280D02*
Y2737280D01*
X3668200Y2632280D02*
X3723200D01*
X3668200Y2737280D02*
X3723200D01*
X3668200Y2632280D02*
Y2737280D01*
X3723200Y2632280D02*
Y2737280D01*
X4035460Y4139500D02*
Y4242500D01*
X4087460Y4139500D02*
Y4242500D01*
X4035460Y4139500D02*
X4087460D01*
X4035460Y4242500D02*
X4087460D01*
X3232280Y3264660D02*
Y3359660D01*
X3407280Y3264660D02*
Y3359660D01*
X3232280D02*
X3407280D01*
X3232280Y3264660D02*
X3407280D01*
X3058920Y3224400D02*
X3153920D01*
X3058920Y3049400D02*
X3153920D01*
Y3224400D01*
X3058920Y3049400D02*
Y3224400D01*
D73*
X5442000Y3158340D02*
X6042000D01*
X5442000D02*
Y3758340D01*
X6042000D01*
Y3158340D02*
Y3758340D01*
X5442000Y3285340D02*
X5569000Y3158340D01*
X3167380Y4283710D02*
X3502660D01*
X3167380D02*
Y4814570D01*
X3502660D01*
Y4283710D02*
Y4814570D01*
X2570480Y2548890D02*
X7868920D01*
Y5007610D01*
X2570480D02*
X7868920D01*
X2570480Y2548890D02*
Y5007610D01*
D74*
X4174725Y3769660D02*
X4730725D01*
Y4325660D01*
X4174725D02*
X4730725D01*
X4174725Y3769660D02*
Y4325660D01*
%TF.MD5,0bd3169cbc75c20a3177b5d2db8f1321*%
M02*
