%TF.GenerationSoftware,Altium Limited,Altium Designer,22.8.2 (66)*%
G04 Layer_Color=8421504*
%FSLAX45Y45*%
%MOMM*%
%TF.SameCoordinates,DE4C73A7-34E9-4613-BA68-141157798951*%
%TF.FilePolarity,Positive*%
%TF.FileFunction,Paste,Top*%
%TF.Part,Single*%
G01*
G75*
%TA.AperFunction,ConnectorPad*%
%ADD10R,1.50000X1.20000*%
%TA.AperFunction,SMDPad,CuDef*%
%ADD12R,0.86000X0.22000*%
%ADD13R,0.22000X0.86000*%
%ADD14R,0.60000X0.64000*%
%ADD15R,0.90000X1.00000*%
%ADD16R,0.64000X0.60000*%
%ADD17R,0.90000X0.80000*%
%ADD18R,0.75000X0.60000*%
G04:AMPARAMS|DCode=20|XSize=0.5mm|YSize=0.25mm|CornerRadius=0.125mm|HoleSize=0mm|Usage=FLASHONLY|Rotation=270.000|XOffset=0mm|YOffset=0mm|HoleType=Round|Shape=RoundedRectangle|*
%AMROUNDEDRECTD20*
21,1,0.50000,0.00000,0,0,270.0*
21,1,0.25000,0.25000,0,0,270.0*
1,1,0.25000,0.00000,-0.12500*
1,1,0.25000,0.00000,0.12500*
1,1,0.25000,0.00000,0.12500*
1,1,0.25000,0.00000,-0.12500*
%
%ADD20ROUNDEDRECTD20*%
%TA.AperFunction,BGAPad,CuDef*%
%ADD21C,0.35000*%
%TA.AperFunction,SMDPad,CuDef*%
%ADD22R,0.60000X0.75000*%
%ADD23R,0.48000X0.54000*%
%ADD24R,1.00000X0.90000*%
%ADD25R,0.55000X0.54000*%
%ADD26R,0.54000X0.55000*%
G04:AMPARAMS|DCode=27|XSize=0.54mm|YSize=0.48mm|CornerRadius=0mm|HoleSize=0mm|Usage=FLASHONLY|Rotation=225.000|XOffset=0mm|YOffset=0mm|HoleType=Round|Shape=Rectangle|*
%AMROTATEDRECTD27*
4,1,4,0.02121,0.36062,0.36062,0.02121,-0.02121,-0.36062,-0.36062,-0.02121,0.02121,0.36062,0.0*
%
%ADD27ROTATEDRECTD27*%

G04:AMPARAMS|DCode=28|XSize=0.54mm|YSize=0.55mm|CornerRadius=0mm|HoleSize=0mm|Usage=FLASHONLY|Rotation=315.000|XOffset=0mm|YOffset=0mm|HoleType=Round|Shape=Rectangle|*
%AMROTATEDRECTD28*
4,1,4,-0.38537,-0.00354,0.00354,0.38537,0.38537,0.00354,-0.00354,-0.38537,-0.38537,-0.00354,0.0*
%
%ADD28ROTATEDRECTD28*%

G04:AMPARAMS|DCode=29|XSize=0.75mm|YSize=1.4mm|CornerRadius=0mm|HoleSize=0mm|Usage=FLASHONLY|Rotation=315.000|XOffset=0mm|YOffset=0mm|HoleType=Round|Shape=Rectangle|*
%AMROTATEDRECTD29*
4,1,4,-0.76014,-0.22981,0.22981,0.76014,0.76014,0.22981,-0.22981,-0.76014,-0.76014,-0.22981,0.0*
%
%ADD29ROTATEDRECTD29*%

%ADD30R,0.72000X0.76000*%
G04:AMPARAMS|DCode=31|XSize=0.6mm|YSize=0.25mm|CornerRadius=0.05mm|HoleSize=0mm|Usage=FLASHONLY|Rotation=0.000|XOffset=0mm|YOffset=0mm|HoleType=Round|Shape=RoundedRectangle|*
%AMROUNDEDRECTD31*
21,1,0.60000,0.15000,0,0,0.0*
21,1,0.50000,0.25000,0,0,0.0*
1,1,0.10000,0.25000,-0.07500*
1,1,0.10000,-0.25000,-0.07500*
1,1,0.10000,-0.25000,0.07500*
1,1,0.10000,0.25000,0.07500*
%
%ADD31ROUNDEDRECTD31*%
%ADD32R,1.60000X0.65000*%
%ADD33R,2.40000X0.56000*%
%TA.AperFunction,NonConductor*%
%ADD55R,1.25000X0.62000*%
%TA.AperFunction,SMDPad,CuDef*%
%ADD56R,0.02540X0.02540*%
G36*
X5954500Y3542507D02*
X5826167D01*
Y3670840D01*
X5954500D01*
Y3542507D01*
D02*
G37*
G36*
X5806167D02*
X5677833D01*
Y3670840D01*
X5806167D01*
Y3542507D01*
D02*
G37*
G36*
X5657833D02*
X5529500D01*
Y3670840D01*
X5657833D01*
Y3542507D01*
D02*
G37*
G36*
X5954500Y3394173D02*
X5826167D01*
Y3522507D01*
X5954500D01*
Y3394173D01*
D02*
G37*
G36*
X5806167D02*
X5677833D01*
Y3522507D01*
X5806167D01*
Y3394173D01*
D02*
G37*
G36*
X5657833D02*
X5529500D01*
Y3522507D01*
X5657833D01*
Y3394173D01*
D02*
G37*
G36*
X5954500Y3245840D02*
X5826167D01*
Y3374173D01*
X5954500D01*
Y3245840D01*
D02*
G37*
G36*
X5806167D02*
X5677833D01*
Y3374173D01*
X5806167D01*
Y3245840D01*
D02*
G37*
G36*
X5657833D02*
X5529500D01*
Y3374173D01*
X5657833D01*
Y3245840D01*
D02*
G37*
D10*
X7753160Y3775300D02*
D03*
Y3555300D02*
D03*
X7380160Y3775300D02*
D03*
Y2705300D02*
D03*
D12*
X5448500Y3238340D02*
D03*
Y3278340D02*
D03*
Y3318340D02*
D03*
Y3358340D02*
D03*
Y3398340D02*
D03*
Y3438340D02*
D03*
Y3478340D02*
D03*
Y3518340D02*
D03*
Y3558340D02*
D03*
Y3598340D02*
D03*
Y3638340D02*
D03*
Y3678340D02*
D03*
X6035500D02*
D03*
Y3638340D02*
D03*
Y3598340D02*
D03*
Y3558340D02*
D03*
Y3518340D02*
D03*
Y3478340D02*
D03*
Y3438340D02*
D03*
Y3398340D02*
D03*
Y3358340D02*
D03*
Y3318340D02*
D03*
Y3278340D02*
D03*
Y3238340D02*
D03*
D13*
X5522000Y3751840D02*
D03*
X5562000D02*
D03*
X5602000D02*
D03*
X5642000D02*
D03*
X5682000D02*
D03*
X5722000D02*
D03*
X5762000D02*
D03*
X5802000D02*
D03*
X5842000D02*
D03*
X5882000D02*
D03*
X5922000D02*
D03*
X5962000D02*
D03*
Y3164840D02*
D03*
X5922000D02*
D03*
X5882000D02*
D03*
X5842000D02*
D03*
X5802000D02*
D03*
X5762000D02*
D03*
X5722000D02*
D03*
X5682000D02*
D03*
X5642000D02*
D03*
X5602000D02*
D03*
X5562000D02*
D03*
X5522000D02*
D03*
D14*
X5871023Y4662880D02*
D03*
X5783023D02*
D03*
X4847220Y3599180D02*
D03*
X4935220D02*
D03*
X4628700Y3670300D02*
D03*
X4540700D02*
D03*
X5492300Y3901440D02*
D03*
X5404300D02*
D03*
X5162100Y3317240D02*
D03*
X5074100D02*
D03*
D15*
X4611560Y3530600D02*
D03*
X4476560D02*
D03*
X3252280Y3312160D02*
D03*
X3387280D02*
D03*
D16*
X5125720Y3861620D02*
D03*
Y3773620D02*
D03*
X4947920Y4130860D02*
D03*
Y4042860D02*
D03*
X4826000Y4134300D02*
D03*
Y4222300D02*
D03*
X6324600Y3627940D02*
D03*
Y3539940D02*
D03*
Y3146240D02*
D03*
Y3234240D02*
D03*
X6197600Y3551740D02*
D03*
Y3463740D02*
D03*
Y3184340D02*
D03*
Y3272340D02*
D03*
X5295900Y3267340D02*
D03*
Y3355340D02*
D03*
Y3679640D02*
D03*
Y3767640D02*
D03*
Y3476440D02*
D03*
Y3564440D02*
D03*
X4061460Y4147000D02*
D03*
Y4235000D02*
D03*
D17*
X4838700Y3860800D02*
D03*
X4978700D02*
D03*
Y3750800D02*
D03*
X4838700D02*
D03*
X5924400Y2888860D02*
D03*
X6064400D02*
D03*
Y2998860D02*
D03*
X5924400D02*
D03*
D18*
X5696300Y4234180D02*
D03*
X5581300D02*
D03*
X5883560D02*
D03*
X5998560D02*
D03*
D20*
X5856200Y4352540D02*
D03*
X5791200D02*
D03*
X5726200D02*
D03*
Y4542540D02*
D03*
X5791200D02*
D03*
X5856200D02*
D03*
D21*
X4677725Y3872660D02*
D03*
Y3922660D02*
D03*
Y3972660D02*
D03*
Y4022660D02*
D03*
Y4072660D02*
D03*
Y4122660D02*
D03*
Y4172660D02*
D03*
Y4222660D02*
D03*
X4627725Y3822660D02*
D03*
Y3872660D02*
D03*
Y3922660D02*
D03*
Y4022660D02*
D03*
Y4072660D02*
D03*
Y4122660D02*
D03*
Y4172660D02*
D03*
Y4222660D02*
D03*
Y4272660D02*
D03*
X4577725Y3822660D02*
D03*
Y3872660D02*
D03*
Y4272660D02*
D03*
X4527725Y3822660D02*
D03*
Y4272660D02*
D03*
X4477725Y3822660D02*
D03*
Y3872660D02*
D03*
Y4272660D02*
D03*
X4427725Y3822660D02*
D03*
Y3872660D02*
D03*
Y4272660D02*
D03*
X4377725Y3822660D02*
D03*
Y4272660D02*
D03*
X4327725Y3822660D02*
D03*
Y3872660D02*
D03*
Y4272660D02*
D03*
X4277725Y3822660D02*
D03*
Y3872660D02*
D03*
Y3922660D02*
D03*
Y4022660D02*
D03*
Y4072660D02*
D03*
Y4122660D02*
D03*
Y4172660D02*
D03*
Y4222660D02*
D03*
Y4272660D02*
D03*
X4227725Y3872660D02*
D03*
Y3922660D02*
D03*
Y3972660D02*
D03*
Y4022660D02*
D03*
Y4072660D02*
D03*
Y4122660D02*
D03*
Y4172660D02*
D03*
Y4222660D02*
D03*
D22*
X4800600Y2739740D02*
D03*
Y2624740D02*
D03*
X6197600Y2929540D02*
D03*
Y3044540D02*
D03*
X4660900Y2624740D02*
D03*
Y2739740D02*
D03*
X4330700Y2627280D02*
D03*
Y2742280D02*
D03*
X3835400Y2627280D02*
D03*
Y2742280D02*
D03*
X4191000Y2627280D02*
D03*
Y2742280D02*
D03*
X3695700Y2627280D02*
D03*
Y2742280D02*
D03*
D23*
X6863900Y3355340D02*
D03*
X6775900D02*
D03*
X6533700D02*
D03*
X6445700D02*
D03*
D24*
X5085080Y3597020D02*
D03*
Y3462020D02*
D03*
X3921760Y4164140D02*
D03*
Y4299140D02*
D03*
X3106420Y3204400D02*
D03*
Y3069400D02*
D03*
D25*
X6983200Y3355340D02*
D03*
X7061200D02*
D03*
D26*
X6654800Y3432440D02*
D03*
Y3354440D02*
D03*
X6324600Y3433340D02*
D03*
Y3355340D02*
D03*
X7233920Y3278240D02*
D03*
Y3356240D02*
D03*
D27*
X7492367Y3556633D02*
D03*
X7554593Y3494407D02*
D03*
D28*
X7492637Y3433717D02*
D03*
X7437483Y3378563D02*
D03*
D29*
X5367485Y2961175D02*
D03*
X5264955Y3063705D02*
D03*
D30*
X4079240Y3771160D02*
D03*
Y3869160D02*
D03*
D31*
X3384780Y3173800D02*
D03*
Y3123800D02*
D03*
Y3073800D02*
D03*
Y3023800D02*
D03*
X3254780D02*
D03*
Y3073800D02*
D03*
Y3123800D02*
D03*
Y3173800D02*
D03*
D32*
X3561080Y3056700D02*
D03*
Y3191700D02*
D03*
D33*
X3525520Y4752340D02*
D03*
Y4650740D02*
D03*
Y4549140D02*
D03*
Y4447540D02*
D03*
Y4345940D02*
D03*
X3144520Y4752340D02*
D03*
Y4650740D02*
D03*
Y4549140D02*
D03*
Y4447540D02*
D03*
Y4345940D02*
D03*
D55*
X5791200Y4447540D02*
D03*
D56*
X5742000Y3458340D02*
D03*
%TF.MD5,53c8bc793d17eaf85cf65dd33a80f9de*%
M02*
