M48
;Layer_Color=9474304
;FILE_FORMAT=4:4
METRIC,LZ
;TYPE=PLATED
T1F00S00C0.2000
T2F00S00C1.0160
%
T01
X002667Y002667
X0028575
X003048
X0032385
X003429
X0036195
X00371475Y0028575
X00383286Y0028448
X00381Y003048
X00390525Y0032385
X00371475
X00355346Y00328422
X00349504Y00329946
X003429Y003429
X0032385
X003048
X0028575
X002667
X00276225Y0036195
X00295275
X00314325
X00333375
X003429Y00381
X0036195
X00381
X00390525Y0036195
X0032385Y00381
X003048
X0028575
X002667
Y003048
X00276225Y0028575
X00295275
X00314325
X00333375
X00352425
X00409575
X00432816Y00284226
X0043815Y003048
X004572
X00447675Y0032385
X00428625
X00409575
X004191Y003429
X0040005
X00409575Y0036195
X00421894Y00381508
X00427274Y00376474
X00433044Y00376434
X00447802Y00376174
X00457708Y00376428
X00470408Y00366776
X00504825Y0036195
X00523875
X005334Y00381
X00547116Y00396494
X0055993Y00365061
X00566369Y00363873
X00573786Y00360172
X00569849Y00355954
X00578775Y00356108
X00582547Y00360578
X00587085Y00356362
X0059055Y00381
X006096
X00608584Y00396748
X0062865Y00381
X006477
X00657225Y0036195
X00676275
X00695325
X00714375
X00733425
X00752475
X00771525
X00762Y003429
X0074295
X007239
X0070485
X006858
X0066675
X006477
X0062865
X00610251Y00339507
X00613615Y00334819
X00610367Y0033005
X00610108Y00324286
Y00318516
X006096Y00287528
X0058693Y00281994
X00581914Y00278384
X00576834Y00281432
X00564062Y00282007
X00558292Y0028194
X00518922Y0031496
Y0032131
X00521621Y00332903
X00485775Y0032385
X00479806Y00283464
X004572Y002667
X0040005
Y003048
X004191
X00639826Y0030099
X00647954
X00656082
X00666242
X00676656
X0068707
X0069723
X0070739
X00717296
Y0031623
X00707136
X00696468
X00695325Y0032385
X00686816Y0031623
X00676656
X00676275Y0032385
X0066421Y00325882
X00657225Y0032385
X00653796Y0031623
X00642792Y00316194
X0064008Y0032893
X00638175Y0036195
X00619125
X006858Y00381
X0070485
X007239
X0074295
X00752475Y0032385
X00771525
X00762Y003048
Y002667
X0074295
X007239
X0070485
X006858
X0066675
X006477
X0062738Y0026543
X0063119Y002794
X00638175Y0028575
X00657225
X00676275
X00695325
X00714375
Y0032385
X00733425
Y0040005
X00714375
X00695325
X0070485Y004191
X007239
X0074295
X00762
X00771525Y0043815
X00752475
X00733425
X00714375
X00695325
X00676275
X00657225
X00638175
X00619125
X0059436Y00438658
X0059055Y004572
X006096
X0062865
X006477
X0066675
X006858
X0070485
X007239
X0074295
X00762
X00771525Y0047625
X00752475
X00733425
X00714375
X00695325
X00676275
X00657225
X00638175
X00619125
X00600075
X00581025
X00561975
X00542925
X00523875
X00504825
X00485775
X0051435Y004572
X005334
X0055245
X005715
X00561975Y0043815
X00542925
X00523875
X0055245Y004191
X0057385Y0041783
X0058185
X0059055Y004191
X006096
X0062865
X006477
X00638175Y0040005
X00619125
X00577596Y00397256
X00504825Y0040005
X00485775
X00482346Y00405384
X00473964Y00402336
X00447675Y0040005
X004572Y004191
X0043815
X00447675Y0043815
X00466725
X004572Y004572
X0043815
X004191
X0040005
X00409575Y0043815
X00428625
X00405892Y00405638
X00409575Y0040005
X006858Y004191
X00390525Y0043815
X00371475
X00381Y004572
X00370332Y00465927
X00377444Y00474237
X00332953Y00461117
X00336042Y00455676
X00333248Y00450088
X0032258Y00425704
X0032385Y004191
X003048
X0028575
X002667
X00276225Y0040005
X00295275
X00314325
X00333375
X00352425
X00371475
X00352044Y00428244
X00295275Y0043815
X0029591Y0046228
X00297434Y0047498
X00276225Y0047625
X0028575Y004572
X002667
T02
X00282702Y00314071
Y00441071
M30
