G04*
G04 #@! TF.GenerationSoftware,Altium Limited,Altium Designer,22.8.2 (66)*
G04*
G04 Layer_Physical_Order=4*
G04 Layer_Color=16711680*
%FSLAX44Y44*%
%MOMM*%
G71*
G04*
G04 #@! TF.SameCoordinates,468F8AB8-D0D1-42F9-A28A-8A06B6F8ABAF*
G04*
G04*
G04 #@! TF.FilePolarity,Positive*
G04*
G01*
G75*
%ADD14C,0.1270*%
%ADD49C,1.5240*%
%ADD52C,0.5000*%
%ADD57C,0.1016*%
%ADD58C,3.4544*%
%ADD59C,0.8128*%
%ADD60C,0.4500*%
G36*
X782821Y255016D02*
X257309D01*
Y499611D01*
X782821D01*
Y255016D01*
D02*
G37*
%LPC*%
G36*
X298134Y478500D02*
X296734D01*
X295440Y477964D01*
X294450Y476974D01*
X293914Y475680D01*
Y474280D01*
X294450Y472986D01*
X295440Y471996D01*
X296734Y471460D01*
X298134D01*
X299428Y471996D01*
X300418Y472986D01*
X300954Y474280D01*
Y475680D01*
X300418Y476974D01*
X299428Y477964D01*
X298134Y478500D01*
D02*
G37*
G36*
X595060Y442178D02*
X593660D01*
X592366Y441642D01*
X591376Y440652D01*
X590840Y439358D01*
Y437958D01*
X591376Y436664D01*
X592366Y435674D01*
X593660Y435138D01*
X595060D01*
X596354Y435674D01*
X597344Y436664D01*
X597880Y437958D01*
Y439358D01*
X597344Y440652D01*
X596354Y441642D01*
X595060Y442178D01*
D02*
G37*
G36*
X468808Y482361D02*
X330852D01*
X330208Y482233D01*
X329662Y481868D01*
X322827Y475033D01*
X322462Y474487D01*
X322334Y473843D01*
Y459319D01*
X322462Y458675D01*
X322827Y458129D01*
X329857Y451099D01*
X329728Y450788D01*
Y449388D01*
X330264Y448094D01*
X331003Y447355D01*
X330980Y446469D01*
X330961Y446370D01*
X330784Y445924D01*
X329472Y445167D01*
X328250Y443944D01*
X327385Y442448D01*
X326938Y440778D01*
Y439050D01*
X327385Y437380D01*
X328250Y435884D01*
X328781Y435352D01*
X328255Y434082D01*
X326488D01*
X299301Y461269D01*
X299430Y461580D01*
Y462980D01*
X298894Y464274D01*
X297904Y465264D01*
X296610Y465800D01*
X295210D01*
X293916Y465264D01*
X292926Y464274D01*
X292390Y462980D01*
Y461580D01*
X292926Y460286D01*
X293916Y459296D01*
X295210Y458760D01*
X296610D01*
X296921Y458889D01*
X324601Y431209D01*
X325147Y430844D01*
X325791Y430716D01*
X347883D01*
X348732Y429446D01*
X348524Y428944D01*
Y427544D01*
X349060Y426250D01*
X349193Y426117D01*
X348667Y424847D01*
X326613D01*
X326100Y425361D01*
Y426404D01*
X325564Y427698D01*
X324574Y428688D01*
X323280Y429224D01*
X321880D01*
X320586Y428688D01*
X319596Y427698D01*
X319060Y426404D01*
Y425004D01*
X319596Y423710D01*
X320586Y422720D01*
X321880Y422184D01*
X323280D01*
X324154Y422546D01*
X324726Y421974D01*
X325272Y421609D01*
X325916Y421481D01*
X362523D01*
X503254Y280750D01*
X503800Y280385D01*
X504444Y280257D01*
X555179D01*
X555308Y279946D01*
X556298Y278956D01*
X557592Y278420D01*
X558992D01*
X560286Y278956D01*
X561210Y279880D01*
X562068Y279023D01*
X563361Y278487D01*
X564762D01*
X566055Y279023D01*
X567046Y280013D01*
X567582Y281307D01*
Y282707D01*
X567046Y284001D01*
X566472Y284575D01*
X566998Y285845D01*
X574970D01*
X575223Y284575D01*
X574840Y284416D01*
X573850Y283426D01*
X573314Y282132D01*
Y280732D01*
X573443Y280421D01*
X569279Y276257D01*
X501839D01*
X485314Y292782D01*
X484768Y293147D01*
X484124Y293275D01*
X392176D01*
X391532Y293147D01*
X390986Y292782D01*
X385474Y287270D01*
X385280Y287464D01*
X383986Y288000D01*
X382586D01*
X381292Y287464D01*
X380302Y286474D01*
X379766Y285180D01*
Y283780D01*
X380302Y282486D01*
X381292Y281496D01*
X382586Y280960D01*
X383986D01*
X385280Y281496D01*
X386270Y282486D01*
X386806Y283780D01*
Y283841D01*
X392873Y289909D01*
X434322D01*
X434848Y288639D01*
X433827Y287617D01*
X433516Y287746D01*
X432116D01*
X430822Y287210D01*
X429832Y286220D01*
X429296Y284926D01*
Y283526D01*
X429832Y282232D01*
X430822Y281242D01*
X432116Y280706D01*
X433516D01*
X434810Y281242D01*
X435800Y282232D01*
X436336Y283526D01*
Y284926D01*
X436207Y285237D01*
X437323Y286353D01*
X476057D01*
X476666Y285083D01*
X476286Y284164D01*
Y282764D01*
X476822Y281470D01*
X477812Y280480D01*
X479106Y279944D01*
X480506D01*
X481310Y280277D01*
X493767Y267820D01*
X494934Y267336D01*
X581406D01*
X582572Y267820D01*
X588096Y273344D01*
X588580Y274510D01*
Y278867D01*
X588924Y279010D01*
X589914Y280000D01*
X590450Y281294D01*
Y282694D01*
X589914Y283988D01*
X589327Y284575D01*
X589853Y285845D01*
X606487D01*
X606616Y285534D01*
X607606Y284544D01*
X608900Y284008D01*
X610300D01*
X611594Y284544D01*
X612584Y285534D01*
X613120Y286828D01*
Y288228D01*
X612584Y289522D01*
X611594Y290512D01*
X610300Y291048D01*
X608900D01*
X607606Y290512D01*
X606616Y289522D01*
X606487Y289211D01*
X562291D01*
X562149Y289353D01*
X561603Y289718D01*
X560959Y289846D01*
X507173D01*
X462818Y334201D01*
X463304Y335375D01*
X517460D01*
X518309Y334105D01*
X518101Y333603D01*
Y332203D01*
X518637Y330909D01*
X519627Y329919D01*
X520921Y329383D01*
X522321D01*
X523615Y329919D01*
X524605Y330909D01*
X525141Y332203D01*
Y333603D01*
X524933Y334105D01*
X525782Y335375D01*
X603533D01*
X604528Y334379D01*
Y328182D01*
X604656Y327538D01*
X605021Y326992D01*
X606717Y325297D01*
X606588Y324986D01*
Y323586D01*
X607124Y322292D01*
X608015Y321401D01*
X607124Y320510D01*
X606588Y319216D01*
Y317816D01*
X607124Y316522D01*
X608114Y315532D01*
X609408Y314996D01*
X610808D01*
X612102Y315532D01*
X613092Y316522D01*
X613628Y317816D01*
Y319216D01*
X613530Y319452D01*
X621458Y327380D01*
X621823Y327926D01*
X621951Y328570D01*
Y343662D01*
X621823Y344306D01*
X621458Y344852D01*
X579279Y387031D01*
Y394143D01*
X579590Y394272D01*
X580580Y395262D01*
X581116Y396556D01*
Y397956D01*
X580580Y399250D01*
X579590Y400240D01*
X578296Y400776D01*
X576896D01*
X575602Y400240D01*
X574612Y399250D01*
X574076Y397956D01*
Y396556D01*
X574612Y395262D01*
X575602Y394272D01*
X575913Y394143D01*
Y386334D01*
X576041Y385690D01*
X576406Y385144D01*
X612648Y348901D01*
X612122Y347631D01*
X604520D01*
X603876Y347503D01*
X603330Y347138D01*
X601791Y345599D01*
X563535D01*
X563049Y346773D01*
X568838Y352562D01*
X569149Y352434D01*
X570549D01*
X571843Y352970D01*
X572833Y353960D01*
X573369Y355254D01*
Y356279D01*
X574319Y356401D01*
X575255Y355443D01*
Y355408D01*
X575791Y354114D01*
X576781Y353124D01*
X578075Y352588D01*
X579475D01*
X580769Y353124D01*
X581759Y354114D01*
X582295Y355408D01*
Y355715D01*
X583565Y355662D01*
X584101Y354368D01*
X585091Y353378D01*
X586385Y352842D01*
X587785D01*
X589079Y353378D01*
X590069Y354368D01*
X590605Y355662D01*
Y357062D01*
X590069Y358356D01*
X589079Y359346D01*
X588768Y359475D01*
Y362401D01*
X588640Y363045D01*
X588275Y363591D01*
X469998Y481868D01*
X469452Y482233D01*
X468808Y482361D01*
D02*
G37*
G36*
X609284Y400268D02*
X607884D01*
X606590Y399732D01*
X605600Y398742D01*
X605064Y397448D01*
Y396048D01*
X605600Y394754D01*
X606590Y393764D01*
X607884Y393228D01*
X609284D01*
X610578Y393764D01*
X611568Y394754D01*
X612104Y396048D01*
Y397448D01*
X611568Y398742D01*
X610578Y399732D01*
X609284Y400268D01*
D02*
G37*
G36*
X670729Y420838D02*
X666835D01*
X663015Y420078D01*
X659417Y418588D01*
X656178Y416424D01*
X653424Y413670D01*
X651260Y410432D01*
X649770Y406833D01*
X649010Y403013D01*
Y399119D01*
X649770Y395299D01*
X651260Y391701D01*
X653424Y388462D01*
X656178Y385708D01*
X659417Y383544D01*
X663015Y382054D01*
X666835Y381294D01*
X670729D01*
X674549Y382054D01*
X678148Y383544D01*
X681386Y385708D01*
X684140Y388462D01*
X686304Y391701D01*
X687794Y395299D01*
X688554Y399119D01*
Y403013D01*
X687794Y406833D01*
X686304Y410432D01*
X684140Y413670D01*
X681386Y416424D01*
X678148Y418588D01*
X674549Y420078D01*
X670729Y420838D01*
D02*
G37*
G36*
X371009Y373848D02*
X367115D01*
X363295Y373088D01*
X359697Y371598D01*
X356458Y369434D01*
X353704Y366680D01*
X351540Y363442D01*
X350050Y359843D01*
X349290Y356023D01*
Y352129D01*
X350050Y348309D01*
X351540Y344711D01*
X353704Y341472D01*
X356458Y338718D01*
X359697Y336554D01*
X363295Y335064D01*
X367115Y334304D01*
X371009D01*
X374829Y335064D01*
X378428Y336554D01*
X381666Y338718D01*
X384420Y341472D01*
X386584Y344711D01*
X388074Y348309D01*
X388834Y352129D01*
Y356023D01*
X388074Y359843D01*
X386584Y363442D01*
X384420Y366680D01*
X381666Y369434D01*
X378428Y371598D01*
X374829Y373088D01*
X371009Y373848D01*
D02*
G37*
G36*
X640780Y332450D02*
X639380D01*
X638086Y331914D01*
X637096Y330924D01*
X636560Y329630D01*
Y328230D01*
X637096Y326936D01*
X638086Y325946D01*
X639380Y325410D01*
X640780D01*
X642074Y325946D01*
X643064Y326936D01*
X643600Y328230D01*
Y329630D01*
X643064Y330924D01*
X642074Y331914D01*
X640780Y332450D01*
D02*
G37*
G36*
X350204Y333466D02*
X348804D01*
X347510Y332930D01*
X346520Y331940D01*
X345984Y330646D01*
Y329246D01*
X346520Y327952D01*
X347510Y326962D01*
X348804Y326426D01*
X350204D01*
X351025Y326766D01*
X352362Y326428D01*
X353352Y325438D01*
X354646Y324902D01*
X356046D01*
X357340Y325438D01*
X358330Y326428D01*
X358866Y327722D01*
Y329122D01*
X358330Y330416D01*
X357340Y331406D01*
X356046Y331942D01*
X354646D01*
X353825Y331602D01*
X352488Y331940D01*
X351498Y332930D01*
X350204Y333466D01*
D02*
G37*
G36*
X519622Y324830D02*
X518222D01*
X516928Y324294D01*
X515938Y323304D01*
X515402Y322010D01*
Y320610D01*
X515938Y319316D01*
X516289Y318965D01*
X516809Y318135D01*
X516289Y317305D01*
X515938Y316954D01*
X515402Y315660D01*
Y314260D01*
X515938Y312966D01*
X516928Y311976D01*
X518222Y311440D01*
X519622D01*
X520916Y311976D01*
X521906Y312966D01*
X522442Y314260D01*
Y315660D01*
X521906Y316954D01*
X521555Y317305D01*
X521035Y318135D01*
X521555Y318965D01*
X521906Y319316D01*
X522442Y320610D01*
Y322010D01*
X521906Y323304D01*
X520916Y324294D01*
X519622Y324830D01*
D02*
G37*
G36*
X283839Y322707D02*
X281565D01*
X279369Y322118D01*
X277399Y320981D01*
X275791Y319374D01*
X274655Y317404D01*
X274066Y315208D01*
Y312934D01*
X274655Y310738D01*
X275791Y308768D01*
X277399Y307160D01*
X279369Y306024D01*
X281565Y305435D01*
X283839D01*
X286035Y306024D01*
X288005Y307160D01*
X289613Y308768D01*
X290749Y310738D01*
X291338Y312934D01*
Y315208D01*
X290749Y317404D01*
X289613Y319374D01*
X288005Y320981D01*
X286035Y322118D01*
X283839Y322707D01*
D02*
G37*
G36*
X631890Y282920D02*
X630490D01*
X629196Y282384D01*
X628206Y281394D01*
X627670Y280100D01*
Y278700D01*
X628206Y277406D01*
X629196Y276416D01*
X630490Y275880D01*
X631890D01*
X633184Y276416D01*
X634174Y277406D01*
X634710Y278700D01*
Y280100D01*
X634174Y281394D01*
X633184Y282384D01*
X631890Y282920D01*
D02*
G37*
G36*
X628080Y268950D02*
X626680D01*
X625386Y268414D01*
X624396Y267424D01*
X623860Y266130D01*
Y264730D01*
X624396Y263436D01*
X625386Y262446D01*
X626680Y261910D01*
X628080D01*
X629374Y262446D01*
X630364Y263436D01*
X630900Y264730D01*
Y266130D01*
X630364Y267424D01*
X629374Y268414D01*
X628080Y268950D01*
D02*
G37*
%LPD*%
G36*
X374132Y475439D02*
X373924Y474937D01*
Y473537D01*
X374132Y473035D01*
X373283Y471765D01*
X368611D01*
X367967Y471637D01*
X367421Y471272D01*
X358949Y462800D01*
X336849D01*
X336536Y463967D01*
X336677Y464168D01*
X337532Y464661D01*
X338755Y465884D01*
X339619Y467380D01*
X340066Y469050D01*
Y470778D01*
X339619Y472448D01*
X338755Y473944D01*
X337532Y475167D01*
X337061Y475439D01*
X337401Y476709D01*
X373283D01*
X374132Y475439D01*
D02*
G37*
G36*
X367140Y464435D02*
X367348Y463933D01*
X368338Y462943D01*
X369632Y462407D01*
X371032D01*
X372326Y462943D01*
X373316Y463933D01*
X373407Y464153D01*
X458458D01*
X556539Y366072D01*
X556410Y365761D01*
Y364361D01*
X556946Y363067D01*
X557936Y362077D01*
X559230Y361541D01*
X560630D01*
X561924Y362077D01*
X562091Y362244D01*
X563336Y361996D01*
X563385Y361879D01*
X564375Y360889D01*
X564627Y360784D01*
X564925Y359286D01*
X556318Y350679D01*
X474153D01*
X464979Y359853D01*
Y393511D01*
X467748Y396280D01*
X469591D01*
X470235Y396408D01*
X470781Y396773D01*
X472953Y398945D01*
X473264Y398816D01*
X474664D01*
X475958Y399352D01*
X476948Y400342D01*
X477484Y401636D01*
Y403036D01*
X476948Y404330D01*
X475958Y405320D01*
X474664Y405856D01*
X473264D01*
X471970Y405320D01*
X470980Y404330D01*
X470444Y403036D01*
Y401636D01*
X470573Y401325D01*
X468894Y399646D01*
X467051D01*
X466407Y399518D01*
X465861Y399153D01*
X462106Y395398D01*
X461741Y394852D01*
X461613Y394208D01*
Y379266D01*
X460343Y378771D01*
X459702Y379412D01*
X458408Y379948D01*
X457008D01*
X455714Y379412D01*
X454724Y378422D01*
X454188Y377128D01*
Y375728D01*
X454724Y374434D01*
X455714Y373444D01*
X456025Y373315D01*
Y360815D01*
X454851Y360329D01*
X449485Y365695D01*
Y373061D01*
X449796Y373190D01*
X450786Y374180D01*
X451322Y375474D01*
Y376874D01*
X450786Y378168D01*
X449796Y379158D01*
X448502Y379694D01*
X447102D01*
X445808Y379158D01*
X444818Y378168D01*
X444282Y376874D01*
Y375474D01*
X444818Y374180D01*
X445808Y373190D01*
X446119Y373061D01*
Y364998D01*
X446247Y364354D01*
X446612Y363808D01*
X465933Y344487D01*
X465447Y343313D01*
X463405D01*
X434727Y371991D01*
Y373321D01*
X435038Y373450D01*
X436028Y374440D01*
X436564Y375734D01*
Y377134D01*
X436028Y378428D01*
X435038Y379418D01*
X433744Y379954D01*
X432344D01*
X431050Y379418D01*
X430179Y378547D01*
X429268Y379458D01*
X427974Y379994D01*
X426574D01*
X426426Y379933D01*
X425414Y380808D01*
Y382208D01*
X424878Y383502D01*
X423888Y384492D01*
X422594Y385028D01*
X421194D01*
X419900Y384492D01*
X418910Y383502D01*
X418374Y382208D01*
Y380808D01*
X418633Y380183D01*
X417556Y379463D01*
X363430Y433589D01*
X362884Y433954D01*
X362240Y434082D01*
X338749D01*
X338223Y435352D01*
X338755Y435884D01*
X339619Y437380D01*
X340066Y439050D01*
Y440778D01*
X339619Y442448D01*
X338755Y443944D01*
X337532Y445167D01*
X336036Y446031D01*
X335872Y446074D01*
X335832Y446139D01*
X335600Y447462D01*
X336232Y448094D01*
X336768Y449388D01*
Y450788D01*
X336727Y450886D01*
X336742Y452156D01*
X337365Y452414D01*
X338036Y452692D01*
X339026Y453682D01*
X339562Y454976D01*
Y456376D01*
X339026Y457670D01*
X338532Y458164D01*
X339058Y459434D01*
X359646D01*
X360290Y459562D01*
X360836Y459927D01*
X365642Y464733D01*
X367140Y464435D01*
D02*
G37*
G36*
X545922Y401184D02*
X545624Y399686D01*
X545122Y399478D01*
X544132Y398488D01*
X543924Y397986D01*
X542426Y397688D01*
X462293Y477821D01*
X462779Y478995D01*
X468111D01*
X545922Y401184D01*
D02*
G37*
%LPC*%
G36*
X406592Y409158D02*
X405192D01*
X403898Y408622D01*
X402908Y407632D01*
X402372Y406338D01*
Y404938D01*
X402908Y403644D01*
X403898Y402654D01*
X405192Y402118D01*
X406592D01*
X407886Y402654D01*
X408876Y403644D01*
X409412Y404938D01*
Y406338D01*
X408876Y407632D01*
X407886Y408622D01*
X406592Y409158D01*
D02*
G37*
G36*
X483046Y408904D02*
X481646D01*
X480352Y408368D01*
X479362Y407378D01*
X478826Y406084D01*
Y404684D01*
X479362Y403390D01*
X480352Y402400D01*
X481646Y401864D01*
X483046D01*
X484340Y402400D01*
X485330Y403390D01*
X485866Y404684D01*
Y406084D01*
X485330Y407378D01*
X484340Y408368D01*
X483046Y408904D01*
D02*
G37*
G36*
X471108Y370296D02*
X469708D01*
X468414Y369760D01*
X467424Y368770D01*
X466888Y367476D01*
Y366076D01*
X467424Y364782D01*
X468414Y363792D01*
X469708Y363256D01*
X471108D01*
X472402Y363792D01*
X473392Y364782D01*
X473928Y366076D01*
Y367476D01*
X473392Y368770D01*
X472402Y369760D01*
X471108Y370296D01*
D02*
G37*
%LPD*%
D14*
X383286Y282702D02*
X392176Y291592D01*
X612948Y335026D02*
X614233Y336311D01*
X459155Y465836D02*
X559930Y365061D01*
X436626Y288036D02*
X482854D01*
X499364Y271526D01*
X432816Y284226D02*
X436626Y288036D01*
X499364Y271526D02*
X575056D01*
X484124Y291592D02*
X501142Y274574D01*
X392176Y291592D02*
X484124D01*
X501142Y274574D02*
X569976D01*
X330852Y480678D02*
X468808D01*
X587085Y356362D02*
Y362401D01*
X545395Y392339D02*
X550785D01*
X377444Y474237D02*
X460264D01*
X544448Y390053D01*
X331799Y478392D02*
X459342D01*
X582547Y360578D02*
Y360578D01*
X468808Y480678D02*
X587085Y362401D01*
X544448Y390053D02*
X549781D01*
X550785Y392339D02*
X582547Y360578D01*
X549781Y390053D02*
X578391Y361443D01*
X459342Y478392D02*
X545395Y392339D01*
X577596Y386334D02*
Y397256D01*
Y386334D02*
X620268Y343662D01*
X447802Y364998D02*
X468884Y343916D01*
X462708Y341630D02*
X603435D01*
X604230Y337058D02*
X606280Y335008D01*
X606212Y328182D02*
Y334940D01*
X430758Y370347D02*
X461761Y339344D01*
X610088D02*
X610251Y339507D01*
X460814Y337058D02*
X604230D01*
X468884Y343916D02*
X602488D01*
X421894Y375978D02*
X460814Y337058D01*
X461761Y339344D02*
X610088D01*
X433044Y371294D02*
X462708Y341630D01*
X603435D02*
X605467Y343662D01*
X602488Y343916D02*
X604520Y345948D01*
X606212Y334940D02*
X606280Y335008D01*
X569849Y355954D02*
X570003Y356108D01*
X469900Y346456D02*
X560351D01*
X570003Y356108D02*
X570230D01*
X457708Y358648D02*
X469900Y346456D01*
X560351D02*
X569849Y355954D01*
X473456Y348996D02*
X557015D01*
X473964Y402336D02*
X474218Y402590D01*
Y403606D01*
X557015Y348996D02*
X568128Y360109D01*
X463296Y359156D02*
X473456Y348996D01*
X604520Y345948D02*
X613664D01*
X605467Y343662D02*
X612270D01*
X614582Y337907D02*
Y341350D01*
X613664Y345948D02*
X617770Y341842D01*
X612270Y343662D02*
X614582Y341350D01*
X617770Y333098D02*
Y341842D01*
X614233Y336311D02*
Y337558D01*
X614582Y337907D01*
X460785Y470082D02*
X566369Y364499D01*
X368611Y470082D02*
X460785D01*
X370423Y465836D02*
X459155D01*
X566369Y363873D02*
Y364499D01*
X569976Y274574D02*
X576834Y281432D01*
X363220Y423164D02*
X504444Y281940D01*
X558292D01*
X506476Y288163D02*
X560959D01*
X362240Y432399D02*
X506476Y288163D01*
X575056Y271526D02*
X581914Y278384D01*
X295910Y462280D02*
X325791Y432399D01*
X427274Y376328D02*
Y376474D01*
X433044Y371294D02*
Y376434D01*
X421894Y375978D02*
Y381508D01*
X430758Y370347D02*
Y372844D01*
X427274Y376328D02*
X430758Y372844D01*
X325791Y432399D02*
X362240D01*
X324017Y459319D02*
X333248Y450088D01*
X335424Y456294D02*
X336042Y455676D01*
X331900Y456294D02*
X335424D01*
X325916Y423164D02*
X363220D01*
X560959Y288163D02*
X561594Y287528D01*
X609600D01*
X326303Y461891D02*
Y472896D01*
X324017Y459319D02*
Y473843D01*
X330852Y480678D01*
X326303Y461891D02*
X331900Y456294D01*
X326303Y472896D02*
X331799Y478392D01*
X359646Y461117D02*
X368611Y470082D01*
X370332Y465927D02*
X370423Y465836D01*
X332953Y461117D02*
X359646D01*
X578391Y356492D02*
Y361443D01*
Y356492D02*
X578775Y356108D01*
X323376Y425704D02*
X325916Y423164D01*
X322580Y425704D02*
X323376D01*
X620268Y328570D02*
Y343662D01*
X610214Y318516D02*
X620268Y328570D01*
X610108Y318516D02*
X610214D01*
X606212Y328182D02*
X610108Y324286D01*
X610367Y330050D02*
X614722D01*
X469591Y397963D02*
X473964Y402336D01*
X463296Y394208D02*
X467051Y397963D01*
X469591D01*
X463296Y359156D02*
Y394208D01*
X447802Y364998D02*
Y376174D01*
X457708Y358648D02*
Y376428D01*
X568128Y360109D02*
X573723D01*
X573786Y360172D01*
X614722Y330050D02*
X617770Y333098D01*
D49*
X282702Y314071D02*
D03*
Y441071D02*
D03*
D52*
X573850Y417830D02*
D03*
X581850D02*
D03*
D57*
X480456Y283464D02*
X494934Y268986D01*
X479806Y283464D02*
X480456D01*
X494934Y268986D02*
X581406D01*
X361950Y428244D02*
X504190Y286004D01*
X560065D01*
X352044Y428244D02*
X361950D01*
X581406Y268986D02*
X586930Y274510D01*
Y281994D01*
X560065Y286004D02*
X564062Y282007D01*
D58*
X369062Y354076D02*
D03*
X668782Y401066D02*
D03*
D59*
X333502Y469914D02*
D03*
Y439914D02*
D03*
D60*
X771525Y476250D02*
D03*
X762000Y457200D02*
D03*
X771525Y438150D02*
D03*
X762000Y419100D02*
D03*
X771525Y361950D02*
D03*
X762000Y342900D02*
D03*
X771525Y323850D02*
D03*
X762000Y304800D02*
D03*
Y266700D02*
D03*
X752475Y476250D02*
D03*
X742950Y457200D02*
D03*
X752475Y438150D02*
D03*
X742950Y419100D02*
D03*
Y381000D02*
D03*
X752475Y361950D02*
D03*
X742950Y342900D02*
D03*
X752475Y323850D02*
D03*
X742950Y266700D02*
D03*
X733425Y476250D02*
D03*
X723900Y457200D02*
D03*
X733425Y438150D02*
D03*
X723900Y419100D02*
D03*
X733425Y400050D02*
D03*
X723900Y381000D02*
D03*
X733425Y361950D02*
D03*
X723900Y342900D02*
D03*
X733425Y323850D02*
D03*
X723900Y266700D02*
D03*
X714375Y476250D02*
D03*
X704850Y457200D02*
D03*
X714375Y438150D02*
D03*
X704850Y419100D02*
D03*
X714375Y400050D02*
D03*
X704850Y381000D02*
D03*
X714375Y361950D02*
D03*
X704850Y342900D02*
D03*
X714375Y323850D02*
D03*
Y285750D02*
D03*
X704850Y266700D02*
D03*
X695325Y476250D02*
D03*
X685800Y457200D02*
D03*
X695325Y438150D02*
D03*
X685800Y419100D02*
D03*
X695325Y400050D02*
D03*
X685800Y381000D02*
D03*
X695325Y361950D02*
D03*
X685800Y342900D02*
D03*
X695325Y323850D02*
D03*
Y285750D02*
D03*
X685800Y266700D02*
D03*
X676275Y476250D02*
D03*
X666750Y457200D02*
D03*
X676275Y438150D02*
D03*
Y361950D02*
D03*
X666750Y342900D02*
D03*
X676275Y323850D02*
D03*
Y285750D02*
D03*
X666750Y266700D02*
D03*
X657225Y476250D02*
D03*
X647700Y457200D02*
D03*
X657225Y438150D02*
D03*
X647700Y419100D02*
D03*
Y381000D02*
D03*
X657225Y361950D02*
D03*
X647700Y342900D02*
D03*
X657225Y323850D02*
D03*
Y285750D02*
D03*
X647700Y266700D02*
D03*
X638175Y476250D02*
D03*
X628650Y457200D02*
D03*
X638175Y438150D02*
D03*
X628650Y419100D02*
D03*
X638175Y400050D02*
D03*
X628650Y381000D02*
D03*
X638175Y361950D02*
D03*
X628650Y342900D02*
D03*
X638175Y285750D02*
D03*
X619125Y476250D02*
D03*
X609600Y457200D02*
D03*
X619125Y438150D02*
D03*
X609600Y419100D02*
D03*
X619125Y400050D02*
D03*
X609600Y381000D02*
D03*
X619125Y361950D02*
D03*
X600075Y476250D02*
D03*
X590550Y457200D02*
D03*
Y419100D02*
D03*
Y381000D02*
D03*
X581025Y476250D02*
D03*
X571500Y457200D02*
D03*
X561975Y476250D02*
D03*
X552450Y457200D02*
D03*
X561975Y438150D02*
D03*
X552450Y419100D02*
D03*
X542925Y476250D02*
D03*
X533400Y457200D02*
D03*
X542925Y438150D02*
D03*
X533400Y381000D02*
D03*
X523875Y476250D02*
D03*
X514350Y457200D02*
D03*
X523875Y438150D02*
D03*
Y361950D02*
D03*
X504825Y476250D02*
D03*
Y400050D02*
D03*
Y361950D02*
D03*
X485775Y476250D02*
D03*
Y400050D02*
D03*
Y323850D02*
D03*
X457200Y457200D02*
D03*
X466725Y438150D02*
D03*
X457200Y419100D02*
D03*
Y304800D02*
D03*
Y266700D02*
D03*
X438150Y457200D02*
D03*
X447675Y438150D02*
D03*
X438150Y419100D02*
D03*
X447675Y400050D02*
D03*
Y323850D02*
D03*
X438150Y304800D02*
D03*
X419100Y457200D02*
D03*
X428625Y438150D02*
D03*
X419100Y342900D02*
D03*
X428625Y323850D02*
D03*
X419100Y304800D02*
D03*
X400050Y457200D02*
D03*
X409575Y438150D02*
D03*
Y400050D02*
D03*
Y361950D02*
D03*
X400050Y342900D02*
D03*
X409575Y323850D02*
D03*
X400050Y304800D02*
D03*
X409575Y285750D02*
D03*
X400050Y266700D02*
D03*
X381000Y457200D02*
D03*
X390525Y438150D02*
D03*
X381000Y381000D02*
D03*
X390525Y361950D02*
D03*
Y323850D02*
D03*
X381000Y304800D02*
D03*
X371475Y438150D02*
D03*
Y400050D02*
D03*
X361950Y381000D02*
D03*
X371475Y323850D02*
D03*
Y285750D02*
D03*
X361950Y266700D02*
D03*
X352425Y400050D02*
D03*
X342900Y381000D02*
D03*
Y342900D02*
D03*
X352425Y285750D02*
D03*
X342900Y266700D02*
D03*
X323850Y419100D02*
D03*
X333375Y400050D02*
D03*
X323850Y381000D02*
D03*
X333375Y361950D02*
D03*
X323850Y342900D02*
D03*
X333375Y285750D02*
D03*
X323850Y266700D02*
D03*
X304800Y419100D02*
D03*
X314325Y400050D02*
D03*
X304800Y381000D02*
D03*
X314325Y361950D02*
D03*
X304800Y342900D02*
D03*
X314325Y285750D02*
D03*
X304800Y266700D02*
D03*
X285750Y457200D02*
D03*
X295275Y438150D02*
D03*
X285750Y419100D02*
D03*
X295275Y400050D02*
D03*
X285750Y381000D02*
D03*
X295275Y361950D02*
D03*
X285750Y342900D02*
D03*
X295275Y285750D02*
D03*
X285750Y266700D02*
D03*
X276225Y476250D02*
D03*
X266700Y457200D02*
D03*
Y419100D02*
D03*
X276225Y400050D02*
D03*
X266700Y381000D02*
D03*
X276225Y361950D02*
D03*
X266700Y342900D02*
D03*
Y304800D02*
D03*
X276225Y285750D02*
D03*
X266700Y266700D02*
D03*
X717296Y316230D02*
D03*
X707390Y300990D02*
D03*
X642792Y316194D02*
D03*
X653796Y316230D02*
D03*
X676656D02*
D03*
X707136D02*
D03*
X696468D02*
D03*
X686816D02*
D03*
X647954Y300990D02*
D03*
X639826D02*
D03*
X717296D02*
D03*
X687070D02*
D03*
X697230D02*
D03*
X656082D02*
D03*
X666242D02*
D03*
X664210Y325882D02*
D03*
X676656Y300990D02*
D03*
X559930Y365061D02*
D03*
X479806Y283464D02*
D03*
X547116Y396494D02*
D03*
X608584Y396748D02*
D03*
X432816Y284226D02*
D03*
X383286Y284480D02*
D03*
X627380Y265430D02*
D03*
X577596Y397256D02*
D03*
X297434Y474980D02*
D03*
X521621Y332903D02*
D03*
X482346Y405384D02*
D03*
X470408Y366776D02*
D03*
X405892Y405638D02*
D03*
X355346Y328422D02*
D03*
X349504Y329946D02*
D03*
X518922Y314960D02*
D03*
Y321310D02*
D03*
X594360Y438658D02*
D03*
X576834Y281432D02*
D03*
X581914Y278384D02*
D03*
X295910Y462280D02*
D03*
X433044Y376434D02*
D03*
X427274Y376474D02*
D03*
X333248Y450088D02*
D03*
X336042Y455676D02*
D03*
X558292Y281940D02*
D03*
X370332Y465927D02*
D03*
X377444Y474237D02*
D03*
X332953Y461117D02*
D03*
X352044Y428244D02*
D03*
X322580Y425704D02*
D03*
X609600Y287528D02*
D03*
X564062Y282007D02*
D03*
X586930Y281994D02*
D03*
X610367Y330050D02*
D03*
X610108Y318516D02*
D03*
X566369Y363873D02*
D03*
X569849Y355954D02*
D03*
X578775Y356108D02*
D03*
X587085Y356362D02*
D03*
X610251Y339507D02*
D03*
X457708Y376428D02*
D03*
X473964Y402336D02*
D03*
X447802Y376174D02*
D03*
X421894Y381508D02*
D03*
X582547Y360578D02*
D03*
X573786Y360172D02*
D03*
X613615Y334819D02*
D03*
X610108Y324286D02*
D03*
X640080Y328930D02*
D03*
X631190Y279400D02*
D03*
M02*
