G04*
G04 #@! TF.GenerationSoftware,Altium Limited,Altium Designer,22.8.2 (66)*
G04*
G04 Layer_Color=255*
%FSLAX44Y44*%
%MOMM*%
G71*
G04*
G04 #@! TF.SameCoordinates,468F8AB8-D0D1-42F9-A28A-8A06B6F8ABAF*
G04*
G04*
G04 #@! TF.FilePolarity,Positive*
G04*
G01*
G75*
%ADD17R,0.9000X1.0000*%
%ADD18R,0.6000X0.6400*%
%ADD19C,0.3500*%
%ADD20R,1.0000X0.9000*%
%ADD21R,0.9000X0.8000*%
%ADD22R,0.6400X0.6000*%
%ADD23R,0.5500X0.5400*%
%ADD24R,0.5400X0.5500*%
%ADD25R,0.4800X0.5400*%
%ADD26R,0.6000X0.7500*%
%ADD27R,0.7500X0.6000*%
G04:AMPARAMS|DCode=28|XSize=0.5mm|YSize=0.25mm|CornerRadius=0.125mm|HoleSize=0mm|Usage=FLASHONLY|Rotation=270.000|XOffset=0mm|YOffset=0mm|HoleType=Round|Shape=RoundedRectangle|*
%AMROUNDEDRECTD28*
21,1,0.5000,0.0000,0,0,270.0*
21,1,0.2500,0.2500,0,0,270.0*
1,1,0.2500,0.0000,-0.1250*
1,1,0.2500,0.0000,0.1250*
1,1,0.2500,0.0000,0.1250*
1,1,0.2500,0.0000,-0.1250*
%
%ADD28ROUNDEDRECTD28*%
%ADD29R,1.5000X1.2000*%
%ADD31R,0.8600X0.2200*%
%ADD32R,0.2200X0.8600*%
G04:AMPARAMS|DCode=33|XSize=0.6mm|YSize=0.25mm|CornerRadius=0.05mm|HoleSize=0mm|Usage=FLASHONLY|Rotation=0.000|XOffset=0mm|YOffset=0mm|HoleType=Round|Shape=RoundedRectangle|*
%AMROUNDEDRECTD33*
21,1,0.6000,0.1500,0,0,0.0*
21,1,0.5000,0.2500,0,0,0.0*
1,1,0.1000,0.2500,-0.0750*
1,1,0.1000,-0.2500,-0.0750*
1,1,0.1000,-0.2500,0.0750*
1,1,0.1000,0.2500,0.0750*
%
%ADD33ROUNDEDRECTD33*%
%ADD34R,1.6000X0.6500*%
%ADD35R,2.4000X0.5600*%
%ADD46R,1.3500X0.6500*%
%ADD47R,4.4500X4.4500*%
%ADD49C,1.5240*%
%ADD58C,3.4544*%
%ADD59C,0.8128*%
D17*
X461156Y353060D02*
D03*
X447656D02*
D03*
X325228Y331216D02*
D03*
X338728D02*
D03*
D18*
X585832Y439364D02*
D03*
X577032D02*
D03*
X485820Y361442D02*
D03*
X494620D02*
D03*
X462870Y367030D02*
D03*
X454070D02*
D03*
X547960Y363220D02*
D03*
X539160D02*
D03*
X514940Y304800D02*
D03*
X506140D02*
D03*
D19*
X467772Y387266D02*
D03*
Y392266D02*
D03*
Y397266D02*
D03*
Y402266D02*
D03*
Y407266D02*
D03*
Y412266D02*
D03*
Y417266D02*
D03*
Y422266D02*
D03*
X462772Y382266D02*
D03*
Y387266D02*
D03*
Y392266D02*
D03*
Y402266D02*
D03*
Y407266D02*
D03*
Y412266D02*
D03*
Y417266D02*
D03*
Y422266D02*
D03*
Y427266D02*
D03*
X457772Y382266D02*
D03*
Y387266D02*
D03*
Y427266D02*
D03*
X452772Y382266D02*
D03*
Y427266D02*
D03*
X447772Y382266D02*
D03*
Y387266D02*
D03*
Y427266D02*
D03*
X442772Y382266D02*
D03*
Y387266D02*
D03*
Y427266D02*
D03*
X437772Y382266D02*
D03*
Y427266D02*
D03*
X432772Y382266D02*
D03*
Y387266D02*
D03*
Y427266D02*
D03*
X427772Y382266D02*
D03*
Y387266D02*
D03*
Y392266D02*
D03*
Y402266D02*
D03*
Y407266D02*
D03*
Y412266D02*
D03*
Y417266D02*
D03*
Y422266D02*
D03*
Y427266D02*
D03*
X422772Y387266D02*
D03*
Y392266D02*
D03*
Y397266D02*
D03*
Y402266D02*
D03*
Y407266D02*
D03*
Y412266D02*
D03*
Y417266D02*
D03*
Y422266D02*
D03*
D20*
X392176Y416414D02*
D03*
Y429914D02*
D03*
X310642Y320440D02*
D03*
Y306940D02*
D03*
X507238Y332778D02*
D03*
Y319278D02*
D03*
D21*
X483870Y386080D02*
D03*
X497870D02*
D03*
Y375080D02*
D03*
X483870D02*
D03*
X590916Y272962D02*
D03*
X604916D02*
D03*
Y261962D02*
D03*
X590916D02*
D03*
D22*
X511302Y385400D02*
D03*
Y376600D02*
D03*
X631190Y335870D02*
D03*
Y327070D02*
D03*
X618490Y328250D02*
D03*
Y319450D02*
D03*
X528320Y299810D02*
D03*
Y308610D02*
D03*
X494792Y413086D02*
D03*
Y404286D02*
D03*
X482600Y413430D02*
D03*
Y422230D02*
D03*
X406146Y414700D02*
D03*
Y423500D02*
D03*
X631190Y287700D02*
D03*
Y296500D02*
D03*
X618490Y291510D02*
D03*
Y300310D02*
D03*
X528320Y341040D02*
D03*
Y349840D02*
D03*
Y320720D02*
D03*
Y329520D02*
D03*
D23*
X697050Y308610D02*
D03*
X704850D02*
D03*
D24*
X664210Y316320D02*
D03*
Y308520D02*
D03*
X631190Y316410D02*
D03*
Y308610D02*
D03*
D25*
X685120D02*
D03*
X676320D02*
D03*
X652100D02*
D03*
X643300D02*
D03*
D26*
X480060Y273974D02*
D03*
Y262474D02*
D03*
X369570Y262728D02*
D03*
Y274228D02*
D03*
X419100Y262728D02*
D03*
Y274228D02*
D03*
X383540Y262728D02*
D03*
Y274228D02*
D03*
X466090Y262474D02*
D03*
Y273974D02*
D03*
X433070Y262728D02*
D03*
Y274228D02*
D03*
X618490Y266030D02*
D03*
Y277530D02*
D03*
D27*
X587086Y396494D02*
D03*
X598586D02*
D03*
X568360D02*
D03*
X556860D02*
D03*
D28*
X584350Y408330D02*
D03*
X577850D02*
D03*
X571350D02*
D03*
Y427330D02*
D03*
X577850D02*
D03*
X584350D02*
D03*
D29*
X731520Y287020D02*
D03*
Y309020D02*
D03*
X768820Y287020D02*
D03*
Y394020D02*
D03*
D31*
X543580Y296910D02*
D03*
Y300910D02*
D03*
Y304910D02*
D03*
Y308910D02*
D03*
Y312910D02*
D03*
Y316910D02*
D03*
Y320910D02*
D03*
Y324910D02*
D03*
Y328910D02*
D03*
Y332910D02*
D03*
Y336910D02*
D03*
Y340910D02*
D03*
X602280D02*
D03*
Y336910D02*
D03*
Y332910D02*
D03*
Y328910D02*
D03*
Y324910D02*
D03*
Y320910D02*
D03*
Y316910D02*
D03*
Y312910D02*
D03*
Y308910D02*
D03*
Y304910D02*
D03*
Y300910D02*
D03*
Y296910D02*
D03*
D32*
X550930Y348260D02*
D03*
X554930D02*
D03*
X558930D02*
D03*
X562930D02*
D03*
X566930D02*
D03*
X570930D02*
D03*
X574930D02*
D03*
X578930D02*
D03*
X582930D02*
D03*
X586930D02*
D03*
X590930D02*
D03*
X594930D02*
D03*
Y289560D02*
D03*
X590930D02*
D03*
X586930D02*
D03*
X582930D02*
D03*
X578930D02*
D03*
X574930D02*
D03*
X570930D02*
D03*
X566930D02*
D03*
X562930D02*
D03*
X558930D02*
D03*
X554930D02*
D03*
X550930D02*
D03*
D33*
X338478Y317380D02*
D03*
Y312380D02*
D03*
Y307380D02*
D03*
Y302380D02*
D03*
X325478D02*
D03*
Y307380D02*
D03*
Y312380D02*
D03*
Y317380D02*
D03*
D34*
X356108Y305670D02*
D03*
Y319170D02*
D03*
D35*
X352552Y475234D02*
D03*
Y465074D02*
D03*
Y454914D02*
D03*
Y444754D02*
D03*
Y434594D02*
D03*
X314452Y475234D02*
D03*
Y465074D02*
D03*
Y454914D02*
D03*
Y444754D02*
D03*
Y434594D02*
D03*
D46*
X577850Y417830D02*
D03*
D47*
X572930Y318910D02*
D03*
D49*
X282702Y314071D02*
D03*
Y441071D02*
D03*
D58*
X369062Y354076D02*
D03*
X668782Y401066D02*
D03*
D59*
X333502Y469914D02*
D03*
Y439914D02*
D03*
M02*
