G04*
G04 #@! TF.GenerationSoftware,Altium Limited,Altium Designer,22.8.2 (66)*
G04*
G04 Layer_Color=16711935*
%FSLAX44Y44*%
%MOMM*%
G71*
G04*
G04 #@! TF.SameCoordinates,468F8AB8-D0D1-42F9-A28A-8A06B6F8ABAF*
G04*
G04*
G04 #@! TF.FilePolarity,Positive*
G04*
G01*
G75*
%ADD10C,0.5080*%
%ADD12C,0.2000*%
%ADD14C,0.1270*%
%ADD61C,0.1000*%
%ADD62C,0.0254*%
D10*
X305562Y314071D02*
G03*
X305562Y314071I-3810J0D01*
G01*
X300262Y434914D02*
G03*
X300262Y434914I-3810J0D01*
G01*
D12*
X413273Y426266D02*
G03*
X413273Y426266I-1000J0D01*
G01*
D14*
X417472Y376966D02*
X473073D01*
Y432566D01*
X417472D02*
X473073D01*
X417472Y376966D02*
Y432566D01*
D61*
X445656Y348310D02*
X463156D01*
X445656Y357810D02*
X463156D01*
Y348310D02*
Y357810D01*
X445656Y348310D02*
Y357810D01*
X576282Y436764D02*
X586582D01*
X576282Y441964D02*
X586582D01*
Y436764D02*
Y441964D01*
X576282Y436764D02*
Y441964D01*
X387426Y414414D02*
X396926D01*
X387426Y431914D02*
X396926D01*
X387426Y414414D02*
Y431914D01*
X396926Y414414D02*
Y431914D01*
X513902Y375850D02*
Y386150D01*
X508702Y375850D02*
Y386150D01*
X513902D01*
X508702Y375850D02*
X513902D01*
X485070Y364042D02*
X495370D01*
X485070Y358842D02*
X495370D01*
X485070D02*
Y364042D01*
X495370Y358842D02*
Y364042D01*
X695800Y311210D02*
X706100D01*
X695800Y306010D02*
X706100D01*
X695800D02*
Y311210D01*
X706100Y306010D02*
Y311210D01*
X661610Y317570D02*
X666810D01*
X661610Y307270D02*
X666810D01*
Y317570D01*
X661610Y307270D02*
Y317570D01*
X686220Y305610D02*
Y311610D01*
X675220Y305610D02*
Y311610D01*
Y305610D02*
X686220D01*
X675220Y311610D02*
X686220D01*
X653200Y305610D02*
Y311610D01*
X642200Y305610D02*
Y311610D01*
Y305610D02*
X653200D01*
X642200Y311610D02*
X653200D01*
X628590Y317660D02*
X633790D01*
X628590Y307360D02*
X633790D01*
Y317660D01*
X628590Y307360D02*
Y317660D01*
Y336620D02*
X633790D01*
X628590Y326320D02*
X633790D01*
Y336620D01*
X628590Y326320D02*
Y336620D01*
X482810Y262974D02*
Y273474D01*
X477310Y262974D02*
Y273474D01*
X482810D01*
X477310Y262974D02*
X482810D01*
X587586Y393744D02*
Y399244D01*
X598086Y393744D02*
Y399244D01*
X587586D02*
X598086D01*
X587586Y393744D02*
X598086D01*
X567860Y393744D02*
Y399244D01*
X557360Y393744D02*
Y399244D01*
Y393744D02*
X567860D01*
X557360Y399244D02*
X567860D01*
X615890Y329000D02*
X621090D01*
X615890Y318700D02*
X621090D01*
Y329000D01*
X615890Y318700D02*
Y329000D01*
X323228Y326466D02*
Y335966D01*
X340728Y326466D02*
Y335966D01*
X323228D02*
X340728D01*
X323228Y326466D02*
X340728D01*
X305892Y322440D02*
X315392D01*
X305892Y304940D02*
X315392D01*
Y322440D01*
X305892Y304940D02*
Y322440D01*
X347218Y301420D02*
X365108D01*
X347218Y323420D02*
X365108D01*
X347218Y301420D02*
Y323420D01*
X365108Y301420D02*
Y323420D01*
X525720Y299060D02*
X530920D01*
X525720Y309360D02*
X530920D01*
X525720Y299060D02*
Y309360D01*
X530920Y299060D02*
Y309360D01*
X497392Y403536D02*
Y413836D01*
X492192Y403536D02*
Y413836D01*
X497392D01*
X492192Y403536D02*
X497392D01*
X480000Y412680D02*
Y422980D01*
X485200Y412680D02*
Y422980D01*
X480000Y412680D02*
X485200D01*
X480000Y422980D02*
X485200D01*
X403546Y413950D02*
Y424250D01*
X408746Y413950D02*
Y424250D01*
X403546Y413950D02*
X408746D01*
X403546Y424250D02*
X408746D01*
X453320Y364430D02*
X463620D01*
X453320Y369630D02*
X463620D01*
Y364430D02*
Y369630D01*
X453320Y364430D02*
Y369630D01*
X366820Y263228D02*
X372320D01*
X366820Y273728D02*
X372320D01*
X366820Y263228D02*
Y273728D01*
X372320Y263228D02*
Y273728D01*
X416350Y263228D02*
X421850D01*
X416350Y273728D02*
X421850D01*
X416350Y263228D02*
Y273728D01*
X421850Y263228D02*
Y273728D01*
X380790Y263228D02*
X386290D01*
X380790Y273728D02*
X386290D01*
X380790Y263228D02*
Y273728D01*
X386290Y263228D02*
Y273728D01*
X463340Y262974D02*
X468840D01*
X463340Y273474D02*
X468840D01*
X463340Y262974D02*
Y273474D01*
X468840Y262974D02*
Y273474D01*
X430320Y263228D02*
X435820D01*
X430320Y273728D02*
X435820D01*
X430320Y263228D02*
Y273728D01*
X435820Y263228D02*
Y273728D01*
X615740Y266530D02*
X621240D01*
X615740Y277030D02*
X621240D01*
X615740Y266530D02*
Y277030D01*
X621240Y266530D02*
Y277030D01*
X538410Y360620D02*
X548710D01*
X538410Y365820D02*
X548710D01*
Y360620D02*
Y365820D01*
X538410Y360620D02*
Y365820D01*
X628590Y286950D02*
Y297250D01*
X633790Y286950D02*
Y297250D01*
X628590Y286950D02*
X633790D01*
X628590Y297250D02*
X633790D01*
X615890Y290760D02*
Y301060D01*
X621090Y290760D02*
Y301060D01*
X615890Y290760D02*
X621090D01*
X615890Y301060D02*
X621090D01*
X502488Y334778D02*
X511988D01*
X502488Y317278D02*
X511988D01*
Y334778D01*
X502488Y317278D02*
Y334778D01*
X505390Y302200D02*
X515690D01*
X505390Y307400D02*
X515690D01*
Y302200D02*
Y307400D01*
X505390Y302200D02*
Y307400D01*
X525720Y340290D02*
Y350590D01*
X530920Y340290D02*
Y350590D01*
X525720Y340290D02*
X530920D01*
X525720Y350590D02*
X530920D01*
X525720Y319970D02*
Y330270D01*
X530920Y319970D02*
Y330270D01*
X525720Y319970D02*
X530920D01*
X525720Y330270D02*
X530920D01*
D62*
X256794Y254635D02*
Y500507D01*
X786638D01*
Y254635D02*
Y500507D01*
X256794Y254635D02*
X786638D01*
X542930Y288910D02*
X602930D01*
X542930D02*
Y348910D01*
X602930D01*
Y288910D02*
Y348910D01*
X542930Y301610D02*
X555630Y288910D01*
X316738Y428371D02*
X350266D01*
X316738D02*
Y481457D01*
X350266D01*
Y428371D02*
Y481457D01*
M02*
